<svg id="Group_729" data-name="Group 729" xmlns="http://www.w3.org/2000/svg" xmlns:xlink="http://www.w3.org/1999/xlink" width="312.584" height="508.565" viewBox="0 0 312.584 508.565">
  <defs>
    <clipPath id="clip-path">
      <rect id="Rectangle_221" data-name="Rectangle 221" width="312.584" height="508.565" fill="none"/>
    </clipPath>
    <clipPath id="clip-path-3">
      <rect id="Rectangle_206" data-name="Rectangle 206" width="8.949" height="7.368" fill="none"/>
    </clipPath>
    <clipPath id="clip-path-4">
      <rect id="Rectangle_207" data-name="Rectangle 207" width="6.431" height="6.413" fill="none"/>
    </clipPath>
    <clipPath id="clip-path-5">
      <rect id="Rectangle_208" data-name="Rectangle 208" width="8.579" height="7.795" fill="none"/>
    </clipPath>
    <clipPath id="clip-path-6">
      <rect id="Rectangle_209" data-name="Rectangle 209" width="5.76" height="5.253" fill="none"/>
    </clipPath>
    <clipPath id="clip-path-7">
      <rect id="Rectangle_210" data-name="Rectangle 210" width="5.729" height="5.249" fill="none"/>
    </clipPath>
    <clipPath id="clip-path-8">
      <rect id="Rectangle_211" data-name="Rectangle 211" width="5.762" height="5.252" fill="none"/>
    </clipPath>
    <clipPath id="clip-path-9">
      <rect id="Rectangle_212" data-name="Rectangle 212" width="5.729" height="5.247" fill="none"/>
    </clipPath>
    <clipPath id="clip-path-10">
      <rect id="Rectangle_213" data-name="Rectangle 213" width="6.517" height="5.935" fill="none"/>
    </clipPath>
    <clipPath id="clip-path-11">
      <rect id="Rectangle_214" data-name="Rectangle 214" width="5.403" height="5.615" fill="none"/>
    </clipPath>
    <clipPath id="clip-path-12">
      <rect id="Rectangle_215" data-name="Rectangle 215" width="4.61" height="4.248" fill="none"/>
    </clipPath>
    <clipPath id="clip-path-13">
      <rect id="Rectangle_216" data-name="Rectangle 216" width="4.95" height="4.565" fill="none"/>
    </clipPath>
    <clipPath id="clip-path-14">
      <rect id="Rectangle_217" data-name="Rectangle 217" width="3.925" height="4.545" fill="none"/>
    </clipPath>
    <clipPath id="clip-path-15">
      <rect id="Rectangle_218" data-name="Rectangle 218" width="5.733" height="5.247" fill="none"/>
    </clipPath>
    <clipPath id="clip-path-16">
      <rect id="Rectangle_219" data-name="Rectangle 219" width="5.757" height="5.253" fill="none"/>
    </clipPath>
  </defs>
  <g id="Group_650" data-name="Group 650" clip-path="url(#clip-path)">
    <g id="Group_649" data-name="Group 649">
      <g id="Group_648" data-name="Group 648" clip-path="url(#clip-path)">
        <path id="Path_1078" data-name="Path 1078" d="M581.275,1871.509a4.983,4.983,0,0,1-4.005-2c-4.129-5.461-24.71-33.262-26.3-44.429-1.686-11.8,15.337-36.936,18.782-41.849a5.014,5.014,0,0,1,8.222,5.739c-8.795,12.6-17.826,29.457-17.077,34.7.9,6.324,14.8,27.087,24.385,39.81a5.013,5.013,0,0,1-4.005,8.033" transform="translate(-437.421 -1414.339)" fill="#ffeab9"/>
        <path id="Path_1079" data-name="Path 1079" d="M577.841,1868.97a5.848,5.848,0,0,1-4.72-2.36c-4.129-5.486-24.844-33.451-26.473-44.828-1.734-12.141,15.473-37.516,18.934-42.471a5.9,5.9,0,1,1,9.674,6.754c-8.729,12.493-17.618,29.181-16.922,34.053.873,6.1,14.964,27.134,24.214,39.4a5.9,5.9,0,0,1-4.72,9.437Zm-7.4-90.425a4.132,4.132,0,0,0-3.4,1.769c-3.4,4.866-20.275,29.734-18.634,41.219,1.569,10.955,22.044,38.589,26.131,44.021a4.13,4.13,0,0,0,6.6-4.967c-8.978-11.921-23.594-33.38-24.556-40.222-.867-6.087,9.557-24.319,17.229-35.327a4.129,4.129,0,0,0-3.373-6.489Z" transform="translate(-433.986 -1410.915)" fill="#431426"/>
        <path id="Path_1080" data-name="Path 1080" d="M910.9,1881.865a5.278,5.278,0,0,1-.974-.235c-39.213-13.7-66.938-68.655-68.1-70.99a5.013,5.013,0,0,1,8.96-4.47c.266.535,27.08,53.677,62.43,65.993a5.013,5.013,0,0,1-2.358,9.7Z" transform="translate(-668.149 -1432.228)" fill="#ffeab9"/>
        <path id="Path_1081" data-name="Path 1081" d="M907.514,1877.979a5.177,5.177,0,0,1-.8-.06,5.9,5.9,0,0,1-1.143-.276c-39.545-13.8-67.434-69.079-68.6-71.439a5.9,5.9,0,1,1,10.559-5.255c.264.531,26.951,53.335,61.934,65.546a5.907,5.907,0,0,1-1.952,11.484m-65.268-78.523a4.129,4.129,0,0,0-3.692,5.97c1.18,2.319,28.732,56.976,67.6,70.548a3.715,3.715,0,0,0,.8.193,4.128,4.128,0,0,0,4.277-5.9,4.1,4.1,0,0,0-2.36-2.1c-35.646-12.417-62.661-65.882-62.927-66.423a4.123,4.123,0,0,0-3.7-2.29" transform="translate(-664.085 -1427.409)" fill="#431426"/>
        <path id="Path_1082" data-name="Path 1082" d="M619.765,2155.133c.029.354-.649,1.446-1.923,3.009-.206.255-.43.519-.667.8-.36.418-.754.867-1.18,1.332l-.519.556c-.424.453-.879.931-1.361,1.421l-.521.519-.83.813q-.726.71-1.524,1.452c-1.044.962-2.164,1.965-3.367,2.949a88.546,88.546,0,0,1-15.72,10.683c-.638.332-1.275.655-1.923.968s-1.233.589-1.857.867a55.166,55.166,0,0,1-10.341,3.492c-12.3,2.755-20.149,2.1-21.784-.819l-.124-.231a6.492,6.492,0,0,1-.282-.591l-.161-.342c-.1-.241-.218-.507-.336-.791l-.158-.393c-.26-.667-.537-1.429-.8-2.278-.235-.743-.459-1.552-.671-2.419l-.161-.7c-.13-.589-.247-1.143-.354-1.769-.051-.307-.1-.589-.146-.92s-.095-.589-.13-.937l-.072-.661c0-.206-.041-.414-.058-.626-.035-.436-.066-.873-.082-1.32v-.667c0-.784,0-1.588.041-2.395a28.305,28.305,0,0,1,.329-2.949c3.074-18.374,17.973-22.641,17.973-22.641a30.565,30.565,0,0,1-8.846-2.642l-.591-.329c-.206-.119-.4-.237-.589-.36a11.129,11.129,0,0,1-1.376-1,6.047,6.047,0,0,1-2.36-5.568c.043-.284.1-.579.177-.885a6.129,6.129,0,0,1,.2-.589c.076-.183.111-.295.177-.437s.146-.284.224-.42a2.045,2.045,0,0,1,.13-.2,6.476,6.476,0,0,1,.443-.589c.052-.06.1-.125.165-.183l.177-.183c1.728-1.728,4.553-2.854,6.8-3.54l.231-.064a30.2,30.2,0,0,1,3.214-.768h.047c.591-.2,7.038-2.183,12.347-.671l.507.152a10.672,10.672,0,0,1,1.468.591l-.3-.42v-.035l-4.129-5.78a14.8,14.8,0,0,1,14.056-2.584c4.431,1.376,2.436,7.776,2.436,7.776s.36.336.992.943l.253.241.949.927.282.284c.7.7,1.534,1.522,2.448,2.465l.708.731.737.774c.49.513.99,1.048,1.5,1.6.266.282.535.589.8.873,1.334,1.45,2.72,3.019,4.094,4.66.348.412.7.836,1.044,1.262l.06.07c.183.218.367.449.542.673,1.328,1.645,2.613,3.338,3.793,5.037.218.307.426.589.632.927s.472.7.7,1.054.418.655.62.986l.041.064q.608.992,1.139,1.964c.111.2.212.389.317.591.237.447.455.89.661,1.332.095.189.183.383.266.591s.224.519.329.772.136.342.2.513.152.4.218.589.136.4.194.591.119.389.171.589.107.414.154.591c.082.365.146.719.2,1.073a4.689,4.689,0,0,1,.066.554" transform="translate(-438.897 -1678.115)" fill="#0bbfa4"/>
        <path id="Path_1083" data-name="Path 1083" d="M561.163,2183.412c-4.833,0-8.064-1.015-9.19-3.025-.047-.095-.078-.155-.119-.225-.105-.2-.212-.4-.317-.638-.047-.105-.095-.206-.148-.311-.124-.291-.241-.591-.36-.851-.058-.142-.111-.272-.165-.412-.319-.815-.589-1.575-.826-2.36s-.5-1.664-.69-2.477c-.117-.484-.231-1-.336-1.518-.066-.317-.13-.649-.183-.978s-.113-.636-.154-.955-.1-.626-.136-.955l-.07-.667c0-.206-.041-.424-.06-.643-.035-.455-.07-.9-.089-1.363v-.677c0-.857,0-1.689.047-2.5a29.577,29.577,0,0,1,.338-3.043c2.3-13.743,11.206-19.867,15.79-22.167a27.668,27.668,0,0,1-6.182-2.183c-.218-.105-.43-.224-.642-.342l-.638-.383a13.692,13.692,0,0,1-1.474-1.075,6.956,6.956,0,0,1-2.448-7.366c.054-.214.126-.437.2-.667a4.839,4.839,0,0,1,.231-.544c.076-.152.159-.311.247-.459a2.3,2.3,0,0,1,.183-.284,6.807,6.807,0,0,1,.484-.636l.058-.064a1.988,1.988,0,0,1,.154-.173l.177-.175a17.078,17.078,0,0,1,7.172-3.764l.224-.06a32.228,32.228,0,0,1,3.291-.791h.154c.931-.14,4.129-.589,7.419-.766h.113a31.9,31.9,0,0,1,4.718.07l-3-4.028a.887.887,0,0,1,.1-1.18,15.575,15.575,0,0,1,14.989-2.832,4.562,4.562,0,0,1,2.807,2.294c1.1,2.106.632,4.878.354,6.042l.591.589.247.231.962.943.288.29c.708.7,1.54,1.526,2.461,2.477l.706.725.484.506.367.389,1.4,1.493c.276.295.548.591.82.892,1.421,1.544,2.807,3.12,4.129,4.677.373.443.714.85,1.05,1.268l.089.1.525.655c1.415,1.769,2.7,3.468,3.822,5.078.177.247.348.5.519.762l.124.177c.243.348.478.712.708,1.079s.42.655.626.99l.035.06c.4.649.791,1.326,1.18,2.012.07.117.142.259.218.393l.1.19c.247.471.471.933.684,1.386.095.177.189.389.278.591s.187.43.276.648l.06.136.212.541c.082.224.165.43.231.643s.136.4.2.591.117.389.171.589.117.449.165.673a10.912,10.912,0,0,1,.218,1.151c0,.165.047.352.066.535v.054c0,.307.076.949-2.129,3.634-.208.253-.426.519-.667.795-.36.42-.756.873-1.18,1.351l-.142.154-.329.354a.57.57,0,0,1-.047.051c-.43.468-.892.951-1.386,1.439l-.519.519c-.272.278-.556.556-.844.826-.484.474-1,.962-1.528,1.464l-.07.053c-1.221,1.126-2.284,2.063-3.338,2.949a90.037,90.037,0,0,1-15.88,10.788c-.649.335-1.291.667-1.952.98s-1.25.589-1.882.877a55.391,55.391,0,0,1-10.506,3.54,64.194,64.194,0,0,1-13.63,1.835m4.718-62.974h-.058a28.642,28.642,0,0,0-3.109.743l-.224.06a15.519,15.519,0,0,0-6.435,3.315l-.148.152-.1.113-.06.064a5.319,5.319,0,0,0-.367.49c-.035.047-.068.1-.1.146-.066.119-.136.243-.2.373a3.532,3.532,0,0,0-.142.342c-.058.171-.117.36-.165.537a5.743,5.743,0,0,0-.152.766,5.1,5.1,0,0,0,2.047,4.79,11.183,11.183,0,0,0,1.268.927l.589.342.591.313a29.929,29.929,0,0,0,8.539,2.547.888.888,0,0,1,.774.809.883.883,0,0,1-.638.92c-.589.171-14.4,4.359-17.347,21.937a27.129,27.129,0,0,0-.319,2.854c-.047.756-.06,1.54-.041,2.325v.661c0,.447.047.873.082,1.3a4.638,4.638,0,0,0,.053.589l.07.667c.035.3.082.591.13.9s.089.589.142.9.117.624.177.931c.1.5.206.986.323,1.445.183.791.408,1.582.655,2.36s.484,1.452.785,2.224l.154.377c.111.271.224.531.329.774l.154.335c.089.188.177.361.253.513s.095.171.136.253c1.231,2.2,8.152,3.186,20.8.354a53.946,53.946,0,0,0,10.177-3.439c.589-.272,1.225-.554,1.829-.854s1.279-.632,1.9-.956A88.013,88.013,0,0,0,603.8,2164.06c1.05-.879,2.113-1.819,3.34-2.951l.058-.053,1.452-1.38.82-.807.519-.519c.461-.455.885-.91,1.293-1.34l.064-.07.36-.383.148-.161c.418-.453.8-.9,1.149-1.308.243-.272.455-.531.655-.78l.029-.035a10.839,10.839,0,0,0,1.7-2.436,1.047,1.047,0,0,0-.047-.377,9.333,9.333,0,0,0-.187-1.009c-.041-.2-.089-.389-.142-.589s-.1-.373-.159-.55-.124-.389-.189-.589-.136-.383-.206-.591-.13-.342-.2-.506l-.058-.136c-.082-.2-.171-.4-.259-.589s-.167-.366-.255-.544c-.212-.449-.424-.879-.649-1.316l-.105-.193c-.066-.119-.13-.243-.2-.36-.364-.677-.743-1.328-1.12-1.94l-.047-.072c-.193-.323-.4-.643-.589-.968s-.443-.69-.68-1.025l-.13-.2c-.161-.243-.325-.484-.494-.725-1.1-1.586-2.36-3.268-3.758-5l-.537-.661-.089-.107c-.313-.383-.649-.789-.991-1.178-1.3-1.559-2.673-3.115-4.087-4.66-.272-.3-.531-.591-.785-.85-.49-.531-.956-1.021-1.4-1.5l-.365-.389-.467-.484-.706-.731c-.914-.943-1.771-1.769-2.438-2.452l-.288-.291-.931-.914-.249-.229c-.63-.591-.99-.945-.99-.945a.893.893,0,0,1-.241-.914c.07-.224,1.674-5.568-1.853-6.666a14.017,14.017,0,0,0-12.641,1.936l3.865,5.179a.892.892,0,0,1-1,1.369l-.218-.072a10.182,10.182,0,0,0-1.493-.278,28.714,28.714,0,0,0-4.72-.087h-.095a68.951,68.951,0,0,0-7.213.748Z" transform="translate(-435.411 -1674.847)" fill="#431426"/>
        <path id="Path_1084" data-name="Path 1084" d="M818.818,2222.106c.029.354-.649,1.445-1.929,3-.206.253-.424.519-.667.8-.358.418-.747.867-1.178,1.333-.167.177-.338.366-.521.556-.424.453-.877.931-1.361,1.415l-.519.519-.832.816q-.726.707-1.522,1.449l-5.681-8.428-1.227-25.954c1.334,1.452,2.72,3.019,4.094,4.66l1.044,1.262.06.07c.183.219.367.449.544.674,1.326,1.645,2.613,3.338,3.791,5.037.218.307.426.591.632.927s.472.7.7,1.056.418.655.62.984l.041.064q.609.992,1.139,1.965c.111.2.212.389.317.591.237.449.455.889.661,1.332.095.189.183.383.266.591s.224.519.329.772.136.342.2.513.152.4.218.591.136.4.194.589.119.389.171.589.107.414.154.591a10.567,10.567,0,0,1,.2,1.073,3.993,3.993,0,0,1,.066.566" transform="translate(-637.949 -1745.082)" fill="#f57162"/>
        <path id="Path_1085" data-name="Path 1085" d="M806.874,2229.6a.9.9,0,0,1-.737-.389l-5.669-8.418a.969.969,0,0,1-.154-.455l-1.225-25.954a.891.891,0,0,1,.55-.85.905.905,0,0,1,.527-.047.9.9,0,0,1,.461.262c1.433,1.557,2.819,3.132,4.129,4.719.373.441.715.848,1.05,1.269l.089.1.525.655c1.417,1.771,2.7,3.47,3.822,5.08.177.247.348.5.519.76l.126.177c.241.348.478.715.706,1.079s.42.655.626.991l.035.06c.4.648.791,1.328,1.18,2.012.07.118.142.26.218.4l.1.189c.247.472.472.931.684,1.386.095.177.189.389.278.589s.187.43.276.649l.06.136.212.544c.082.224.165.43.231.642s.136.4.2.589.12.389.171.591.119.449.167.671a11.552,11.552,0,0,1,.218,1.151c0,.165.045.354.064.538v.051c0,.307.076.951-2.129,3.634-.206.253-.424.519-.667.8-.36.417-.754.873-1.18,1.351l-.14.152-.331.354a.383.383,0,0,1-.047.054c-.43.465-.89.949-1.386,1.439l-.519.519c-.272.276-.554.554-.844.826-.484.471-1,.961-1.528,1.462a.915.915,0,0,1-.307.191.928.928,0,0,1-.358.052m-4.8-9.592,4.948,7.343.762-.725.82-.807.519-.521c.461-.453.885-.908,1.291-1.338l.066-.07.36-.383.146-.161c.42-.453.8-.9,1.151-1.31.241-.27.453-.529.655-.778l.029-.035a10.914,10.914,0,0,0,1.7-2.436,1.049,1.049,0,0,0-.047-.377,9.765,9.765,0,0,0-.187-1.009c-.041-.2-.089-.389-.142-.591s-.1-.37-.159-.548-.126-.389-.189-.589-.136-.385-.206-.591-.13-.342-.2-.506l-.06-.136c-.082-.2-.171-.4-.259-.591s-.165-.365-.253-.542c-.212-.449-.424-.879-.649-1.316l-.105-.193c-.066-.12-.13-.243-.2-.36-.365-.68-.743-1.328-1.12-1.942l-.047-.07c-.2-.325-.4-.642-.589-.968s-.443-.69-.68-1.025l-.13-.2c-.161-.243-.325-.486-.5-.725-1.1-1.588-2.358-3.268-3.756-5l-.537-.661-.089-.107c-.313-.383-.649-.791-.99-1.18q-1.18-1.415-2.436-2.825Z" transform="translate(-634.541 -1741.791)" fill="#431426"/>
        <path id="Path_1086" data-name="Path 1086" d="M648.143,2170.57a.865.865,0,0,1-.84-.645.876.876,0,0,1,.074-.655c3.2-5.556,3.875-9.7,2.006-12.3-4.182-5.834-19.649-2.86-19.807-2.832a.886.886,0,0,1-1-.7.892.892,0,0,1,.122-.646.878.878,0,0,1,.535-.383c.677-.136,16.745-3.22,21.589,3.54,2.306,3.22,1.664,8-1.911,14.221a.893.893,0,0,1-.332.3.918.918,0,0,1-.437.1" transform="translate(-499.128 -1708.532)" fill="#431426"/>
        <path id="Path_1087" data-name="Path 1087" d="M662.862,2237.753a.868.868,0,0,1-.323-.058c-11.408-4.5-24.185-.655-24.333-.62a.872.872,0,0,1-.7-.029.883.883,0,0,1-.286-.22.875.875,0,0,1-.208-.675.9.9,0,0,1,.352-.612.9.9,0,0,1,.327-.15c.544-.171,13.5-4.071,25.5.661a.883.883,0,0,1-.325,1.7" transform="translate(-505.831 -1773.753)" fill="#431426"/>
        <path id="Path_1088" data-name="Path 1088" d="M746.993,2155.871a.89.89,0,0,1-.708-1.417,14.229,14.229,0,0,0,2.107-3.408.882.882,0,0,1,1.693.494,15.17,15.17,0,0,1-2.36,3.958.9.9,0,0,1-.321.276.914.914,0,0,1-.41.1" transform="translate(-592.474 -1707.607)" fill="#431426"/>
        <path id="Path_1089" data-name="Path 1089" d="M623.013,2278.964c.029.354-.649,1.446-1.923,3.008-.206.255-.43.519-.667.8-.358.418-.754.867-1.18,1.332l-.519.556c-.424.453-.879.931-1.361,1.421l-.521.519-.83.813q-.726.71-1.522,1.452c-1.046.962-2.166,1.965-3.369,2.949a88.534,88.534,0,0,1-15.72,10.683c-.636.329-1.275.655-1.923.968s-1.233.589-1.857.867a55.18,55.18,0,0,1-10.341,3.492c-12.3,2.755-20.149,2.1-21.784-.819l-.124-.231a6.513,6.513,0,0,1-.282-.591l-.161-.342c-.1-.241-.218-.507-.336-.791l-.159-.394c-.259-.667-.537-1.429-.8-2.277-.235-.744-.459-1.553-.671-2.419l-.161-.7s5.611,2.679,20.6-1.244c1.588-.414,3.286-.9,5.09-1.48a62.53,62.53,0,0,0,14.878-7.172,82.534,82.534,0,0,0,8.257-6.118q1.711-1.433,3.221-2.844c1.6-1.474,3.033-2.9,4.283-4.211a76.422,76.422,0,0,0,5.97-6.972q.609.991,1.139,1.964c.111.2.212.389.317.591.237.447.455.89.661,1.333.095.189.183.383.266.589s.224.519.329.774.136.342.2.513.152.4.218.589.136.4.194.591.119.389.171.589.107.414.154.591c.082.365.148.719.2,1.073a4.437,4.437,0,0,1,.066.548" transform="translate(-442.145 -1801.946)" fill="#fffaf4"/>
        <path id="Path_1090" data-name="Path 1090" d="M564.43,2307.053c-4.831,0-8.064-1.015-9.19-3.025-.047-.094-.078-.154-.119-.224-.105-.2-.212-.4-.317-.638-.047-.1-.095-.206-.148-.313-.124-.288-.241-.589-.36-.848-.058-.142-.111-.272-.165-.414-.319-.813-.589-1.573-.826-2.358s-.465-1.581-.684-2.473l-.165-.713a.886.886,0,0,1,.311-.885.906.906,0,0,1,.451-.187.883.883,0,0,1,.482.083c.047,0,5.622,2.452,19.991-1.306,1.645-.424,3.338-.918,5.049-1.468a61.514,61.514,0,0,0,14.663-7.077,81.925,81.925,0,0,0,8.146-6.052c1.1-.92,2.17-1.863,3.186-2.815,1.439-1.326,2.866-2.731,4.246-4.176a76.126,76.126,0,0,0,5.935-6.931.867.867,0,0,1,.75-.365.911.911,0,0,1,.412.12.888.888,0,0,1,.307.3c.4.642.785,1.322,1.18,2.006.072.117.142.259.218.4l.1.189c.247.471.472.931.684,1.386.095.177.189.389.278.589s.189.43.278.648l.058.136.212.543c.082.225.167.43.231.643s.136.4.2.591.119.389.173.589.117.449.165.673c.089.371.159.744.218,1.137,0,.189.041.379.058.556v.035c0,.307.078.949-2.117,3.645-.206.253-.424.513-.655.785-.371.43-.772.885-1.18,1.357l-.525.589c-.43.455-.89.939-1.38,1.435l-.525.523c-.272.278-.554.556-.844.828-.484.472-1,.959-1.528,1.462l-.07.054c-1.221,1.126-2.284,2.063-3.338,2.949a90.048,90.048,0,0,1-15.88,10.788c-.649.338-1.291.667-1.952.98s-1.25.589-1.882.879a55.588,55.588,0,0,1-10.5,3.538,64.183,64.183,0,0,1-13.626,1.841m-9.886-9.909c.146.548.294,1.073.447,1.557.231.719.484,1.452.785,2.224l.154.377c.111.271.224.531.33.772l.154.338c.089.187.177.358.253.513s.095.171.136.253c1.231,2.2,8.156,3.186,20.8.354a53.859,53.859,0,0,0,10.174-3.439c.591-.272,1.227-.554,1.829-.854s1.281-.632,1.907-.958a87.9,87.9,0,0,0,15.559-10.576c1.05-.877,2.113-1.816,3.34-2.949l.058-.053,1.452-1.38.82-.807.519-.521c.478-.478.927-.949,1.345-1.4l.519-.556c.408-.453.8-.9,1.151-1.31.231-.266.455-.525.655-.778h.029a11.27,11.27,0,0,0,1.693-2.448,1.281,1.281,0,0,0-.041-.393c-.052-.337-.111-.667-.187-1-.041-.187-.089-.377-.142-.589s-.1-.37-.159-.548-.126-.389-.189-.591-.136-.383-.206-.589-.13-.342-.2-.509l-.058-.136c-.084-.2-.173-.4-.262-.589s-.165-.366-.253-.543c-.212-.447-.424-.877-.649-1.314l-.105-.2c-.066-.117-.13-.241-.2-.36-.152-.282-.307-.589-.459-.826-.962,1.215-2.749,3.4-5.28,6.052-1.4,1.475-2.86,2.9-4.324,4.254-1.038.966-2.129,1.934-3.249,2.873a84.1,84.1,0,0,1-8.323,6.182,63.61,63.61,0,0,1-15.088,7.273c-1.771.554-3.47,1.057-5.138,1.491-10.883,2.862-16.953,2.284-19.6,1.695" transform="translate(-438.677 -1798.488)" fill="#431426"/>
        <path id="Path_1091" data-name="Path 1091" d="M615.96,2157.45l8.422,16.2,4.477-.649.36-17.159s-8.086.095-13.259,1.61" transform="translate(-489.122 -1711.913)" fill="#f57162"/>
        <path id="Path_1092" data-name="Path 1092" d="M620.98,2171.126a.888.888,0,0,1-.785-.478l-8.422-16.2a.874.874,0,0,1-.1-.375.9.9,0,0,1,.066-.381.9.9,0,0,1,.591-.5c5.226-1.534,13.158-1.639,13.5-1.645a.91.91,0,0,1,.832.556.834.834,0,0,1,.064.346l-.36,17.159a.871.871,0,0,1-.754.854l-4.477.648Zm-7.125-16.517,7.621,14.682,3.113-.453.325-15.479a60.239,60.239,0,0,0-11.06,1.256Z" transform="translate(-485.72 -1708.506)" fill="#431426"/>
        <path id="Path_1093" data-name="Path 1093" d="M604.535,2425.715a.9.9,0,0,1-.855-.651l-2.518-9.013a.886.886,0,0,1,1.287-1.009.893.893,0,0,1,.418.531l2.518,9.013a.881.881,0,0,1-.07.669.872.872,0,0,1-.521.422.778.778,0,0,1-.259.037" transform="translate(-477.345 -1917.65)" fill="#431426"/>
        <path id="Path_1094" data-name="Path 1094" d="M656.218,2416.258a.885.885,0,0,1-.842-.632l-2.9-9.555a.87.87,0,0,1-.041-.348.883.883,0,0,1,.095-.338.917.917,0,0,1,.22-.274.886.886,0,0,1,.309-.167.89.89,0,0,1,.686.072.882.882,0,0,1,.266.229.85.85,0,0,1,.159.313l2.9,9.555a.889.889,0,0,1-.591,1.1,1.012,1.012,0,0,1-.259.041" transform="translate(-518.086 -1909.693)" fill="#431426"/>
        <path id="Path_1095" data-name="Path 1095" d="M707.983,2400.748a.9.9,0,0,1-.507-.165.886.886,0,0,1-.319-.424l-3.752-9.481a.885.885,0,0,1,1.645-.648l3.752,9.5a.877.877,0,0,1,.072.348.9.9,0,0,1-.27.641.882.882,0,0,1-.3.191.909.909,0,0,1-.325.041" transform="translate(-558.519 -1897.451)" fill="#431426"/>
        <path id="Path_1096" data-name="Path 1096" d="M754.737,2373.8a.885.885,0,0,1-.463-.134.874.874,0,0,1-.325-.356l-4.448-8.9a.884.884,0,0,1,1.579-.791l4.448,8.9a.883.883,0,0,1-.4,1.18.85.85,0,0,1-.4.1" transform="translate(-595.105 -1876.548)" fill="#431426"/>
        <path id="Path_1097" data-name="Path 1097" d="M795.807,2343.6a.89.89,0,0,1-.422-.1.915.915,0,0,1-.321-.294l-5.521-8.548a.856.856,0,0,1-.128-.321.893.893,0,0,1,.006-.346.9.9,0,0,1,.136-.317.892.892,0,0,1,.914-.363.9.9,0,0,1,.558.385l5.521,8.548a.882.882,0,0,1-.26,1.221.911.911,0,0,1-.484.14" transform="translate(-626.849 -1852.817)" fill="#431426"/>
        <path id="Path_1098" data-name="Path 1098" d="M832.233,2309.007a.84.84,0,0,1-.418-.1.873.873,0,0,1-.315-.292l-5.626-8.422a.873.873,0,0,1-.159-.325.915.915,0,0,1-.016-.358.9.9,0,0,1,.13-.338.91.91,0,0,1,.253-.257.89.89,0,0,1,.7-.124.876.876,0,0,1,.325.152.886.886,0,0,1,.239.27l5.65,8.424a.879.879,0,0,1-.76,1.374" transform="translate(-655.664 -1825.406)" fill="#431426"/>
        <path id="Path_1099" data-name="Path 1099" d="M1174.928,2082.692c.272.231.544,1.487.715,3.5,0,.323.054.671.076,1.038.037.548.06,1.145.082,1.769v4.644c0,.677-.045,1.38-.082,2.1-.083,1.417-.187,2.92-.348,4.483a88.739,88.739,0,0,1-3.851,18.611q-.337,1.02-.708,2.034c-.231.642-.471,1.281-.731,1.911a55.1,55.1,0,0,1-4.992,9.709c-6.913,10.535-13.006,15.533-16.208,14.571l-.255-.078c-.175-.058-.377-.124-.589-.212l-.348-.136-.8-.336-.389-.171c-.649-.294-1.373-.649-2.158-1.073-.684-.373-1.411-.8-2.164-1.269l-.591-.389q-.726-.467-1.468-1.009c-.249-.183-.5-.366-.743-.56s-.5-.379-.75-.591l-.507-.43c-.165-.13-.319-.266-.478-.406-.332-.291-.655-.591-.98-.892l-.484-.459a23.838,23.838,0,0,1-1.633-1.771,28.393,28.393,0,0,1-1.816-2.36c-10.582-15.335-2.856-28.767-2.856-28.767a30.63,30.63,0,0,1-8.181,4.252c-.224.072-.449.13-.673.189l-.678.159a11.9,11.9,0,0,1-1.68.236,6.013,6.013,0,0,1-5.564-2.359,8.587,8.587,0,0,1-.488-.754c-.1-.189-.2-.379-.29-.591s-.124-.289-.177-.437-.089-.307-.13-.453a1.3,1.3,0,0,1-.047-.237c-.041-.237-.07-.484-.089-.725v-.249q-.006-.127,0-.253c.037-2.448,1.281-5.22,2.419-7.273l.124-.206a29.828,29.828,0,0,1,1.769-2.79v-.041c.3-.591,3.54-6.489,8.4-9.073l.472-.247a10.56,10.56,0,0,1,1.48-.591l-.509-.092h-.041l-6.163-3.711s-.531-5.214,7.425-9.256c4.131-2.094,7.156,3.888,7.156,3.888h3.451c.984,0,2.158,0,3.474.066l1.015.035a9.359,9.359,0,0,1,1.067.041l2.189.1c.389,0,.785.037,1.18.066,1.964.117,4.052.278,6.182.5l1.629.181h.089l.861.107c2.094.259,4.2.589,6.229.978.371.066.737.148,1.1.225s.828.177,1.234.271l1.133.278h.076c.75.193,1.476.4,2.183.589.218.06.426.13.638.2q.713.229,1.4.494l.589.225.778.325.5.229.589.278c.19.1.377.194.554.295s.354.2.531.3.36.225.544.338c.311.206.589.412.89.63Z" transform="translate(-882.919 -1644.71)" fill="#0bbfa4"/>
        <path id="Path_1100" data-name="Path 1100" d="M1146.053,2144.562a3.754,3.754,0,0,1-1.069-.154l-.241-.076c-.218-.07-.437-.142-.679-.237l-.342-.13-.832-.352-.406-.177c-.791-.367-1.518-.727-2.214-1.11s-1.509-.844-2.224-1.3c-.418-.26-.855-.55-1.3-.855l-.813-.591c-.266-.189-.525-.377-.772-.589s-.509-.385-.762-.591l-.5-.424-.5-.424c-.342-.3-.673-.591-1.009-.914-.152-.148-.323-.307-.49-.472-.589-.591-1.178-1.211-1.7-1.818a28.294,28.294,0,0,1-1.87-2.424c-7.924-11.467-5.811-22.05-4.1-26.909a27.953,27.953,0,0,1-5.959,2.743c-.229.07-.465.136-.7.194l-.731.171a13.633,13.633,0,0,1-1.8.256,6.984,6.984,0,0,1-6.89-3.581c-.107-.19-.212-.4-.313-.591a4.1,4.1,0,0,1-.218-.554q-.077-.247-.142-.494a2.714,2.714,0,0,1-.064-.338,7.262,7.262,0,0,1-.1-.791v-.093a1.35,1.35,0,0,1,0-.224,1.585,1.585,0,0,1,0-.243,17.18,17.18,0,0,1,2.531-7.7l.117-.2a33.4,33.4,0,0,1,1.816-2.862v-.041c.019-.025.039-.052.06-.076.591-.754,2.531-3.291,4.8-5.716l.06-.058a29.959,29.959,0,0,1,3.692-3.464c.142-.111.288-.218.424-.311l-5.375-3.087a.869.869,0,0,1-.3-.311.883.883,0,0,1-.117-.42c0-.231-.111-5.632,8.257-9.88a4.578,4.578,0,0,1,3.612-.3c2.259.737,3.851,3.062,4.464,4.088h2.891c1.044,0,2.218,0,3.538.066l1.015.035h1.256c.655,0,1.328.058,2.024.1.412,0,.807.037,1.18.072,2.1.117,4.186.288,6.2.494l1.639.183h.136a7.019,7.019,0,0,1,.832.107c2.236.272,4.347.589,6.282.984l.885.177.224.048c.412.082.836.177,1.256.284s.76.177,1.139.276h.07c.737.189,1.493.4,2.236.638l.43.13.206.064c.506.165.984.336,1.458.519.188.066.4.148.589.23l.661.278.13.052.525.243a6.261,6.261,0,0,1,.589.3c.171.105.383.194.591.3s.358.2.548.313.383.229.591.354a11,11,0,0,1,.956.677c.134.1.282.225.424.342l.035.035c.237.2.719.626,1.009,4.09v.041c0,.323.053.665.076,1.031,0,.554.066,1.18.082,1.8v4.672c0,.673-.047,1.38-.082,2.113v.089c-.095,1.658-.206,3.072-.348,4.442a89.89,89.89,0,0,1-3.935,18.9c-.235.69-.465,1.373-.719,2.057s-.484,1.3-.737,1.942a55.864,55.864,0,0,1-5.033,9.861c-6.322,9.6-12.234,15.09-16.16,15.09m-19.861-42.765a.89.89,0,0,1,.438.122.9.9,0,0,1,.323.323.919.919,0,0,1,.12.441.891.891,0,0,1-.115.441c-.3.531-7.308,13.154,2.813,27.82a28.237,28.237,0,0,0,1.771,2.275,22.289,22.289,0,0,0,1.586,1.693c.167.167.319.319.478.461.325.313.638.589.962.879l.455.383.513.43c.237.194.478.377.714.56s.488.367.731.544l.778.548q.63.436,1.24.813c.684.437,1.392.85,2.117,1.246s1.357.7,2.111,1.05l.379.165.766.323.348.136.544.189.272.089c2.411.719,8.068-3.391,15.176-14.227a53.874,53.874,0,0,0,4.913-9.544c.253-.632.5-1.256.721-1.888s.478-1.345.7-2.018a88.093,88.093,0,0,0,3.812-18.416c.142-1.367.247-2.778.342-4.442a.544.544,0,0,1,0-.082c0-.69.06-1.357.076-2v-3.774a.77.77,0,0,1,0-.095v-.743c0-.62-.047-1.18-.082-1.769,0-.366-.047-.7-.07-1.015a.092.092,0,0,1,0-.047,11.536,11.536,0,0,0-.471-2.949l-.3-.243a10.238,10.238,0,0,0-.838-.589c-.171-.111-.336-.218-.507-.319l-.5-.282c-.189-.107-.367-.2-.544-.284s-.371-.187-.554-.27l-.478-.218-.13-.053c-.2-.089-.408-.177-.589-.26s-.373-.154-.556-.218c-.465-.177-.921-.338-1.386-.49l-.206-.066-.4-.124c-.737-.229-1.458-.43-2.158-.589h-.084c-.365-.095-.731-.183-1.108-.266s-.8-.189-1.18-.272l-.237-.047c-.282-.058-.589-.124-.848-.177-1.9-.371-3.976-.7-6.182-.966-.284-.037-.591-.078-.838-.1h-.142l-1.579-.177c-1.989-.2-4.052-.373-6.141-.49-.4,0-.774-.047-1.139-.064l-2.047-.1h-1.227l-1.021-.035c-1.308-.041-2.471-.054-3.455-.066h-3.422a.9.9,0,0,1-.8-.484c-.113-.212-2.679-5.167-5.976-3.5-6.017,3.013-7.083,6.482-7.292,7.751l6.194,3.538a.869.869,0,0,1,.294.28.888.888,0,0,1-.117,1.124.906.906,0,0,1-.241.165l-.208.1a10.026,10.026,0,0,0-1.266.844,29,29,0,0,0-3.47,3.237l-.058.06c-2.2,2.36-4.131,4.853-4.66,5.562l-.037.053a29.708,29.708,0,0,0-1.715,2.7l-.113.2a15.635,15.635,0,0,0-2.31,6.859v.455a5.7,5.7,0,0,0,.076.589.287.287,0,0,0,.035.177,3.547,3.547,0,0,1,.111.4,3.454,3.454,0,0,0,.136.342,5.493,5.493,0,0,0,.259.5,5.253,5.253,0,0,0,.42.661,5.085,5.085,0,0,0,4.8,2.012,10.177,10.177,0,0,0,1.559-.218c.218-.041.424-.089.643-.146l.63-.177a29.906,29.906,0,0,0,7.887-4.036.888.888,0,0,1,.55-.2" transform="translate(-879.301 -1641.211)" fill="#431426"/>
        <path id="Path_1101" data-name="Path 1101" d="M1309.756,2100.583c.266.231.538,1.487.7,3.5,0,.323.06.665.076,1.038.035.548.066,1.145.082,1.769v4.637c0,.677-.047,1.38-.082,2.1l-9.927-2.094-18.957-17.8c1.964.117,4.052.278,6.182.5l1.627.183h.089l.863.1c2.092.26,4.2.591,6.227.98.373.064.739.146,1.1.222s.826.177,1.233.272l1.133.278h.076c.75.194,1.474.4,2.183.589.218.06.424.13.636.2.476.152.943.317,1.4.494l.591.224.778.325.5.229.591.278c.189.1.377.2.554.294s.354.2.531.3.36.225.542.338a10.425,10.425,0,0,1,.892.63,2.451,2.451,0,0,0,.383.4" transform="translate(-1017.735 -1662.6)" fill="#f57162"/>
        <path id="Path_1102" data-name="Path 1102" d="M1307.009,2111.28a.826.826,0,0,1-.177,0l-9.927-2.1a.852.852,0,0,1-.424-.218l-18.959-17.792a.891.891,0,0,1,.142-1.4.916.916,0,0,1,.513-.136c2.117.126,4.207.3,6.223.5l1.641.183h.134a6.936,6.936,0,0,1,.832.1c2.236.272,4.349.591,6.283.987l.885.177.224.047c.412.083.836.175,1.256.282s.76.177,1.139.278h.07c.737.188,1.493.4,2.236.636l.43.13.206.066c.506.165.984.336,1.458.519.187.064.4.146.589.229l.661.278.13.054.525.241c.206.1.418.2.589.3s.383.2.591.3.358.2.548.313.383.231.591.354a11.457,11.457,0,0,1,.955.678c.136.1.282.224.424.344l.035.035c.237.2.721.624,1.009,4.088v.041c0,.325.054.667.076,1.032,0,.556.066,1.18.082,1.806v4.672c0,.672-.047,1.38-.082,2.111a.875.875,0,0,1-.282.591.9.9,0,0,1-.286.194.875.875,0,0,1-.34.07m-9.5-3.791,8.671,1.829a10.35,10.35,0,0,1,.035-1.05c.035-.342,0-.775,0-1.18v-2.6a.692.692,0,0,1,0-.093v-.743c0-.62-.047-1.18-.082-1.771,0-.364-.047-.7-.07-1.013a.094.094,0,0,1,0-.047,11.648,11.648,0,0,0-.474-2.951l-.3-.241a9.9,9.9,0,0,0-.836-.591c-.171-.111-.338-.218-.509-.317l-.494-.284c-.189-.1-.366-.194-.543-.282s-.371-.189-.554-.272l-.478-.219-.13-.054c-.2-.088-.408-.177-.591-.259s-.371-.152-.554-.218c-.465-.177-.92-.336-1.386-.49l-.206-.064-.4-.124c-.737-.231-1.458-.431-2.16-.591h-.082c-.365-.095-.731-.181-1.108-.266s-.8-.187-1.18-.27l-.237-.047-.848-.177c-1.9-.373-3.976-.7-6.182-.968-.284-.035-.591-.076-.838-.1h-.142l-1.581-.177c-1.178-.124-2.436-.229-3.68-.323Z" transform="translate(-1014.238 -1659.342)" fill="#431426"/>
        <path id="Path_1103" data-name="Path 1103" d="M1129.094,2135.628a.887.887,0,0,1-.455-.132.9.9,0,0,1-.424-.811.9.9,0,0,1,.154-.449c.4-.591,9.779-13.967,17.96-12.487,3.9.7,6.767,4.588,8.523,11.538a.845.845,0,0,1,.041.356.859.859,0,0,1-.1.346.9.9,0,0,1-.233.274.914.914,0,0,1-.323.159.887.887,0,0,1-.36.014.883.883,0,0,1-.593-.379.864.864,0,0,1-.136-.334c-1.575-6.223-3.976-9.662-7.127-10.234-7.077-1.281-16.1,11.626-16.191,11.756a.9.9,0,0,1-.317.28.881.881,0,0,1-.414.1" transform="translate(-895.894 -1684.751)" fill="#431426"/>
        <path id="Path_1104" data-name="Path 1104" d="M1195.6,2173.481a.932.932,0,0,1-.426-.1.891.891,0,0,1-.354-1.18c.278-.5,6.867-12.316,18.77-17.277a.883.883,0,0,1,.34-.07.88.88,0,0,1,.628.257.893.893,0,0,1,.191.286.879.879,0,0,1,0,.678.885.885,0,0,1-.192.288.907.907,0,0,1-.286.194c-11.319,4.719-17.839,16.375-17.9,16.517a.886.886,0,0,1-.332.309.846.846,0,0,1-.441.1" transform="translate(-948.705 -1711.127)" fill="#431426"/>
        <path id="Path_1105" data-name="Path 1105" d="M1218.989,2093.975a.888.888,0,0,1-.879-.766,14.87,14.87,0,0,0-.861-3.91.878.878,0,0,1-.045-.669.884.884,0,0,1,1.1-.571.878.878,0,0,1,.515.424,15.946,15.946,0,0,1,1.044,4.5.89.89,0,0,1-.173.655.872.872,0,0,1-.583.342Z" transform="translate(-966.522 -1658.058)" fill="#431426"/>
        <path id="Path_1106" data-name="Path 1106" d="M1289.518,2110.477c.272.231.544,1.487.715,3.5,0,.323.054.671.076,1.038.035.548.06,1.143.082,1.769v4.642c0,.679-.047,1.382-.082,2.106-.082,1.417-.187,2.92-.348,4.483a88.739,88.739,0,0,1-3.851,18.611q-.337,1.02-.708,2.035c-.231.642-.471,1.281-.731,1.911a55.085,55.085,0,0,1-4.991,9.709c-6.913,10.535-13.006,15.532-16.208,14.571l-.255-.078c-.175-.058-.377-.124-.589-.212l-.348-.136-.8-.336-.389-.171c-.649-.294-1.373-.649-2.158-1.073-.684-.373-1.411-.8-2.164-1.269l-.591-.389s5.9-1.983,13.926-15.23q1.276-2.107,2.625-4.608a62.5,62.5,0,0,0,5.685-15.508,82.439,82.439,0,0,0,1.652-10.121q.232-2.218.338-4.283c.117-2.17.152-4.192.14-6a76.908,76.908,0,0,0-.589-9.231c.749.2,1.474.4,2.183.591.218.058.424.13.636.2.476.152.943.319,1.4.5l.591.223.778.325.5.231.591.276c.188.1.377.2.554.3s.354.193.531.3.358.225.542.336c.313.206.591.412.892.63Z" transform="translate(-997.509 -1672.495)" fill="#fffaf4"/>
        <path id="Path_1107" data-name="Path 1107" d="M1260.785,2172.377a3.744,3.744,0,0,1-1.069-.154l-.241-.076c-.218-.07-.437-.142-.68-.237l-.342-.13-.832-.352-.408-.177c-.789-.366-1.516-.727-2.212-1.11s-1.439-.807-2.218-1.291l-.589-.4a.876.876,0,0,1-.315-.371.861.861,0,0,1-.072-.482.891.891,0,0,1,.593-.723c.047,0,5.745-2.152,13.442-14.853.885-1.45,1.771-2.984,2.6-4.565a61.468,61.468,0,0,0,5.584-15.283,82.115,82.115,0,0,0,1.635-10.028c.146-1.433.26-2.86.33-4.24.113-1.958.161-3.958.142-5.953a75.259,75.259,0,0,0-.591-9.105.89.89,0,0,1,.045-.428.851.851,0,0,1,.239-.356.873.873,0,0,1,.379-.2.883.883,0,0,1,.428,0c.733.183,1.487.4,2.23.632l.43.13.208.064c.507.165.984.338,1.456.519.189.066.4.148.591.231l.659.278.13.052.525.243a6.593,6.593,0,0,1,.591.3c.171.107.383.2.589.3s.36.2.55.313.383.23.589.354c.325.212.632.431.949.671l.408.337.053.047c.229.2.713.589,1.013,4.088v.041c0,.317.053.661.078,1.02,0,.56.058,1.18.082,1.806v4.683c0,.673-.047,1.382-.082,2.113v.088c-.095,1.658-.208,3.072-.348,4.442a89.911,89.911,0,0,1-3.906,18.816c-.235.69-.465,1.374-.719,2.057s-.484,1.3-.737,1.942a55.866,55.866,0,0,1-5.033,9.862c-6.322,9.6-12.234,15.09-16.16,15.09m-6.348-4.59c.484.291.955.591,1.4.8.667.358,1.357.7,2.113,1.05l.377.165.766.323.348.136.544.189.272.089c2.411.719,8.068-3.391,15.176-14.227a53.876,53.876,0,0,0,4.913-9.544c.253-.632.5-1.256.721-1.888s.478-1.345.7-2.018a88.205,88.205,0,0,0,3.81-18.415c.142-1.367.247-2.778.342-4.442a.578.578,0,0,1,0-.082c0-.69.06-1.357.076-2v-4.613c0-.589-.045-1.18-.082-1.769,0-.354-.047-.7-.07-1.015a.144.144,0,0,1,0-.041,11.175,11.175,0,0,0-.484-2.949l-.307-.253c-.272-.208-.542-.4-.826-.591-.165-.1-.329-.212-.5-.313l-.5-.282-.544-.284c-.187-.1-.371-.187-.554-.27l-.478-.218-.13-.054c-.2-.088-.408-.177-.589-.259s-.373-.155-.556-.218c-.465-.177-.918-.338-1.386-.49l-.206-.066-.4-.124-.908-.27c.158,1.544.389,4.353.424,8.021,0,2.036-.035,4.071-.142,6.064-.076,1.411-.187,2.866-.342,4.324a82.3,82.3,0,0,1-1.664,10.311,63.2,63.2,0,0,1-5.768,15.72c-.861,1.61-1.769,3.173-2.648,4.648-5.846,9.62-10.607,13.448-12.913,14.853" transform="translate(-994.032 -1669.026)" fill="#431426"/>
        <path id="Path_1108" data-name="Path 1108" d="M1123.3,2159.781l17.324,5.764,2.759-3.581L1131.7,2149.4s-5.751,5.7-8.4,10.38" transform="translate(-891.992 -1706.799)" fill="#f57162"/>
        <path id="Path_1109" data-name="Path 1109" d="M1137.119,2162.99a.84.84,0,0,1-.278-.041l-17.349-5.745a.85.85,0,0,1-.332-.2.9.9,0,0,1-.216-.321.878.878,0,0,1-.056-.385.866.866,0,0,1,.115-.368c2.683-4.72,8.3-10.341,8.54-10.578a.918.918,0,0,1,.3-.189.876.876,0,0,1,.692.014.832.832,0,0,1,.286.206l11.686,12.563a.9.9,0,0,1,.237.563.887.887,0,0,1-.183.583l-2.761,3.581a.89.89,0,0,1-.3.235.84.84,0,0,1-.375.082m-16-7.137,15.678,5.216,1.923-2.49-10.547-11.338a64.7,64.7,0,0,0-7.055,8.636Z" transform="translate(-888.487 -1703.384)" fill="#431426"/>
        <path id="Path_1110" data-name="Path 1110" d="M1298.343,2392.77a.88.88,0,0,1-.443-.125l-8.087-4.718a.888.888,0,0,1-.257-.23.919.919,0,0,1-.152-.311.88.88,0,0,1-.019-.344.885.885,0,0,1,.342-.585.893.893,0,0,1,.311-.15.854.854,0,0,1,.346-.021.869.869,0,0,1,.325.113l8.082,4.72a.88.88,0,0,1,.412,1,.888.888,0,0,1-.861.655" transform="translate(-1023.87 -1894.898)" fill="#431426"/>
        <path id="Path_1111" data-name="Path 1111" d="M1328.964,2350.123a.867.867,0,0,1-.424-.111l-8.737-4.849a.887.887,0,0,1-.325-1.195.893.893,0,0,1,.521-.418.88.88,0,0,1,.665.068l8.731,4.847a.888.888,0,0,1,.426,1,.887.887,0,0,1-.857.661" transform="translate(-1047.684 -1860.941)" fill="#431426"/>
        <path id="Path_1112" data-name="Path 1112" d="M1355.063,2302.819a.9.9,0,0,1-.358-.076l-9.3-4.217a.9.9,0,0,1-.292-.2.882.882,0,0,1-.192-.3.9.9,0,0,1,.019-.69.883.883,0,0,1,.857-.517.835.835,0,0,1,.34.091l9.3,4.217a.885.885,0,0,1-.373,1.687" transform="translate(-1067.927 -1823.865)" fill="#431426"/>
        <path id="Path_1113" data-name="Path 1113" d="M1369.867,2250.875a.851.851,0,0,1-.288-.053l-9.4-3.3a.847.847,0,0,1-.3-.175.885.885,0,0,1-.206-.278.85.85,0,0,1-.086-.333.92.92,0,0,1,.049-.342.886.886,0,0,1,.177-.3.873.873,0,0,1,.612-.293.881.881,0,0,1,.342.05l9.39,3.3a.886.886,0,0,1,.282,1.518.89.89,0,0,1-.577.206Z" transform="translate(-1079.621 -1783.351)" fill="#431426"/>
        <path id="Path_1114" data-name="Path 1114" d="M1378.4,2200.7a.846.846,0,0,1-.2,0l-9.9-2.319a.873.873,0,0,1-.573-.387.868.868,0,0,1-.13-.327.894.894,0,0,1,.156-.676.9.9,0,0,1,.261-.237.893.893,0,0,1,.333-.117.88.88,0,0,1,.352.023l9.915,2.294a.91.91,0,0,1,.6.33.94.94,0,0,1,.159.309.9.9,0,0,1,.029.348.885.885,0,0,1-.1.33.906.906,0,0,1-.224.266.865.865,0,0,1-.309.159.9.9,0,0,1-.346.031Z" transform="translate(-1085.968 -1744.303)" fill="#431426"/>
        <path id="Path_1115" data-name="Path 1115" d="M1380.693,2150.644h-.189l-9.9-2.135a.9.9,0,0,1-.325-.134.915.915,0,0,1-.247-.247.893.893,0,0,1-.13-.325.868.868,0,0,1,.146-.671.882.882,0,0,1,.933-.35l9.9,2.129a.889.889,0,1,1-.183,1.769Z" transform="translate(-1087.799 -1704.699)" fill="#431426"/>
        <path id="Path_1116" data-name="Path 1116" d="M173.514,854.058a5.07,5.07,0,0,1-1.8-.336c-18.456-7.077-33.079-20.462-42.287-38.684A85.228,85.228,0,0,1,121,789.28a5.014,5.014,0,0,1,9.957-1.18,76.02,76.02,0,0,0,7.58,22.756c8.187,16.027,20.563,27.3,36.773,33.528a5.015,5.015,0,0,1-1.8,9.7Z" transform="translate(-96.066 -622.362)" fill="#ffeab9"/>
        <path id="Path_1117" data-name="Path 1117" d="M170.063,851.189a5.935,5.935,0,0,1-2.113-.4c-18.669-7.166-33.45-20.693-42.764-39.108a86.188,86.188,0,0,1-8.512-26.055,5.9,5.9,0,1,1,11.715-1.415,75.862,75.862,0,0,0,7.491,22.462c8.081,15.821,20.3,26.957,36.3,33.1a5.9,5.9,0,0,1-2.117,11.408M122.532,780.8a3.9,3.9,0,0,0-.489,0,4.131,4.131,0,0,0-3.61,4.59,84.414,84.414,0,0,0,8.335,25.47c9.107,18.02,23.594,31.263,41.815,38.254a4.122,4.122,0,0,0,2.978-7.687c-16.438-6.3-28.967-17.719-37.284-33.958a76.97,76.97,0,0,1-7.668-23.059,4.129,4.129,0,0,0-4.076-3.61" transform="translate(-92.615 -618.608)" fill="#431426"/>
        <path id="Path_1118" data-name="Path 1118" d="M23.2,597.347s-4.565,3.492-1.492,7.25,6.825-.461,12.24-.737,13.944.194,13.431-4.831-4.8-4.9-4.8-4.9,9.792-11.207,9.774-25.092c0-16.634-18.286-33.333-26.65-20.616,0,0-14.157-6.217-13.567,8.258,0,0-10.618-1.251-5.191,12.977,0,0-5.362,2.112-.849,8.877,5.71,8.559,9.621,7.762,9.621,7.762s4.329,8.854,7.485,11.054" transform="translate(-3.401 -431.928)" fill="#fffaf4"/>
        <path id="Path_1119" data-name="Path 1119" d="M21.317,603.585a4.574,4.574,0,0,1-3.7-1.87,5.024,5.024,0,0,1-1.233-3.853,7.138,7.138,0,0,1,2.065-3.927c-2.707-2.578-5.763-8.4-6.665-10.176-1.5-.095-5.126-1.143-9.815-8.175C.2,572.948-.39,570.612.253,568.641a5.272,5.272,0,0,1,2.206-2.831c-1.769-5-1.769-8.712,0-11.036a7.05,7.05,0,0,1,5.362-2.424c0-3.94,1.18-6.713,3.4-8.258,3.6-2.46,8.848-.891,10.724-.2A9.6,9.6,0,0,1,33.084,540.1c7.9,2.36,16.711,13.414,16.723,25.488,0,11.549-6.488,21.147-9.013,24.456,1.722.537,3.687,2.047,4.035,5.444A3.935,3.935,0,0,1,43.9,598.6c-2.035,2.331-6.878,2.479-11.154,2.613-.761,0-1.5.047-2.182.084a17.426,17.426,0,0,0-5.126,1.273,12.855,12.855,0,0,1-4.123,1.015m-.979-8.978a6.184,6.184,0,0,0-2.194,3.468,3.286,3.286,0,0,0,.844,2.52c1.475,1.8,2.949,1.374,5.9.311a19.441,19.441,0,0,1,5.639-1.373c.7-.035,1.445-.06,2.218-.082,3.716-.111,8.346-.259,9.874-2.006a2.169,2.169,0,0,0,.5-1.769c-.413-4.052-3.539-4.131-3.9-4.131a.9.9,0,0,1-.485-.136.884.884,0,0,1-.2-1.332c.094-.105,9.573-11.142,9.556-24.5,0-10.977-8.17-21.619-15.46-23.8-2.719-.814-6.595-.838-9.568,3.663a.884.884,0,0,1-1.091.324c-.059,0-6.164-2.648-9.7-.224-1.888,1.292-2.767,3.87-2.607,7.668a.884.884,0,0,1-.985.914c-.035,0-3.185-.33-4.778,1.728-1.457,1.888-1.28,5.356.513,10.028a.885.885,0,0,1-.5,1.138,3.705,3.705,0,0,0-1.947,2.153c-.436,1.433.071,3.256,1.51,5.409,5.161,7.822,8.7,7.415,8.7,7.409a.932.932,0,0,1,.95.484c1.18,2.407,4.719,9.019,7.179,10.712a.888.888,0,0,1,.293,1.106.9.9,0,0,1-.251.321" transform="translate(0 -428.486)" fill="#431426"/>
        <path id="Path_1120" data-name="Path 1120" d="M56.473,728.646a.885.885,0,1,1-.047-1.769c.425,0,4.129-.331,3.934-3.9a.886.886,0,0,1,1.77-.083c.2,4.324-3.586,5.65-5.616,5.751Z" transform="translate(-44.123 -573.367)" fill="#431426"/>
        <path id="Path_1121" data-name="Path 1121" d="M26.249,677.968a8.114,8.114,0,0,1-1.811-.224c-5.433-1.292-11.154-11.5-11.39-11.927a.885.885,0,1,1,1.545-.861c1.534,2.766,6.37,10.146,10.258,11.066a3.817,3.817,0,0,0,3.468-.5c1.864-1.528,1.77-5.132,1.77-5.167a.885.885,0,0,1,1.769-.071c0,.183.142,4.512-2.4,6.6a4.885,4.885,0,0,1-3.209,1.085" transform="translate(-10.265 -527.656)" fill="#431426"/>
        <path id="Path_1122" data-name="Path 1122" d="M51.6,620.942a5.4,5.4,0,0,1-1.1-.112c-7.249-1.457-12.086-17.389-12.293-18.068a.886.886,0,1,1,1.7-.507c1.292,4.33,5.787,15.8,10.942,16.841,1.769.354,3.539-.59,5.309-2.749a.885.885,0,1,1,1.363,1.127c-1.87,2.307-3.834,3.469-5.916,3.469" transform="translate(-30.31 -477.737)" fill="#431426"/>
        <path id="Path_1123" data-name="Path 1123" d="M100.682,585.6a7.541,7.541,0,0,1-6.412-2.867c-4.613-6.117.271-19.943.484-20.527a.885.885,0,0,1,1.663.59c-.047.136-4.772,13.508-.732,18.876,1.18,1.61,3.1,2.306,5.751,2.129a2.561,2.561,0,0,0,1.923-1.044c2.454-3.067,1.711-11.8,1.215-14.888a.9.9,0,0,1,1.77-.277c.077.484,1.852,11.969-1.581,16.268a4.312,4.312,0,0,1-3.191,1.711c-.313.018-.608.029-.891.029" transform="translate(-73.29 -446.018)" fill="#431426"/>
        <path id="Path_1124" data-name="Path 1124" d="M135.428,650.859a8.549,8.549,0,0,1-2.949-.465,5.271,5.271,0,0,1-3.2-3.115c-2.519-6.323,6.695-11.455,11.644-14.21a20.049,20.049,0,0,0,2.2-1.309c1.18-1,.077-2.749.029-2.826a.885.885,0,0,1,1.481-.967c.708,1.079,1.539,3.539-.366,5.149a19.943,19.943,0,0,1-2.483,1.5c-4.129,2.312-12.8,7.125-10.859,12a3.539,3.539,0,0,0,2.165,2.112c4.507,1.664,13.095-2.808,13.178-2.855a.886.886,0,1,1,.826,1.569c-.313.165-6.553,3.41-11.668,3.41" transform="translate(-102.321 -498.358)" fill="#431426"/>
        <path id="Path_1125" data-name="Path 1125" d="M494.556,60.791s-40.572,44.735-45.673,118.839,27.96,149.6,41.478,177.324,34.948,46.375,16.311,58.987-77.362-1.4-108.122-2.36-86.216,18.174-98.336.465,48-252.6,86.71-286.148,105.3-88.55,105.3-88.55l7.456,10.718Z" transform="translate(-237.135 -31.247)" fill="#ffeab9"/>
        <path id="Path_1126" data-name="Path 1126" d="M319.64,419.06c-10.8,0-19.418-1.977-23.477-7.915-6.752-9.87,7.415-78.4,24.185-137.869,9.9-35.15,20.575-67.216,30.857-92.733,11.974-29.7,22.674-48.786,31.81-56.714,38.247-33.174,104.67-88.007,105.338-88.556a.878.878,0,0,1,.684-.195.866.866,0,0,1,.336.123.876.876,0,0,1,.255.249l7.454,10.718a.867.867,0,0,1,.156.433.878.878,0,0,1-.084.452l-5.125,10.718a.781.781,0,0,1-.142.212c-.1.112-10.212,11.378-20.816,31.51a220.3,220.3,0,0,0-24.628,86.8c-5.031,72.66,27.27,147.9,41.379,176.869a223.479,223.479,0,0,0,11.8,20.592c10.347,16.681,18.522,29.854,4.242,39.522-13.2,8.906-45.745,4.819-74.458,1.215-12.748-1.6-24.774-3.109-34.182-3.391-10.683-.325-24.727,1.841-38.307,3.935-13.018,1.981-26.29,4.028-37.273,4.028M488.724,37.248c-7.425,6.129-68.523,56.627-104.57,87.919-19.76,17.147-45.049,87.995-62.119,148.586-19.253,68.346-29.976,128.258-24.414,136.394,7.561,11.048,33.717,7.014,58.985,3.107,13.657-2.1,27.783-4.287,38.63-3.958,9.485.284,21.56,1.771,34.349,3.41,28.406,3.54,60.608,7.6,73.247-.933,12.866-8.681,5.482-20.6-4.753-37.09a233.559,233.559,0,0,1-11.857-20.746,468.676,468.676,0,0,1-27.783-71.413c-11.361-38.525-16-74.324-13.786-106.359a222.185,222.185,0,0,1,24.881-87.559C479.711,69.3,489.457,58.059,490.488,56.9l4.849-10.146Z" transform="translate(-233.811 -27.848)" fill="#431426"/>
        <path id="Path_1127" data-name="Path 1127" d="M458.741,315.984c1.888,13.224,26.545,34.732,18.646,43.585s-31.693-2.8-38.216,0-19.848,12.116-29.735,10.718-28.054-15.843-38.772-14.911-16.309,7.7-25.635,8.257-17.7-4.087-25.631-3.157-12.114,7.238-19.57,3.157-9.7-8.978-12.771-41.484-4.847-38.146,0-51.873,13.236-44.483,12.771-57.064,8.848-23.3,12.582-34.489,6.058-33.085,10.253-41.478,20.054-21.9,22.832-31.687S356.219,74.33,366,65.447s26.545-16.776,33.085-21.9S410.3,27.7,419.145,25.366s24.686-8.358,36.831-13.927,32.129-16.31,35.391,7.928-5.125,33.091-10.718,31.693-4.193-14.912-1.4-19.106,4.66-14.452,0-12.122-7.938,14.912-10.716,18.174-8.848,7.922-9.793,13.98-5.125,32.153-9.318,28.9-7.456-6.524-8.848-.466-13.514,46.6-11.208,55.925,6.523,33.557,2.36,34.023-6.991,4.195-4.66,11.208,7.922,10.352,4.66,21.022-8.387,21.854-4.66,30.709S437.785,265,441.978,273.858s14,22.55,16.764,42.127" transform="translate(-225.559 -3.336)" fill="#ffd073"/>
        <path id="Path_1128" data-name="Path 1128" d="M408.119,367.978a16.131,16.131,0,0,1-2.205-.148c-4.413-.626-10.259-3.676-16.44-6.907-8.01-4.182-16.3-8.506-22.132-8-5.309.461-9.349,2.407-13.259,4.3s-7.668,3.692-12.388,3.98-9.235-.725-13.566-1.715c-4.223-.974-8.212-1.888-12.028-1.439a24.694,24.694,0,0,0-7.415,2.395c-3.923,1.769-7.625,3.426-12.687.655-7.769-4.254-10.088-8.955-13.23-42.176-.49-5.232-.955-9.756-1.357-13.749-2.094-20.586-2.726-26.8,1.4-38.5,4.819-13.632,13.183-44.24,12.722-56.739-.311-8.387,3.575-15.926,7.339-23.193a85.269,85.269,0,0,0,5.309-11.6c1.61-4.831,2.99-11.861,4.324-18.662,1.769-8.9,3.538-18.1,5.974-22.934,1.824-3.651,5.722-8.158,9.845-12.924,5.593-6.488,11.373-13.16,12.93-18.61,2.9-10.128,10.961-31.622,20.765-40.494,6.021-5.45,14.451-10.423,21.889-14.811a119.619,119.619,0,0,0,11.249-7.132,46.475,46.475,0,0,0,6.606-7.078c3.869-4.766,7.874-9.692,13.749-11.243,8.611-2.265,24.379-8.258,36.672-13.927l1.87-.867c8.2-3.834,19.465-9.084,27.058-4.925,4.129,2.271,6.758,7.114,7.745,14.4,2.8,20.787-2.949,28.425-5.527,30.749a6.854,6.854,0,0,1-6.289,1.917,5.419,5.419,0,0,1-3.616-3.616c-1.851-4.784-.589-13.4,1.7-16.84s3.356-9.709,2.265-10.942c-.183-.212-.589-.171-1.133.112-2.6,1.3-4.967,6.707-6.859,11.048-1.31,2.985-2.436,5.568-3.587,6.907-.643.755-1.458,1.581-2.319,2.454-2.949,2.949-6.583,6.671-7.261,11.089-1.971,12.782-5.078,28.313-8.729,29.782a1.987,1.987,0,0,1-2.012-.325l-1.081-.885c-1.946-1.539-3.958-3.138-4.971-2.784-.591.2-1.056,1.121-1.411,2.66-.259,1.133-.873,3.38-1.717,6.488C432.928,96.2,425,125.385,426.841,132.764c1.822,7.273,6.105,29.8,3.072,34.159a2.071,2.071,0,0,1-.642.647,2.113,2.113,0,0,1-.861.309,5.006,5.006,0,0,0-3.828,2.212c-1.18,1.81-1.18,4.512-.089,7.815a31.653,31.653,0,0,0,2.49,5.311c2.265,4.1,4.606,8.34,2.177,16.274-.591,1.857-1.18,3.758-1.812,5.6-2.866,8.6-5.834,17.5-2.879,24.508,1.635,3.875,3.871,10.37,6.241,17.237,3.1,9.007,6.305,18.314,8.659,23.275.921,1.946,2.107,4.129,3.476,6.612,4.718,8.624,11.206,20.433,13.376,35.805.756,5.309,5.5,12.252,10.088,18.965,6.9,10.109,13.418,19.653,8.334,25.363-5.2,5.817-16.078,3.54-25.676,1.493-5.444-1.151-10.582-2.236-12.847-1.268-1.563.671-3.54,1.721-5.792,2.949-6.381,3.385-14.913,7.953-22.208,7.953m-39.827-16.865c6.217,0,14.233,4.182,22,8.257,6.046,3.157,11.756,6.141,15.868,6.725,7.178,1.013,16.517-3.993,23.328-7.668,2.306-1.24,4.3-2.306,5.935-3.008,2.778-1.18,7.934-.1,13.91,1.18,8.675,1.835,19.463,4.129,23.994-.939,4.16-4.648-2.269-14.056-8.482-23.151-4.718-6.884-9.561-14-10.374-19.719-2.154-15.053-8.525-26.7-13.179-35.2-1.386-2.531-2.578-4.718-3.54-6.707-2.358-5.049-5.615-14.4-8.729-23.452-2.36-6.843-4.59-13.306-6.194-17.106-3.214-7.627-.142-16.84,2.825-25.754.591-1.829,1.24-3.721,1.771-5.556,2.212-7.22.241-10.778-2.03-14.9a32.583,32.583,0,0,1-2.619-5.58c-1.616-4.831-.743-7.738.278-9.332a6.791,6.791,0,0,1,5.119-3.013c.078,0,.161-.078.249-.208,2.306-3.313-1-23.352-3.34-32.719-1.952-7.828,5.77-36.259,9.487-49.92.807-2.949,1.443-5.309,1.7-6.418.519-2.259,1.326-3.5,2.547-3.934,1.936-.672,4.129,1.056,6.653,3.067.348.271.7.555,1.056.832.159.124.212.1.272.077,1.6-.637,4.565-8.459,7.631-28.408.768-4.978,4.643-8.907,7.751-12.057.838-.855,1.635-1.658,2.242-2.359.974-1.139,2.107-3.728,3.3-6.488,2.119-4.849,4.514-10.34,7.668-11.927,1.8-.9,2.809-.195,3.249.307,2.006,2.271.095,9.768-2.123,13.095-2,3-3.12,11.078-1.516,15.218A3.682,3.682,0,0,0,477.4,46.88a5.186,5.186,0,0,0,4.678-1.522c1.857-1.663,7.71-8.683,4.948-29.192-.9-6.695-3.2-11.1-6.836-13.077-6.837-3.734-17.6,1.3-25.458,4.973l-1.876.867c-12.388,5.716-28.266,11.75-36.962,14.039-5.309,1.4-9.137,6.1-12.835,10.618a46.5,46.5,0,0,1-6.884,7.373,119.51,119.51,0,0,1-11.443,7.261c-7.362,4.347-15.707,9.273-21.6,14.6-9.509,8.606-17.4,29.711-20.244,39.668-1.67,5.828-7.58,12.67-13.3,19.283-4.052,4.683-7.874,9.107-9.6,12.558-2.306,4.619-4.094,13.7-5.817,22.486-1.351,6.855-2.743,13.939-4.388,18.874a85.952,85.952,0,0,1-5.391,11.857c-3.657,7.079-7.438,14.394-7.143,22.315.465,12.711-7.969,43.649-12.823,57.394-4,11.33-3.435,16.922-1.316,37.751.406,4,.867,8.529,1.361,13.768,3.062,32.377,5.2,36.894,12.318,40.788,4.287,2.36,7.3,1,11.111-.721a26.768,26.768,0,0,1,7.928-2.535c4.131-.484,8.259.465,12.635,1.468,4.195.962,8.529,1.958,13.049,1.68,4.394-.27,7.963-1.993,11.731-3.81,4.059-1.958,8.257-3.976,13.879-4.466a9.429,9.429,0,0,1,1.17-.064" transform="translate(-222.16 0)" fill="#431426"/>
        <path id="Path_1129" data-name="Path 1129" d="M402.943,1486.63a16.979,16.979,0,1,0,12.009,4.973,16.992,16.992,0,0,0-12.009-4.973m.98,25.482a9.473,9.473,0,1,1,6.7-2.776,9.463,9.463,0,0,1-6.7,2.776" transform="translate(-306.485 -1180.505)" fill="#0bbfa4"/>
        <path id="Path_1130" data-name="Path 1130" d="M399.529,1518.067a17.893,17.893,0,1,1,12.627-5.241,17.856,17.856,0,0,1-12.627,5.241m0-33.964a16.118,16.118,0,1,0,11.377,4.72,16.1,16.1,0,0,0-11.377-4.72m.98,25.47a10.37,10.37,0,1,1,7.32-3.037,10.355,10.355,0,0,1-7.32,3.037m0-18.947a8.591,8.591,0,1,0,6.07,2.516,8.572,8.572,0,0,0-6.07-2.516" transform="translate(-303.071 -1177.092)" fill="#431426"/>
        <path id="Path_1131" data-name="Path 1131" d="M490.809,727.892a16.987,16.987,0,1,0,10.422-7.772,16.963,16.963,0,0,0-10.422,7.772m22.373,12.215a9.479,9.479,0,1,1,1.042-7.166,9.473,9.473,0,0,1-1.042,7.166" transform="translate(-387.844 -571.42)" fill="#0bbfa4"/>
        <path id="Path_1132" data-name="Path 1132" d="M501.833,751.124a17.918,17.918,0,1,1,4.376-.548,18.028,18.028,0,0,1-4.376.548M488.041,725a16.118,16.118,0,1,0,9.886-7.348A16.106,16.106,0,0,0,488.041,725m13.438,17.26a10.279,10.279,0,1,1,5.125-1.334,10.344,10.344,0,0,1-5.125,1.334m0-18.94a8.586,8.586,0,1,0,4.314,1.17,8.581,8.581,0,0,0-4.314-1.17" transform="translate(-384.315 -568.075)" fill="#431426"/>
        <path id="Path_1133" data-name="Path 1133" d="M976.814,127.534a14.322,14.322,0,1,0,8.793-6.544,14.321,14.321,0,0,0-8.793,6.544m18.877,10.3a3.088,3.088,0,1,0-.012,0Z" transform="translate(-774.063 -95.731)" fill="#0bbfa4"/>
        <path id="Path_1134" data-name="Path 1134" d="M985.656,146.762a15.208,15.208,0,1,1,7.586-2.012,15.2,15.2,0,0,1-7.586,2.012m.047-28.644a13.443,13.443,0,1,0,8.2,2.8,13.453,13.453,0,0,0-8.2-2.8m-.323,21.164a8.873,8.873,0,1,1,2.183-.265,8.844,8.844,0,0,1-2.183.265m0-15.985a7,7,0,1,0,.023,0Z" transform="translate(-770.636 -92.391)" fill="#431426"/>
        <path id="Path_1135" data-name="Path 1135" d="M662.48,398.344a32.861,32.861,0,1,0-32.86-32.861,32.862,32.862,0,0,0,32.86,32.861" transform="translate(-499.97 -264.129)" fill="#f57162"/>
        <path id="Path_1136" data-name="Path 1136" d="M659.094,395.817a33.784,33.784,0,1,1,23.856-9.894,33.736,33.736,0,0,1-23.856,9.894m0-65.722a32.011,32.011,0,1,0,22.606,9.374,31.972,31.972,0,0,0-22.606-9.374" transform="translate(-496.583 -260.717)" fill="#431426"/>
        <path id="Path_1137" data-name="Path 1137" d="M845.254,389.5a3.144,3.144,0,1,0-3.144-3.144,3.145,3.145,0,0,0,3.144,3.144" transform="translate(-668.704 -304.299)" fill="#fffaf4"/>
        <path id="Path_1138" data-name="Path 1138" d="M692.2,531.864a3.651,3.651,0,1,0-3.144-3.616,3.405,3.405,0,0,0,3.144,3.616" transform="translate(-547.17 -416.601)" fill="#fffaf4"/>
        <path id="Path_1139" data-name="Path 1139" d="M869.373,560.3a2.883,2.883,0,1,0-2.483-2.855,2.689,2.689,0,0,0,2.483,2.855" transform="translate(-688.381 -440.394)" fill="#fffaf4"/>
        <path id="Path_1140" data-name="Path 1140" d="M756.688,379.289a2.507,2.507,0,1,0-3.742.556,2.689,2.689,0,0,0,3.742-.556" transform="translate(-597.272 -297.757)" fill="#fffaf4"/>
        <path id="Path_1141" data-name="Path 1141" d="M780.762,497.512a2.507,2.507,0,1,0-3.742.553,2.689,2.689,0,0,0,3.742-.553" transform="translate(-616.39 -391.635)" fill="#fffaf4"/>
        <path id="Path_1142" data-name="Path 1142" d="M779.663,609.544a2.043,2.043,0,1,0-3.052.454,2.192,2.192,0,0,0,3.052-.454" transform="translate(-616.182 -481.231)" fill="#fffaf4"/>
        <path id="Path_1143" data-name="Path 1143" d="M682.719,446.993a2.044,2.044,0,1,0-3.052.454,2.192,2.192,0,0,0,3.052-.454" transform="translate(-539.2 -352.152)" fill="#fffaf4"/>
        <path id="Path_1144" data-name="Path 1144" d="M886.2,479.308a2.044,2.044,0,1,0-3.052.454,2.192,2.192,0,0,0,3.052-.454" transform="translate(-700.783 -377.813)" fill="#fffaf4"/>
        <path id="Path_1145" data-name="Path 1145" d="M841.864,386.97a4.035,4.035,0,1,1,2.85-1.18,4.026,4.026,0,0,1-2.85,1.18m0-6.288a2.265,2.265,0,1,0,1.6.661,2.261,2.261,0,0,0-1.6-.661" transform="translate(-665.314 -300.887)" fill="#431426"/>
        <path id="Path_1146" data-name="Path 1146" d="M688.79,529.336a4.528,4.528,0,1,1,4.028-4.5,4.291,4.291,0,0,1-4.028,4.5m0-7.232a2.78,2.78,0,1,0,2.259,2.731,2.533,2.533,0,0,0-2.259-2.731" transform="translate(-543.755 -413.189)" fill="#431426"/>
        <path id="Path_1147" data-name="Path 1147" d="M865.959,557.772a3.757,3.757,0,1,1,3.369-3.734,3.57,3.57,0,0,1-3.369,3.734m0-5.7a2.01,2.01,0,1,0,1.6,1.97,1.814,1.814,0,0,0-1.6-1.97" transform="translate(-684.967 -436.981)" fill="#431426"/>
        <path id="Path_1148" data-name="Path 1148" d="M751.26,378.6a3.142,3.142,0,0,1-2.059-.749,3.207,3.207,0,0,1-.818-1.1,3.174,3.174,0,0,1-.284-1.342,3.987,3.987,0,0,1,.972-2.59,3.575,3.575,0,0,1,4.992-.649,3.212,3.212,0,0,1,1.1,2.442,4.039,4.039,0,0,1-3.379,3.946,3.208,3.208,0,0,1-.525.041m.731-5.409a2.133,2.133,0,0,0-1.575.779,2.23,2.23,0,0,0-.548,1.422,1.478,1.478,0,0,0,.119.61,1.411,1.411,0,0,0,1.544.811,2.283,2.283,0,0,0,1.87-2.188,1.438,1.438,0,0,0-.484-1.109,1.4,1.4,0,0,0-.927-.324" transform="translate(-594.052 -294.943)" fill="#431426"/>
        <path id="Path_1149" data-name="Path 1149" d="M775.093,496.037a3.139,3.139,0,0,1-2.063-.749,3.758,3.758,0,1,1,4.989-.649,3.9,3.9,0,0,1-2.926,1.4m.727-5.409a2.121,2.121,0,0,0-1.575.785,1.633,1.633,0,1,0,2.43,2.076,1.8,1.8,0,0,0,.066-2.536,1.393,1.393,0,0,0-.92-.324" transform="translate(-612.978 -388.2)" fill="#431426"/>
        <path id="Path_1150" data-name="Path 1150" d="M774.411,607.861a2.711,2.711,0,0,1-1.956-.8,2.7,2.7,0,0,1-.787-1.962,3.456,3.456,0,0,1,2.9-3.386,2.745,2.745,0,0,1,2.234.619,3.075,3.075,0,0,1,.119,4.33,3.326,3.326,0,0,1-2.508,1.2m.591-4.412a1.033,1.033,0,0,0-.189,0,1.687,1.687,0,0,0-1.38,1.616.988.988,0,0,0,.078.429,1.012,1.012,0,0,0,.251.356,1.486,1.486,0,0,0,1.806-.356,1.488,1.488,0,0,0,.076-1.839.978.978,0,0,0-.636-.207Z" transform="translate(-612.767 -477.781)" fill="#431426"/>
        <path id="Path_1151" data-name="Path 1151" d="M677.521,445.243a2.724,2.724,0,0,1-1.769-.649,3.065,3.065,0,0,1-.12-4.33,3.379,3.379,0,0,1,2.059-1.18,2.728,2.728,0,0,1,3.192,2.731,3.495,3.495,0,0,1-2.9,3.4,2.836,2.836,0,0,1-.465.03m.589-4.406a.981.981,0,0,0-.187,0,1.6,1.6,0,0,0-.98.59,1.321,1.321,0,0,0-.07,1.835,1.02,1.02,0,0,0,.826.212,1.756,1.756,0,0,0,1.386-1.64,1,1,0,0,0-.336-.785.97.97,0,0,0-.626-.212Z" transform="translate(-535.842 -348.637)" fill="#431426"/>
        <path id="Path_1152" data-name="Path 1152" d="M880.986,477.6a2.735,2.735,0,0,1-1.771-.649,2.793,2.793,0,0,1-.955-2.118,3.482,3.482,0,0,1,2.9-3.386,2.79,2.79,0,0,1,2.236.619,3.08,3.08,0,0,1,.117,4.336,3.4,3.4,0,0,1-2.063,1.18,2.879,2.879,0,0,1-.465.018m.589-4.412h-.189a1.582,1.582,0,0,0-.972.59,1.615,1.615,0,0,0-.414,1.056,1.048,1.048,0,0,0,.336.785,1.032,1.032,0,0,0,.391.193,1.014,1.014,0,0,0,.434.013,1.616,1.616,0,0,0,.98-.59,1.321,1.321,0,0,0,.076-1.841.99.99,0,0,0-.63-.206Z" transform="translate(-697.41 -374.339)" fill="#431426"/>
        <path id="Path_1153" data-name="Path 1153" d="M782.247,1459.995a34.837,34.837,0,1,0-34.837-34.837,34.836,34.836,0,0,0,34.837,34.837" transform="translate(-593.505 -1104.028)" fill="#f57162"/>
        <path id="Path_1154" data-name="Path 1154" d="M778.839,1457.515a35.456,35.456,0,1,1,19.076-5.424,35.719,35.719,0,0,1-19.076,5.424m.107-69.675a33.951,33.951,0,1,0,16.4,4.252,33.959,33.959,0,0,0-16.4-4.252" transform="translate(-590.15 -1100.663)" fill="#431426"/>
        <path id="Path_1155" data-name="Path 1155" d="M1011.932,1491.746a3.333,3.333,0,1,0-3.332-3.332,3.332,3.332,0,0,0,3.332,3.332" transform="translate(-800.911 -1179.275)" fill="#fffaf4"/>
        <path id="Path_1156" data-name="Path 1156" d="M802.269,1555.129a3.365,3.365,0,1,0-4.664,2.012,3.611,3.611,0,0,0,4.664-2.012" transform="translate(-631.956 -1230.779)" fill="#fffaf4"/>
        <path id="Path_1157" data-name="Path 1157" d="M959.215,1663.161a2.657,2.657,0,1,0-3.682,1.588,2.85,2.85,0,0,0,3.682-1.588" transform="translate(-757.66 -1317.432)" fill="#fffaf4"/>
        <path id="Path_1158" data-name="Path 1158" d="M930.837,1441.653a2.657,2.657,0,1,0-3.828-1.188,2.849,2.849,0,0,0,3.828,1.188" transform="translate(-735.964 -1140.734)" fill="#fffaf4"/>
        <path id="Path_1159" data-name="Path 1159" d="M899.653,1564.811a2.657,2.657,0,1,0-3.83-1.19,2.85,2.85,0,0,0,3.83,1.19" transform="translate(-711.2 -1238.531)" fill="#fffaf4"/>
        <path id="Path_1160" data-name="Path 1160" d="M848.362,1670.582a2.167,2.167,0,1,0-3.122-.972,2.32,2.32,0,0,0,3.122.972" transform="translate(-671.062 -1323.27)" fill="#fffaf4"/>
        <path id="Path_1161" data-name="Path 1161" d="M830.391,1470.748a2.168,2.168,0,1,0-3.122-.972,2.323,2.323,0,0,0,3.122.972" transform="translate(-656.792 -1164.584)" fill="#fffaf4"/>
        <path id="Path_1162" data-name="Path 1162" d="M1009.962,1595.024a2.168,2.168,0,1,0-3.122-.972,2.324,2.324,0,0,0,3.122.972" transform="translate(-799.386 -1263.269)" fill="#fffaf4"/>
        <path id="Path_1163" data-name="Path 1163" d="M1008.484,1489.671a4.222,4.222,0,1,1,2.251-.645,4.215,4.215,0,0,1-2.251.645m0-6.672a2.4,2.4,0,0,0-.807.142,2.448,2.448,0,0,0-.033,4.609,2.448,2.448,0,0,0,3.048-1.235,2.438,2.438,0,0,0,.239-.925,2.5,2.5,0,0,0-.134-.945,2.45,2.45,0,0,0-1.25-1.4,2.4,2.4,0,0,0-1.056-.247Z" transform="translate(-797.469 -1176.314)" fill="#431426"/>
        <path id="Path_1164" data-name="Path 1164" d="M795.5,1555.049a3.844,3.844,0,0,1-1.664-.379,4.744,4.744,0,1,1,5.846-2.424,4.761,4.761,0,0,1-4.182,2.8m.75-7.491a3,3,0,0,0-2.578,1.769,2.492,2.492,0,1,0,3.486-1.592,2.034,2.034,0,0,0-.908-.177" transform="translate(-628.565 -1227.482)" fill="#431426"/>
        <path id="Path_1165" data-name="Path 1165" d="M953.147,1662.593a3.227,3.227,0,0,1-1.392-.319,3.932,3.932,0,1,1,4.86-2,3.953,3.953,0,0,1-3.468,2.318m.589-5.9a2.188,2.188,0,0,0-1.864,1.316,1.783,1.783,0,1,0,2.5-1.174,1.406,1.406,0,0,0-.638-.158Z" transform="translate(-754.258 -1314.134)" fill="#431426"/>
        <path id="Path_1166" data-name="Path 1166" d="M926.057,1439.486a3.534,3.534,0,0,1-3.284-2.012,3.93,3.93,0,1,1,5,1.647,4.245,4.245,0,0,1-1.711.365m.6-5.4a2.536,2.536,0,0,0-1.015.218,1.784,1.784,0,1,0,2.667.737,1.772,1.772,0,0,0-1.651-.955" transform="translate(-732.543 -1137.373)" fill="#431426"/>
        <path id="Path_1167" data-name="Path 1167" d="M894.774,1562.689a4.028,4.028,0,0,1-1.18-.177,3.283,3.283,0,0,1-1.26-.682,3.281,3.281,0,0,1-1.128-2.56,3.294,3.294,0,0,1,.348-1.39,4.248,4.248,0,0,1,4.979-2.2,3.28,3.28,0,0,1,1.266.682,3.27,3.27,0,0,1,1.135,2.566,3.261,3.261,0,0,1-.348,1.4,4.129,4.129,0,0,1-2.094,2,4.221,4.221,0,0,1-1.717.36m.591-5.4a2.47,2.47,0,0,0-1,.212,2.354,2.354,0,0,0-1.18,1.139,1.522,1.522,0,0,0,.962,2.183,2.462,2.462,0,0,0,2.848-1.258,1.505,1.505,0,0,0-.962-2.181,2.136,2.136,0,0,0-.655-.1Z" transform="translate(-707.689 -1235.211)" fill="#431426"/>
        <path id="Path_1168" data-name="Path 1168" d="M843.883,1668.342a3.3,3.3,0,0,1-1-.155,2.866,2.866,0,0,1-1.824-1.585,3.212,3.212,0,0,1,1.853-4.129,3.49,3.49,0,0,1,2.465-.165,2.841,2.841,0,0,1,1.085.593,2.872,2.872,0,0,1,.737.992,3.208,3.208,0,0,1-1.845,4.129,3.693,3.693,0,0,1-1.468.319m.488-4.407a1.933,1.933,0,0,0-.754.159,1.461,1.461,0,0,0-.939,1.771,1.116,1.116,0,0,0,.3.373,1.1,1.1,0,0,0,.428.216,1.754,1.754,0,0,0,1.231-.095,1.45,1.45,0,0,0,.939-1.769,1.144,1.144,0,0,0-.3-.375,1.12,1.12,0,0,0-.428-.214,1.631,1.631,0,0,0-.478-.066" transform="translate(-667.704 -1319.889)" fill="#431426"/>
        <path id="Path_1169" data-name="Path 1169" d="M825.933,1468.526a3.031,3.031,0,0,1-2.831-1.734,3.212,3.212,0,0,1,1.853-4.129,3.533,3.533,0,0,1,2.465-.161,2.835,2.835,0,0,1,2.067,2.8,2.8,2.8,0,0,1-.3,1.2,3.526,3.526,0,0,1-1.769,1.711,3.622,3.622,0,0,1-1.487.313m.484-4.407a1.883,1.883,0,0,0-.756.165,1.315,1.315,0,0,0-.908.671,1.325,1.325,0,0,0-.148.56,1.309,1.309,0,0,0,.457,1.034,1.3,1.3,0,0,0,.513.268,1.336,1.336,0,0,0,.579.016,1.293,1.293,0,0,0,.529-.237,1.755,1.755,0,0,0,.9-.849,1.1,1.1,0,0,0,.041-.945,1.094,1.094,0,0,0-.3-.373,1.132,1.132,0,0,0-.426-.216,1.639,1.639,0,0,0-.478-.095" transform="translate(-653.448 -1161.228)" fill="#431426"/>
        <path id="Path_1170" data-name="Path 1170" d="M1005.347,1592.908a3.386,3.386,0,0,1-1-.152,2.837,2.837,0,0,1-1.769-4,3.63,3.63,0,0,1,4.265-1.859,2.881,2.881,0,0,1,1.822,1.588,3.209,3.209,0,0,1-1.847,4.129,3.666,3.666,0,0,1-1.468.294m.49-4.407a1.928,1.928,0,0,0-.766.167,1.766,1.766,0,0,0-.9.848,1.092,1.092,0,0,0-.126.467,1.079,1.079,0,0,0,.084.476,1.125,1.125,0,0,0,.3.375,1.159,1.159,0,0,0,.426.216,1.769,1.769,0,0,0,1.233-.095,1.452,1.452,0,0,0,.939-1.769,1.1,1.1,0,0,0-.3-.375,1.124,1.124,0,0,0-.428-.216,1.631,1.631,0,0,0-.465-.095" transform="translate(-795.889 -1260.01)" fill="#431426"/>
        <path id="Path_1171" data-name="Path 1171" d="M608.69,1604.9c-4.347,0-10.111-5.381-10.842-6.083a.852.852,0,0,1-.208-.282.885.885,0,0,1-.082-.34.872.872,0,0,1,.058-.348.912.912,0,0,1,.185-.3.926.926,0,0,1,.288-.2.881.881,0,0,1,.98.187c2.844,2.718,8.257,6.583,10.693,5.368l1.74-.873a40.991,40.991,0,0,1,6.624-2.916.9.9,0,0,1,.659.076.878.878,0,0,1,.422.513.882.882,0,0,1-.55,1.1,38.966,38.966,0,0,0-6.34,2.807l-1.771.879a4.165,4.165,0,0,1-1.857.408" transform="translate(-474.509 -1268.371)" fill="#431426"/>
        <path id="Path_1172" data-name="Path 1172" d="M348.448,1304.664a3.194,3.194,0,0,1-.342,0c-2.29-.329-3.812-3.8-5.428-7.479-.589-1.3-1.1-2.518-1.627-3.486a.861.861,0,0,1,1.007-1.242.892.892,0,0,1,.521.41c.589,1.032,1.114,2.294,1.7,3.622,1.18,2.636,2.743,6.252,4.052,6.441.336.047.737-.206,1.178-.743.828-.984,1.6-2.034,2.277-2.949,1.771-2.43,3.068-4.182,4.619-4.036,1.215.113,1.812,1.369,2.006,1.771a2.557,2.557,0,0,0,2.512,1.705c1.3-.171,2.951-1.724,3.616-5.539a.885.885,0,0,1,1.74.313c-.725,4.04-2.642,6.647-5.125,6.977a4.237,4.237,0,0,1-4.341-2.7c-.348-.731-.591-.785-.591-.785-.548-.052-2.034,1.983-3.019,3.321-.7.949-1.487,2.024-2.36,3.05a3.287,3.287,0,0,1-1.048.937,3.237,3.237,0,0,1-1.347.408" transform="translate(-270.741 -1026.287)" fill="#431426"/>
        <path id="Path_1173" data-name="Path 1173" d="M823.712,875.239c-5.309,0-8.064-8.848-8.187-9.285a.887.887,0,1,1,1.7-.513c0,.093,2.856,9.266,7.479,7.874,2.619-.785,4.131-3.3,5.339-5.308s2.407-4.024,4.423-3.1,4.761-1.227,5.65-2.135a.89.89,0,0,1,.286-.208.88.88,0,0,1,.986.175.876.876,0,0,1,.2.29.878.878,0,0,1-.006.692.829.829,0,0,1-.2.288c-.165.167-4.129,4.131-7.666,2.508-.544-.247-1.18.743-2.177,2.395-1.293,2.164-3.068,5.131-6.342,6.116a5.378,5.378,0,0,1-1.481.208" transform="translate(-647.563 -684.885)" fill="#431426"/>
        <path id="Path_1174" data-name="Path 1174" d="M558.356,637.577a2.259,2.259,0,0,1-1.209-.342c-2.66-1.634-1.769-8.736-1.433-10.877a.874.874,0,0,1,.117-.325.883.883,0,0,1,1.614.256.851.851,0,0,1,.014.346c-.7,4.459-.43,8.453.589,9.1.43.265,1.233-.23,1.67-.549a32.731,32.731,0,0,0,3.221-2.7c1.946-1.8,3.357-3.1,5.976-.69a2.8,2.8,0,0,0,2.053.979c.836-.1,1.532-1.062,2.117-1.953a.886.886,0,1,1,1.481.973c-.591.885-1.658,2.525-3.385,2.737a4.422,4.422,0,0,1-3.464-1.433c-1.421-1.309-1.623-1.121-3.581.69a34.5,34.5,0,0,1-3.379,2.831,4.27,4.27,0,0,1-2.4.956" transform="translate(-440.951 -496.785)" fill="#431426"/>
        <path id="Path_1175" data-name="Path 1175" d="M898.341,250.436a3.468,3.468,0,0,1-.544-.047c-1.367-.236-2.488-1.315-3.427-3.3-.424-.9-.424-.9-1.851-.431a17.448,17.448,0,0,1-4.2.92,2.362,2.362,0,0,1-2.625-1.876c-.962-3.5,2.9-13.372,4.195-13.992a.885.885,0,0,1,.908,1.51c-.962,1.144-4.454,9.963-3.291,12.287.095.195.206.348.655.307a15.813,15.813,0,0,0,3.81-.838c1.5-.489,2.914-.95,4.005,1.357.661,1.41,1.375,2.182,2.123,2.312,1.275.218,2.951-1.451,4.03-2.554,1.9-1.923,4.129-2.194,6.141-2.43.537-.065,1.044-.124,1.528-.218a.885.885,0,1,1,.323,1.74c-.542.1-1.1.171-1.639.236-1.864.224-3.622.436-5.1,1.917-1.316,1.327-3.078,3.1-5.043,3.1" transform="translate(-703.192 -183.925)" fill="#431426"/>
        <path id="Path_1176" data-name="Path 1176" d="M1248.717,162.495a3.412,3.412,0,0,1-1.4-.336c-2.949-1.351-2.654-6.831-2.613-7.45a.888.888,0,0,1,.949-.814.877.877,0,0,1,.332.091.894.894,0,0,1,.272.211.852.852,0,0,1,.169.3.836.836,0,0,1,.041.342c-.088,1.251,0,4.99,1.582,5.71.294.13.684.253.914.112.348-.218.531-1.038.544-1.522a.884.884,0,0,1,1.522-.6.887.887,0,0,1,.247.631,3.837,3.837,0,0,1-1.369,2.985,2.215,2.215,0,0,1-1.19.336" transform="translate(-988.376 -122.203)" fill="#431426"/>
        <path id="Path_1177" data-name="Path 1177" d="M1239.932,43.441a7.767,7.767,0,0,1-1.74-.206.885.885,0,0,1,.424-1.717,3.967,3.967,0,0,0,2.572-.124.676.676,0,0,0,.2-.263.659.659,0,0,0,.047-.327.885.885,0,1,1,1.769.059,2.431,2.431,0,0,1-.949,1.923,3.853,3.853,0,0,1-2.323.655" transform="translate(-982.717 -31.722)" fill="#431426"/>
        <path id="Path_1178" data-name="Path 1178" d="M1122.271,59.7a2.217,2.217,0,0,1-2.148-1.091c-.914-1.7.848-4.589,1.415-5.433a.917.917,0,0,1,.239-.27.886.886,0,0,1,1.275.229.9.9,0,0,1,.13.336.887.887,0,0,1-.016.36.869.869,0,0,1-.157.324c-.85,1.286-1.6,3.1-1.322,3.616.06.118.342.159.589.159a6.685,6.685,0,0,0,3.34-.767,2.6,2.6,0,0,1,2.088-.336.891.891,0,1,1-.591,1.681c-.124-.041-.241,0-.754.248a8.452,8.452,0,0,1-4.088.944" transform="translate(-889.265 -41.875)" fill="#431426"/>
        <path id="Path_1179" data-name="Path 1179" d="M1154.834,1713.475a1.033,1.033,0,1,0-1.034-1.034,1.034,1.034,0,0,0,1.034,1.034" transform="translate(-916.211 -1358.999)" fill="#431426"/>
        <path id="Path_1180" data-name="Path 1180" d="M1139.342,1670.623a1.032,1.032,0,1,0-1.032-1.032,1.031,1.031,0,0,0,1.032,1.032" transform="translate(-903.911 -1324.973)" fill="#431426"/>
        <path id="Path_1181" data-name="Path 1181" d="M1211.122,1874.775a1.033,1.033,0,1,0-1.032-1.032,1.034,1.034,0,0,0,1.032,1.032" transform="translate(-960.91 -1487.084)" fill="#431426"/>
        <path id="Path_1182" data-name="Path 1182" d="M1139.342,1849.573a1.032,1.032,0,1,0-1.032-1.032,1.031,1.031,0,0,0,1.032,1.032" transform="translate(-903.911 -1467.074)" fill="#431426"/>
        <path id="Path_1183" data-name="Path 1183" d="M1116.392,1874.775a1.033,1.033,0,1,0-1.032-1.032,1.034,1.034,0,0,0,1.032,1.032" transform="translate(-885.687 -1487.084)" fill="#431426"/>
        <path id="Path_1184" data-name="Path 1184" d="M720.282,493.3a1.032,1.032,0,1,0-1.032-1.032,1.033,1.033,0,0,0,1.032,1.032" transform="translate(-571.143 -390.077)" fill="#431426"/>
        <path id="Path_1185" data-name="Path 1185" d="M829.512,554.425a1.032,1.032,0,1,0-1.032-1.032,1.032,1.032,0,0,0,1.032,1.032" transform="translate(-657.881 -438.619)" fill="#431426"/>
        <path id="Path_1186" data-name="Path 1186" d="M810.744,628.5a1.032,1.032,0,1,0-1.034-1.032,1.032,1.032,0,0,0,1.034,1.032" transform="translate(-642.976 -497.442)" fill="#431426"/>
        <path id="Path_1187" data-name="Path 1187" d="M1006.764,235.659a1.032,1.032,0,1,0-1.034-1.032,1.032,1.032,0,0,0,1.034,1.032" transform="translate(-798.632 -185.493)" fill="#431426"/>
        <path id="Path_1188" data-name="Path 1188" d="M603.552,859.755a1.033,1.033,0,1,0-1.032-1.034,1.034,1.034,0,0,0,1.032,1.034" transform="translate(-478.45 -681.076)" fill="#431426"/>
        <path id="Path_1189" data-name="Path 1189" d="M555.662,859.755a1.033,1.033,0,1,0-1.032-1.034,1.033,1.033,0,0,0,1.032,1.034" transform="translate(-440.421 -681.076)" fill="#431426"/>
        <path id="Path_1190" data-name="Path 1190" d="M492.442,1629a1.032,1.032,0,1,0-1.032-1.032,1.031,1.031,0,0,0,1.032,1.032" transform="translate(-390.22 -1291.923)" fill="#431426"/>
        <path id="Path_1191" data-name="Path 1191" d="M887.772,1626.8a1.033,1.033,0,1,0-1.032-1.034,1.034,1.034,0,0,0,1.032,1.034" transform="translate(-704.144 -1290.168)" fill="#431426"/>
        <path id="Path_1192" data-name="Path 1192" d="M982.762,1692.423a1.032,1.032,0,1,0-1.032-1.032,1.031,1.031,0,0,0,1.032,1.032" transform="translate(-779.574 -1342.284)" fill="#431426"/>
        <path id="Path_1193" data-name="Path 1193" d="M983.392,1201.635a1.033,1.033,0,1,0-1.032-1.032,1.033,1.033,0,0,0,1.032,1.032" transform="translate(-780.074 -952.556)" fill="#431426"/>
        <g id="Group_608" data-name="Group 608" transform="translate(261.024 373.952)" opacity="0.1" style="mix-blend-mode: normal;isolation: isolate">
          <g id="Group_607" data-name="Group 607">
            <g id="Group_606" data-name="Group 606" clip-path="url(#clip-path-3)">
              <path id="Path_1194" data-name="Path 1194" d="M1272.08,1823.388c-2.465,0-4.47-1.652-4.47-3.68s2.006-3.688,4.47-3.688,4.479,1.652,4.479,3.688-2.012,3.68-4.479,3.68m0-5.6c-1.462,0-2.7.879-2.7,1.917s1.24,1.911,2.7,1.911,2.708-.879,2.708-1.911-1.215-1.917-2.708-1.917" transform="translate(-1267.61 -1816.02)" fill="#431426"/>
            </g>
          </g>
        </g>
        <g id="Group_611" data-name="Group 611" transform="translate(211.363 360.503)" opacity="0.1" style="mix-blend-mode: normal;isolation: isolate">
          <g id="Group_610" data-name="Group 610">
            <g id="Group_609" data-name="Group 609" clip-path="url(#clip-path-4)">
              <path id="Path_1195" data-name="Path 1195" d="M1029.657,1757.122h-.344a3.226,3.226,0,0,1-2.16-1.178,3.176,3.176,0,0,1-.581-1.112,3.22,3.22,0,1,1,3.085,2.29m0-4.66a1.462,1.462,0,0,0-.91.319,1.445,1.445,0,0,0,1.59,2.393,1.451,1.451,0,0,0,.525-.461,1.424,1.424,0,0,0-.068-1.713,1.451,1.451,0,0,0-.972-.531Z" transform="translate(-1026.441 -1750.709)" fill="#431426"/>
            </g>
          </g>
        </g>
        <g id="Group_614" data-name="Group 614" transform="translate(105.536 379.005)" opacity="0.1" style="mix-blend-mode: normal;isolation: isolate">
          <g id="Group_613" data-name="Group 613">
            <g id="Group_612" data-name="Group 612" clip-path="url(#clip-path-5)">
              <path id="Path_1196" data-name="Path 1196" d="M517.522,1848.352a5.156,5.156,0,0,1-2.56-.713c-2.135-1.234-3.05-3.663-2.036-5.422a3.38,3.38,0,0,1,2.549-1.622,4.985,4.985,0,0,1,3.167.667c2.135,1.234,3.05,3.669,2.034,5.428a3.395,3.395,0,0,1-2.541,1.621,4.114,4.114,0,0,1-.614.041m-1.433-6.027a2.262,2.262,0,0,0-.373,0,1.655,1.655,0,0,0-1.256.754c-.519.9.117,2.271,1.386,3.008a3.282,3.282,0,0,0,2.041.449,1.658,1.658,0,0,0,1.258-.756c.519-.9-.119-2.275-1.388-3.008a3.34,3.34,0,0,0-1.668-.447" transform="translate(-512.513 -1840.557)" fill="#431426"/>
            </g>
          </g>
        </g>
        <g id="Group_617" data-name="Group 617" transform="translate(142.388 355.257)" opacity="0.1" style="mix-blend-mode: normal;isolation: isolate">
          <g id="Group_616" data-name="Group 616">
            <g id="Group_615" data-name="Group 615" clip-path="url(#clip-path-6)">
              <path id="Path_1197" data-name="Path 1197" d="M694.8,1730.483a3.374,3.374,0,0,1-1.686-.465,3.32,3.32,0,0,1-1.427-1.582,2.248,2.248,0,0,1,.83-2.842,2.27,2.27,0,0,1,1.009-.344,3.338,3.338,0,0,1,2.078.449,3.274,3.274,0,0,1,1.421,1.575,2.243,2.243,0,0,1-.089,2.074,2.245,2.245,0,0,1-1.752,1.112,2.653,2.653,0,0,1-.383.023m-.89-3.486h-.148a.481.481,0,0,0-.261.056.454.454,0,0,0-.194.185.479.479,0,0,0-.066.26.5.5,0,0,0,.084.255,1.671,1.671,0,0,0,1.629.937.471.471,0,0,0,.257-.058.489.489,0,0,0,.257-.443.5.5,0,0,0-.078-.253,1.607,1.607,0,0,0-.673-.721,1.648,1.648,0,0,0-.807-.241Z" transform="translate(-691.479 -1725.23)" fill="#431426"/>
            </g>
          </g>
        </g>
        <g id="Group_620" data-name="Group 620" transform="translate(64.228 365.762)" opacity="0.1" style="mix-blend-mode: normal;isolation: isolate">
          <g id="Group_619" data-name="Group 619">
            <g id="Group_618" data-name="Group 618" clip-path="url(#clip-path-7)">
              <path id="Path_1198" data-name="Path 1198" d="M315.226,1781.493a3.381,3.381,0,0,1-1.7-.472,3.3,3.3,0,0,1-1.421-1.575,2.345,2.345,0,0,1,.095-2.069,3.023,3.023,0,0,1,5.154,2.978,2.4,2.4,0,0,1-2.129,1.139m-.879-3.48a.679.679,0,0,0-.325.052.687.687,0,0,0-.264.2.59.59,0,0,0-.06.257.581.581,0,0,0,.06.255,1.593,1.593,0,0,0,.667.721c.589.342,1.238.272,1.408,0s-.082-.885-.684-1.233a1.654,1.654,0,0,0-.8-.253" transform="translate(-311.91 -1776.245)" fill="#431426"/>
            </g>
          </g>
        </g>
        <g id="Group_623" data-name="Group 623" transform="translate(191.109 374.54)" opacity="0.1" style="mix-blend-mode: normal;isolation: isolate">
          <g id="Group_622" data-name="Group 622">
            <g id="Group_621" data-name="Group 621" clip-path="url(#clip-path-8)">
              <path id="Path_1199" data-name="Path 1199" d="M931.4,1824.127a3.361,3.361,0,0,1-1.693-.472,3.3,3.3,0,0,1-1.421-1.575,2.238,2.238,0,0,1,.089-2.071,2.24,2.24,0,0,1,1.752-1.114,3.362,3.362,0,0,1,2.076.449,3.3,3.3,0,0,1,1.421,1.575,2.243,2.243,0,0,1-.089,2.074,2.245,2.245,0,0,1-1.752,1.112,3.764,3.764,0,0,1-.383.023m-.89-3.486h-.154a.491.491,0,0,0-.449.245.49.49,0,0,0-.066.257.483.483,0,0,0,.078.253,1.618,1.618,0,0,0,.673.721,1.573,1.573,0,0,0,.962.216.575.575,0,0,0,.251-.07.557.557,0,0,0,.2-.171.58.58,0,0,0,0-.513,1.546,1.546,0,0,0-.665-.721,1.709,1.709,0,0,0-.819-.218Z" transform="translate(-928.079 -1818.875)" fill="#431426"/>
            </g>
          </g>
        </g>
        <g id="Group_626" data-name="Group 626" transform="translate(240.741 322.616)" opacity="0.1" style="mix-blend-mode: normal;isolation: isolate">
          <g id="Group_625" data-name="Group 625">
            <g id="Group_624" data-name="Group 624" clip-path="url(#clip-path-9)">
              <path id="Path_1200" data-name="Path 1200" d="M1172.405,1571.963a3.371,3.371,0,0,1-1.674-.465,2.532,2.532,0,1,1,2.49-4.318,3.322,3.322,0,0,1,1.421,1.579,2.359,2.359,0,0,1-.089,2.072,2.409,2.409,0,0,1-2.148,1.133m-.879-3.48a.676.676,0,0,0-.325.051.685.685,0,0,0-.263.2c-.165.294.088.885.69,1.234s1.233.27,1.4,0a.6.6,0,0,0,0-.515,1.569,1.569,0,0,0-.673-.719,1.627,1.627,0,0,0-.832-.253" transform="translate(-1169.11 -1566.718)" fill="#431426"/>
            </g>
          </g>
        </g>
        <g id="Group_629" data-name="Group 629" transform="translate(218.685 265.872)" opacity="0.1" style="mix-blend-mode: normal;isolation: isolate">
          <g id="Group_628" data-name="Group 628">
            <g id="Group_627" data-name="Group 627" clip-path="url(#clip-path-10)">
              <path id="Path_1201" data-name="Path 1201" d="M1065.782,1297.088a3.9,3.9,0,0,1-1.94-.537,3.146,3.146,0,0,1-1.528-4.129,2.618,2.618,0,0,1,1.977-1.244,3.8,3.8,0,0,1,2.358.507,3.845,3.845,0,0,1,1.629,1.806,2.51,2.51,0,0,1-.1,2.323,2.522,2.522,0,0,1-1.964,1.246,2.742,2.742,0,0,1-.43.029m-1.067-4.17h-.2a.89.89,0,0,0-.665.377c-.249.43.054,1.233.879,1.711a2.038,2.038,0,0,0,1.262.288.743.743,0,0,0,.385-.095.758.758,0,0,0,.282-.282.722.722,0,0,0,.1-.385.746.746,0,0,0-.111-.381,2.037,2.037,0,0,0-.873-.945,2.164,2.164,0,0,0-1.056-.288" transform="translate(-1061.998 -1291.153)" fill="#431426"/>
            </g>
          </g>
        </g>
        <g id="Group_632" data-name="Group 632" transform="translate(204.266 220.93)" opacity="0.1" style="mix-blend-mode: normal;isolation: isolate">
          <g id="Group_631" data-name="Group 631">
            <g id="Group_630" data-name="Group 630" clip-path="url(#clip-path-11)">
              <path id="Path_1202" data-name="Path 1202" d="M994.2,1078.515a2.186,2.186,0,0,1-1.386-.472,2.364,2.364,0,0,1-.844-1.892,3.461,3.461,0,0,1,2.52-3.163,2.25,2.25,0,0,1,2.685,1.246,2.218,2.218,0,0,1,.192,1.05,3.308,3.308,0,0,1-.747,1.987,3.183,3.183,0,0,1-1.069.9,3.147,3.147,0,0,1-1.351.348m.927-3.832a.673.673,0,0,0-.212.029,1.553,1.553,0,0,0-.809.554,1.573,1.573,0,0,0-.365.914.664.664,0,0,0,.035.261.65.65,0,0,0,.142.222c.266.212.883.041,1.316-.5a1.6,1.6,0,0,0,.365-.914.568.568,0,0,0-.033-.262.612.612,0,0,0-.144-.223.442.442,0,0,0-.307-.086Z" transform="translate(-991.973 -1072.899)" fill="#431426"/>
            </g>
          </g>
        </g>
        <g id="Group_635" data-name="Group 635" transform="translate(204.552 173.787)" opacity="0.1" style="mix-blend-mode: normal;isolation: isolate">
          <g id="Group_634" data-name="Group 634">
            <g id="Group_633" data-name="Group 633" clip-path="url(#clip-path-12)">
              <path id="Path_1203" data-name="Path 1203" d="M995.987,848.21a2.71,2.71,0,0,1-1.334-.364,2.634,2.634,0,0,1-1.12-1.25,1.875,1.875,0,0,1-.169-.859,1.844,1.844,0,0,1,1.678-1.754,2.56,2.56,0,0,1,1.641.348,2.631,2.631,0,0,1,1.12,1.244,1.853,1.853,0,0,1-1.51,2.619Zm-.638-2.481h-.076a.247.247,0,0,0-.13.045.21.21,0,0,0,0,.142.937.937,0,0,0,.892.513.246.246,0,0,0,.134-.047.232.232,0,0,0,0-.14.89.89,0,0,0-.371-.389.924.924,0,0,0-.449-.124" transform="translate(-993.362 -843.962)" fill="#431426"/>
            </g>
          </g>
        </g>
        <g id="Group_638" data-name="Group 638" transform="translate(216.956 244.427)" opacity="0.1" style="mix-blend-mode: normal;isolation: isolate">
          <g id="Group_637" data-name="Group 637">
            <g id="Group_636" data-name="Group 636" clip-path="url(#clip-path-13)">
              <path id="Path_1204" data-name="Path 1204" d="M1056.447,1191.572a2.949,2.949,0,0,1-1.452-.4,2.2,2.2,0,1,1,2.17-3.752,2.887,2.887,0,0,1,1.215,1.351,2.044,2.044,0,0,1-.082,1.812,2.07,2.07,0,0,1-1.851.99m-.721-2.79a.4.4,0,0,0-.177.021.375.375,0,0,0-.152.093c-.07.124.06.5.484.741s.813.173.883.047a.294.294,0,0,0,.027-.125.311.311,0,0,0-.027-.128,1.1,1.1,0,0,0-.465-.49,1.12,1.12,0,0,0-.572-.158" transform="translate(-1053.603 -1187.009)" fill="#431426"/>
            </g>
          </g>
        </g>
        <g id="Group_641" data-name="Group 641" transform="translate(216.822 80.541)" opacity="0.1" style="mix-blend-mode: normal;isolation: isolate">
          <g id="Group_640" data-name="Group 640">
            <g id="Group_639" data-name="Group 639" clip-path="url(#clip-path-14)">
              <path id="Path_1205" data-name="Path 1205" d="M1054.982,395.675a1.873,1.873,0,0,1-1.332-.59,2.541,2.541,0,0,1-.677-1.451,2.5,2.5,0,0,1,.307-1.575,1.83,1.83,0,0,1,.566-.621,1.849,1.849,0,0,1,.785-.305,2.122,2.122,0,0,1,2.024,1.213,2.175,2.175,0,0,1,.2.8,2.132,2.132,0,0,1-1.664,2.5,1.192,1.192,0,0,1-.208.023m-.146-2.772a.737.737,0,0,0-.107.525.59.59,0,0,0,.259.484.8.8,0,0,0,.107-.531.594.594,0,0,0-.26-.478" transform="translate(-1052.95 -391.13)" fill="#431426"/>
            </g>
          </g>
        </g>
        <g id="Group_644" data-name="Group 644" transform="translate(208.915 108.921)" opacity="0.1" style="mix-blend-mode: normal;isolation: isolate">
          <g id="Group_643" data-name="Group 643">
            <g id="Group_642" data-name="Group 642" clip-path="url(#clip-path-15)">
              <path id="Path_1206" data-name="Path 1206" d="M1017.852,534.194a3.378,3.378,0,0,1-1.68-.466,2.533,2.533,0,1,1,2.494-4.318,3.364,3.364,0,0,1,1.423,1.575,2.369,2.369,0,0,1-.089,2.076,2.407,2.407,0,0,1-2.148,1.133m-.879-3.48a.673.673,0,0,0-.589.253c-.171.3.089.885.684,1.227s1.24.277,1.411,0a.6.6,0,0,0,0-.513,1.607,1.607,0,0,0-.673-.719,1.653,1.653,0,0,0-.832-.248" transform="translate(-1014.553 -528.948)" fill="#431426"/>
            </g>
          </g>
        </g>
        <g id="Group_647" data-name="Group 647" transform="translate(238.958 40.016)" opacity="0.1" style="mix-blend-mode: normal;isolation: isolate">
          <g id="Group_646" data-name="Group 646">
            <g id="Group_645" data-name="Group 645" clip-path="url(#clip-path-16)">
              <path id="Path_1207" data-name="Path 1207" d="M1163.771,199.583a3.4,3.4,0,0,1-1.688-.472,3.325,3.325,0,0,1-1.421-1.575,2.21,2.21,0,0,1-.21-1.046,2.24,2.24,0,0,1,2.045-2.139,3.441,3.441,0,0,1,3.5,2.017,2.241,2.241,0,0,1-1.833,3.185,2.879,2.879,0,0,1-.389.029m-.885-3.486a.668.668,0,0,0-.154,0,.6.6,0,0,0-.251.07.513.513,0,0,0-.2.679,1.689,1.689,0,0,0,1.627.944.493.493,0,0,0,.451-.244.509.509,0,0,0,.064-.257.484.484,0,0,0-.078-.254,1.567,1.567,0,0,0-.671-.72,1.662,1.662,0,0,0-.791-.218" transform="translate(-1160.449 -194.329)" fill="#431426"/>
            </g>
          </g>
        </g>
        <path id="Path_1208" data-name="Path 1208" d="M1076.6,1229.885a1.033,1.033,0,1,0-1.032-1.034,1.034,1.034,0,0,0,1.032,1.034" transform="translate(-854.09 -974.989)" fill="#431426"/>
        <path id="Path_1209" data-name="Path 1209" d="M1004.39,1071.215s1.592,1.952,9.69-2.426c9.279-5.018,12.977,27.605.076,29.31-5.053.667-2.753-5.976-8.441-5.309Z" transform="translate(-797.568 -848.289)" fill="#ffeab9"/>
        <path id="Path_1210" data-name="Path 1210" d="M1009.892,1095.616c-2.312,0-3.54-1.3-4.654-2.467a10,10,0,0,0-1.534-1.4.887.887,0,0,1,1-1.464,11.766,11.766,0,0,1,1.816,1.645c1.133,1.18,2.03,2.135,4.042,1.87,3.968-.525,5.828-4.322,6.688-7.419,1.977-7.127.43-17.219-3.068-20a2.64,2.64,0,0,0-3.161-.231c-8.1,4.384-10.31,2.8-10.794,2.208a.885.885,0,0,1,1.316-1.18c.14.089,1.952,1.038,8.64-2.578a4.351,4.351,0,0,1,5.1.408c4.024,3.2,5.84,14.027,3.669,21.854-1.417,5.1-4.318,8.193-8.165,8.7a6.285,6.285,0,0,1-.9.06" transform="translate(-794.11 -844.867)" fill="#431426"/>
        <path id="Path_1211" data-name="Path 1211" d="M1038.951,1114.684c-7.51,0-16.752-1.569-28.067-5.77a5.015,5.015,0,1,1,3.492-9.4c34.879,12.977,44.423-2.483,44.831-3.142l-.041.07,8.846,4.771c-.437.727-7.662,13.473-29.061,13.473" transform="translate(-800.129 -870.607)" fill="#ffeab9"/>
        <path id="Path_1212" data-name="Path 1212" d="M1035.55,1112.194c-8.424,0-17.973-1.958-28.378-5.823a5.9,5.9,0,0,1-3.307-3.078,5.894,5.894,0,0,1-.158-4.516,5.9,5.9,0,0,1,5.321-3.834,5.942,5.942,0,0,1,2.273.369c34.211,12.707,43.366-2.129,43.737-2.766a.888.888,0,0,1,1.18-.319.75.75,0,0,1,.272.243l8.494,4.588a.886.886,0,0,1,.354,1.18c-.3.585-7.776,13.957-29.788,13.957m-26.321-15.485a4.13,4.13,0,0,0-1.439,8c10.205,3.791,19.544,5.714,27.76,5.714,18.286,0,25.906-9.437,27.776-12.256l-7.314-3.951c-2.471,3.208-13.844,14.455-45.349,2.753a4.094,4.094,0,0,0-1.433-.259" transform="translate(-796.728 -867.232)" fill="#431426"/>
        <path id="Path_1213" data-name="Path 1213" d="M999.127,1106.281c-6.843-18.327,1-17.182,2.113-15.166l-16.9-3.945,3.756,15.862Z" transform="translate(-781.646 -863.302)" fill="#ffeab9"/>
        <path id="Path_1214" data-name="Path 1214" d="M1042.126,1114.77a.88.88,0,0,1-.509-.163.89.89,0,0,1-.323-.428c-4.818-12.9-2.36-16.286-.49-17.153a3.413,3.413,0,0,1,4.207,1.256.892.892,0,0,1,.1.329.914.914,0,0,1-.029.342.885.885,0,0,1-1.093.6.9.9,0,0,1-.3-.159.883.883,0,0,1-.222-.264,1.679,1.679,0,0,0-1.921-.5c-1.641.75-2.255,5.115,1.408,14.925a.881.881,0,0,1-.519,1.137.789.789,0,0,1-.307.072" transform="translate(-824.646 -870.905)" fill="#431426"/>
        <path id="Path_1215" data-name="Path 1215" d="M1163.853,905.522s-2.737-.589-3.28,1.18-.766,4.258,3.859,5.008,6.192-1.392,8.156.111c3.793,2.91,10.376,3.41,11.875,1.853s0-3.427,0-3.427,5.243-.126,8.488-3.871,2.247-5.179,5.373-5.4,23.477,1.4,23.477-6.211-8.494-4.748-8.494-4.748,10.772-7.9,6.872-13.932a6.778,6.778,0,0,0-7.213-2.831s3.078-7.077-3.651-9.709c-5.375-2.123-7.992,4.5-14.116,10.24a104.059,104.059,0,0,1-9.237,7.473s1.376-28.312-10.741-23.835c-6.033,2.24-2.625,9.242-2.873,14.61s.377,13.615-6.488,15.615-20.474-2.831-19.731,7.78c.655,9.332,11.8,3.4,15.483,5.55a4.234,4.234,0,0,1,2.242,4.549" transform="translate(-910.095 -680.479)" fill="#fffaf4"/>
        <path id="Path_1216" data-name="Path 1216" d="M1177.958,912.349c-3.859,0-8.449-2.648-8.506-2.683a4.093,4.093,0,0,0-2.86-.243,16.767,16.767,0,0,1-5.311,0c-2.529-.406-4.129-1.221-4.942-2.49a3.817,3.817,0,0,1-.3-3.231,3.33,3.33,0,0,1,3.5-2.442,3.484,3.484,0,0,0-1.845-2.755c-1.009-.591-3.1-.389-5.121-.2-3.05.3-6.489.632-8.717-1.25a6.626,6.626,0,0,1-2.088-4.806,7.24,7.24,0,0,1,1.627-5.694c2.43-2.578,6.985-2.531,11.391-2.483a27.645,27.645,0,0,0,7.349-.519c5.492-1.6,5.663-7.868,5.8-12.911,0-.655,0-1.293.058-1.888a26.9,26.9,0,0,0-.358-4.619c-.591-4.182-1.18-8.931,3.809-10.782a6.382,6.382,0,0,1,6.276.589c5.391,3.947,5.758,17.33,5.7,22.268a98.64,98.64,0,0,0,7.7-6.336,59.291,59.291,0,0,0,4.584-4.983c3.262-3.846,6.081-7.168,10.458-5.438a7.352,7.352,0,0,1,4.359,4.011,8.937,8.937,0,0,1,.235,5.461,7.472,7.472,0,0,1,6.688,3.416c3.027,4.676-1.474,10.086-4.575,12.977a6.744,6.744,0,0,1,4.157,1.067c1.446,1.038,2.183,2.749,2.183,5.09a4.713,4.713,0,0,1-1.474,3.433c-3.882,3.84-14.6,3.723-20.351,3.653h-2.477c-1.468.1-1.623.364-2.36,1.639a19.776,19.776,0,0,1-2.417,3.492,13.035,13.035,0,0,1-7.782,4.034,3.1,3.1,0,0,1-.754,3.309,5.008,5.008,0,0,1-3.645,1.31m-9.929-4.825a4.316,4.316,0,0,1,2.313.589c2.407,1.4,8.023,3.663,10.028,1.651.92-.925.035-2.117-.07-2.253a.878.878,0,0,1-.185-.447.887.887,0,0,1,.078-.478.887.887,0,0,1,.778-.509c.047,0,4.9-.171,7.846-3.569a17.79,17.79,0,0,0,2.211-3.173c.892-1.547,1.458-2.36,3.764-2.525.519-.041,1.4-.031,2.619,0,4.718.058,15.73.183,19.093-3.138a2.966,2.966,0,0,0,.945-2.177,4.24,4.24,0,0,0-1.439-3.651c-2.094-1.505-5.846-.272-5.9-.259a.9.9,0,0,1-.609-.023.884.884,0,0,1-.192-1.53c.1-.07,10.026-7.473,6.647-12.734a5.908,5.908,0,0,0-6.248-2.461.887.887,0,0,1-.486-.014.877.877,0,0,1-.406-.27.863.863,0,0,1-.2-.441.883.883,0,0,1,.058-.484,8.1,8.1,0,0,0,.206-5.5,5.69,5.69,0,0,0-3.367-3.031c-3.062-1.18-5,.861-8.459,4.938a59.756,59.756,0,0,1-4.72,5.125,106.187,106.187,0,0,1-9.33,7.551.9.9,0,0,1-.461.163.885.885,0,0,1-.937-.925c0-.183.82-18.374-4.938-22.579a4.6,4.6,0,0,0-4.613-.385c-3.427,1.275-3.3,4.207-2.667,8.9a28.6,28.6,0,0,1,.373,4.926c-.031.589-.047,1.215-.066,1.857-.14,5.309-.336,12.606-7.077,14.565a28.932,28.932,0,0,1-7.864.589c-4.021-.041-8.187-.089-10.08,1.929a5.59,5.59,0,0,0-1.18,4.353,4.874,4.874,0,0,0,1.458,3.581c1.652,1.4,4.576,1.114,7.407.842,2.407-.235,4.685-.453,6.182.426a5.124,5.124,0,0,1,2.66,5.5.858.858,0,0,1-.148.317.91.91,0,0,1-.26.235.93.93,0,0,1-.327.117.912.912,0,0,1-.35-.019c-.323-.089-1.952-.426-2.405,1.089a2.124,2.124,0,0,0-.14.9,2.091,2.091,0,0,0,.251.873c.49.785,1.769,1.367,3.721,1.68a15.125,15.125,0,0,0,4.779,0,13.966,13.966,0,0,1,1.709-.111" transform="translate(-906.634 -677.203)" fill="#431426"/>
        <path id="Path_1217" data-name="Path 1217" d="M1328.617,976.877a.843.843,0,0,1-.478-.142.879.879,0,0,1-.393-.9.964.964,0,0,1,.128-.321,9.826,9.826,0,0,0,1.433-3.886.894.894,0,0,1,.319-.6.886.886,0,0,1,1.25.115.9.9,0,0,1,.2.651,11.414,11.414,0,0,1-1.711,4.676.879.879,0,0,1-.75.408" transform="translate(-1054.327 -770.911)" fill="#431426"/>
        <path id="Path_1218" data-name="Path 1218" d="M1376.214,950.76a.9.9,0,0,1-.548-.187.885.885,0,0,1,.136-1.483c12.835-6.777,18.368-16.688,18.422-16.786a.871.871,0,0,1,.218-.278.887.887,0,0,1,.309-.169.879.879,0,0,1,.686.07.873.873,0,0,1,.428.542.835.835,0,0,1,.025.35.918.918,0,0,1-.115.334c-.231.424-5.815,10.459-19.146,17.507a.856.856,0,0,1-.414.1" transform="translate(-1092.121 -739.939)" fill="#431426"/>
        <path id="Path_1219" data-name="Path 1219" d="M1399.364,1021.777a.892.892,0,0,1-.885-.745.886.886,0,0,1,.607-.984,61.33,61.33,0,0,0,14.157-6.546.879.879,0,0,1,.663-.14.893.893,0,0,1,.566.373.885.885,0,0,1-.233,1.229,62.355,62.355,0,0,1-14.569,6.767,1.037,1.037,0,0,1-.307.047" transform="translate(-1110.497 -804.679)" fill="#431426"/>
        <path id="Path_1220" data-name="Path 1220" d="M1237.54,1064.738a17.02,17.02,0,0,1-9.172-3.138.893.893,0,0,1-.346-.585.872.872,0,0,1,.167-.657.885.885,0,0,1,.583-.348.9.9,0,0,1,.659.167c.052.041,5.4,3.964,10.753,2.426,3.538-1.015,6.381-4.195,8.422-9.439a.893.893,0,0,1,.469-.488.912.912,0,0,1,.338-.076.864.864,0,0,1,.34.062.874.874,0,0,1,.292.185.863.863,0,0,1,.2.282.915.915,0,0,1,.076.338.878.878,0,0,1-.062.342c-2.253,5.8-5.486,9.33-9.6,10.5a11.411,11.411,0,0,1-3.122.426" transform="translate(-975.142 -835.85)" fill="#431426"/>
        <path id="Path_1221" data-name="Path 1221" d="M1316.034,1104.644a4.738,4.738,0,0,1-4.16-2.767.915.915,0,0,1-.086-.346.891.891,0,0,1,.06-.352.876.876,0,0,1,.194-.3.85.85,0,0,1,.294-.2.93.93,0,0,1,.352-.068.882.882,0,0,1,.348.078.918.918,0,0,1,.291.21.93.93,0,0,1,.183.307,2.968,2.968,0,0,0,2.572,1.668.894.894,0,0,1,.855.91.865.865,0,0,1-.074.336.884.884,0,0,1-.828.525" transform="translate(-1041.666 -873.974)" fill="#431426"/>
        <path id="Path_1222" data-name="Path 1222" d="M720.395,1047.416c0,9.6-3.657,15.957-8.5,17.3a7.279,7.279,0,0,1-1.952.266c-5.776,0-10.452-6.719-10.452-17.567s4.676-18.086,10.452-18.086a7.2,7.2,0,0,1,3.945,1.217c3.8,2.488,6.507,8.64,6.507,16.869" transform="translate(-555.452 -817.372)" fill="#fffaf4"/>
        <path id="Path_1223" data-name="Path 1223" d="M706.438,1062.46c-6.678,0-11.338-7.584-11.338-18.45,0-10.988,4.767-18.969,11.338-18.969a7.979,7.979,0,0,1,4.423,1.357c4.33,2.819,6.915,9.437,6.915,17.612,0,9.491-3.593,16.611-9.149,18.15a7.8,7.8,0,0,1-2.189.3m0-35.651c-5.457,0-9.586,7.4-9.586,17.2,0,9.668,4.024,16.681,9.567,16.681a6.16,6.16,0,0,0,1.711-.235c4.777-1.322,7.858-7.776,7.858-16.447,0-7.491-2.36-13.673-6.105-16.125a6.271,6.271,0,0,0-3.445-1.075" transform="translate(-551.966 -813.965)" fill="#431426"/>
        <path id="Path_1224" data-name="Path 1224" d="M743.391,1052.109c0,9.6-3.659,15.957-8.5,17.3-3.068-1.929-5.4-6.128-6.175-12.015l6.334-4.625-6.6.684v-.424c0-9.555,3.632-16.309,8.441-17.789,3.793,2.487,6.5,8.64,6.5,16.869" transform="translate(-578.449 -822.065)" fill="#431426"/>
        <path id="Path_1225" data-name="Path 1225" d="M517.159,1047.422c0,9.592-3.657,15.957-8.5,17.3a7.051,7.051,0,0,1-1.954.266c-5.774,0-10.457-6.719-10.457-17.561s4.683-18.092,10.457-18.092a7.151,7.151,0,0,1,3.941,1.217c3.822,2.488,6.511,8.64,6.511,16.875" transform="translate(-394.063 -817.372)" fill="#fffaf4"/>
        <path id="Path_1226" data-name="Path 1226" d="M503.292,1062.46c-6.676,0-11.342-7.584-11.342-18.444,0-10.994,4.771-18.975,11.342-18.975a8,8,0,0,1,4.425,1.363c4.328,2.819,6.913,9.4,6.913,17.612,0,9.485-3.591,16.612-9.155,18.144a7.74,7.74,0,0,1-2.183.3m0-35.651c-5.455,0-9.573,7.4-9.573,17.207,0,9.662,4.03,16.675,9.573,16.675a6.186,6.186,0,0,0,1.705-.231c4.779-1.32,7.864-7.78,7.864-16.445,0-7.5-2.36-13.679-6.112-16.132a6.239,6.239,0,0,0-3.457-1.075" transform="translate(-390.648 -813.965)" fill="#431426"/>
        <path id="Path_1227" data-name="Path 1227" d="M540.158,1052.115c0,9.592-3.657,15.957-8.5,17.3-3.074-1.923-5.4-6.128-6.176-12.015l6.334-4.625-6.606.684v-.424c0-9.555,3.626-16.309,8.434-17.789,3.822,2.487,6.513,8.64,6.513,16.875" transform="translate(-417.06 -822.065)" fill="#431426"/>
        <path id="Path_1228" data-name="Path 1228" d="M612.362,1122.782h-.247a3.408,3.408,0,0,1-2.632-1.563c-3.474-5.014,7.668-13.455,8.937-14.4a.843.843,0,0,1,.313-.146.888.888,0,0,1,.346-.016.913.913,0,0,1,.323.117.906.906,0,0,1,.4.548.879.879,0,0,1,.014.344.885.885,0,0,1-.35.581c-2.885,2.135-10.648,8.912-8.529,11.968a1.622,1.622,0,0,0,1.291.8c1.822.124,4.429-2.271,5.2-3.12a.89.89,0,0,1,.6-.237.884.884,0,0,1,.713,1.415c-.358.4-3.474,3.711-6.381,3.711" transform="translate(-483.449 -878.765)" fill="#431426"/>
        <path id="Path_1229" data-name="Path 1229" d="M763.555,958.259a.881.881,0,0,1-.515-.161.893.893,0,0,1-.33-.428c-2.949-9.054-11.43-6.966-11.8-6.874a.884.884,0,1,1-.453-1.709c.1,0,10.446-2.625,13.926,8.033a.906.906,0,0,1,.039.348.877.877,0,0,1-.1.336.871.871,0,0,1-.531.432.86.86,0,0,1-.241.023" transform="translate(-595.404 -753.425)" fill="#431426"/>
        <path id="Path_1230" data-name="Path 1230" d="M495.544,958.138a.9.9,0,0,1-.276-.041.878.878,0,0,1-.63-.768.893.893,0,0,1,.039-.346c3.48-10.66,13.821-8.064,13.928-8.035a.881.881,0,0,1,.515.414.892.892,0,0,1,.084.657.886.886,0,0,1-1.048.64c-.367-.095-8.848-2.177-11.8,6.871a.883.883,0,0,1-.815.607" transform="translate(-392.78 -753.305)" fill="#431426"/>
        <path id="Path_1231" data-name="Path 1231" d="M604.7,1240.4a17.657,17.657,0,0,1-4.186,8.1,11.338,11.338,0,0,1-8.436,3.321,9.854,9.854,0,0,1-7.2-2.827,16.915,16.915,0,0,1-4.131-8.1,51.126,51.126,0,0,1-.871-15.825,18.524,18.524,0,0,0,1.886,1.073,27.265,27.265,0,0,0,10.8,2.949,21.591,21.591,0,0,0,11.344-2.949,17.451,17.451,0,0,0,1.68-1.073,47.431,47.431,0,0,1-.885,15.331" transform="translate(-460.258 -972.805)" fill="#be6956"/>
        <path id="Path_1232" data-name="Path 1232" d="M609.055,1284.174a17.677,17.677,0,0,1-4.186,8.1,11.339,11.339,0,0,1-8.437,3.321,9.853,9.853,0,0,1-7.2-2.827,16.914,16.914,0,0,1-4.131-8.1c1-1.544,2.809-3.733,5.368-4.316,4.065-.927,6.678,2.535,6.678,2.535a6.868,6.868,0,0,1,5.591-2.607c3.138-.054,5.191,2.148,6.318,3.894" transform="translate(-464.617 -1016.579)" fill="#ff89a4"/>
        <path id="Path_1233" data-name="Path 1233" d="M592.966,1293.078a10.753,10.753,0,0,1-7.821-3.078,17.815,17.815,0,0,1-4.382-8.513.877.877,0,0,1-.016-.358.95.95,0,0,1,.128-.338c1.18-1.769,3.12-4.063,5.9-4.718a7.455,7.455,0,0,1,6.878,2.094,8.087,8.087,0,0,1,5.591-2.17c3.54-.053,5.8,2.306,7.079,4.3a.882.882,0,0,1,.13.338.84.84,0,0,1-.019.365,18.347,18.347,0,0,1-4.413,8.5,12.238,12.238,0,0,1-9.054,3.579m-10.393-11.649a15.829,15.829,0,0,0,3.809,7.308,9.065,9.065,0,0,0,6.583,2.572,10.555,10.555,0,0,0,7.81-3.056,16.423,16.423,0,0,0,3.857-7.32,6.543,6.543,0,0,0-5.267-3.167h-.093a5.989,5.989,0,0,0-4.874,2.211.883.883,0,0,1-.309.282.87.87,0,0,1-.4.107.87.87,0,0,1-.727-.348c-.093-.117-2.358-2.984-5.774-2.205a8.264,8.264,0,0,0-4.613,3.616" transform="translate(-461.152 -1013.179)" fill="#431426"/>
        <path id="Path_1234" data-name="Path 1234" d="M627.377,1294.612a.826.826,0,0,1-.4-.095.884.884,0,0,1-.439-.509.893.893,0,0,1,.043-.671,22.525,22.525,0,0,1,2.749-4.005.89.89,0,0,1,1.555.537.885.885,0,0,1-.222.643,21.378,21.378,0,0,0-2.5,3.641.878.878,0,0,1-.789.459" transform="translate(-497.49 -1023.596)" fill="#431426"/>
        <path id="Path_1235" data-name="Path 1235" d="M588.575,1249.288a10.752,10.752,0,0,1-7.821-3.078,17.816,17.816,0,0,1-4.382-8.513,51.445,51.445,0,0,1-.9-16.144.89.89,0,0,1,.513-.7.912.912,0,0,1,.443-.076.89.89,0,0,1,.424.148,16.927,16.927,0,0,0,1.771,1.013l.082.047a26.113,26.113,0,0,0,10.358,2.821,20.687,20.687,0,0,0,10.866-2.844,15.8,15.8,0,0,0,1.586-1.015.885.885,0,0,1,.422-.171.9.9,0,0,1,.453.062.886.886,0,0,1,.535.7,47.6,47.6,0,0,1-.885,15.666,18.337,18.337,0,0,1-4.413,8.5,12.253,12.253,0,0,1-9.054,3.585m-11.461-26.154a49.032,49.032,0,0,0,.974,14.157,16.024,16.024,0,0,0,3.9,7.668,9.065,9.065,0,0,0,6.583,2.572,10.555,10.555,0,0,0,7.81-3.056,16.624,16.624,0,0,0,3.958-7.668,44.669,44.669,0,0,0,.98-13.568l-.5.29A22.468,22.468,0,0,1,589,1226.608a27.993,27.993,0,0,1-11.161-3.05l-.082-.047Z" transform="translate(-456.76 -969.389)" fill="#431426"/>
        <path id="Path_1236" data-name="Path 1236" d="M612.092,1230.28s-1.452,8.424-11.072,8.383c-9.938-.047-11.035-8.093-11.07-8.377a27.242,27.242,0,0,0,10.8,2.949,21.409,21.409,0,0,0,11.342-2.955" transform="translate(-468.468 -976.943)" fill="#fffaf4"/>
        <path id="Path_1237" data-name="Path 1237" d="M620.8,1328.725a11.338,11.338,0,0,1-8.436,3.321,9.854,9.854,0,0,1-7.2-2.827c1.326-1.845,3.715-3.136,7.938-3.12,4.018.019,6.353.974,7.7,2.626" transform="translate(-480.546 -1053.031)" fill="#fffaf4"/>
        <path id="Path_1238" data-name="Path 1238" d="M597.683,1236.181h-.078c-10.681-.047-11.9-8.778-11.943-9.149a.886.886,0,0,1,.076-.461.9.9,0,0,1,.3-.358.879.879,0,0,1,.443-.152.856.856,0,0,1,.457.093,26.133,26.133,0,0,0,10.442,2.86,20.753,20.753,0,0,0,10.864-2.842.875.875,0,0,1,.48-.115.882.882,0,0,1,.776.544.889.889,0,0,1,.054.49,11.573,11.573,0,0,1-11.873,9.091m-9.791-7.668c.867,2.24,3.272,5.856,9.726,5.9h.066c5.957,0,8.482-3.461,9.5-5.727a21.577,21.577,0,0,1-9.88,2.076,27.342,27.342,0,0,1-9.408-2.247" transform="translate(-465.059 -973.588)" fill="#431426"/>
        <path id="Path_1239" data-name="Path 1239" d="M608.941,1329.516a10.753,10.753,0,0,1-7.821-3.078.879.879,0,0,1-.1-1.145c1.664-2.319,4.555-3.492,8.576-3.492h.089c4.094,0,6.754.955,8.377,2.951a.883.883,0,0,1-.053,1.18,12.261,12.261,0,0,1-9.067,3.585m-5.98-3.8a9.131,9.131,0,0,0,5.98,2.031,10.713,10.713,0,0,0,7.174-2.467c-1.328-1.137-3.445-1.7-6.443-1.709-3.1-.012-5.313.69-6.711,2.146" transform="translate(-477.127 -1049.617)" fill="#431426"/>
      </g>
    </g>
  </g>
</svg>
