<svg xmlns="http://www.w3.org/2000/svg" width="2999.06" height="196.542" viewBox="0 0 2999.06 196.542">
  <g id="Group_747" data-name="Group 747" transform="translate(0 -606.851)">
    <g id="Group_724" data-name="Group 724" transform="translate(0 606.851)">
      <g id="Group_721" data-name="Group 721">
        <g id="Group_719" data-name="Group 719">
          <rect id="Rectangle_396" data-name="Rectangle 396" width="50.495" height="124.295" transform="translate(0 72.246)" fill="#222"/>
          <rect id="Rectangle_389" data-name="Rectangle 389" width="50.495" height="124.295" transform="translate(358.125 72.246)" fill="#222"/>
          <rect id="Rectangle_390" data-name="Rectangle 390" width="50.495" height="155.369" transform="translate(319.283 41.173)" fill="#222"/>
          <rect id="Rectangle_393" data-name="Rectangle 393" width="3.107" height="32.508" transform="translate(387.645 41.173)" fill="#222"/>
          <rect id="Rectangle_394" data-name="Rectangle 394" width="3.107" height="32.508" transform="translate(349.58 9.322)" fill="#222"/>
          <rect id="Rectangle_395" data-name="Rectangle 395" width="3.107" height="14.64" transform="translate(334.043 27.189)" fill="#262626"/>
          <path id="Path_1649" data-name="Path 1649" d="M2221.824,839.919l-50.5-23.305v124.3h50.5Z" transform="translate(-1742.511 -744.368)" fill="#222"/>
          <rect id="Rectangle_391" data-name="Rectangle 391" width="39.619" height="196.542" transform="translate(404.736)" fill="#222"/>
          <rect id="Rectangle_392" data-name="Rectangle 392" width="386.868" height="76.131" transform="translate(0 120.411)" fill="#222"/>
          <path id="Path_1650" data-name="Path 1650" d="M1731.824,729.614l-50.495,46.611v145.27h50.495Z" transform="translate(-1633.165 -724.953)" fill="#222"/>
          <rect id="Rectangle_398" data-name="Rectangle 398" width="4.661" height="38.842" transform="translate(14.76 33.404)" fill="#222"/>
          <rect id="Rectangle_397" data-name="Rectangle 397" width="4.661" height="14.76" transform="translate(30.297 57.486)" fill="#222"/>
        </g>
        <g id="Group_720" data-name="Group 720" transform="translate(368.936)">
          <rect id="Rectangle_396-2" data-name="Rectangle 396" width="50.495" height="124.295" transform="translate(428.818 72.246)" fill="#222"/>
          <rect id="Rectangle_389-2" data-name="Rectangle 389" width="50.495" height="124.295" transform="translate(70.693 72.246)" fill="#222"/>
          <rect id="Rectangle_390-2" data-name="Rectangle 390" width="50.495" height="155.369" transform="translate(109.536 41.173)" fill="#222"/>
          <rect id="Rectangle_393-2" data-name="Rectangle 393" width="3.107" height="32.508" transform="translate(88.561 41.173)" fill="#222"/>
          <rect id="Rectangle_394-2" data-name="Rectangle 394" width="3.107" height="32.508" transform="translate(126.626 9.322)" fill="#222"/>
          <rect id="Rectangle_395-2" data-name="Rectangle 395" width="3.107" height="14.64" transform="translate(142.163 27.189)" fill="#262626"/>
          <path id="Path_1649-2" data-name="Path 1649" d="M2171.329,839.919l50.5-23.305v124.3h-50.5Z" transform="translate(-2171.329 -744.368)" fill="#222"/>
          <rect id="Rectangle_391-2" data-name="Rectangle 391" width="39.619" height="196.541" transform="translate(34.958)" fill="#222"/>
          <rect id="Rectangle_392-2" data-name="Rectangle 392" width="386.868" height="76.131" transform="translate(92.445 120.411)" fill="#222"/>
          <path id="Path_1650-2" data-name="Path 1650" d="M1681.329,729.614l50.495,46.611v145.27h-50.495Z" transform="translate(-1300.675 -724.953)" fill="#222"/>
          <rect id="Rectangle_398-2" data-name="Rectangle 398" width="4.661" height="38.842" transform="translate(459.892 33.404)" fill="#222"/>
          <rect id="Rectangle_397-2" data-name="Rectangle 397" width="4.661" height="14.76" transform="translate(444.355 57.486)" fill="#222"/>
        </g>
      </g>
      <g id="Group_723" data-name="Group 723" transform="translate(651.281)">
        <g id="Group_722" data-name="Group 722">
          <g id="Group_719-2" data-name="Group 719" transform="translate(0)">
            <rect id="Rectangle_396-3" data-name="Rectangle 396" width="50.495" height="124.295" transform="translate(0 72.246)" fill="#222"/>
            <rect id="Rectangle_389-3" data-name="Rectangle 389" width="50.495" height="124.295" transform="translate(358.125 72.246)" fill="#222"/>
            <rect id="Rectangle_390-3" data-name="Rectangle 390" width="50.495" height="155.369" transform="translate(319.283 41.173)" fill="#222"/>
            <rect id="Rectangle_393-3" data-name="Rectangle 393" width="3.107" height="32.508" transform="translate(387.645 41.173)" fill="#222"/>
            <rect id="Rectangle_394-3" data-name="Rectangle 394" width="3.107" height="32.508" transform="translate(349.58 9.322)" fill="#222"/>
            <rect id="Rectangle_395-3" data-name="Rectangle 395" width="3.107" height="14.64" transform="translate(334.043 27.189)" fill="#262626"/>
            <path id="Path_1649-3" data-name="Path 1649" d="M2221.824,839.919l-50.5-23.305v124.3h50.5Z" transform="translate(-1742.511 -744.368)" fill="#222"/>
            <rect id="Rectangle_391-3" data-name="Rectangle 391" width="39.619" height="196.542" transform="translate(404.736)" fill="#222"/>
            <rect id="Rectangle_392-3" data-name="Rectangle 392" width="386.868" height="76.131" transform="translate(0 120.411)" fill="#222"/>
            <path id="Path_1650-3" data-name="Path 1650" d="M1731.824,729.614l-50.495,46.611v145.27h50.495Z" transform="translate(-1633.165 -724.953)" fill="#222"/>
            <rect id="Rectangle_398-3" data-name="Rectangle 398" width="4.661" height="38.842" transform="translate(14.76 33.404)" fill="#222"/>
            <rect id="Rectangle_397-3" data-name="Rectangle 397" width="4.661" height="14.76" transform="translate(30.297 57.486)" fill="#222"/>
          </g>
          <g id="Group_720-2" data-name="Group 720" transform="translate(368.936)">
            <rect id="Rectangle_396-4" data-name="Rectangle 396" width="50.495" height="124.295" transform="translate(428.818 72.246)" fill="#222"/>
            <rect id="Rectangle_389-4" data-name="Rectangle 389" width="50.495" height="124.295" transform="translate(70.693 72.246)" fill="#222"/>
            <rect id="Rectangle_390-4" data-name="Rectangle 390" width="50.495" height="155.369" transform="translate(109.536 41.173)" fill="#222"/>
            <rect id="Rectangle_393-4" data-name="Rectangle 393" width="3.107" height="32.508" transform="translate(88.561 41.173)" fill="#222"/>
            <rect id="Rectangle_394-4" data-name="Rectangle 394" width="3.107" height="32.508" transform="translate(126.626 9.322)" fill="#222"/>
            <rect id="Rectangle_395-4" data-name="Rectangle 395" width="3.107" height="14.64" transform="translate(142.163 27.189)" fill="#262626"/>
            <path id="Path_1649-4" data-name="Path 1649" d="M2171.329,839.919l50.5-23.305v124.3h-50.5Z" transform="translate(-2171.329 -744.368)" fill="#222"/>
            <rect id="Rectangle_391-4" data-name="Rectangle 391" width="39.619" height="196.541" transform="translate(34.958)" fill="#222"/>
            <rect id="Rectangle_392-4" data-name="Rectangle 392" width="386.868" height="76.131" transform="translate(92.445 120.411)" fill="#222"/>
            <path id="Path_1650-4" data-name="Path 1650" d="M1681.329,729.614l50.495,46.611v145.27h-50.495Z" transform="translate(-1300.675 -724.953)" fill="#222"/>
            <rect id="Rectangle_398-4" data-name="Rectangle 398" width="4.661" height="38.842" transform="translate(459.892 33.404)" fill="#222"/>
            <rect id="Rectangle_397-4" data-name="Rectangle 397" width="4.661" height="14.76" transform="translate(444.355 57.486)" fill="#222"/>
          </g>
        </g>
      </g>
    </g>
    <g id="Group_725" data-name="Group 725" transform="translate(1499.53 606.851)">
      <g id="Group_721-2" data-name="Group 721" transform="translate(0)">
        <g id="Group_719-3" data-name="Group 719">
          <rect id="Rectangle_396-5" data-name="Rectangle 396" width="50.495" height="124.295" transform="translate(0 72.246)" fill="#222"/>
          <rect id="Rectangle_389-5" data-name="Rectangle 389" width="50.495" height="124.295" transform="translate(358.125 72.246)" fill="#222"/>
          <rect id="Rectangle_390-5" data-name="Rectangle 390" width="50.495" height="155.369" transform="translate(319.283 41.173)" fill="#222"/>
          <rect id="Rectangle_393-5" data-name="Rectangle 393" width="3.107" height="32.508" transform="translate(387.645 41.173)" fill="#222"/>
          <rect id="Rectangle_394-5" data-name="Rectangle 394" width="3.107" height="32.508" transform="translate(349.58 9.322)" fill="#222"/>
          <rect id="Rectangle_395-5" data-name="Rectangle 395" width="3.107" height="14.64" transform="translate(334.043 27.189)" fill="#262626"/>
          <path id="Path_1649-5" data-name="Path 1649" d="M2221.824,839.919l-50.5-23.305v124.3h50.5Z" transform="translate(-1742.511 -744.368)" fill="#222"/>
          <rect id="Rectangle_391-5" data-name="Rectangle 391" width="39.619" height="196.542" transform="translate(404.736)" fill="#222"/>
          <rect id="Rectangle_392-5" data-name="Rectangle 392" width="386.868" height="76.131" transform="translate(0 120.411)" fill="#222"/>
          <path id="Path_1650-5" data-name="Path 1650" d="M1731.824,729.614l-50.495,46.611v145.27h50.495Z" transform="translate(-1633.165 -724.953)" fill="#222"/>
          <rect id="Rectangle_398-5" data-name="Rectangle 398" width="4.661" height="38.842" transform="translate(14.76 33.404)" fill="#222"/>
          <rect id="Rectangle_397-5" data-name="Rectangle 397" width="4.661" height="14.76" transform="translate(30.297 57.486)" fill="#222"/>
        </g>
        <g id="Group_720-3" data-name="Group 720" transform="translate(368.936)">
          <rect id="Rectangle_396-6" data-name="Rectangle 396" width="50.495" height="124.295" transform="translate(428.818 72.246)" fill="#222"/>
          <rect id="Rectangle_389-6" data-name="Rectangle 389" width="50.495" height="124.295" transform="translate(70.693 72.246)" fill="#222"/>
          <rect id="Rectangle_390-6" data-name="Rectangle 390" width="50.495" height="155.369" transform="translate(109.536 41.173)" fill="#222"/>
          <rect id="Rectangle_393-6" data-name="Rectangle 393" width="3.107" height="32.508" transform="translate(88.561 41.173)" fill="#222"/>
          <rect id="Rectangle_394-6" data-name="Rectangle 394" width="3.107" height="32.508" transform="translate(126.626 9.322)" fill="#222"/>
          <rect id="Rectangle_395-6" data-name="Rectangle 395" width="3.107" height="14.64" transform="translate(142.163 27.189)" fill="#262626"/>
          <path id="Path_1649-6" data-name="Path 1649" d="M2171.329,839.919l50.5-23.305v124.3h-50.5Z" transform="translate(-2171.329 -744.368)" fill="#222"/>
          <rect id="Rectangle_391-6" data-name="Rectangle 391" width="39.619" height="196.541" transform="translate(34.958)" fill="#222"/>
          <rect id="Rectangle_392-6" data-name="Rectangle 392" width="386.868" height="76.131" transform="translate(92.445 120.411)" fill="#222"/>
          <path id="Path_1650-6" data-name="Path 1650" d="M1681.329,729.614l50.495,46.611v145.27h-50.495Z" transform="translate(-1300.675 -724.953)" fill="#222"/>
          <rect id="Rectangle_398-6" data-name="Rectangle 398" width="4.661" height="38.842" transform="translate(459.892 33.404)" fill="#222"/>
          <rect id="Rectangle_397-6" data-name="Rectangle 397" width="4.661" height="14.76" transform="translate(444.355 57.486)" fill="#222"/>
        </g>
      </g>
      <g id="Group_723-2" data-name="Group 723" transform="translate(651.281)">
        <g id="Group_722-2" data-name="Group 722">
          <g id="Group_719-4" data-name="Group 719" transform="translate(0)">
            <rect id="Rectangle_396-7" data-name="Rectangle 396" width="50.495" height="124.295" transform="translate(0 72.246)" fill="#222"/>
            <rect id="Rectangle_389-7" data-name="Rectangle 389" width="50.495" height="124.295" transform="translate(358.125 72.246)" fill="#222"/>
            <rect id="Rectangle_390-7" data-name="Rectangle 390" width="50.495" height="155.369" transform="translate(319.283 41.173)" fill="#222"/>
            <rect id="Rectangle_393-7" data-name="Rectangle 393" width="3.107" height="32.508" transform="translate(387.645 41.173)" fill="#222"/>
            <rect id="Rectangle_394-7" data-name="Rectangle 394" width="3.107" height="32.508" transform="translate(349.58 9.322)" fill="#222"/>
            <rect id="Rectangle_395-7" data-name="Rectangle 395" width="3.107" height="14.64" transform="translate(334.043 27.189)" fill="#262626"/>
            <path id="Path_1649-7" data-name="Path 1649" d="M2221.824,839.919l-50.5-23.305v124.3h50.5Z" transform="translate(-1742.511 -744.368)" fill="#222"/>
            <rect id="Rectangle_391-7" data-name="Rectangle 391" width="39.619" height="196.542" transform="translate(404.736)" fill="#222"/>
            <rect id="Rectangle_392-7" data-name="Rectangle 392" width="386.868" height="76.131" transform="translate(0 120.411)" fill="#222"/>
            <path id="Path_1650-7" data-name="Path 1650" d="M1731.824,729.614l-50.495,46.611v145.27h50.495Z" transform="translate(-1633.165 -724.953)" fill="#222"/>
            <rect id="Rectangle_398-7" data-name="Rectangle 398" width="4.661" height="38.842" transform="translate(14.76 33.404)" fill="#222"/>
            <rect id="Rectangle_397-7" data-name="Rectangle 397" width="4.661" height="14.76" transform="translate(30.297 57.486)" fill="#222"/>
          </g>
          <g id="Group_720-4" data-name="Group 720" transform="translate(368.936)">
            <rect id="Rectangle_396-8" data-name="Rectangle 396" width="50.495" height="124.295" transform="translate(428.818 72.246)" fill="#222"/>
            <rect id="Rectangle_389-8" data-name="Rectangle 389" width="50.495" height="124.295" transform="translate(70.693 72.246)" fill="#222"/>
            <rect id="Rectangle_390-8" data-name="Rectangle 390" width="50.495" height="155.369" transform="translate(109.536 41.173)" fill="#222"/>
            <rect id="Rectangle_393-8" data-name="Rectangle 393" width="3.107" height="32.508" transform="translate(88.561 41.173)" fill="#222"/>
            <rect id="Rectangle_394-8" data-name="Rectangle 394" width="3.107" height="32.508" transform="translate(126.626 9.322)" fill="#222"/>
            <rect id="Rectangle_395-8" data-name="Rectangle 395" width="3.107" height="14.64" transform="translate(142.163 27.189)" fill="#262626"/>
            <path id="Path_1649-8" data-name="Path 1649" d="M2171.329,839.919l50.5-23.305v124.3h-50.5Z" transform="translate(-2171.329 -744.368)" fill="#222"/>
            <rect id="Rectangle_391-8" data-name="Rectangle 391" width="39.619" height="196.541" transform="translate(34.958)" fill="#222"/>
            <rect id="Rectangle_392-8" data-name="Rectangle 392" width="386.868" height="76.131" transform="translate(92.445 120.411)" fill="#222"/>
            <path id="Path_1650-8" data-name="Path 1650" d="M1681.329,729.614l50.495,46.611v145.27h-50.495Z" transform="translate(-1300.675 -724.953)" fill="#222"/>
            <rect id="Rectangle_398-8" data-name="Rectangle 398" width="4.661" height="38.842" transform="translate(459.892 33.404)" fill="#222"/>
            <rect id="Rectangle_397-8" data-name="Rectangle 397" width="4.661" height="14.76" transform="translate(444.355 57.486)" fill="#222"/>
          </g>
        </g>
      </g>
    </g>
  </g>
</svg>
