<svg xmlns="http://www.w3.org/2000/svg" width="231.613" height="104.236" viewBox="0 0 231.613 104.236">
  <g id="Group_746" data-name="Group 746" transform="translate(3344.29 1642.365)">
    <path id="Union_1" data-name="Union 1" d="M117.73,101.236H23.666v-.029A24.791,24.791,0,1,1,37.649,55.242,36.893,36.893,0,0,1,79.4,26.961,36.886,36.886,0,0,1,110.883.218v-.1C111.812.043,112.75,0,113.7,0c.2,0,.406,0,.608,0s.405,0,.608,0c.949,0,1.885.043,2.816.114v.1a36.888,36.888,0,0,1,31.482,26.743,36.891,36.891,0,0,1,41.751,28.281,24.793,24.793,0,1,1,13.983,45.965v.029Z" transform="translate(-3342.79 -1640.216)" fill="#fff"/>
    <path id="Path_1658" data-name="Path 1658" d="M1756.966,568.974V569H1558.083l14.455,12,184.427.028V581a24.794,24.794,0,0,0,22.93-30.769,24.8,24.8,0,0,1-22.93,18.742" transform="translate(-4894.808 -2120.008)" fill="#8ecae6"/>
    <path id="Path_1661" data-name="Path 1661" d="M1655.506,511.72c-5.131,1.612-9.13,7.021-12.138,11.48a21.173,21.173,0,0,0-2.337,4.573,1.612,1.612,0,0,0,2.854,1.449,30.626,30.626,0,0,1,2.889-3.4,27.727,27.727,0,0,1,11.152-7.955c3.68-1.551,11.761-5.177,16.238-5.49,0,0-6.654-4.423-18.657-.652" transform="translate(-4849.291 -2123.615)" fill="#8ecae6"/>
    <path id="Path_1660" data-name="Path 1660" d="M1684.485,547.954a1.5,1.5,0,0,1-1.386-2.071,20.346,20.346,0,0,1,4.232-6.405,25.008,25.008,0,0,1,5.121-4.027,26.265,26.265,0,0,1,6.193-2.751,1.5,1.5,0,0,1,.766,2.9h0a23.775,23.775,0,0,0-5.492,2.469,21.941,21.941,0,0,0-4.469,3.532,17.344,17.344,0,0,0-3.577,5.423A1.5,1.5,0,0,1,1684.485,547.954Z" transform="translate(-4845.366 -2121.457)"/>
    <path id="Path_1717" data-name="Path 1717" d="M1699.027,547.954a1.5,1.5,0,0,1-1.388-.929c-3.589-8.717-13.436-11.4-13.535-11.424a1.5,1.5,0,1,1,.763-2.9,26.265,26.265,0,0,1,6.193,2.751,25.008,25.008,0,0,1,5.121,4.027,20.346,20.346,0,0,1,4.232,6.405,1.5,1.5,0,0,1-1.386,2.071Z" transform="translate(-4946.34 -2147.567)"/>
    <path id="Union_2" data-name="Union 2" d="M206.445,102.736H22.166V102.6A26.292,26.292,0,1,1,36.672,52.984,38.323,38.323,0,0,1,73.608,25.007a38.812,38.812,0,0,1,4.722.29A38.4,38.4,0,0,1,109.383-1.1v-.172l1.386-.106c1.044-.08,2-.118,2.93-.118.2,0,.4,0,.608,0s.408,0,.608,0c.926,0,1.884.039,2.929.118l1.386.106V-1.1a38.093,38.093,0,0,1,19.4,8.809A38.393,38.393,0,0,1,150.282,25.3a38.814,38.814,0,0,1,4.723-.29,38.376,38.376,0,0,1,36.935,27.977A26.294,26.294,0,1,1,206.445,102.6Zm-182.091-3h179.9l.621-.028a23.291,23.291,0,1,0-13.137-43.185l-1.784,1.084-.458-2.037a35.07,35.07,0,0,0-4.516-10.961A35.293,35.293,0,0,0,155,28.007a35.838,35.838,0,0,0-5.56.436l-1.32.208-.358-1.288a35.388,35.388,0,0,0-30.2-25.654l-1.338-.145V1.528c-.452-.018-.888-.028-1.316-.028-.192,0-.388,0-.584,0h-.048c-.2,0-.392,0-.584,0-.428,0-.864.009-1.316.027v.036l-1.338.145a35.112,35.112,0,0,0-19.11,8.274,35.507,35.507,0,0,0-6.8,7.807,35.152,35.152,0,0,0-4.286,9.572l-.358,1.288-1.321-.208a35.838,35.838,0,0,0-5.56-.436,35.368,35.368,0,0,0-34.5,27.565l-.458,2.037L36.87,56.524A23.293,23.293,0,1,0,23.733,99.709Z" transform="translate(-3342.79 -1640.865)"/>
  </g>
</svg>
