<?xml version="1.0" encoding="UTF-8"?><svg id="Layer_2" xmlns="http://www.w3.org/2000/svg" viewBox="0 0 306.53 125.75"><defs><style>.cls-1{fill:#ffd972;}.cls-2{fill:#a04d21;}.cls-3{isolation:isolate;}</style></defs><g id="Layer_1-2"><g id="SipSip" class="cls-3"><g class="cls-3"><path class="cls-1" d="m24.48,59.88c1.68,1.68,2.87,3.69,3.57,6.02.7,2.33.96,5.46.77,9.38-.09,2.24,0,3.87.28,4.9.28,1.03.89,1.77,1.82,2.24.47.19,1.03.26,1.68.21.65-.05,1.21-.16,1.68-.35.75-.47,1.38-1.05,1.89-1.75.51-.7.91-1.61,1.19-2.73.56-2.33.37-4.78-.56-7.35-.93-2.57-2.61-5.06-5.04-7.49-.47-.47-.93-.91-1.4-1.33-.47-.42-1-.86-1.61-1.33-.61-.47-1.35-1.05-2.24-1.75-.89-.7-2.03-1.61-3.43-2.73-4.67-3.55-8.07-6.84-10.22-9.87-2.15-3.03-3.45-6.51-3.92-10.43-.19-1.12-.26-2.57-.21-4.34.05-1.77.21-3.17.49-4.2.75-3.27,2.1-6.35,4.06-9.24,1.96-2.89,4.29-5.27,7-7.14,2.33-1.49,4.95-2.57,7.84-3.22,2.89-.65,5.97-.84,9.24-.56,2.33.19,4.64.65,6.93,1.4,2.29.75,4.43,1.8,6.44,3.15,2.01,1.35,3.76,2.96,5.25,4.83,1.49,1.87,2.57,3.97,3.22,6.3.28,1.03.42,2.45.42,4.27s-.19,3.38-.56,4.69c-1.31,5.32-3.73,8.77-7.28,10.36-.65.37-1.14.58-1.47.63-.33.05-.96.07-1.89.07-2.71,0-4.85-.93-6.44-2.8-1.59-1.87-2.71-4.01-3.36-6.44-.19-.47-.35-1.12-.49-1.96-.14-.84-.26-1.68-.35-2.52-.19-1.59-.44-2.78-.77-3.57-.33-.79-.86-1.52-1.61-2.17-.93-1.03-2.1-1.54-3.5-1.54-.75,0-1.68.23-2.8.7-2.24.93-3.22,3.17-2.94,6.72.09,1.12.33,2.01.7,2.66.37.65,1.12,1.49,2.24,2.52.47.47.93.91,1.4,1.33.47.42,1.05.84,1.75,1.26.7.42,1.56.91,2.59,1.47,1.03.56,2.33,1.26,3.92,2.1,3.55,1.87,6.84,3.78,9.87,5.74,3.03,1.96,5.72,4.18,8.05,6.65,2.33,2.47,4.27,5.3,5.81,8.47,1.54,3.17,2.5,6.91,2.87,11.2.47,3.55.12,7.33-1.05,11.34-1.17,4.01-2.82,7.51-4.97,10.5-1.4,1.96-2.99,3.55-4.76,4.76-1.77,1.21-3.87,2.24-6.3,3.08-1.49.47-3.1.89-4.83,1.26-1.73.37-3.5.68-5.32.91-1.82.23-3.62.4-5.39.49-1.77.09-3.41.05-4.9-.14-4.48-.28-8.61-1.24-12.39-2.87-3.78-1.63-6.6-3.66-8.47-6.09-1.68-2.05-2.96-4.74-3.85-8.05-.89-3.31-1.42-7.12-1.61-11.41-.09-4.2.21-7.44.91-9.73.7-2.29,1.98-4.36,3.85-6.23,2.61-2.61,5.79-3.92,9.52-3.92,3.36,0,6.25,1.21,8.68,3.64Z"/><path class="cls-1" d="m92.09,82.7c.28,1.68.51,3.06.7,4.13.19,1.07.33,1.96.42,2.66.09.7.16,1.33.21,1.89.05.56.07,1.21.07,1.96,0,3.27-.82,5.76-2.45,7.49-1.63,1.73-4.27,2.92-7.91,3.57-1.03.19-2.33.3-3.92.35-1.59.05-2.75-.02-3.5-.21-2.71-.28-4.74-1.19-6.09-2.73-1.35-1.54-2.12-3.66-2.31-6.37-.09-1.31-.05-2.71.14-4.2.19-1.49.61-4.11,1.26-7.84.47-2.99.86-5.6,1.19-7.84.33-2.24.58-4.29.77-6.16.19-1.87.33-3.64.42-5.32.09-1.68.14-3.45.14-5.32,0-2.8-.07-5.37-.21-7.7-.14-2.33-.35-4.29-.63-5.88-.28-1.87-.4-3.01-.35-3.43.05-.42.3-.96.77-1.61.19-.37.72-1,1.61-1.89.89-.89,1.84-1.82,2.87-2.8,1.03-.98,2.03-1.91,3.01-2.8.98-.89,1.66-1.52,2.03-1.89.47-.47,1.03-.96,1.68-1.47.65-.51,1.17-.86,1.54-1.05.93-.47,1.73-.7,2.38-.7,2.05,0,3.45,1.63,4.2,4.9.19,1.21.28,3.36.28,6.44s-.09,6.77-.28,11.06c-.19,2.99-.28,5.76-.28,8.33s.07,5.11.21,7.63c.14,2.52.37,5.13.7,7.84.33,2.71.77,5.69,1.33,8.96Zm-12.74-57.12c-2.05-.28-3.78-1.1-5.18-2.45-1.4-1.35-2.4-2.94-3.01-4.76-.61-1.82-.79-3.78-.56-5.88.23-2.1,1-4.08,2.31-5.95,1.03-1.59,2.33-2.82,3.92-3.71,1.59-.89,3.22-1.33,4.9-1.33,2.33,0,4.48.89,6.44,2.66,2.52,2.43,3.73,5.6,3.64,9.52,0,1.21-.16,2.31-.49,3.29-.33.98-.77,1.98-1.33,3.01-1.12,1.96-2.66,3.48-4.62,4.55-1.96,1.07-3.97,1.42-6.02,1.05Z"/><path class="cls-1" d="m152.29,55.26c.09.65.16,1.54.21,2.66.05,1.12.07,2.29.07,3.5s-.02,2.4-.07,3.57c-.05,1.17-.12,2.12-.21,2.87-.75,7.09-2.31,13.25-4.69,18.48-2.38,5.23-5.39,9.19-9.03,11.9-4.76,3.45-10.17,4.67-16.24,3.64-.19-.09-.4-.14-.63-.14h-.63l-.56-.14c-.09.09,0,.47.28,1.12.28.65.65,1.45,1.12,2.38.37,1.03.72,2.03,1.05,3.01.33.98.58,1.7.77,2.17,1.03,3.92.14,7.19-2.66,9.8-1.59,1.49-3.71,2.61-6.37,3.36-2.66.75-5.3.98-7.91.7-2.24-.19-4.2-.77-5.88-1.75-1.68-.98-2.89-2.22-3.64-3.71-.47-1.03-.77-2.01-.91-2.94-.14-.93-.21-2.24-.21-3.92,0-.93.02-1.91.07-2.94.05-1.03.16-1.87.35-2.52.09-.56.26-1.52.49-2.87.23-1.35.44-2.68.63-3.99.47-2.89.84-5.62,1.12-8.19.28-2.57.51-5.16.7-7.77.19-2.61.3-5.3.35-8.05.05-2.75.07-5.76.07-9.03-.09-4.01-.19-7.47-.28-10.36-.09-2.89-.21-5.46-.35-7.7-.14-2.24-.3-4.22-.49-5.95-.19-1.73-.42-3.43-.7-5.11-.19-1.12-.37-2.17-.56-3.15-.19-.98-.28-1.56-.28-1.75,0-.65.21-1.35.63-2.1.42-.75.96-1.4,1.61-1.96,2.61-2.05,5.69-2.94,9.24-2.66,1.87.09,3.36.35,4.48.77,1.12.42,2.19,1.14,3.22,2.17.75.65,1.47,1.59,2.17,2.8.7,1.21,1.19,2.43,1.47,3.64l.42,1.4,1.68-1.4c1.68-1.31,3.29-2.24,4.83-2.8,1.54-.56,3.24-.84,5.11-.84,4.67,0,8.82,1.87,12.46,5.6,4.01,3.92,6.58,9.99,7.7,18.2Zm-24.78,18.06c.19-.75.3-1.7.35-2.87.05-1.17.07-2.43.07-3.78s-.02-2.64-.07-3.85c-.05-1.21-.16-2.15-.35-2.8-.09-.47-.23-1.12-.42-1.96-.19-.84-.44-1.66-.77-2.45-.33-.79-.75-1.49-1.26-2.1-.51-.61-1.1-.91-1.75-.91-.47,0-.93.23-1.4.7-.65.56-1.12,1.68-1.4,3.36-.28,1.68-.51,4.53-.7,8.54-.19,4.2-.07,7.65.35,10.36.42,2.71,1.14,4.43,2.17,5.18.56.47,1.21.47,1.96,0,.75-.37,1.38-1.21,1.89-2.52.51-1.31.96-2.94,1.33-4.9Z"/><path class="cls-1" d="m176.93,59.88c1.68,1.68,2.87,3.69,3.57,6.02.7,2.33.96,5.46.77,9.38-.09,2.24,0,3.87.28,4.9.28,1.03.89,1.77,1.82,2.24.47.19,1.03.26,1.68.21.65-.05,1.21-.16,1.68-.35.75-.47,1.38-1.05,1.89-1.75.51-.7.91-1.61,1.19-2.73.56-2.33.37-4.78-.56-7.35-.93-2.57-2.61-5.06-5.04-7.49-.47-.47-.93-.91-1.4-1.33-.47-.42-1-.86-1.61-1.33-.61-.47-1.35-1.05-2.24-1.75-.89-.7-2.03-1.61-3.43-2.73-4.67-3.55-8.07-6.84-10.22-9.87-2.15-3.03-3.45-6.51-3.92-10.43-.19-1.12-.26-2.57-.21-4.34.05-1.77.21-3.17.49-4.2.75-3.27,2.1-6.35,4.06-9.24,1.96-2.89,4.29-5.27,7-7.14,2.33-1.49,4.95-2.57,7.84-3.22,2.89-.65,5.97-.84,9.24-.56,2.33.19,4.64.65,6.93,1.4,2.29.75,4.43,1.8,6.44,3.15,2.01,1.35,3.76,2.96,5.25,4.83,1.49,1.87,2.57,3.97,3.22,6.3.28,1.03.42,2.45.42,4.27s-.19,3.38-.56,4.69c-1.31,5.32-3.73,8.77-7.28,10.36-.65.37-1.14.58-1.47.63-.33.05-.96.07-1.89.07-2.71,0-4.85-.93-6.44-2.8-1.59-1.87-2.71-4.01-3.36-6.44-.19-.47-.35-1.12-.49-1.96-.14-.84-.26-1.68-.35-2.52-.19-1.59-.44-2.78-.77-3.57-.33-.79-.86-1.52-1.61-2.17-.93-1.03-2.1-1.54-3.5-1.54-.75,0-1.68.23-2.8.7-2.24.93-3.22,3.17-2.94,6.72.09,1.12.33,2.01.7,2.66.37.65,1.12,1.49,2.24,2.52.47.47.93.91,1.4,1.33.47.42,1.05.84,1.75,1.26.7.42,1.56.91,2.59,1.47,1.03.56,2.33,1.26,3.92,2.1,3.55,1.87,6.84,3.78,9.87,5.74,3.03,1.96,5.72,4.18,8.05,6.65,2.33,2.47,4.27,5.3,5.81,8.47,1.54,3.17,2.5,6.91,2.87,11.2.47,3.55.12,7.33-1.05,11.34-1.17,4.01-2.82,7.51-4.97,10.5-1.4,1.96-2.99,3.55-4.76,4.76-1.77,1.21-3.87,2.24-6.3,3.08-1.49.47-3.1.89-4.83,1.26-1.73.37-3.5.68-5.32.91-1.82.23-3.62.4-5.39.49-1.77.09-3.41.05-4.9-.14-4.48-.28-8.61-1.24-12.39-2.87-3.78-1.63-6.6-3.66-8.47-6.09-1.68-2.05-2.96-4.74-3.85-8.05-.89-3.31-1.42-7.12-1.61-11.41-.09-4.2.21-7.44.91-9.73.7-2.29,1.98-4.36,3.85-6.23,2.61-2.61,5.79-3.92,9.52-3.92,3.36,0,6.25,1.21,8.68,3.64Z"/><path class="cls-1" d="m244.55,82.7c.28,1.68.51,3.06.7,4.13.19,1.07.33,1.96.42,2.66.09.7.16,1.33.21,1.89.05.56.07,1.21.07,1.96,0,3.27-.82,5.76-2.45,7.49-1.63,1.73-4.27,2.92-7.91,3.57-1.03.19-2.33.3-3.92.35-1.59.05-2.75-.02-3.5-.21-2.71-.28-4.74-1.19-6.09-2.73-1.35-1.54-2.12-3.66-2.31-6.37-.09-1.31-.05-2.71.14-4.2.19-1.49.61-4.11,1.26-7.84.47-2.99.86-5.6,1.19-7.84.33-2.24.58-4.29.77-6.16.19-1.87.33-3.64.42-5.32.09-1.68.14-3.45.14-5.32,0-2.8-.07-5.37-.21-7.7-.14-2.33-.35-4.29-.63-5.88-.28-1.87-.4-3.01-.35-3.43.05-.42.3-.96.77-1.61.19-.37.72-1,1.61-1.89.89-.89,1.84-1.82,2.87-2.8,1.03-.98,2.03-1.91,3.01-2.8.98-.89,1.66-1.52,2.03-1.89.47-.47,1.03-.96,1.68-1.47.65-.51,1.17-.86,1.54-1.05.93-.47,1.73-.7,2.38-.7,2.05,0,3.45,1.63,4.2,4.9.19,1.21.28,3.36.28,6.44s-.09,6.77-.28,11.06c-.19,2.99-.28,5.76-.28,8.33s.07,5.11.21,7.63c.14,2.52.37,5.13.7,7.84.33,2.71.77,5.69,1.33,8.96Zm-12.74-57.12c-2.05-.28-3.78-1.1-5.18-2.45-1.4-1.35-2.4-2.94-3.01-4.76-.61-1.82-.79-3.78-.56-5.88.23-2.1,1-4.08,2.31-5.95,1.03-1.59,2.33-2.82,3.92-3.71,1.59-.89,3.22-1.33,4.9-1.33,2.33,0,4.48.89,6.44,2.66,2.52,2.43,3.73,5.6,3.64,9.52,0,1.21-.16,2.31-.49,3.29-.33.98-.77,1.98-1.33,3.01-1.12,1.96-2.66,3.48-4.62,4.55-1.96,1.07-3.97,1.42-6.02,1.05Z"/><path class="cls-1" d="m304.75,55.26c.09.65.16,1.54.21,2.66.05,1.12.07,2.29.07,3.5s-.02,2.4-.07,3.57c-.05,1.17-.12,2.12-.21,2.87-.75,7.09-2.31,13.25-4.69,18.48-2.38,5.23-5.39,9.19-9.03,11.9-4.76,3.45-10.17,4.67-16.24,3.64-.19-.09-.4-.14-.63-.14h-.63l-.56-.14c-.09.09,0,.47.28,1.12.28.65.65,1.45,1.12,2.38.37,1.03.72,2.03,1.05,3.01.33.98.58,1.7.77,2.17,1.03,3.92.14,7.19-2.66,9.8-1.59,1.49-3.71,2.61-6.37,3.36-2.66.75-5.3.98-7.91.7-2.24-.19-4.2-.77-5.88-1.75-1.68-.98-2.89-2.22-3.64-3.71-.47-1.03-.77-2.01-.91-2.94-.14-.93-.21-2.24-.21-3.92,0-.93.02-1.91.07-2.94.05-1.03.16-1.87.35-2.52.09-.56.26-1.52.49-2.87.23-1.35.44-2.68.63-3.99.47-2.89.84-5.62,1.12-8.19.28-2.57.51-5.16.7-7.77.19-2.61.3-5.3.35-8.05.05-2.75.07-5.76.07-9.03-.09-4.01-.19-7.47-.28-10.36-.09-2.89-.21-5.46-.35-7.7-.14-2.24-.3-4.22-.49-5.95-.19-1.73-.42-3.43-.7-5.11-.19-1.12-.37-2.17-.56-3.15-.19-.98-.28-1.56-.28-1.75,0-.65.21-1.35.63-2.1.42-.75.96-1.4,1.61-1.96,2.61-2.05,5.69-2.94,9.24-2.66,1.87.09,3.36.35,4.48.77,1.12.42,2.19,1.14,3.22,2.17.75.65,1.47,1.59,2.17,2.8.7,1.21,1.19,2.43,1.47,3.64l.42,1.4,1.68-1.4c1.68-1.31,3.29-2.24,4.83-2.8,1.54-.56,3.24-.84,5.11-.84,4.67,0,8.82,1.87,12.46,5.6,4.01,3.92,6.58,9.99,7.7,18.2Zm-24.78,18.06c.19-.75.3-1.7.35-2.87.05-1.17.07-2.43.07-3.78s-.02-2.64-.07-3.85c-.05-1.21-.16-2.15-.35-2.8-.09-.47-.23-1.12-.42-1.96-.19-.84-.44-1.66-.77-2.45-.33-.79-.75-1.49-1.26-2.1-.51-.61-1.1-.91-1.75-.91-.47,0-.93.23-1.4.7-.65.56-1.12,1.68-1.4,3.36-.28,1.68-.51,4.53-.7,8.54-.19,4.2-.07,7.65.35,10.36.42,2.71,1.14,4.43,2.17,5.18.56.47,1.21.47,1.96,0,.75-.37,1.38-1.21,1.89-2.52.51-1.31.96-2.94,1.33-4.9Z"/></g><g class="cls-3"><path class="cls-2" d="m31.02,106.22c-1.19,0-2.32-.07-3.37-.2-4.54-.28-8.88-1.29-12.8-2.98-4-1.73-7.05-3.93-9.06-6.55-1.78-2.17-3.17-5.07-4.11-8.58-.91-3.4-1.47-7.35-1.66-11.73-.1-4.43.22-7.77.97-10.23.77-2.51,2.19-4.82,4.22-6.85,2.89-2.89,6.45-4.36,10.58-4.36,1.52,0,2.97.23,4.33.68-3.74-3.03-6.6-5.92-8.5-8.6-2.28-3.22-3.69-6.96-4.19-11.12-.2-1.15-.27-2.67-.22-4.56.05-1.91.23-3.4.54-4.55.77-3.37,2.21-6.65,4.27-9.69,2.06-3.04,4.54-5.57,7.39-7.53,2.51-1.61,5.31-2.76,8.36-3.45,3.03-.68,6.29-.88,9.7-.59,2.44.2,4.88.69,7.27,1.47,2.41.79,4.7,1.91,6.81,3.33,2.12,1.43,4,3.16,5.58,5.14,1.61,2.02,2.79,4.32,3.49,6.83.32,1.18.48,2.7.48,4.67s-.21,3.66-.62,5.1c-1.4,5.68-4.11,9.5-8.04,11.29-.82.46-1.42.7-1.94.78-.41.06-1.15.09-2.24.08.39.25.78.49,1.16.74,3.12,2.01,5.92,4.33,8.33,6.88,2.43,2.58,4.47,5.55,6.07,8.84,1.61,3.32,2.63,7.27,3.01,11.73.48,3.67.12,7.69-1.1,11.89-1.21,4.16-2.96,7.85-5.19,10.96-1.49,2.09-3.22,3.82-5.13,5.12-1.87,1.28-4.11,2.38-6.66,3.26-1.57.5-3.24.93-5.01,1.31-1.78.38-3.61.7-5.45.93-1.85.24-3.71.41-5.5.5-.61.03-1.21.05-1.79.05Zm-15.22-48.49c-3.35,0-6.12,1.14-8.46,3.48-1.68,1.68-2.85,3.57-3.48,5.61-.65,2.13-.93,5.24-.85,9.26.18,4.14.7,7.87,1.56,11.05.83,3.09,2.02,5.61,3.56,7.49,1.73,2.25,4.38,4.14,7.9,5.66,3.6,1.56,7.6,2.48,11.89,2.75,1.49.18,3.05.22,4.73.14,1.72-.09,3.49-.25,5.28-.48,1.75-.22,3.5-.52,5.19-.89,1.67-.36,3.25-.77,4.7-1.23,2.25-.78,4.25-1.75,5.9-2.89,1.62-1.11,3.09-2.58,4.39-4.39,2.04-2.84,3.64-6.21,4.75-10.05,1.1-3.79,1.44-7.4,1-10.73-.36-4.16-1.28-7.75-2.73-10.74-1.47-3.02-3.33-5.74-5.55-8.1-2.24-2.38-4.86-4.54-7.77-6.42-2.97-1.92-6.25-3.83-9.75-5.67-1.6-.84-2.91-1.55-3.94-2.11-1.05-.57-1.93-1.07-2.64-1.5-.78-.47-1.45-.95-1.98-1.43-.48-.43-.97-.9-1.46-1.38-1.2-1.1-2.03-2.04-2.48-2.84-.49-.85-.78-1.92-.89-3.28-.42-5.3,1.87-7.4,3.86-8.23,1.32-.55,2.42-.82,3.38-.82,1.8,0,3.33.66,4.55,1.97.88.79,1.54,1.69,1.94,2.67.38.93.67,2.23.87,3.97.09.79.2,1.61.34,2.45.15.91.3,1.4.4,1.64l.06.17c.59,2.2,1.62,4.17,3.05,5.86,1.3,1.53,3.03,2.27,5.3,2.27,1.14,0,1.53-.03,1.67-.05.01,0,.26-.05.95-.45l.13-.07c3.08-1.38,5.25-4.52,6.44-9.35.35-1.22.52-2.66.52-4.33s-.12-2.98-.37-3.88c-.59-2.12-1.59-4.06-2.94-5.76-1.39-1.74-3.05-3.26-4.92-4.52-1.88-1.27-3.92-2.27-6.07-2.97-2.16-.7-4.38-1.15-6.58-1.33-3.1-.26-6.06-.09-8.79.53-2.71.61-5.19,1.63-7.36,3.02-2.5,1.72-4.72,3.99-6.57,6.72-1.85,2.73-3.14,5.67-3.84,8.73-.26.97-.41,2.26-.45,3.91-.04,1.67.02,3.03.19,4.05.44,3.73,1.67,7,3.66,9.81,2.05,2.9,5.38,6.11,9.9,9.54,1.43,1.14,2.57,2.05,3.45,2.75.88.7,1.62,1.27,2.22,1.74.64.49,1.21.97,1.7,1.4.49.44.97.9,1.46,1.38,2.57,2.58,4.39,5.28,5.39,8.04,1.03,2.84,1.24,5.61.61,8.21-.33,1.32-.81,2.41-1.44,3.27-.63.85-1.4,1.57-2.3,2.14l-.23.12c-.61.25-1.33.4-2.13.46-.88.07-1.67-.04-2.35-.31l-.11-.05c-1.31-.65-2.21-1.76-2.6-3.19-.32-1.19-.43-2.94-.33-5.36.18-3.74-.06-6.73-.71-8.89-.62-2.08-1.7-3.9-3.19-5.39h0c-2.16-2.15-4.65-3.2-7.62-3.2Zm15.73,23.31c.25.09.57.11.96.09.44-.03.81-.1,1.11-.2.53-.35.99-.78,1.36-1.29.4-.54.71-1.28.94-2.21.48-2.01.31-4.2-.51-6.48-.85-2.34-2.43-4.68-4.69-6.94-.45-.44-.9-.87-1.34-1.28-.43-.39-.94-.81-1.52-1.26-.1-.08-.2-.15-.31-.23.85,1.28,1.5,2.69,1.96,4.22.76,2.52,1.03,5.75.83,9.88-.11,2.57.06,3.83.23,4.43.16.6.47.99.98,1.26Zm.37-58.03c-.37,0-1.06.1-2.22.58-.58.24-2.36.98-2.02,5.22.09,1.11.33,1.72.51,2.03.2.36.7,1.02,1.95,2.16.5.49.94.92,1.39,1.32.39.35.9.72,1.52,1.09.69.41,1.53.89,2.54,1.44,1.02.56,2.32,1.25,3.9,2.09.04.02.07.04.11.06-1.06-1.6-1.86-3.36-2.38-5.26-.21-.56-.39-1.27-.54-2.19-.15-.89-.27-1.77-.36-2.6-.21-1.79-.48-2.71-.67-3.16-.24-.57-.64-1.11-1.21-1.61l-.12-.12c-.65-.72-1.41-1.05-2.39-1.05Z"/><path class="cls-2" d="m78.33,106.26c-1.21,0-2.16-.08-2.87-.24-3.04-.33-5.38-1.42-6.96-3.22-1.57-1.79-2.47-4.23-2.68-7.26-.1-1.4-.05-2.91.15-4.49.19-1.51.62-4.18,1.27-7.91.46-2.95.86-5.56,1.18-7.8.32-2.19.58-4.24.76-6.09.18-1.82.32-3.59.41-5.25.09-1.67.14-3.44.14-5.24,0-2.75-.07-5.31-.21-7.61-.14-2.26-.34-4.19-.61-5.71-.4-2.68-.41-3.44-.36-3.86.07-.67.39-1.38.98-2.23.21-.37.63-.97,1.83-2.16.89-.89,1.86-1.84,2.9-2.83,1.03-.99,2.05-1.93,3.04-2.83,1.18-1.07,1.73-1.59,1.98-1.84.51-.51,1.12-1.04,1.81-1.59.56-.44,1.03-.77,1.43-1.01-1.12.18-2.26.17-3.4-.04-2.35-.33-4.37-1.29-5.99-2.85-1.57-1.52-2.71-3.32-3.39-5.36-.67-2.02-.88-4.21-.63-6.52.26-2.34,1.12-4.58,2.57-6.64,1.12-1.74,2.62-3.15,4.42-4.16,1.8-1.01,3.7-1.52,5.63-1.52,2.7,0,5.21,1.03,7.45,3.05,2.86,2.75,4.23,6.33,4.13,10.67,0,1.33-.19,2.6-.57,3.73-.36,1.07-.84,2.17-1.44,3.26-1.27,2.22-3.02,3.95-5.22,5.15-.13.07-.25.14-.38.2.07,0,.15,0,.22,0,1.95,0,4.51,1.05,5.66,6.06l.02.11c.2,1.3.3,3.49.3,6.67s-.09,6.82-.28,11.12c-.19,2.95-.28,5.73-.28,8.27s.07,5.06.21,7.55c.14,2.5.37,5.11.69,7.74.32,2.66.76,5.65,1.32,8.89h0c.28,1.68.51,3.06.7,4.12.19,1.1.33,2,.43,2.72.1.73.17,1.38.22,1.96.05.61.08,1.31.08,2.09,0,3.65-.96,6.51-2.86,8.52-1.85,1.96-4.79,3.31-8.74,4.02-1.08.2-2.44.32-4.14.37-.33,0-.64.01-.94.01Zm7.61-77.22c-.23,0-.77.07-1.71.54-.16.08-.54.3-1.28.89-.6.47-1.12.93-1.55,1.35-.4.4-1.1,1.05-2.08,1.94-.97.88-1.96,1.8-2.98,2.77-1.02.97-1.97,1.9-2.84,2.78-1.11,1.11-1.31,1.46-1.33,1.5l-.12.2c-.45.63-.5.89-.5.9,0,.08-.02.62.34,3.04.28,1.6.5,3.63.64,6.01.14,2.36.21,4.98.21,7.79,0,1.85-.05,3.67-.14,5.4-.1,1.71-.24,3.52-.42,5.39-.19,1.9-.45,3.99-.78,6.23-.33,2.25-.73,4.86-1.19,7.86-.65,3.71-1.07,6.33-1.25,7.79-.17,1.39-.22,2.7-.13,3.91.16,2.36.81,4.21,1.94,5.49,1.09,1.24,2.81,1.99,5.12,2.23l.21.04c.42.11,1.3.22,3.09.17,1.52-.05,2.77-.16,3.69-.33,3.31-.59,5.69-1.64,7.09-3.12,1.35-1.43,2.04-3.6,2.04-6.46,0-.7-.02-1.31-.06-1.84-.05-.54-.11-1.14-.2-1.82-.09-.68-.23-1.55-.41-2.6-.19-1.07-.42-2.45-.7-4.14-.56-3.29-1.01-6.33-1.34-9.03-.33-2.7-.57-5.37-.71-7.94-.14-2.54-.21-5.14-.21-7.71s.1-5.44.28-8.42c.18-4.23.28-7.93.28-10.97s-.09-5.01-.25-6.16c-.86-3.68-2.26-3.68-2.73-3.68Zm-4.2-26.04c-1.41,0-2.82.38-4.17,1.14-1.38.77-2.49,1.83-3.39,3.22-1.19,1.7-1.88,3.46-2.08,5.3-.21,1.88-.04,3.64.49,5.24.53,1.58,1.41,2.98,2.63,4.16,1.18,1.14,2.59,1.8,4.34,2.04h.07c1.72.32,3.37.03,5.03-.88,1.73-.94,3.05-2.25,4.04-3.98.5-.91.91-1.84,1.21-2.74.27-.82.41-1.77.41-2.81.08-3.55-.96-6.3-3.18-8.44-1.66-1.5-3.43-2.24-5.4-2.24Z"/><path class="cls-2" d="m108.92,125.75c-.77,0-1.53-.04-2.29-.12-2.42-.2-4.61-.86-6.48-1.95-1.93-1.12-3.35-2.58-4.23-4.33-.54-1.19-.89-2.32-1.05-3.39-.15-1.02-.23-2.37-.23-4.14,0-.98.02-1.99.07-3.01.05-1.11.17-2.02.38-2.78.09-.57.25-1.51.48-2.8.23-1.34.44-2.65.62-3.95.47-2.9.84-5.63,1.11-8.14.27-2.5.51-5.09.7-7.71.18-2.55.3-5.24.35-7.97.05-2.77.07-5.8.07-9-.09-3.97-.19-7.42-.28-10.31-.09-2.9-.21-5.47-.35-7.65-.14-2.19-.3-4.17-.48-5.88-.19-1.71-.42-3.4-.69-5.02-.19-1.11-.37-2.15-.55-3.12-.28-1.47-.31-1.82-.31-2.03,0-.91.28-1.86.82-2.83.51-.9,1.16-1.7,1.94-2.37,2.96-2.32,6.41-3.33,10.33-3.02,2,.1,3.61.38,4.89.86,1.32.49,2.58,1.34,3.75,2.51.79.69,1.63,1.76,2.41,3.11.6,1.05,1.07,2.11,1.4,3.17,1.81-1.4,3.54-2.39,5.19-2.99,1.69-.62,3.59-.93,5.62-.93,5.06,0,9.62,2.04,13.53,6.05,4.21,4.12,6.95,10.53,8.11,19.04.1.71.17,1.62.22,2.8.05,1.15.07,2.35.07,3.56s-.02,2.43-.07,3.63c-.05,1.23-.12,2.2-.22,3-.76,7.2-2.38,13.57-4.81,18.92-2.48,5.44-5.67,9.64-9.5,12.48-4.91,3.56-10.51,4.91-16.68,4.03.15.3.3.62.47.96l.07.16c.38,1.04.73,2.05,1.06,3.04.32.95.56,1.65.74,2.09l.06.18c1.17,4.48.13,8.27-3.09,11.28-1.76,1.65-4.11,2.9-6.99,3.71-2.06.58-4.14.87-6.19.87Zm-10.15-93.31s.03.28.25,1.47c.19.99.38,2.05.57,3.19.28,1.68.52,3.42.71,5.19.19,1.76.36,3.78.5,6.02.14,2.21.26,4.82.35,7.75.09,2.9.19,6.36.28,10.37,0,3.26-.02,6.3-.07,9.09-.05,2.79-.17,5.52-.35,8.13-.19,2.66-.43,5.29-.71,7.83-.28,2.56-.66,5.34-1.13,8.27-.19,1.3-.4,2.64-.63,4-.23,1.35-.4,2.3-.49,2.86l-.04.17c-.15.53-.25,1.26-.29,2.17-.05.97-.07,1.94-.07,2.87,0,1.6.06,2.84.19,3.7.12.79.39,1.65.79,2.54.59,1.17,1.61,2.21,3.03,3.04,1.47.86,3.24,1.38,5.25,1.55,2.44.26,4.91.04,7.38-.65,2.41-.68,4.34-1.69,5.75-3.01,2.37-2.21,3.11-4.91,2.26-8.24-.2-.5-.45-1.2-.76-2.16-.31-.94-.65-1.9-1.01-2.89-.45-.9-.83-1.7-1.12-2.38-.31-.72-.82-1.92.04-2.77l.6-.6,1.2.3h.45c.37,0,.72.06,1.05.19,5.63.92,10.52-.2,14.94-3.4,3.4-2.53,6.28-6.34,8.55-11.31,2.3-5.05,3.84-11.11,4.56-18.02.09-.73.16-1.65.2-2.77.05-1.15.07-2.33.07-3.51s-.02-2.33-.07-3.44c-.05-1.07-.11-1.91-.2-2.51h0c-1.07-7.84-3.51-13.67-7.26-17.34-3.4-3.49-7.13-5.17-11.41-5.17-1.68,0-3.23.25-4.6.75-1.38.5-2.87,1.37-4.42,2.57l-3.38,2.82-1.07-3.58c-.27-1.16-.71-2.24-1.33-3.32-.61-1.06-1.24-1.88-1.86-2.42-.94-.94-1.85-1.55-2.76-1.9-.97-.36-2.32-.59-4.03-.68-3.23-.25-5.91.51-8.24,2.34-.47.4-.9.92-1.23,1.52-.29.52-.44.98-.44,1.36h0Zm24.46,50.15c-.65,0-1.27-.22-1.82-.67-1.35-1.01-2.25-3.02-2.73-6.13-.43-2.8-.56-6.38-.37-10.66.19-4.11.43-6.96.72-8.72.34-2.02.94-3.4,1.86-4.21.75-.73,1.56-1.1,2.42-1.1.76,0,1.89.25,2.89,1.44.61.73,1.12,1.57,1.5,2.5.36.87.64,1.78.85,2.7.18.82.32,1.47.42,1.94.21.77.34,1.78.39,3.09.05,1.25.07,2.56.07,3.91s-.02,2.64-.07,3.84c-.05,1.27-.18,2.29-.38,3.13-.39,2.02-.86,3.75-1.4,5.13-.65,1.65-1.48,2.72-2.55,3.28-.6.36-1.21.54-1.79.54Zm.08-28.49s-.12.04-.34.26l-.08.08c-.13.11-.59.63-.9,2.47-.27,1.62-.5,4.44-.68,8.36-.18,4.07-.07,7.46.33,10.06.48,3.11,1.26,3.97,1.57,4.2l.07.06s.1-.04.21-.11l.13-.07c.18-.09.66-.44,1.16-1.73.48-1.21.9-2.77,1.25-4.63l.02-.08c.16-.64.26-1.5.31-2.57.05-1.15.07-2.41.07-3.72s-.02-2.59-.07-3.79c-.05-1.36-.19-2.08-.29-2.45l-.03-.11c-.09-.46-.23-1.1-.41-1.93-.17-.75-.4-1.49-.69-2.21-.27-.64-.61-1.21-1.02-1.7-.32-.38-.52-.38-.6-.38Z"/><path class="cls-2" d="m183.48,106.22c-1.19,0-2.32-.07-3.37-.2-4.54-.28-8.88-1.29-12.8-2.98-4-1.73-7.05-3.93-9.06-6.55-1.78-2.17-3.17-5.07-4.11-8.58-.91-3.4-1.47-7.35-1.66-11.73-.1-4.43.22-7.77.97-10.23.77-2.51,2.19-4.82,4.22-6.85,2.89-2.89,6.45-4.36,10.58-4.36,1.52,0,2.97.23,4.33.68-3.74-3.03-6.6-5.92-8.5-8.6-2.28-3.22-3.69-6.96-4.18-11.12-.2-1.15-.27-2.67-.22-4.56.05-1.91.23-3.4.54-4.55.77-3.37,2.21-6.65,4.27-9.69,2.06-3.04,4.54-5.57,7.39-7.53,2.51-1.61,5.31-2.76,8.36-3.45,3.03-.68,6.29-.88,9.7-.59,2.44.2,4.88.69,7.27,1.47,2.41.79,4.7,1.91,6.81,3.33,2.12,1.43,4,3.16,5.58,5.14,1.61,2.02,2.79,4.32,3.49,6.83.32,1.18.48,2.71.48,4.67s-.21,3.66-.62,5.1c-1.4,5.68-4.11,9.5-8.04,11.29-.82.46-1.42.7-1.94.78-.41.06-1.15.1-2.24.08.39.25.78.49,1.16.74,3.12,2.01,5.92,4.33,8.33,6.88,2.43,2.58,4.47,5.55,6.07,8.84,1.61,3.32,2.62,7.27,3.01,11.73.48,3.67.12,7.69-1.1,11.89-1.21,4.16-2.96,7.85-5.19,10.96-1.49,2.09-3.22,3.82-5.13,5.12-1.88,1.28-4.12,2.38-6.66,3.26-1.57.49-3.24.93-5.01,1.31-1.78.38-3.61.7-5.45.93-1.86.24-3.71.41-5.5.5-.61.03-1.21.05-1.79.05Zm-15.22-48.49c-3.35,0-6.12,1.14-8.46,3.48-1.68,1.68-2.85,3.57-3.48,5.61-.65,2.13-.93,5.24-.84,9.26.18,4.14.7,7.87,1.56,11.05.83,3.09,2.02,5.61,3.56,7.49,1.73,2.25,4.38,4.14,7.9,5.66,3.6,1.56,7.6,2.48,11.89,2.75,1.49.18,3.05.22,4.73.14,1.72-.09,3.49-.25,5.28-.48,1.75-.22,3.5-.52,5.19-.89,1.68-.36,3.26-.77,4.7-1.23,2.25-.78,4.25-1.75,5.9-2.89,1.62-1.11,3.09-2.58,4.39-4.39,2.04-2.84,3.63-6.21,4.75-10.05,1.1-3.79,1.44-7.4,1-10.73-.36-4.16-1.28-7.75-2.73-10.74-1.46-3.02-3.33-5.74-5.55-8.1-2.24-2.38-4.86-4.54-7.77-6.42-2.97-1.92-6.25-3.83-9.75-5.67-1.6-.84-2.91-1.55-3.94-2.11-1.05-.57-1.93-1.07-2.64-1.5-.78-.47-1.45-.95-1.98-1.43-.48-.43-.97-.9-1.46-1.38-1.2-1.1-2.03-2.04-2.48-2.84-.49-.85-.78-1.92-.89-3.28-.42-5.3,1.87-7.4,3.86-8.23,1.32-.55,2.42-.82,3.38-.82,1.8,0,3.33.66,4.55,1.97.88.79,1.54,1.69,1.94,2.67.38.93.67,2.23.87,3.97.09.79.2,1.61.34,2.45.15.91.3,1.4.4,1.64l.06.17c.59,2.2,1.62,4.17,3.05,5.86,1.3,1.53,3.03,2.27,5.3,2.27,1.14,0,1.53-.03,1.67-.05.01,0,.26-.05.95-.45l.13-.07c3.08-1.38,5.25-4.52,6.43-9.35.35-1.23.52-2.67.52-4.33s-.12-2.98-.37-3.88c-.59-2.11-1.58-4.06-2.95-5.76-1.39-1.74-3.05-3.26-4.92-4.52-1.88-1.27-3.92-2.27-6.07-2.97-2.16-.7-4.38-1.15-6.58-1.33-3.1-.26-6.06-.09-8.79.53-2.71.61-5.19,1.63-7.36,3.02-2.5,1.72-4.72,3.99-6.57,6.72-1.85,2.73-3.14,5.67-3.84,8.73-.26.97-.41,2.26-.45,3.91-.04,1.67.02,3.03.19,4.05.44,3.73,1.67,7,3.66,9.81,2.05,2.9,5.38,6.11,9.9,9.54,1.43,1.14,2.57,2.05,3.45,2.75.88.7,1.62,1.27,2.22,1.74.64.49,1.21.97,1.7,1.4.49.44.97.9,1.46,1.38,2.57,2.58,4.39,5.28,5.39,8.04,1.03,2.84,1.24,5.61.61,8.21-.33,1.31-.81,2.41-1.44,3.26-.63.85-1.4,1.57-2.31,2.14l-.23.12c-.61.25-1.33.4-2.13.46-.88.07-1.67-.04-2.35-.31l-.11-.05c-1.31-.65-2.21-1.76-2.6-3.19-.32-1.19-.43-2.94-.33-5.36.18-3.74-.06-6.73-.71-8.89-.62-2.08-1.7-3.9-3.19-5.39-2.16-2.15-4.65-3.2-7.62-3.2Zm15.73,23.31c.24.09.57.11.96.09.44-.03.81-.1,1.11-.2.53-.35.99-.78,1.36-1.29.4-.54.71-1.28.94-2.21.48-2.01.31-4.2-.51-6.48-.85-2.34-2.43-4.68-4.69-6.94-.45-.44-.9-.87-1.34-1.28-.43-.39-.94-.81-1.52-1.26-.1-.08-.2-.15-.31-.23.85,1.28,1.5,2.69,1.96,4.22.76,2.52,1.03,5.75.83,9.88-.11,2.57.06,3.83.23,4.43.16.6.47.99.98,1.26Zm.37-58.03c-.37,0-1.06.1-2.22.58-.58.24-2.36.98-2.02,5.22.09,1.11.33,1.72.51,2.03.2.36.7,1.02,1.95,2.16.5.49.94.92,1.39,1.32.39.35.9.72,1.52,1.09.69.41,1.53.89,2.54,1.44,1.02.56,2.32,1.25,3.9,2.09.04.02.07.04.11.06-1.06-1.6-1.86-3.36-2.38-5.26-.21-.56-.39-1.27-.54-2.19-.15-.89-.27-1.77-.36-2.6-.21-1.79-.48-2.71-.67-3.16-.24-.57-.64-1.11-1.21-1.61l-.12-.12c-.65-.72-1.41-1.05-2.39-1.05Z"/><path class="cls-2" d="m230.78,106.26c-1.21,0-2.16-.08-2.87-.24-3.04-.33-5.38-1.42-6.96-3.22-1.57-1.79-2.47-4.23-2.68-7.26-.1-1.4-.05-2.91.15-4.49.19-1.52.62-4.18,1.27-7.91.46-2.95.86-5.56,1.18-7.8.32-2.19.58-4.24.76-6.09.18-1.82.32-3.59.41-5.25.09-1.67.14-3.43.14-5.24,0-2.75-.07-5.31-.21-7.61-.14-2.26-.34-4.18-.61-5.71-.4-2.68-.41-3.44-.36-3.86.07-.66.38-1.38.98-2.22.21-.37.63-.97,1.83-2.16.89-.89,1.86-1.84,2.9-2.83,1.03-.99,2.05-1.93,3.04-2.83.95-.86,1.62-1.48,1.98-1.84.51-.51,1.12-1.04,1.82-1.59.56-.44,1.03-.77,1.43-1.01-1.12.18-2.26.17-3.4-.04-2.35-.33-4.37-1.29-5.99-2.85-1.57-1.51-2.71-3.32-3.39-5.36-.67-2.02-.88-4.21-.63-6.52.26-2.34,1.12-4.57,2.57-6.64,1.12-1.74,2.62-3.16,4.42-4.16,1.81-1.01,3.7-1.52,5.63-1.52,2.71,0,5.21,1.03,7.45,3.05,2.86,2.75,4.24,6.33,4.13,10.67,0,1.33-.19,2.6-.57,3.73-.36,1.07-.84,2.17-1.44,3.26-1.27,2.22-3.02,3.95-5.22,5.15-.13.07-.25.14-.38.2.08,0,.15,0,.22,0,1.95,0,4.51,1.05,5.66,6.06l.02.11c.2,1.31.3,3.49.3,6.67s-.09,6.82-.28,11.12c-.19,2.95-.28,5.72-.28,8.27s.07,5.06.21,7.55c.14,2.49.37,5.1.69,7.74.32,2.67.76,5.66,1.32,8.89h0c.28,1.68.51,3.06.7,4.12.19,1.1.33,2,.43,2.72.1.73.17,1.38.22,1.96.05.61.08,1.31.08,2.09,0,3.65-.96,6.51-2.86,8.52-1.85,1.96-4.79,3.31-8.74,4.02-1.08.2-2.44.32-4.14.37-.33,0-.64.01-.93.01Zm7.61-77.22c-.23,0-.77.07-1.71.54-.16.08-.54.3-1.28.89-.6.47-1.12.93-1.55,1.35-.39.39-1.1,1.05-2.08,1.94-.97.88-1.96,1.8-2.98,2.77-1.02.97-1.97,1.9-2.84,2.78-1.11,1.1-1.31,1.46-1.33,1.5l-.12.2c-.45.63-.5.89-.5.9,0,.08-.02.62.34,3.04.28,1.6.5,3.63.64,6.01.14,2.36.21,4.98.21,7.79,0,1.86-.05,3.68-.14,5.4-.1,1.71-.24,3.52-.43,5.39-.19,1.9-.45,3.99-.78,6.23-.33,2.25-.73,4.86-1.19,7.86-.65,3.71-1.07,6.32-1.25,7.79-.17,1.39-.22,2.7-.13,3.91.16,2.36.81,4.21,1.94,5.49,1.09,1.24,2.81,1.99,5.12,2.23l.21.04c.42.1,1.29.21,3.09.17,1.52-.05,2.77-.16,3.69-.33,3.3-.59,5.69-1.64,7.09-3.12,1.35-1.43,2.04-3.6,2.04-6.46,0-.7-.02-1.32-.06-1.84-.05-.53-.11-1.14-.2-1.82-.09-.68-.23-1.55-.41-2.6-.19-1.07-.42-2.45-.7-4.14-.56-3.28-1.01-6.32-1.34-9.03-.33-2.71-.57-5.38-.71-7.94-.14-2.54-.21-5.14-.21-7.71s.1-5.44.28-8.42c.18-4.24.28-7.94.28-10.97s-.08-5.01-.25-6.16c-.86-3.68-2.26-3.68-2.73-3.68Zm-4.2-26.04c-1.41,0-2.82.38-4.17,1.14-1.38.77-2.49,1.83-3.39,3.22-1.19,1.7-1.88,3.46-2.08,5.3-.21,1.87-.04,3.64.49,5.24.53,1.58,1.41,2.98,2.63,4.16,1.17,1.14,2.59,1.8,4.34,2.04h.07c1.72.32,3.36.03,5.03-.88,1.73-.94,3.05-2.25,4.04-3.98.5-.91.91-1.84,1.21-2.74.27-.82.41-1.77.41-2.81.08-3.55-.96-6.3-3.18-8.44-1.66-1.5-3.43-2.24-5.4-2.24Z"/><path class="cls-2" d="m261.38,125.75c-.77,0-1.53-.04-2.29-.12-2.42-.2-4.61-.86-6.48-1.95-1.93-1.12-3.35-2.58-4.23-4.34-.54-1.19-.89-2.32-1.05-3.39-.15-1.01-.23-2.37-.23-4.14,0-.99.02-2,.07-3.01.05-1.11.17-2.02.38-2.78.09-.57.25-1.51.48-2.8.23-1.34.44-2.65.62-3.95.47-2.9.84-5.63,1.11-8.14.27-2.51.51-5.1.7-7.71.18-2.54.3-5.22.35-7.97.05-2.75.07-5.78.07-9-.09-3.97-.19-7.42-.28-10.31-.1-2.96-.21-5.46-.35-7.65-.14-2.19-.3-4.17-.48-5.88-.19-1.7-.42-3.39-.69-5.02-.19-1.11-.37-2.15-.55-3.12-.28-1.47-.31-1.82-.31-2.03,0-.91.28-1.86.82-2.83.51-.9,1.16-1.69,1.94-2.36,2.96-2.32,6.42-3.33,10.33-3.02,2,.1,3.61.38,4.89.86,1.31.49,2.58,1.34,3.75,2.51.79.69,1.63,1.76,2.41,3.11.6,1.05,1.07,2.11,1.4,3.17,1.81-1.4,3.54-2.39,5.19-2.99,1.69-.62,3.59-.93,5.62-.93,5.06,0,9.62,2.04,13.53,6.05,4.21,4.12,6.95,10.53,8.11,19.04.1.71.17,1.63.22,2.8.05,1.16.07,2.36.07,3.56s-.02,2.42-.07,3.63c-.05,1.2-.12,2.21-.22,2.99-.76,7.2-2.38,13.57-4.81,18.92-2.48,5.44-5.67,9.64-9.5,12.48-4.91,3.56-10.52,4.91-16.68,4.03.15.3.3.62.47.96l.07.16c.38,1.04.73,2.05,1.06,3.04.32.95.57,1.66.74,2.09l.06.18c1.17,4.48.13,8.27-3.09,11.28-1.76,1.65-4.11,2.9-6.99,3.71-2.06.58-4.14.87-6.19.87Zm-10.15-93.31s.03.28.25,1.47c.19.99.38,2.05.57,3.18.28,1.69.52,3.44.71,5.2.19,1.76.36,3.78.5,6.02.14,2.22.25,4.75.35,7.74.09,2.9.19,6.36.28,10.37,0,3.28-.02,6.32-.07,9.09-.05,2.8-.17,5.54-.35,8.13-.19,2.65-.43,5.28-.71,7.83-.28,2.56-.66,5.34-1.13,8.27-.19,1.3-.4,2.64-.63,4-.23,1.35-.4,2.3-.49,2.86l-.04.17c-.15.53-.25,1.26-.29,2.17-.04.97-.07,1.93-.07,2.87,0,1.6.07,2.85.19,3.7.12.8.39,1.65.79,2.54.59,1.17,1.61,2.21,3.03,3.04,1.47.86,3.24,1.38,5.25,1.55,2.44.26,4.91.04,7.38-.65,2.41-.68,4.34-1.69,5.75-3.01,2.37-2.21,3.11-4.91,2.26-8.24-.19-.49-.45-1.2-.76-2.16-.32-.94-.65-1.9-1.01-2.89-.45-.9-.83-1.7-1.12-2.38-.31-.71-.82-1.91.04-2.77l.6-.6,1.21.3h.45c.37,0,.72.06,1.05.19,5.63.92,10.52-.2,14.94-3.4,3.4-2.53,6.28-6.34,8.54-11.31,2.3-5.05,3.84-11.11,4.56-18.02.09-.73.16-1.66.2-2.77.05-1.16.07-2.34.07-3.51s-.02-2.32-.07-3.44c-.04-1.06-.11-1.91-.2-2.51h0c-1.07-7.84-3.51-13.67-7.26-17.34-3.4-3.49-7.13-5.17-11.41-5.17-1.68,0-3.23.25-4.6.75-1.38.5-2.87,1.37-4.42,2.57l-3.39,2.82-1.07-3.58c-.27-1.16-.71-2.24-1.33-3.32-.62-1.06-1.24-1.88-1.86-2.42-.94-.94-1.85-1.55-2.76-1.9-.97-.36-2.32-.59-4.03-.68-3.23-.25-5.91.51-8.24,2.34-.47.4-.9.92-1.23,1.52-.29.52-.44.98-.44,1.36h0Zm24.46,50.15c-.65,0-1.27-.22-1.82-.67-1.35-1.01-2.25-3.01-2.73-6.13-.43-2.8-.56-6.38-.37-10.66.19-4.11.43-6.96.72-8.72.34-2.03.95-3.4,1.86-4.21.75-.73,1.56-1.1,2.42-1.1.76,0,1.89.25,2.89,1.44.61.73,1.12,1.56,1.5,2.5.36.88.64,1.78.85,2.7.18.82.32,1.47.42,1.94.21.76.34,1.77.39,3.09.05,1.24.07,2.56.07,3.91s-.02,2.65-.07,3.84c-.05,1.27-.18,2.3-.38,3.13-.39,2.03-.86,3.75-1.4,5.13-.65,1.65-1.48,2.72-2.55,3.28-.6.36-1.21.54-1.79.54Zm.08-28.49s-.12.04-.34.26l-.09.08c-.13.11-.59.63-.9,2.47-.27,1.62-.5,4.43-.68,8.36-.18,4.07-.07,7.46.33,10.06.48,3.11,1.26,3.97,1.57,4.2l.07.06s.1-.04.21-.11l.13-.07c.18-.09.66-.44,1.16-1.73.48-1.21.9-2.77,1.25-4.63l.02-.08c.16-.64.26-1.5.31-2.57.05-1.14.07-2.4.07-3.72s-.02-2.6-.07-3.79c-.05-1.36-.19-2.08-.29-2.45l-.03-.12c-.09-.46-.23-1.1-.41-1.93-.17-.75-.4-1.49-.69-2.21-.27-.64-.61-1.21-1.02-1.7-.32-.38-.52-.38-.6-.38Z"/></g></g></g></svg>