<?xml version="1.0" encoding="UTF-8"?><svg id="Layer_2" xmlns="http://www.w3.org/2000/svg" viewBox="0 0 24 24"><defs><style>.cls-1,.cls-2{fill:none;}.cls-3{fill:#fff;}.cls-2{stroke:#fff;}</style></defs><g id="Layer_1-2"><g id="Group_741"><g id="Ellipse_18"><circle class="cls-1" cx="12" cy="12" r="12"/><circle class="cls-2" cx="12" cy="12" r="11.5"/></g><g id="noun-share-1044722"><path id="Path_1718" class="cls-3" d="m16.51,9.22h-2.95v.67h2.95c.21,0,.38.16.38.36,0,0,0,0,0,0v7.42c0,.21-.17.37-.38.37,0,0,0,0,0,0H7.93c-.21,0-.38-.16-.38-.36,0,0,0,0,0,0v-7.41c0-.21.17-.37.38-.37,0,0,0,0,0,0h2.62v-.67h-2.62c-.57,0-1.04.46-1.05,1.03v7.42c0,.58.48,1.04,1.05,1.03h8.57c.58,0,1.05-.46,1.05-1.03v-7.42c0-.58-.46-1.05-1.04-1.05h-.01Z"/><path id="Path_1719" class="cls-3" d="m11.89,6.12v8.74h.67V6.12l1.72,1.27.4-.53-2.45-1.82-2.45,1.82.4.53,1.72-1.27Z"/></g></g></g></svg>