<svg id="Group_114" data-name="Group 114" xmlns="http://www.w3.org/2000/svg" xmlns:xlink="http://www.w3.org/1999/xlink" width="283.496" height="429.521" viewBox="0 0 283.496 429.521">
  <defs>
    <clipPath id="clip-path">
      <rect id="Rectangle_39" data-name="Rectangle 39" width="283.496" height="429.521" fill="none"/>
    </clipPath>
    <clipPath id="clip-path-3">
      <rect id="Rectangle_31" data-name="Rectangle 31" width="164.416" height="34.676" fill="none"/>
    </clipPath>
    <clipPath id="clip-path-4">
      <rect id="Rectangle_32" data-name="Rectangle 32" width="163.74" height="33.9" fill="none"/>
    </clipPath>
    <clipPath id="clip-path-5">
      <rect id="Rectangle_33" data-name="Rectangle 33" width="163.515" height="32.958" fill="none"/>
    </clipPath>
    <clipPath id="clip-path-6">
      <rect id="Rectangle_34" data-name="Rectangle 34" width="163.438" height="33.433" fill="none"/>
    </clipPath>
    <clipPath id="clip-path-7">
      <rect id="Rectangle_35" data-name="Rectangle 35" width="163.836" height="31.789" fill="none"/>
    </clipPath>
    <clipPath id="clip-path-8">
      <rect id="Rectangle_36" data-name="Rectangle 36" width="165.264" height="33.907" fill="none"/>
    </clipPath>
    <clipPath id="clip-path-9">
      <rect id="Rectangle_37" data-name="Rectangle 37" width="166.133" height="32.62" fill="none"/>
    </clipPath>
  </defs>
  <g id="Group_113" data-name="Group 113" transform="translate(0 0)" clip-path="url(#clip-path)">
    <g id="Group_112" data-name="Group 112">
      <g id="Group_111" data-name="Group 111" clip-path="url(#clip-path)">
        <path id="Path_204" data-name="Path 204" d="M437.307,1824.8a4.687,4.687,0,0,1-4.339-6.418l27.579-68.652a4.675,4.675,0,1,1,8.677,3.481l-27.579,68.652a4.683,4.683,0,0,1-4.339,2.938" transform="translate(-354.329 -1430.622)" fill="#ffeab9"/>
        <path id="Path_205" data-name="Path 205" d="M433.552,1821.711a5.5,5.5,0,0,1-5.1-7.55l27.577-68.654a5.5,5.5,0,0,1,8.972-1.915,5.5,5.5,0,0,1,1.234,6.013l-27.577,68.681a5.5,5.5,0,0,1-5.1,3.424m27.574-78.006a3.848,3.848,0,0,0-3.569,2.414l-27.579,68.652a3.853,3.853,0,0,0,2.139,5.01,3.8,3.8,0,0,0,1.435.28,3.853,3.853,0,0,0,3.569-2.42L464.7,1749a3.865,3.865,0,0,0-3.575-5.29" transform="translate(-350.574 -1426.711)" fill="#431426"/>
        <path id="Path_206" data-name="Path 206" d="M252.244,2115.61s4.444,6.05,23.647,6.868,26.732-8.429,26.732-8.429c.329-2.14.583-6.81.758-8.988a66.459,66.459,0,0,0-.23-11.833,76.9,76.9,0,0,0-2.751-16.849l-29.574-6.089-2.749,6.181-2.344,5.246-.494,1.1s-7.066,3.993-10.284,10.4a33.142,33.142,0,0,0-3.052,14.052c-.061,3.619.341,8.342.341,8.342" transform="translate(-206.303 -1695.566)" fill="#9cc"/>
        <path id="Path_207" data-name="Path 207" d="M274.532,2119.611c-.787,0-1.589,0-2.415-.054-19.369-.815-24.076-6.94-24.268-7.2a.812.812,0,0,1-.154-.418c0-.192-.407-4.807-.346-8.415a34.267,34.267,0,0,1,3.14-14.408c2.991-5.96,9.075-9.827,10.378-10.608l5.5-12.3a.835.835,0,0,1,.369-.392.823.823,0,0,1,.532-.08l28.046,5.125a.856.856,0,0,1,.507.307c.1.128,2.458,3.252,3.85,12.495a80.955,80.955,0,0,1,.262,24.747c-.1.771-.186,1.43-.241,1.969a.786.786,0,0,1-.183.441c-.291.38-7.374,8.793-24.976,8.793m-25.215-8.084c.88.93,6.186,5.682,22.865,6.385,17.048.715,24.748-6.72,25.908-7.958.054-.506.13-1.1.219-1.754a79.973,79.973,0,0,0-.259-24.291c-1.1-7.346-2.854-10.619-3.386-11.488l-27.051-4.97-5.331,11.95a.809.809,0,0,1-.346.378c-.065.04-6.891,3.955-9.954,10.053a32.632,32.632,0,0,0-2.964,13.694c-.072,3.063.214,6.956.3,8" transform="translate(-202.573 -1691.824)" fill="#431426"/>
        <path id="Path_208" data-name="Path 208" d="M353.817,2139.246a.814.814,0,0,1-.393-.1.829.829,0,0,1-.3-.276c-11.407-17.7-30.158-10.382-30.951-10.081a.815.815,0,0,1-.632-.006.827.827,0,0,1-.266-.181.822.822,0,0,1-.17-.9.844.844,0,0,1,.183-.266.826.826,0,0,1,.27-.177c.2-.082,20.777-8.144,33,10.719a.831.831,0,0,1-.243,1.144.849.849,0,0,1-.5.132" transform="translate(-262.931 -1740.758)" fill="#431426"/>
        <path id="Path_209" data-name="Path 209" d="M325.61,1985.543c.2-.083.4-.156.6-.216,2.474-.847,12.066-3.679,21.546,1.293,1.254.655,3.817,2.463,3.817,2.463s2.82-8.188,4.822-13.935,7.832-21.4-13.1-23.492c-16.916-1.688-15.706,11.027-15.783,16.212-.071,4.444-1.9,17.675-1.9,17.675" transform="translate(-266.674 -1598.279)" fill="#f57162"/>
        <path id="Path_210" data-name="Path 210" d="M348,1986.141a.818.818,0,0,1-.472-.149c-.027,0-2.536-1.787-3.723-2.415-9-4.707-18.268-2.139-20.9-1.243a5.039,5.039,0,0,0-.55.2.823.823,0,0,1-.8-.132.807.807,0,0,1-.25-.335.827.827,0,0,1-.054-.413c0-.132,1.821-13.231,1.886-17.6v-1.1c0-3.51,0-9.383,3.955-12.974,2.749-2.513,7.055-3.5,12.732-2.93,7.021.7,11.823,2.992,14.259,6.818,3.712,5.825.961,13.694-.358,17.477l-.1.292c-2,5.741-4.824,13.929-4.824,13.929a.825.825,0,0,1-.212.326.838.838,0,0,1-.339.192.8.8,0,0,1-.259.049m-15.776-7a26.363,26.363,0,0,1,12.346,2.975c.818.429,2.132,1.3,3.006,1.9.82-2.375,2.9-8.4,4.467-12.908l.1-.291c1.332-3.81,3.806-10.9.55-16.046-2.15-3.377-6.538-5.417-13.034-6.049-5.191-.518-9.046.33-11.454,2.512-3.426,3.1-3.421,8.31-3.415,11.752v1.139c-.06,3.656-1.26,12.961-1.727,16.447a31.182,31.182,0,0,1,9.157-1.43" transform="translate(-263.107 -1594.511)" fill="#431426"/>
        <path id="Path_211" data-name="Path 211" d="M252.244,2272.948s4.444,6.048,23.647,6.869,26.732-8.431,26.732-8.431c0-2.2.918-6.807.758-8.986,0,0-9.937,9.272-28.694,7.926-18.462-1.322-22.658-5.587-22.784-5.72-.061,3.619.341,8.343.341,8.343" transform="translate(-206.303 -1852.903)" fill="#fffaf4"/>
        <path id="Path_212" data-name="Path 212" d="M274.532,2275.538c-.787,0-1.589,0-2.415-.054-19.369-.814-24.076-6.94-24.268-7.2a.809.809,0,0,1-.154-.418c0-.191-.407-4.805-.346-8.413a.846.846,0,0,1,1.452-.556c.038.038,4.245,4.179,22.244,5.466,17.68,1.257,27.635-7.468,28.218-8a.814.814,0,0,1,.268-.188.866.866,0,0,1,.32-.066.825.825,0,0,1,.813.82,71.614,71.614,0,0,1-.95,9.448.828.828,0,0,1-.176.372c-.32.376-7.4,8.788-25.005,8.788m-25.215-8.083c.88.93,6.186,5.681,22.865,6.386,17.164.72,24.846-6.814,25.93-7.981.313-1.837.67-4.948.818-7.149-3.173,2.37-11.427,7.4-24.366,7.4-1.182,0-2.4-.039-3.663-.133-13.456-.963-19.467-3.465-21.9-4.949.039,2.728.248,5.559.319,6.422" transform="translate(-202.573 -1847.751)" fill="#431426"/>
        <path id="Path_213" data-name="Path 213" d="M287.109,2304.563a.824.824,0,0,1-.317-.052.881.881,0,0,1-.273-.172.817.817,0,0,1-.186-.263.806.806,0,0,1-.072-.313.819.819,0,0,1,.053-.318.83.83,0,0,1,.172-.272.85.85,0,0,1,.262-.189.809.809,0,0,1,.313-.07,46.336,46.336,0,0,0,6.424-.853.8.8,0,0,1,.322,0,.824.824,0,0,1,.3.12.837.837,0,0,1,.23.227.814.814,0,0,1,.125.62.813.813,0,0,1-.121.3.856.856,0,0,1-.226.229.841.841,0,0,1-.3.124,49.363,49.363,0,0,1-6.648.885Zm-6.6-.044h-.054c-2.293-.159-4.525-.422-6.632-.781a.838.838,0,0,1-.688-.962.836.836,0,0,1,.963-.687q3.215.542,6.473.764a.8.8,0,0,1,.313.073.823.823,0,0,1,.261.188.838.838,0,0,1,.17.275.83.83,0,0,1-.024.632.819.819,0,0,1-.463.429.851.851,0,0,1-.318.053Zm-12.972-2.271a.742.742,0,0,1-.235-.038,26.533,26.533,0,0,1-6.292-2.636.8.8,0,0,1-.241-.222.824.824,0,0,1-.143-.629.822.822,0,0,1,.352-.539.852.852,0,0,1,.3-.125.806.806,0,0,1,.329,0,.828.828,0,0,1,.3.133,25.865,25.865,0,0,0,5.868,2.436.825.825,0,0,1,.3,1.42.83.83,0,0,1-.547.2m32.446-.318a.833.833,0,0,1-.538-.192.827.827,0,0,1-.181-1.055.831.831,0,0,1,.444-.361,44.528,44.528,0,0,0,5.944-2.584.813.813,0,0,1,.63-.054.822.822,0,0,1,.541,1.033.835.835,0,0,1-.405.485,46.828,46.828,0,0,1-6.159,2.676.753.753,0,0,1-.259.062Z" transform="translate(-213.442 -1881.768)" fill="#431426"/>
        <path id="Path_214" data-name="Path 214" d="M861.095,1812.7a4.67,4.67,0,0,1-4.675-4.675c0-6.077,5.5-11.5,11.3-17.235,2.8-2.75,7.479-7.39,7.7-9.152.422-4.08-7.216-15.633-14.612-23.872a4.674,4.674,0,0,1,6.956-6.246c3.019,3.365,18.033,20.666,16.954,31.081-.521,5.065-5.334,9.811-10.447,14.847-3.186,3.146-8.514,8.41-8.514,10.581a4.674,4.674,0,0,1-4.657,4.67" transform="translate(-701.407 -1433.225)" fill="#ffeab9"/>
        <path id="Path_215" data-name="Path 215" d="M857.369,1809.647a5.5,5.5,0,0,1-5.5-5.5c0-6.424,5.6-11.96,11.548-17.823,2.2-2.151,7.281-7.182,7.457-8.661.351-3.426-6.38-14.3-14.408-23.219a5.5,5.5,0,0,1,8.183-7.352c3.062,3.41,18.279,20.958,17.162,31.714-.55,5.361-5.466,10.207-10.663,15.342-2.475,2.447-8.25,8.172-8.25,10a5.5,5.5,0,0,1-5.531,5.5m3.178-62.724a3.848,3.848,0,0,0-2.86,6.417c7.479,8.331,15.276,20.073,14.815,24.506-.224,1.908-3.882,5.652-7.935,9.656-5.682,5.609-11.048,10.911-11.048,16.646a3.85,3.85,0,1,0,7.7,0c0-2.326,4.139-6.6,8.761-11.17,4.981-4.921,9.689-9.568,10.183-14.342,1.041-10.063-13.747-27.121-16.75-30.437a3.848,3.848,0,0,0-2.865-1.276" transform="translate(-697.681 -1429.373)" fill="#431426"/>
        <path id="Path_216" data-name="Path 216" d="M784.882,2069.939a.181.181,0,0,0,0,.078.063.063,0,0,0,.034.049.374.374,0,0,1,.054.062,30.854,30.854,0,0,0,3.3,2.666l.094.062a93.793,93.793,0,0,0,8.8,5.621c.55.3,1.1.6,1.649.906a88.759,88.759,0,0,0,22.86,8.8c20.292,4.487,28.41-1.352,28.41-1.352a.536.536,0,0,0,0-.073c.148-.377,1.028-4.4,1.594-7.083.055-.264.111-.55.16-.82v-.032c1.176-6.357,1.414-16.448-6.532-23.015a18.633,18.633,0,0,0-14.4-3.925l-5.378-6.726-3.569-4.465-3.519-4.4s-7.028-5-11.807-6.819c-10.862-4.125-11.79,3.953-11.79,3.953s-1.859,6.238-3.949,13.4c-.076.263-.159.548-.237.786s-.136.473-.208.715l-.38,1.265c-.114.4-.235.8-.346,1.2-.043.133-.083.27-.121.4-.2.666-.4,1.33-.583,1.99l-.232.786c-.076.264-.154.55-.225.788l-.226.769c-.07.26-.148.518-.219.77s-.143.5-.221.755c-.032.126-.071.246-.1.373-.089.3-.172.6-.259.89-.045.167-.089.326-.138.485v.081c-.072.232-.138.475-.2.7-.129.463-.253.914-.378,1.354-.051.2-.105.394-.159.583s-.132.462-.188.688a2.714,2.714,0,0,0-.082.3,1.6,1.6,0,0,0-.067.241.272.272,0,0,0,0,.056c-.054.192-.1.383-.154.55a1.342,1.342,0,0,1-.07.281c-.083.268-.149.549-.216.786-.038.149-.07.286-.11.424a39.67,39.67,0,0,0-.885,5.086" transform="translate(-642.814 -1661.174)" fill="#9cc"/>
        <path id="Path_217" data-name="Path 217" d="M832.193,2089.434a66.888,66.888,0,0,1-14.4-1.726,88.719,88.719,0,0,1-23.1-8.861c-.485-.258-.957-.523-1.419-.787l-.232-.125a93.029,93.029,0,0,1-8.866-5.677l-.093-.06a30.058,30.058,0,0,1-3.421-2.751l-.038-.044-.056-.06v-.027a1.072,1.072,0,0,1-.1-.138.361.361,0,0,1-.056-.11.929.929,0,0,1-.076-.407,38.842,38.842,0,0,1,.847-5.245l.109-.424c.062-.258.138-.55.215-.809l.213-.8a.708.708,0,0,1,.035-.1.722.722,0,0,1,.059-.237l.083-.308c.049-.186.109-.4.17-.61v-.073c.06-.191.1-.372.154-.549l.407-1.458c.059-.213.119-.428.186-.642a.288.288,0,0,1,0-.056l1.622-5.62c.188-.658.385-1.33.583-2,.032-.122.078-.264.121-.408.073-.25.154-.521.232-.8l.934-3.162.033-.083c2.085-7.06,3.982-13.27,4-13.334s1.953-7.117,11.994-4.67c5.07,1.238,12.571,6.874,12.889,7.116a.707.707,0,0,1,.148.143l12.171,15.215a19.379,19.379,0,0,1,14.572,4.181c8.474,7,7.908,17.916,6.82,23.8-.061.313-.116.6-.17.869-.342,1.651-1.375,6.451-1.618,7.149a.637.637,0,0,1-.044.127.826.826,0,0,1-.281.362c-.214.184-4.592,3.2-14.639,3.2m-47.145-18.588.132.088a92.815,92.815,0,0,0,8.7,5.561l.224.13,1.4.771a87.108,87.108,0,0,0,22.647,8.739c17.839,3.947,26.126-.249,27.534-1.1.221-.82.936-4.042,1.508-6.792.054-.259.109-.55.159-.8,1.26-6.78,1.187-16.118-6.243-22.256a17.962,17.962,0,0,0-13.709-3.756.815.815,0,0,1-.8-.3l-12.406-15.508c-.825-.61-7.732-5.675-12.2-6.764-8.48-2.067-9.953,3.3-10.013,3.51-.029.1-1.937,6.346-4.025,13.428v.072l-.92,3.107c-.076.264-.159.523-.23.787-.045.149-.083.268-.116.395q-.307,1.023-.588,2l-1.662,5.588a.7.7,0,0,1-.038.148c-.061.2-.116.4-.165.588l-.407,1.435c-.056.2-.1.4-.165.594v.056c-.062.2-.116.4-.165.6s-.062.2-.078.292a.387.387,0,0,1,0,.065l-.049.183a.415.415,0,0,1,0,.065l-.226.831c-.081.3-.149.55-.208.8l-.116.429a44.128,44.128,0,0,0-.777,4.608,33.786,33.786,0,0,0,3.009,2.43Z" transform="translate(-639.103 -1659.914)" fill="#431426"/>
        <path id="Path_218" data-name="Path 218" d="M957.175,2165.862a.835.835,0,0,1-.413-.113.828.828,0,0,1-.413-.716.833.833,0,0,1,.111-.414c5.687-9.667,14.474-10.514,14.847-10.547a.814.814,0,0,1,.6.188.806.806,0,0,1,.286.565.794.794,0,0,1-.036.32.814.814,0,0,1-.155.283.822.822,0,0,1-.252.2.811.811,0,0,1-.31.089c-.1,0-8.331.841-13.56,9.739a.826.826,0,0,1-.3.3.811.811,0,0,1-.407.11" transform="translate(-783.25 -1764.179)" fill="#431426"/>
        <path id="Path_219" data-name="Path 219" d="M797.184,2162.388c-8.326-4.521-12.027-8-12.286-8.479s3.151-13.693,5.968-23.179c0,0,12.856,10.365,6.319,31.658" transform="translate(-642.82 -1745.066)" fill="#f57162"/>
        <path id="Path_220" data-name="Path 220" d="M793.509,2159.193a.863.863,0,0,1-.4-.1c-8-4.349-12.16-7.7-12.6-8.546-.181-.346-.34-.637,1.761-8.8,1.269-4.949,2.815-10.537,4.14-15a.837.837,0,0,1,.137-.27.824.824,0,0,1,.407-.292.807.807,0,0,1,.425-.023.8.8,0,0,1,.378.194c.138.121,13.571,12.483,6.527,32.287a.838.838,0,0,1-.478.493.954.954,0,0,1-.3.051m-11.445-9.316c.616.622,3.85,3.338,11,7.3,5.032-15.371-2.641-25.566-5.444-28.637-2.585,8.86-5.334,19.512-5.555,21.338" transform="translate(-639.155 -1741.314)" fill="#431426"/>
        <path id="Path_221" data-name="Path 221" d="M851.923,2234.724c-.632,3.067-1.786,8.018-1.786,8.018s-8.112,5.833-28.4,1.341a88.916,88.916,0,0,1-22.86-8.8c-8.321-4.519-13.671-8.915-13.93-9.392a41.5,41.5,0,0,1,1.376-7.243c2.75,1.98,26.837,17.246,46.364,18.33,10.762.621,16.361-1.139,19.242-2.255" transform="translate(-642.857 -1817.072)" fill="#fffaf4"/>
        <path id="Path_222" data-name="Path 222" d="M832.275,2242.9a66.964,66.964,0,0,1-14.4-1.721,88.871,88.871,0,0,1-23.1-8.86c-7.94-4.316-13.8-8.876-14.259-9.729s1.287-7.78,1.3-7.852a.808.808,0,0,1,.2-.335.843.843,0,0,1,.326-.215.83.83,0,0,1,.758.111c3.85,2.788,27.342,17.148,45.926,18.147,11.521.643,17.079-1.512,18.906-2.2a.837.837,0,0,1,.433-.037.817.817,0,0,1,.393.187.831.831,0,0,1,.244.358.816.816,0,0,1,.031.432c-.628,3.02-1.778,7.981-1.788,8.031a.821.821,0,0,1-.324.477c-.224.2-4.6,3.207-14.645,3.207m-50.186-21.009a76.841,76.841,0,0,0,13.5,8.976,87.021,87.021,0,0,0,22.647,8.734c17.713,3.92,26.01-.194,27.5-1.063.219-.956.874-3.8,1.4-6.209-2.749.936-8.429,2.353-18.179,1.816-17.764-.991-39.842-13.85-45.81-17.808a56.05,56.05,0,0,0-1.044,5.577Z" transform="translate(-639.179 -1813.378)" fill="#431426"/>
        <path id="Path_223" data-name="Path 223" d="M875.825,2008.587a72.091,72.091,0,0,0,14.354,14.159,17.752,17.752,0,0,1,5.345-4.559c.6-.346,1.2-.642,1.77-.9a18.716,18.716,0,0,1,4.835-1.484s-4.67-5.8-5.7-11.186a31.915,31.915,0,0,1,.55-12.7s2.32-5.5-9.052-7.424c-13.661-2.288-21.32,11.547-12.1,24.1" transform="translate(-713.997 -1625.089)" fill="#f57162"/>
        <path id="Path_224" data-name="Path 224" d="M886.346,2020.425a.811.811,0,0,1-.485-.153,72.633,72.633,0,0,1-14.529-14.343c-4.614-6.275-5.5-13.236-2.409-18.621,2.876-4.981,8.585-7.522,15.262-6.786,4.635.513,7.7,1.914,9.128,4.175a5.309,5.309,0,0,1,.626,4.305,31.669,31.669,0,0,0-.548,12.314c.977,5.113,5.5,10.768,5.531,10.821a.842.842,0,0,1,.174.4.83.83,0,0,1-.319.776.833.833,0,0,1-.405.161,18.061,18.061,0,0,0-4.592,1.419c-.61.28-1.166.55-1.7.863a17.178,17.178,0,0,0-5.083,4.323.786.786,0,0,1-.239.227.8.8,0,0,1-.311.11.668.668,0,0,1-.1.01m-13.689-15.469a72.42,72.42,0,0,0,13.541,13.511,20.026,20.026,0,0,1,6.923-5.075,21.905,21.905,0,0,1,3.723-1.292c-1.414-1.959-4.257-6.292-5.059-10.449a32.978,32.978,0,0,1,.548-13.078v-.049a3.648,3.648,0,0,0-.472-2.949c-1.139-1.77-3.85-2.941-7.9-3.386-6.006-.66-11.108,1.573-13.649,5.971-2.749,4.8-1.908,11.086,2.3,16.823Z" transform="translate(-710.16 -1621.943)" fill="#431426"/>
        <path id="Path_225" data-name="Path 225" d="M837.007,2253.6a57.143,57.143,0,0,1-5.962-.335.83.83,0,0,1-.438-1.469.831.831,0,0,1,.608-.181,55.1,55.1,0,0,0,6.491.308.825.825,0,0,1,0,1.65Zm7.28-.548a.825.825,0,0,1-.534-.2.815.815,0,0,1-.279-.495.817.817,0,0,1,.675-.947,23.78,23.78,0,0,0,6.105-1.71.827.827,0,0,1,.63-.045.811.811,0,0,1,.478.411.826.826,0,0,1-.366,1.109,24.507,24.507,0,0,1-6.6,1.859.523.523,0,0,1-.111,0Zm-19.671-.777a.826.826,0,0,1-.17,0c-2.167-.45-4.344-.979-6.467-1.578a.829.829,0,0,1-.653-.7.823.823,0,0,1,.442-.847.832.832,0,0,1,.657-.042c2.09.583,4.225,1.1,6.359,1.546a.824.824,0,0,1,.559.3.828.828,0,0,1-.118,1.165.82.82,0,0,1-.608.183Zm-12.7-3.564a.791.791,0,0,1-.275-.048c-2.089-.743-4.174-1.573-6.187-2.458a.84.84,0,0,1-.282-.177.865.865,0,0,1-.188-.275.816.816,0,0,1-.063-.328.808.808,0,0,1,.071-.326.825.825,0,0,1,.478-.443.836.836,0,0,1,.651.043c1.98.869,4.026,1.682,6.076,2.414a.833.833,0,0,1,.433.362.827.827,0,0,1-.183,1.044.827.827,0,0,1-.53.194m-12.1-5.306a.8.8,0,0,1-.385-.1c-1.991-1.05-3.926-2.2-5.769-3.338a.809.809,0,0,1-.233-.223.835.835,0,0,1-.13-.294.832.832,0,0,1,.109-.624.823.823,0,0,1,.518-.365.831.831,0,0,1,.322-.008.806.806,0,0,1,.3.116c1.8,1.144,3.707,2.245,5.655,3.3a.827.827,0,0,1,.418.928.8.8,0,0,1-.293.453.835.835,0,0,1-.511.176Zm-11.113-7.1a.8.8,0,0,1-.5-.17c-1.98-1.519-3-2.491-3.041-2.531a.784.784,0,0,1-.194-.262.836.836,0,0,1-.078-.318.84.84,0,0,1,.228-.6.882.882,0,0,1,.268-.188.824.824,0,0,1,.32-.066.8.8,0,0,1,.322.061.826.826,0,0,1,.272.181s1.012.958,2.909,2.414a.826.826,0,0,1,.279.922.834.834,0,0,1-.3.405.81.81,0,0,1-.482.151" transform="translate(-642.822 -1828.145)" fill="#431426"/>
        <path id="Path_226" data-name="Path 226" d="M1095.45,940.931c-16.019,0-27.194-13.957-27.677-14.567a4.675,4.675,0,0,1,7.336-5.792c.093.116,9.441,11.653,21.364,11,8.453-.478,16.646-6.94,24.341-19.215a4.675,4.675,0,0,1,7.924,4.95c-9.426,15.023-20.127,22.958-31.818,23.586-.5.027-.985.038-1.47.038" transform="translate(-873.736 -745.531)" fill="#ffeab9"/>
        <path id="Path_227" data-name="Path 227" d="M1091.4,937.295c-16.415,0-27.847-14.3-28.327-14.882a5.5,5.5,0,1,1,8.634-6.818c.089.114,9.229,11.311,20.667,10.674,8.177-.462,16.145-6.8,23.691-18.83a5.513,5.513,0,0,1,9.349,5.846c-9.575,15.266-20.5,23.328-32.474,23.97-.523.029-1.033.04-1.54.04m-24.01-22.129a3.849,3.849,0,0,0-3.019,6.225c.458.583,11.406,14.254,27.029,14.254.48,0,.958,0,1.424-.038,11.407-.61,21.894-8.414,31.165-23.2a3.848,3.848,0,0,0-1.22-5.3,3.772,3.772,0,0,0-1.4-.541,3.817,3.817,0,0,0-1.5.045,3.839,3.839,0,0,0-2.4,1.711c-7.843,12.511-16.256,19.1-24.995,19.6-12.362.7-21.959-11.173-22.053-11.294a3.834,3.834,0,0,0-3.024-1.457" transform="translate(-869.687 -741.07)" fill="#431426"/>
        <path id="Path_228" data-name="Path 228" d="M1312.706,642.252s-6.214-1.649-7.358,4.12,9.073,4.778,12.33,8.029,6.308,6.632,9.74,4.729,2.75-8.4,2.75-8.4,6.521-1.541,11.113-4.949c2.865-2.139,5.285-6.545,5.285-6.545s2.232.758,4.2-5.742c3.51-11.591-4.366-11.658-4.366-11.658s2.448-10.569-6.65-6.978c0,0,16.372-18.869,8.85-23.774s-14.925,23.416-17.009,21.937c-1.99-1.419.967-7.655,2.095-11,1.468-4.4,5.7-13.33.034-15.117-6.957-2.2-8.541,9.965-12.435,22.229a8.265,8.265,0,0,0-9.205,3.454c-3.75,5.312-.043,12.483-.632,16.453s-2.954,9.513,1.264,13.209" transform="translate(-1069.006 -480.464)" fill="#fffaf4"/>
        <path id="Path_229" data-name="Path 229" d="M1321.751,656.663c-2.784,0-5.3-2.523-7.749-4.983l-.55-.548c-1.1-1.1-3.3-1.689-5.417-2.266-3.745-1.017-7.995-2.172-7.148-6.5a5.875,5.875,0,0,1,2.612-4.082,6.8,6.8,0,0,1,3.546-.929c-2.018-3.1-1.2-6.858-.549-9.977.176-.829.346-1.611.451-2.326a17.073,17.073,0,0,0-.435-4.762c-.644-3.69-1.446-8.283,1.209-12.049a9.133,9.133,0,0,1,9.349-3.948c.666-2.134,1.259-4.251,1.837-6.308,2.134-7.583,3.818-13.572,7.3-15.447a5.1,5.1,0,0,1,4.107-.286,4.56,4.56,0,0,1,2.86,2.365c1.541,3.14-.324,8.21-1.682,11.911-.253.688-.49,1.326-.677,1.892-.221.66-.512,1.419-.815,2.227-.842,2.2-2.331,6.17-1.832,7.507a48.022,48.022,0,0,0,2.855-5.884c2.943-6.682,6.6-14.991,10.938-16.284a3.984,3.984,0,0,1,3.432.55,5.008,5.008,0,0,1,2.282,3.674c.809,5.774-6.011,15.172-9.282,19.3a4.586,4.586,0,0,1,3.794.88c1.991,1.721,1.759,5.236,1.519,6.885a6.2,6.2,0,0,1,3.772,2.353c1.649,2.255,1.8,5.7.424,10.252-1,3.3-2.2,5.334-3.658,6.049a2.556,2.556,0,0,1-.858.27,23.851,23.851,0,0,1-5.262,6.368,34.839,34.839,0,0,1-10.741,4.948c.078,1.854-.033,6.737-3.211,8.5a4.963,4.963,0,0,1-2.42.659M1307.106,639a5.154,5.154,0,0,0-2.75.688,4.316,4.316,0,0,0-1.859,2.992c-.518,2.634,1.9,3.492,5.955,4.592,2.333.637,4.746,1.292,6.149,2.688l.55.55c3.426,3.443,5.69,5.434,8.2,4.042,2.909-1.611,2.326-7.528,2.321-7.588a.817.817,0,0,1,.148-.567.829.829,0,0,1,.485-.326,33.975,33.975,0,0,0,10.806-4.827c2.688-2.007,5.032-6.237,5.059-6.281a.711.711,0,0,1,.67-.461.717.717,0,0,1,.283.06c.224,0,1.7-.319,3.178-5.18,1.193-3.958,1.138-6.994-.159-8.8a4.655,4.655,0,0,0-3.432-1.815.835.835,0,0,1-.355-.087.846.846,0,0,1-.282-.23.843.843,0,0,1-.161-.7c.292-1.264.709-4.833-.825-6.157-.912-.787-2.5-.744-4.711.132a.825.825,0,0,1-.976-.293.826.826,0,0,1,.051-1.017c.115-.132,11.5-13.352,10.57-20.017a3.392,3.392,0,0,0-1.551-2.519,2.336,2.336,0,0,0-2.062-.341c-3.6,1.1-7.392,9.673-9.9,15.365-2.25,5.11-3.064,6.786-4.114,7.077a1.095,1.095,0,0,1-.957-.17c-2.127-1.511-.467-5.906.995-9.783.3-.786.583-1.534.793-2.167s.434-1.226.693-1.93c1.187-3.233,2.979-8.111,1.748-10.619a2.936,2.936,0,0,0-1.875-1.518,3.488,3.488,0,0,0-2.827.16c-2.866,1.551-4.541,7.528-6.489,14.446-.65,2.3-1.319,4.679-2.08,7.088a.839.839,0,0,1-.416.483.808.808,0,0,1-.315.087.854.854,0,0,1-.323-.042,7.372,7.372,0,0,0-8.248,3.146c-2.261,3.206-1.557,7.247-.931,10.817a17.91,17.91,0,0,1,.44,5.285c-.114.769-.291,1.579-.473,2.431-.747,3.459-1.595,7.374,1.468,10.058a.825.825,0,0,1-.214,1.381.817.817,0,0,1-.545.036,7.615,7.615,0,0,0-1.765-.176Z" transform="translate(-1065.335 -476.612)" fill="#431426"/>
        <path id="Path_230" data-name="Path 230" d="M1389.751,728.6a4.391,4.391,0,0,1-1.578-.286c-1.365-.521-3.74-2.243-4.363-7.979a.825.825,0,0,1,1.054-.885.784.784,0,0,1,.285.148.8.8,0,0,1,.206.246.817.817,0,0,1,.1.31c.389,3.607,1.568,5.955,3.3,6.6a3.632,3.632,0,0,0,3.678-.983,7.367,7.367,0,0,0,1.931-7.365c-2.034-7.511-8.992-10.42-9.063-10.447a.823.823,0,0,1-.342-1.014.827.827,0,0,1,.947-.5A18.214,18.214,0,0,1,1395.933,718a9.027,9.027,0,0,1-2.415,9.019,5.7,5.7,0,0,1-3.767,1.589" transform="translate(-1133.336 -578.564)" fill="#431426"/>
        <path id="Path_231" data-name="Path 231" d="M1469.485,784.1a5.18,5.18,0,0,1-1.552-.237,5.092,5.092,0,0,1-3.464-5.834,39.086,39.086,0,0,1,3.524-11,.823.823,0,0,1,.2-.264.827.827,0,0,1,.932-.112.834.834,0,0,1,.255.21.788.788,0,0,1,.152.293.806.806,0,0,1,.026.33.828.828,0,0,1-.107.313,38.314,38.314,0,0,0-3.354,10.5,3.443,3.443,0,0,0,2.332,4,3.483,3.483,0,0,0,4.289-2.051c1.843-3.812,3.157-11.148,3.173-11.219a.84.84,0,0,1,.968-.682.857.857,0,0,1,.3.118.832.832,0,0,1,.37.523.876.876,0,0,1,.009.328c-.056.307-1.37,7.638-3.3,11.647a5.163,5.163,0,0,1-4.757,3.14" transform="translate(-1199.321 -627.807)" fill="#431426"/>
        <path id="Path_232" data-name="Path 232" d="M1513.815,844.381a4.626,4.626,0,0,1-3.416-1.716c-1.028-1.365-1.2-3.348-.5-5.89a.822.822,0,0,1,.384-.516.826.826,0,0,1,.309-.107.87.87,0,0,1,.327.023.827.827,0,0,1,.5.4.817.817,0,0,1,.1.313.829.829,0,0,1-.032.326c-.55,1.98-.468,3.519.219,4.443a2.955,2.955,0,0,0,2.128,1.072.825.825,0,0,1,.559,1.417.826.826,0,0,1-.58.234" transform="translate(-1236.261 -684.803)" fill="#431426"/>
        <path id="Path_233" data-name="Path 233" d="M1345.287,893.068a.807.807,0,0,1-.517-.188l-2.645-2.129a.827.827,0,0,1-.208-.246.887.887,0,0,1-.1-.309.863.863,0,0,1,.029-.32.842.842,0,0,1,.15-.286.828.828,0,0,1,.878-.273.843.843,0,0,1,.286.148l2.645,2.134a.84.84,0,0,1,.28.425.828.828,0,0,1-.831,1.044Z" transform="translate(-1098.947 -728.32)" fill="#431426"/>
        <path id="Path_234" data-name="Path 234" d="M1430.2,938.374a.824.824,0,0,1-.693-1.273.825.825,0,0,1,.462-.344l1.616-.467a.825.825,0,0,1,.86,1.178.838.838,0,0,1-.425.4l-1.611.467a.826.826,0,0,1-.208.038" transform="translate(-1170.658 -766.814)" fill="#431426"/>
        <path id="Path_235" data-name="Path 235" d="M402.509,279.281c1.37,16.982.709,24.906-.324,26.287-1.551,2.067-7.973,2.2-8.8,5.412s-.769,7.439-2.787,9.457-25.682,9.394-59.844,9.394c-35.223,0-63.242-7.238-66.382-12.165-1.786-2.822-.319-9.26-2.337-10.449s-9.381-3.683-10.592-6.511c-.67-1.567-5.939-11.823-11-31.378-4.015-15.74-7.947-37.489-9.206-65.6-1.941-43.29,2.343-102.495,6.049-136.31,1.688-15.4,3.251-25.555,4.053-26.512,2.827-3.366,4.95-2.607,7.271-4.025,2.568-1.551,3.227-11.312,5.251-16.157s15.6-19.171,68.516-15.948,73.691,17.548,74.9,22.4-1.061,16.2.181,17.5a35.314,35.314,0,0,0,5.423,4.619c1.649,1.2,2.007,10.036-1.419,36.79-.127,1.006-.264,2.04-.4,3.1q-.435,3.36-.956,7.067C395.256,131,389.2,185.54,396.872,234.423c3.008,19.186,4.735,33.909,5.636,44.857" transform="translate(-188.989 -3.531)" fill="#fffaf4"/>
        <path id="Path_236" data-name="Path 236" d="M326.984,327.123c-33.293,0-63.374-6.742-67.041-12.549-.968-1.529-1.1-3.783-1.195-5.955-.082-1.71-.192-3.85-.863-4.23-.483-.286-1.363-.677-2.38-1.133-3.173-1.424-7.53-3.376-8.552-5.763-.065-.165-.192-.423-.357-.78-1.519-3.267-6.143-13.2-10.664-30.72-5.059-19.66-8.166-41.795-9.244-65.743-2.04-45.5,2.849-107.17,6.049-136.438,1.034-9.409,2.953-25.418,4.24-26.947a9.305,9.305,0,0,1,5.262-3.3,8.984,8.984,0,0,0,2.2-.874c1.242-.754,2.121-4.79,2.9-8.353a47.364,47.364,0,0,1,2.018-7.419c.831-2,10.1-20.061,69.323-16.443,28.85,1.76,46.97,6.764,57.088,10.646,11.819,4.537,17.839,9.486,18.565,12.379.661,2.645.348,6.957.072,10.757-.181,2.458-.423,5.818-.072,6.407a34.583,34.583,0,0,0,5.285,4.493c1.689,1.21,2.876,6.627-1.1,37.56-.083.676-.178,1.369-.27,2.073l-.132,1.028c-.291,2.244-.61,4.6-.958,7.077-5.032,36.025-10.838,89.523-3.238,137.921,2.749,17.45,4.63,32.557,5.625,44.9,1.193,14.809,1.012,24.846-.49,26.846-.8,1.068-2.413,1.651-4.123,2.2-2.042.715-4.152,1.446-4.516,2.892-.23.918-.389,1.908-.55,2.958-.411,2.59-.834,5.274-2.453,6.885-2.474,2.476-27.094,9.635-60.425,9.635ZM303.837,1.622c-15.745,0-28.564,1.793-38.242,5.362-11.588,4.267-14.3,9.53-14.694,10.542a44.943,44.943,0,0,0-1.926,7.149c-.974,4.449-1.808,8.293-3.662,9.409a10.134,10.134,0,0,1-2.612,1.05,7.694,7.694,0,0,0-4.454,2.8c-.577.9-2.046,9.459-3.85,26.066-3.2,29.223-8.079,90.787-6.049,136.184,1.072,23.85,4.163,45.858,9.2,65.414,4.476,17.378,9.057,27.2,10.558,30.428.176.38.308.655.38.831.769,1.792,5.113,3.745,7.7,4.905,1.063.478,1.98.885,2.541,1.22,1.435.847,1.551,3.03,1.678,5.56.092,1.875.2,4,.939,5.164,2.625,4.152,29.538,11.78,65.645,11.78h.038c34,0,57.451-7.341,59.26-9.151,1.238-1.236,1.618-3.645,1.991-5.977.165-1.041.337-2.112.583-3.1.55-2.315,3.235-3.238,5.571-4.053,1.4-.489,2.854-.99,3.349-1.651.7-.929,1.651-7.506.166-25.724-.99-12.3-2.876-27.366-5.609-44.776-7.635-48.613-1.815-102.287,3.233-138.406q.521-3.7.958-7.056l.132-1.034c.092-.7.181-1.391.262-2.068,3.95-30.8,2.547-35.448,1.761-36.015a36.571,36.571,0,0,1-5.539-4.718c-.813-.858-.693-3.085-.362-7.638.27-3.679.548-7.847,0-10.24-.5-2-5.593-6.643-17.554-11.235-10.015-3.85-27.959-8.8-56.6-10.537q-7.781-.5-14.788-.5" transform="translate(-185.262 0)" fill="#431426"/>
        <path id="Path_237" data-name="Path 237" d="M444.068,122.052c-5.922,0-12.484-.214-19.753-.687-47.5-3.069-63.837-13.149-69.226-21.046-3.459-5.109-2.2-9.107-2.161-9.277a.826.826,0,0,1,1.573.506c-.049.154-1.033,3.5,2.013,7.925,5.2,7.572,21.2,17.229,67.9,20.248,48.1,3.107,64.6-4.872,69.973-12.1,3.64-4.916,2.034-9.349,1.969-9.558a.826.826,0,0,1,.487-1.033.824.824,0,0,1,1.052.445c.083.22,2.007,5.433-2.15,11.081-4.762,6.451-17.74,13.5-51.681,13.5" transform="translate(-288.84 -74.094)" fill="#431426"/>
        <path id="Path_238" data-name="Path 238" d="M422.207,271.059c-5.251,0-11-.165-17.2-.55-59.035-3.531-74.037-20.276-74.643-20.991a.819.819,0,0,1-.237-.614.846.846,0,0,1,.081-.326.824.824,0,0,1,1.153-.356.8.8,0,0,1,.252.223c.165.192,15.36,16.938,73.492,20.413,58.04,3.47,71.492-11.323,71.624-11.477a.827.827,0,0,1,1.166-.093.832.832,0,0,1,.288.564.823.823,0,0,1-.2.6c-.483.577-11.218,12.6-55.779,12.6" transform="translate(-270.372 -203.204)" fill="#431426"/>
        <path id="Path_239" data-name="Path 239" d="M520.465,1695.363h-3.993c-35.025-.54-56.2-7.369-56.4-7.42a.829.829,0,0,1-.279-.158.821.821,0,0,1-.284-.565.819.819,0,0,1,.038-.318.838.838,0,0,1,.413-.48.844.844,0,0,1,.63-.046c.2.066,21.161,6.8,55.917,7.309,34.305.5,55.752-5.647,55.955-5.691a.851.851,0,0,1,.322-.029.862.862,0,0,1,.306.1.807.807,0,0,1,.246.208.769.769,0,0,1,.148.286.8.8,0,0,1,.029.32.866.866,0,0,1-.1.306.843.843,0,0,1-.492.4c-.21.065-20.227,5.785-52.458,5.785" transform="translate(-376.334 -1381.107)" fill="#431426"/>
        <path id="Path_240" data-name="Path 240" d="M402.509,564.84c-14.694,4.9-39.407,9.14-79.738,6.78-43.1-2.547-67.988-9.667-82.33-16.739-4.009-15.734-7.941-37.484-9.2-65.591C229.3,446,233.583,386.8,237.289,352.98c0,0,24.274,27.3,77.919,30.246,67.5,3.778,86.256-11.554,86.256-11.554-.127,1.006-.264,2.04-.4,3.1q-.435,3.36-.956,7.066C395.256,416.586,389.2,471.121,396.872,520c3.008,19.164,4.735,33.887,5.636,44.836" transform="translate(-188.989 -289.09)" fill="#f57162"/>
        <path id="Path_241" data-name="Path 241" d="M340.846,569.383c-6.7,0-13.962-.21-21.838-.672-36.58-2.161-64.384-7.819-82.642-16.822a.818.818,0,0,1-.277-.228.834.834,0,0,1-.157-.322c-5.059-19.66-8.166-41.795-9.244-65.743-2.04-45.5,2.849-107.17,6.049-136.437a.83.83,0,0,1,.55-.7.82.82,0,0,1,.863.236c.06.071,6.17,6.847,18.7,13.9,11.55,6.506,31.132,14.578,58.639,16.1,66.239,3.657,85.508-11.251,85.695-11.4a.827.827,0,0,1,1.338.742c-.083.676-.178,1.369-.27,2.073l-.132,1.028c-.291,2.244-.61,4.6-.958,7.078-5.032,36.025-10.838,89.524-3.238,137.921,2.749,17.45,4.63,32.557,5.625,44.9a.828.828,0,0,1-.132.516.818.818,0,0,1-.418.33c-10.856,3.647-29.228,7.508-58.15,7.508M237.461,550.575c18.066,8.8,45.54,14.353,81.675,16.5,40.953,2.418,65.376-2.167,78.777-6.534-1-12.187-2.871-27.029-5.553-44.132-7.633-48.613-1.815-102.286,3.233-138.406q.524-3.7.957-7.056l.132-1.034.033-.253c-5.709,3.47-27.908,13.864-85.239,10.7-27.909-1.545-47.745-9.734-59.475-16.333a87.208,87.208,0,0,1-17.806-12.912c-3.2,29.85-7.853,89.9-5.857,134.447,1.067,23.673,4.124,45.554,9.1,65.017Z" transform="translate(-185.262 -285.356)" fill="#431426"/>
        <path id="Path_242" data-name="Path 242" d="M466.278,69.87l-25.753,1.38c-4.6.247-8.248,2.42-8.7,5.076l-.594,3.613c-.445,2.75,2.525,5.367,7.122,6.121l26.088,4.284c7.732,1.27,15.233-1.281,15.476-5.5l.472-8.315c.232-4-6.6-7.056-14.111-6.66m-21.816,8.925c-.263,1.952-2.545,3.393-5.032,3.211s-4.08-1.82-3.794-3.668,2.4-3.25,4.789-3.173,4.3,1.7,4.036,3.635Zm27.074,4.454c-.159,2.1-3.564,3.525-7.457,3.189h-.194c-3.734-.324-6.484-2.167-6.279-4.108l.594-5.609c.2-1.886,3.222-3.343,6.88-3.3h.187c3.806.071,6.874,1.754,6.726,3.778Zm-5.258-13.38-25.753,1.38c-4.6.247-8.248,2.42-8.7,5.076l-.594,3.613c-.445,2.75,2.525,5.367,7.122,6.121l26.088,4.284c7.732,1.27,15.233-1.281,15.476-5.5l.472-8.315c.232-4-6.6-7.056-14.111-6.66m-21.816,8.925c-.263,1.952-2.545,3.393-5.032,3.211s-4.08-1.82-3.794-3.668,2.4-3.25,4.789-3.173,4.3,1.7,4.036,3.635Zm27.074,4.454c-.159,2.1-3.564,3.525-7.457,3.189h-.194c-3.734-.324-6.484-2.167-6.279-4.108l.594-5.609c.2-1.886,3.222-3.343,6.88-3.3h.187c3.806.071,6.874,1.754,6.726,3.778Z" transform="translate(-353.141 -57.195)" fill="#f57162"/>
        <path id="Path_243" data-name="Path 243" d="M471.161,66.522c2.909,1.075,5.754,2.93,6.139,5.941a28.763,28.763,0,0,1,.4,5.131,18.649,18.649,0,0,1-.978,4.329c-.724,2.389-3.307,3.8-6.2,4.582a32.023,32.023,0,0,1-10.132.79c-6.907-.483-21.474-3.3-26.211-4.3a12.333,12.333,0,0,1-5.879-2.868,5.2,5.2,0,0,1-1.953-4.258c.143-1.07.293-1.985.409-2.635.056-.325.1-.583.139-.761.018-.089.031-.158.04-.205q.008-.036.011-.054l0,0a5.963,5.963,0,0,1,2.762-4.048,13.292,13.292,0,0,1,6.795-1.766c2.614-.095,7.244-.373,11.957-.656l1.316-.079c5.131-.308,10.159-.6,12.5-.646a26.22,26.22,0,0,1,8.885,1.509m-42.436,6.035v0l0,.012c0,.011-.005.027-.009.048-.009.043-.022.108-.038.193-.032.17-.08.419-.136.734-.11.63-.257,1.521-.4,2.561a3.47,3.47,0,0,0,1.4,2.694,10.532,10.532,0,0,0,5.015,2.42c4.755,1,19.2,3.794,25.965,4.267a30.23,30.23,0,0,0,9.535-.732c2.811-.756,4.511-1.946,4.936-3.358a16.889,16.889,0,0,0,.9-3.915,27.072,27.072,0,0,0-.387-4.791c-.244-1.909-2.139-3.426-4.972-4.473a24.415,24.415,0,0,0-8.225-1.4c-2.29.042-7.267.334-12.42.643l-1.325.08c-4.7.282-9.354.562-11.991.658a11.543,11.543,0,0,0-5.874,1.474,4.163,4.163,0,0,0-1.967,2.849l-.005.031m28.057-1.3c-1.139.567-1.609,1.214-1.674,1.642a50.805,50.805,0,0,0-.585,5.507c-.016.491.328,1.186,1.319,1.856a8.85,8.85,0,0,0,4.136,1.32,11.19,11.19,0,0,0,4.787-.5c1.242-.477,1.806-1.15,1.882-1.882.252-2.418.34-3.577.453-6,.034-.717-.386-1.377-1.486-1.924a11.047,11.047,0,0,0-4.536-.907,9.592,9.592,0,0,0-4.3.886m-.807-1.62a11.389,11.389,0,0,1,5.13-1.075h.005a12.813,12.813,0,0,1,5.312,1.1,3.884,3.884,0,0,1,2.487,3.629c-.114,2.456-.206,3.65-.46,6.1a4.241,4.241,0,0,1-3.035,3.385,12.963,12.963,0,0,1-5.593.613h0a10.641,10.641,0,0,1-4.992-1.623,4.155,4.155,0,0,1-2.114-3.417,51.758,51.758,0,0,1,.6-5.712,4.419,4.419,0,0,1,2.657-3M436.41,72.119c-2.112-.068-3.674,1.172-3.866,2.407-.174,1.125.782,2.468,2.967,2.627a4.635,4.635,0,0,0,2.8-.667,2.577,2.577,0,0,0,1.272-1.764c0-.01,0-.019,0-.029a1.926,1.926,0,0,0-.731-1.681,3.9,3.9,0,0,0-2.442-.894m4.956,2.9a4.387,4.387,0,0,1-2.087,3,6.451,6.451,0,0,1-3.9.945c-2.787-.2-5.021-2.139-4.623-4.709.38-2.46,3.052-4.025,5.712-3.939a5.7,5.7,0,0,1,3.582,1.347,3.726,3.726,0,0,1,1.323,3.315c0,.014-.005.029-.007.043" transform="translate(-349.155 -53.243)" fill="#431426" fill-rule="evenodd"/>
        <path id="Path_244" data-name="Path 244" d="M506.01,58.782a.979.979,0,0,1-.248-.038.824.824,0,0,1-.487-.4.827.827,0,0,1-.094-.307.792.792,0,0,1,.033-.319c0-.1.637-2.381-1.595-5.631-3.752-5.455-16.965-15.233-63.341-19.374-45.8-4.086-63.1,3.047-69.544,9.745-3.893,4.053-3.481,7.649-3.464,7.8a.834.834,0,0,1-.161.616.851.851,0,0,1-.244.215.832.832,0,0,1-.923-.056.829.829,0,0,1-.32-.55c0-.182-.55-4.454,3.848-9.09,6.655-7.006,24.363-14.48,70.941-10.322,44.9,4,59.942,13.2,64.639,20.2,2.617,3.9,1.77,6.8,1.732,6.918a.83.83,0,0,1-.771.583" transform="translate(-299.425 -24.472)" fill="#431426"/>
        <g id="Group_92" data-name="Group 92" transform="translate(45.701 83.921)" opacity="0.1" style="mix-blend-mode: normal;isolation: isolate">
          <g id="Group_91" data-name="Group 91">
            <g id="Group_90" data-name="Group 90" clip-path="url(#clip-path-3)">
              <path id="Path_245" data-name="Path 245" d="M343.531,498.329h-.7c-3.58-.2-6.626-1.958-9.568-3.651-2.463-1.419-4.789-2.75-7.26-3.113-2.9-.412-6.082.247-9.16.891-3.51.737-6.826,1.43-9.866.682-3.129-.764-5.62-2.827-8.029-4.817a20.6,20.6,0,0,0-5.812-3.849,22.435,22.435,0,0,0-7.656-.787c-3.008.033-5.844.061-8.3-1.133-3.707-1.793-6.232-4.79-8.668-7.7a28.818,28.818,0,0,0-5.294-5.334,31.545,31.545,0,0,0-7.953-3.5c-.775-.258-1.54-.517-2.282-.781a.825.825,0,0,1,.55-1.551c.726.259,1.479.511,2.244.764a32.287,32.287,0,0,1,8.364,3.712,29.97,29.97,0,0,1,5.626,5.631c2.326,2.75,4.73,5.631,8.123,7.27,2.105,1.023,4.757,1,7.566.968a23.573,23.573,0,0,1,8.221.88,22.15,22.15,0,0,1,6.319,4.136c2.266,1.875,4.608,3.811,7.37,4.487,2.671.654,5.812,0,9.133-.693,3.218-.671,6.545-1.369,9.729-.913,2.787.4,5.361,1.881,7.854,3.3,2.749,1.6,5.647,3.256,8.836,3.437,3.1.176,6.292-1.061,9.381-2.255,2.854-1.1,5.549-2.139,8.221-2.2,3.251-.038,6.27,1.028,9.173,2.073s5.566,2,8.178,1.727c2.464-.258,4.664-2.007,6.8-3.7,1.948-1.54,3.96-3.14,6.181-3.575,3.262-.638,6.512-.094,9.658.44s6.049,1.023,8.48.182a19.264,19.264,0,0,0,6.6-4.212.824.824,0,0,1,1.1,1.221,20.985,20.985,0,0,1-7.149,4.548c-2.809.979-5.96.451-9.3-.115-3-.5-6.094-1.023-9.068-.44-1.826.358-3.6,1.76-5.466,3.245-2.322,1.837-4.713,3.739-7.656,4.047s-5.861-.72-8.909-1.815c-2.749-.99-5.62-2.013-8.588-1.974-2.377.033-4.95,1.023-7.651,2.068-3.03,1.193-6.158,2.4-9.365,2.4" transform="translate(-252.488 -463.654)" fill="#431426"/>
            </g>
          </g>
        </g>
        <g id="Group_95" data-name="Group 95" transform="translate(43.705 109.658)" opacity="0.1" style="mix-blend-mode: normal;isolation: isolate">
          <g id="Group_94" data-name="Group 94">
            <g id="Group_93" data-name="Group 93" clip-path="url(#clip-path-4)">
              <path id="Path_246" data-name="Path 246" d="M329.231,639.739h-.749c-3.58-.214-6.6-1.978-9.552-3.689-2.458-1.43-4.778-2.749-7.247-3.14-2.905-.424-6.083.23-9.162.863-3.515.72-6.836,1.4-9.9.642-3.124-.775-5.609-2.847-8.007-4.844a20.676,20.676,0,0,0-5.806-3.877,22.634,22.634,0,0,0-7.649-.815c-3,0-5.846.038-8.3-1.16-3.7-1.81-6.208-4.818-8.639-7.726a28.862,28.862,0,0,0-5.274-5.351,27.947,27.947,0,0,0-6.929-3.2.828.828,0,1,1,.55-1.562,29.314,29.314,0,0,1,7.337,3.4,30.2,30.2,0,0,1,5.6,5.648c2.315,2.777,4.706,5.648,8.094,7.3,2.107,1.034,4.757,1.017,7.562,1a23.418,23.418,0,0,1,8.221.912,22.108,22.108,0,0,1,6.3,4.158c2.254,1.88,4.592,3.85,7.352,4.514,2.672.666,5.812,0,9.133-.659,3.224-.66,6.55-1.343,9.734-.881,2.787.407,5.356,1.9,7.843,3.35,2.749,1.611,5.631,3.3,8.8,3.464,3.1.192,6.3-1.034,9.392-2.2,2.86-1.1,5.56-2.123,8.25-2.15,3.254-.045,6.263,1.055,9.16,2.105s5.56,2.018,8.172,1.761c2.463-.248,4.675-1.991,6.815-3.674,1.946-1.535,3.964-3.124,6.192-3.553,3.265-.626,6.511-.071,9.651.474s6.049,1.044,8.485.213c3.591-1.244,6.154-3.712,8.628-6.1l.511-.5a.827.827,0,0,1,1.4.614.82.82,0,0,1-.255.579l-.51.491c-2.485,2.4-5.3,5.113-9.238,6.473-2.811.974-5.962.429-9.3-.148-2.992-.512-6.089-1.044-9.063-.472-1.832.351-3.6,1.749-5.5,3.227-2.322,1.826-4.724,3.718-7.667,4.015s-5.857-.742-8.9-1.848c-2.749-1-5.615-2.034-8.578-2.007-2.382,0-4.95,1.006-7.662,2.045-2.992,1.122-6.109,2.3-9.3,2.3" transform="translate(-241.464 -605.839)" fill="#431426"/>
            </g>
          </g>
        </g>
        <g id="Group_98" data-name="Group 98" transform="translate(42.175 135.742)" opacity="0.1" style="mix-blend-mode: normal;isolation: isolate">
          <g id="Group_97" data-name="Group 97">
            <g id="Group_96" data-name="Group 96" clip-path="url(#clip-path-5)">
              <path id="Path_247" data-name="Path 247" d="M317.57,782.906a7.608,7.608,0,0,1-.782-.027c-3.58-.221-6.6-2-9.541-3.712-2.458-1.435-4.773-2.787-7.244-3.157-2.9-.429-6.087.215-9.166.842-3.515.71-6.836,1.381-9.866.621-3.124-.785-5.6-2.865-8-4.871a20.073,20.073,0,0,0-5.79-3.883,22.386,22.386,0,0,0-7.649-.836c-3.008,0-5.846,0-8.3-1.184-3.7-1.814-6.2-4.827-8.618-7.741a28.9,28.9,0,0,0-5.263-5.368,20.824,20.824,0,0,0-3.811-2.045.821.821,0,0,1-.466-.447.826.826,0,0,1,.789-1.149.844.844,0,0,1,.32.078,22.239,22.239,0,0,1,4.108,2.2,30.056,30.056,0,0,1,5.593,5.664c2.31,2.784,4.7,5.66,8.073,7.32,2.107,1.034,4.762,1.023,7.562,1.011a24.132,24.132,0,0,1,8.221.931,22.186,22.186,0,0,1,6.292,4.174c2.253,1.891,4.587,3.848,7.341,4.536s5.812.033,9.139-.637c3.218-.655,6.55-1.325,9.734-.858,2.788.418,5.35,1.919,7.832,3.365,2.749,1.616,5.626,3.3,8.8,3.493,3.09.192,6.3-1.025,9.392-2.2,2.865-1.1,5.566-2.11,8.25-2.128,3.26-.027,6.263,1.068,9.155,2.123s5.566,2.034,8.172,1.783c2.463-.243,4.681-1.98,6.818-3.658,1.958-1.535,3.977-3.119,6.2-3.535,3.265-.622,6.516-.056,9.651.494s6.049,1.061,8.48.231c3.6-1.227,6.165-3.691,8.645-6.078a42.536,42.536,0,0,1,3.519-3.14.836.836,0,0,1,.292-.159.82.82,0,0,1,.331-.031.826.826,0,0,1,.711.617.825.825,0,0,1,.014.333.792.792,0,0,1-.116.31.818.818,0,0,1-.232.241,41.165,41.165,0,0,0-3.376,3.024c-2.491,2.386-5.312,5.1-9.249,6.444-2.822.963-5.968.413-9.3-.17-3-.522-6.094-1.061-9.063-.5-1.832.351-3.613,1.743-5.5,3.217-2.328,1.826-4.735,3.712-7.7,4s-5.857-.753-8.9-1.869c-2.749-1.006-5.615-2.051-8.574-2.024-2.38,0-4.949.99-7.665,2.024-2.981,1.155-6.076,2.337-9.271,2.337" transform="translate(-233.008 -749.948)" fill="#431426"/>
            </g>
          </g>
        </g>
        <g id="Group_101" data-name="Group 101" transform="translate(41.359 160.168)" opacity="0.1" style="mix-blend-mode: normal;isolation: isolate">
          <g id="Group_100" data-name="Group 100">
            <g id="Group_99" data-name="Group 99" clip-path="url(#clip-path-6)">
              <path id="Path_248" data-name="Path 248" d="M314.61,918.332h-.76c-3.578-.219-6.6-1.984-9.551-3.694-2.453-1.435-4.773-2.784-7.242-3.151-2.9-.423-6.089.224-9.168.853-3.515.715-6.836,1.4-9.866.637-3.13-.78-5.609-2.854-8.008-4.856a20.637,20.637,0,0,0-5.8-3.882,22.685,22.685,0,0,0-7.649-.818c-3,0-5.846.033-8.3-1.171-3.7-1.81-6.2-4.824-8.628-7.733a28.489,28.489,0,0,0-5.274-5.356,23.07,23.07,0,0,0-5.318-2.635.84.84,0,0,1,.588-1.573,24.834,24.834,0,0,1,5.686,2.822,29.943,29.943,0,0,1,5.593,5.658c2.315,2.749,4.708,5.654,8.089,7.309,2.107,1.028,4.762,1.017,7.562,1a23.647,23.647,0,0,1,8.221.918,22.177,22.177,0,0,1,6.3,4.163c2.261,1.888,4.592,3.85,7.352,4.527,2.668.666,5.807.027,9.135-.655,3.216-.653,6.549-1.336,9.732-.863,2.789.407,5.358,1.9,7.837,3.35,2.749,1.616,5.631,3.3,8.8,3.48,3.1.192,6.3-1.028,9.392-2.2,2.86-1.1,5.56-2.118,8.25-2.139a26.78,26.78,0,0,1,9.16,2.111c2.9,1.057,5.56,2.029,8.172,1.766,2.463-.242,4.675-1.985,6.815-3.663,1.951-1.535,3.969-3.124,6.2-3.548,3.267-.626,6.511-.06,9.651.485s6.049,1.05,8.485.219c3.591-1.236,6.154-3.7,8.634-6.087.65-.626,1.265-1.22,1.9-1.8a.825.825,0,0,1,1.1,1.225c-.615.55-1.227,1.139-1.864,1.76-2.485,2.393-5.307,5.1-9.244,6.462-2.816.963-5.968.418-9.3-.159-2.992-.516-6.087-1.055-9.063-.483-1.832.345-3.607,1.743-5.5,3.221-2.32,1.826-4.729,3.712-7.667,4.009s-5.861-.747-8.9-1.859c-2.749-1-5.615-2.067-8.578-2.012-2.377,0-4.95,1-7.662,2.034-3,1.138-6.125,2.326-9.309,2.326" transform="translate(-228.501 -884.899)" fill="#431426"/>
            </g>
          </g>
        </g>
        <g id="Group_104" data-name="Group 104" transform="translate(41.407 187.153)" opacity="0.1" style="mix-blend-mode: normal;isolation: isolate">
          <g id="Group_103" data-name="Group 103">
            <g id="Group_102" data-name="Group 102" clip-path="url(#clip-path-7)">
              <path id="Path_249" data-name="Path 249" d="M311.792,1065.779h-.715c-3.586-.2-6.626-1.964-9.57-3.669-2.458-1.419-4.778-2.749-7.253-3.119-2.9-.422-6.083.237-9.162.881-3.508.726-6.829,1.412-9.866.664-3.122-.769-5.615-2.837-8.017-4.833a20.481,20.481,0,0,0-5.814-3.85,22.4,22.4,0,0,0-7.655-.793c-3,0-5.841.051-8.3-1.144-3.707-1.8-6.219-4.806-8.655-7.7a28.936,28.936,0,0,0-5.29-5.339,18.413,18.413,0,0,0-2.271-1.327.825.825,0,0,1,.731-1.479,19.882,19.882,0,0,1,2.48,1.446,29.975,29.975,0,0,1,5.615,5.642c2.321,2.751,4.725,5.638,8.111,7.281,2.107,1.023,4.762,1,7.568.979a23.58,23.58,0,0,1,8.216.891,22.069,22.069,0,0,1,6.313,4.147c2.266,1.875,4.6,3.817,7.363,4.5,2.673.661,5.814,0,9.135-.68,3.216-.666,6.543-1.359,9.732-.9,2.789.4,5.363,1.886,7.848,3.3,2.749,1.605,5.642,3.262,8.831,3.448,3.1.181,6.291-1.05,9.383-2.237,2.86-1.1,5.553-2.134,8.248-2.167,3.3-.045,6.27,1.039,9.168,2.083s5.571,2.008,8.178,1.738c2.463-.253,4.668-2,6.8-3.683,1.948-1.541,3.966-3.135,6.187-3.564,3.267-.639,6.516-.089,9.656.445s6.049,1.033,8.48.2c3.6-1.254,6.264-3.794,8.838-6.252a28.479,28.479,0,0,1,5.307-4.362.831.831,0,0,1,1.075.339.829.829,0,0,1,.089.6.82.82,0,0,1-.34.5,27.841,27.841,0,0,0-4.992,4.12c-2.574,2.458-5.5,5.247-9.432,6.6-2.815.979-5.966.44-9.3-.127-3-.5-6.1-1.033-9.068-.456-1.83.356-3.6,1.754-5.5,3.238-2.315,1.837-4.719,3.734-7.654,4.037s-5.863-.732-8.909-1.83c-2.749-1-5.62-2.04-8.585-1.986-2.375.027-4.949,1.012-7.655,2.056-3.046,1.166-6.17,2.366-9.354,2.366" transform="translate(-228.766 -1033.99)" fill="#431426"/>
            </g>
          </g>
        </g>
        <g id="Group_107" data-name="Group 107" transform="translate(42.411 210.057)" opacity="0.1" style="mix-blend-mode: normal;isolation: isolate">
          <g id="Group_106" data-name="Group 106">
            <g id="Group_105" data-name="Group 105" clip-path="url(#clip-path-8)">
              <path id="Path_250" data-name="Path 250" d="M319.452,1194.437q-.44,0-.874-.034c-3.575-.246-6.6-2.045-9.513-3.783-2.442-1.452-4.751-2.827-7.22-3.211-2.892-.451-6.081.17-9.168.769-3.524.682-6.847,1.33-9.9.55-3.117-.809-5.577-2.9-7.957-4.948a20.54,20.54,0,0,0-5.768-3.933,22.586,22.586,0,0,0-7.644-.891c-3,0-5.841,0-8.283-1.244-3.685-1.848-6.165-4.878-8.563-7.808a28.017,28.017,0,0,0-5.224-5.406,21.623,21.623,0,0,0-4.542-2.391.825.825,0,0,1,0-1.5.82.82,0,0,1,.614-.027,23.387,23.387,0,0,1,4.883,2.574,29.745,29.745,0,0,1,5.543,5.709c2.293,2.8,4.659,5.691,8.024,7.379,2.1,1.05,4.746,1.055,7.557,1.066s5.575,0,8.2,1a22.2,22.2,0,0,1,6.263,4.219c2.239,1.908,4.554,3.85,7.309,4.592,2.663.686,5.814.076,9.14-.55,3.227-.626,6.56-1.276,9.745-.776,2.782.434,5.334,1.953,7.8,3.421,2.75,1.651,5.6,3.332,8.8,3.558,3.092.221,6.308-.974,9.416-2.123,2.864-1.061,5.575-2.067,8.248-2.067,3.273,0,6.252,1.1,9.133,2.2s5.544,2.075,8.161,1.837c2.464-.22,4.692-1.942,6.847-3.6,1.964-1.518,4-3.086,6.225-3.491,3.3-.6,6.518,0,9.651.548s6.049,1.1,8.48.3c3.6-1.2,6.187-3.645,8.69-6.009a30.079,30.079,0,0,1,4.816-3.988.824.824,0,0,1,1.207.9.815.815,0,0,1-.349.509,29.124,29.124,0,0,0-4.541,3.778c-2.509,2.371-5.352,5.059-9.3,6.378-2.827.941-5.973.364-9.3-.241-2.992-.55-6.082-1.1-9.057-.55-1.837.335-3.624,1.716-5.5,3.173-2.342,1.81-4.762,3.674-7.7,3.942s-5.855-.8-8.885-1.935c-2.751-1.028-5.588-2.1-8.558-2.1-2.375,0-4.949.957-7.7,1.969-2.986,1.1-6.067,2.244-9.218,2.244" transform="translate(-234.313 -1160.531)" fill="#431426"/>
            </g>
          </g>
        </g>
        <g id="Group_110" data-name="Group 110" transform="translate(45.084 236.239)" opacity="0.1" style="mix-blend-mode: normal;isolation: isolate">
          <g id="Group_109" data-name="Group 109">
            <g id="Group_108" data-name="Group 108" clip-path="url(#clip-path-9)">
              <path id="Path_251" data-name="Path 251" d="M331.63,1337.8c-.291,0-.577,0-.863-.027-3.58-.248-6.6-2.04-9.524-3.772-2.442-1.451-4.751-2.821-7.216-3.207-2.9-.451-6.087.177-9.171.776-3.521.686-6.847,1.341-9.872.55-3.119-.808-5.582-2.9-7.968-4.923a20.441,20.441,0,0,0-5.77-3.926,22.445,22.445,0,0,0-7.644-.88c-3,0-5.844,0-8.286-1.238-3.685-1.842-6.165-4.872-8.569-7.8a28.021,28.021,0,0,0-5.23-5.4,17.266,17.266,0,0,0-1.963-1.2.824.824,0,0,1-.264-.2.837.837,0,0,1-.165-.286.825.825,0,0,1,.053-.646.836.836,0,0,1,.21-.255.831.831,0,0,1,.623-.178.832.832,0,0,1,.313.107,19.118,19.118,0,0,1,2.145,1.309,29.83,29.83,0,0,1,5.554,5.7c2.293,2.793,4.663,5.685,8.029,7.369,2.1,1.05,4.751,1.055,7.555,1.066s5.577,0,8.21.985a22.1,22.1,0,0,1,6.264,4.214c2.244,1.9,4.559,3.848,7.314,4.579,2.666.688,5.812.073,9.139-.548,3.229-.633,6.561-1.282,9.745-.793,2.784.435,5.334,1.953,7.81,3.421,2.749,1.649,5.6,3.3,8.8,3.548,3.1.208,6.3-.979,9.4-2.134,2.871-1.068,5.582-2.074,8.25-2.079,3.26,0,6.235,1.1,9.117,2.2s5.544,2.072,8.161,1.83c2.463-.225,4.69-1.946,6.84-3.607,1.969-1.522,4-3.09,6.227-3.5,3.3-.6,6.516,0,9.651.551s6.049,1.1,8.48.291c3.6-1.205,6.187-3.653,8.683-6.016a27.546,27.546,0,0,1,5.269-4.263q1.556-.875,3-1.716a.821.821,0,0,1,.916.054.793.793,0,0,1,.213.241.854.854,0,0,1,.107.3.842.842,0,0,1-.02.322.826.826,0,0,1-.139.29.855.855,0,0,1-.241.213q-1.458.847-3.032,1.732a26.2,26.2,0,0,0-4.948,4.015c-2.5,2.377-5.345,5.064-9.294,6.391-2.82.939-5.966.373-9.3-.232-2.986-.55-6.084-1.1-9.057-.55-1.832.336-3.618,1.715-5.5,3.178-2.342,1.81-4.762,3.68-7.7,3.95s-5.852-.8-8.887-1.932c-2.749-1.023-5.577-2.083-8.545-2.083-2.376,0-4.95.963-7.7,1.975-2.981,1.083-6.065,2.227-9.217,2.227" transform="translate(-249.081 -1305.182)" fill="#431426"/>
            </g>
          </g>
        </g>
        <path id="Path_252" data-name="Path 252" d="M366.681,1614.972a.451.451,0,1,0-.451-.451.45.45,0,0,0,.451.451" transform="translate(-299.942 -1321.922)" fill="#431426"/>
        <path id="Path_253" data-name="Path 253" d="M410.251,1583.921a.451.451,0,1,0-.451-.45.449.449,0,0,0,.451.45" transform="translate(-335.626 -1296.492)" fill="#431426"/>
        <path id="Path_254" data-name="Path 254" d="M329.281,1567a.451.451,0,1,0-.451-.451.451.451,0,0,0,.451.451" transform="translate(-269.311 -1282.635)" fill="#431426"/>
        <path id="Path_255" data-name="Path 255" d="M328.611,1503.194a.452.452,0,1,0-.451-.451.451.451,0,0,0,.451.451" transform="translate(-268.763 -1230.374)" fill="#431426"/>
        <path id="Path_256" data-name="Path 256" d="M268.426,1360.453a.452.452,0,1,0-.451-.451.451.451,0,0,0,.451.451" transform="translate(-219.471 -1113.47)" fill="#431426"/>
        <path id="Path_257" data-name="Path 257" d="M325.881,1288.173a.452.452,0,1,0-.451-.45.452.452,0,0,0,.451.45" transform="translate(-266.527 -1054.273)" fill="#431426"/>
        <path id="Path_258" data-name="Path 258" d="M322.261,689.731a.451.451,0,1,0-.451-.451.45.45,0,0,0,.451.451" transform="translate(-263.562 -564.151)" fill="#431426"/>
        <path id="Path_259" data-name="Path 259" d="M295.651,597.187a.451.451,0,1,0-.451-.451.452.452,0,0,0,.451.451" transform="translate(-241.769 -488.357)" fill="#431426"/>
        <path id="Path_260" data-name="Path 260" d="M260.617,535.813a.451.451,0,1,0-.451-.451.451.451,0,0,0,.451.451" transform="translate(-213.076 -438.091)" fill="#431426"/>
        <path id="Path_261" data-name="Path 261" d="M301.091,474.44a.451.451,0,1,0-.451-.451.452.452,0,0,0,.451.451" transform="translate(-246.224 -387.827)" fill="#431426"/>
        <path id="Path_262" data-name="Path 262" d="M704.781,416.075a.451.451,0,1,0-.451-.451.45.45,0,0,0,.451.451" transform="translate(-576.846 -340.026)" fill="#431426"/>
        <path id="Path_263" data-name="Path 263" d="M1038.93,361.965a.451.451,0,1,0-.45-.451.451.451,0,0,0,.45.451" transform="translate(-850.514 -295.71)" fill="#431426"/>
        <path id="Path_264" data-name="Path 264" d="M567.02,107.084a.451.451,0,1,0-.451-.451.452.452,0,0,0,.451.451" transform="translate(-464.02 -86.963)" fill="#431426"/>
        <path id="Path_265" data-name="Path 265" d="M512.43,122.853a.451.451,0,1,0-.45-.451.451.451,0,0,0,.45.451" transform="translate(-419.311 -99.878)" fill="#431426"/>
        <path id="Path_266" data-name="Path 266" d="M524.611,145.125a.451.451,0,1,0-.451-.451.45.45,0,0,0,.451.451" transform="translate(-429.287 -118.118)" fill="#431426"/>
        <path id="Path_267" data-name="Path 267" d="M212.444,685.3a5.1,5.1,0,0,1-.577-.033,4.454,4.454,0,0,1-2.97-1.7l-5.7-7.4a4.477,4.477,0,0,1,.8-6.275l.379-.292a4.477,4.477,0,0,1,6.275.8l5.719,7.4a4.472,4.472,0,0,1-.8,6.275l-.379.291a4.39,4.39,0,0,1-2.755.934m-5.356-15a2.81,2.81,0,0,0-1.721.588l-.38.3a2.822,2.822,0,0,0-.506,3.955l5.719,7.4a2.827,2.827,0,0,0,3.959.507l.38-.291a2.828,2.828,0,0,0,.506-3.96l-5.719-7.4a2.806,2.806,0,0,0-1.875-1.072,2.74,2.74,0,0,0-.363-.027" transform="translate(-165.656 -547.636)" fill="#431426"/>
        <path id="Path_268" data-name="Path 268" d="M275.162,762.823a4.476,4.476,0,0,1-3.707-1.958l-5.251-7.738a4.481,4.481,0,0,1,1.193-6.214l.4-.269A4.473,4.473,0,0,1,274,747.826l5.251,7.743a4.465,4.465,0,0,1-1.187,6.208l-.4.27a4.43,4.43,0,0,1-2.507.776m-4.862-15.3a2.824,2.824,0,0,0-1.584.485l-.4.268a2.818,2.818,0,0,0-.737,3.95l5.241,7.7a2.82,2.82,0,0,0,3.915.748l.4-.27a2.832,2.832,0,0,0,.747-3.92l-5.253-7.738a2.818,2.818,0,0,0-2.337-1.222" transform="translate(-217.391 -610.868)" fill="#431426"/>
        <path id="Path_269" data-name="Path 269" d="M337.458,841.451a4.45,4.45,0,0,1-3.712-1.958l-5.229-7.743a4.481,4.481,0,0,1,1.187-6.209l.4-.27a4.464,4.464,0,0,1,6.208,1.187l5.231,7.759a4.469,4.469,0,0,1-1.189,6.208l-.395.27a4.469,4.469,0,0,1-2.5.755m-4.873-15.306a2.823,2.823,0,0,0-1.578.491l-.4.268a2.836,2.836,0,0,0-.753,3.922l5.258,7.736a2.821,2.821,0,0,0,3.915.755l.4-.27a2.827,2.827,0,0,0,.747-3.921l-5.251-7.743a2.8,2.8,0,0,0-.784-.773,2.826,2.826,0,0,0-1.021-.411,2.691,2.691,0,0,0-.539-.054" transform="translate(-268.427 -675.263)" fill="#431426"/>
        <path id="Path_270" data-name="Path 270" d="M394.548,923.74a4.473,4.473,0,0,1-3.877-2.237l-4.681-8.1a4.475,4.475,0,0,1,1.651-6.109l.413-.242a4.475,4.475,0,0,1,6.109,1.651l4.664,8.089a4.478,4.478,0,0,1-1.651,6.111l-.418.241a4.451,4.451,0,0,1-2.21.6M390.274,908.1a2.846,2.846,0,0,0-1.408.378l-.411.242a2.821,2.821,0,0,0-1.035,3.85l4.675,8.1a2.827,2.827,0,0,0,3.85,1.033l.418-.241a2.8,2.8,0,0,0,.829-.724,2.767,2.767,0,0,0,.485-.986,2.838,2.838,0,0,0-.281-2.145l-4.681-8.1a2.841,2.841,0,0,0-2.447-1.412Z" transform="translate(-315.639 -742.386)" fill="#431426"/>
        <path id="Path_271" data-name="Path 271" d="M450.255,1007.885a4.444,4.444,0,0,1-3.707-1.958l-5.251-7.741A4.474,4.474,0,0,1,442.484,992l.4-.268a4.482,4.482,0,0,1,6.214,1.187l5.253,7.738a4.483,4.483,0,0,1-1.195,6.214l-.395.27a4.477,4.477,0,0,1-2.5.747m-4.867-15.3a2.784,2.784,0,0,0-1.578.483l-.4.27a2.825,2.825,0,0,0-.749,3.92l5.253,7.738a2.826,2.826,0,0,0,3.921.753l.4-.27a2.815,2.815,0,0,0,1.189-1.8,2.859,2.859,0,0,0-.009-1.1,2.817,2.817,0,0,0-.432-1.014l-5.251-7.743a2.814,2.814,0,0,0-2.338-1.231" transform="translate(-360.799 -811.595)" fill="#431426"/>
        <path id="Path_272" data-name="Path 272" d="M509.226,1087.327H508.9a4.468,4.468,0,0,1-3.057-1.535l-6.121-7.077a4.473,4.473,0,0,1,.456-6.308l.364-.313a4.474,4.474,0,0,1,6.308.456l6.12,7.077a4.475,4.475,0,0,1-.456,6.308l-.362.313a4.434,4.434,0,0,1-2.921,1.079m-5.763-14.683a2.813,2.813,0,0,0-1.841.686l-.364.313a2.828,2.828,0,0,0-.291,3.982l6.121,7.072a2.811,2.811,0,0,0,3.98.292l.364-.313a2.79,2.79,0,0,0,.675-.869,2.817,2.817,0,0,0-.389-3.111l-6.116-7.073a2.85,2.85,0,0,0-.871-.681,2.8,2.8,0,0,0-1.064-.292Z" transform="translate(-408.376 -877.15)" fill="#431426"/>
        <path id="Path_273" data-name="Path 273" d="M580.658,1157.953a4.452,4.452,0,0,1-3.162-1.308l-6.6-6.6a4.479,4.479,0,0,1,0-6.324l.342-.34a4.464,4.464,0,0,1,6.319,0l6.6,6.6a4.478,4.478,0,0,1,0,6.324l-.342.34a4.435,4.435,0,0,1-3.157,1.308m-6.279-14.248a2.793,2.793,0,0,0-1.079.212,2.753,2.753,0,0,0-.912.614l-.342.34a2.827,2.827,0,0,0,0,3.993l6.6,6.6a2.812,2.812,0,0,0,3.987,0l.34-.337a2.825,2.825,0,0,0,0-3.991l-6.6-6.6a2.8,2.8,0,0,0-.914-.617,2.767,2.767,0,0,0-1.081-.214" transform="translate(-466.494 -935.354)" fill="#431426"/>
        <path id="Path_274" data-name="Path 274" d="M655.87,1224.969a4.394,4.394,0,0,1-2.749-.947l-7.38-5.741a4.478,4.478,0,0,1-.776-6.279l.3-.38a4.476,4.476,0,0,1,6.273-.788l7.381,5.747a4.472,4.472,0,0,1,.785,6.276l-.3.38a4.433,4.433,0,0,1-2.976,1.694,4.763,4.763,0,0,1-.561.038m-7.072-13.419a2.714,2.714,0,0,0-2.232,1.068l-.3.38a2.822,2.822,0,0,0,.494,3.958l7.379,5.747a2.856,2.856,0,0,0,.985.494,2.836,2.836,0,0,0,2.143-.268,2.862,2.862,0,0,0,.833-.72l.3-.38a2.819,2.819,0,0,0-.5-3.961l-7.38-5.747a2.816,2.816,0,0,0-1.727-.572" transform="translate(-527.452 -990.904)" fill="#431426"/>
        <path id="Path_275" data-name="Path 275" d="M741.444,1275.161a4.47,4.47,0,0,1-1.651-.32l-8.688-3.464a4.469,4.469,0,0,1-2.525-5.807l.175-.445a4.471,4.471,0,0,1,4.1-2.827,4.441,4.441,0,0,1,1.721.318l8.694,3.465a4.48,4.48,0,0,1,2.5,5.808l-.177.445a4.512,4.512,0,0,1-4.151,2.827m-8.52-11.208a2.853,2.853,0,0,0-2.617,1.781l-.181.446a2.833,2.833,0,0,0,1.578,3.669l8.694,3.459a2.819,2.819,0,0,0,3.663-1.578l.176-.445a2.822,2.822,0,0,0-1.573-3.664l-8.693-3.464a2.875,2.875,0,0,0-1.046-.2" transform="translate(-596.45 -1033.82)" fill="#431426"/>
        <path id="Path_276" data-name="Path 276" d="M822.445,1267.693a4.476,4.476,0,0,1-3.85-2.2l-.281-.469a4.476,4.476,0,0,1,1.578-6.125l8.177-4.834a4.482,4.482,0,0,1,6.125,1.578l.281.473a4.471,4.471,0,0,1-1.578,6.121l-8.176,4.834a4.5,4.5,0,0,1-2.277.621m7.886-12.6a2.742,2.742,0,0,0-1.43.4l-8.183,4.829a2.823,2.823,0,0,0-.99,3.848l.275.474a2.83,2.83,0,0,0,3.848,1l8.218-4.819a2.826,2.826,0,0,0,1-3.85l-.275-.472a2.84,2.84,0,0,0-2.458-1.4" transform="translate(-669.691 -1026.573)" fill="#431426"/>
        <path id="Path_277" data-name="Path 277" d="M904.551,1201.641a4.441,4.441,0,0,1-3.14-1.286l-.391-.385a4.475,4.475,0,0,1-.043-6.324l6.67-6.764a4.475,4.475,0,0,1,1.443-.979,4.463,4.463,0,0,1,4.876.936l.391.384a4.476,4.476,0,0,1,.049,6.324l-6.67,6.764a4.513,4.513,0,0,1-1.446.981,4.449,4.449,0,0,1-1.711.35Zm6.279-14.441a2.808,2.808,0,0,0-1.991.837l-6.692,6.775a2.827,2.827,0,0,0,.033,3.993l.385.384a2.822,2.822,0,0,0,.919.607,2.816,2.816,0,0,0,2.161-.015,2.816,2.816,0,0,0,.912-.619l6.67-6.764a2.829,2.829,0,0,0-.027-3.993l-.391-.384a2.82,2.82,0,0,0-1.98-.82" transform="translate(-736.845 -970.964)" fill="#431426"/>
        <path id="Path_278" data-name="Path 278" d="M974.576,1127.345a4.439,4.439,0,0,1-2.677-.9l-.434-.329a4.485,4.485,0,0,1-.892-6.264l5.714-7.589a4.47,4.47,0,0,1,6.264-.885l.434.323a4.48,4.48,0,0,1,.885,6.265l-5.709,7.595a4.451,4.451,0,0,1-2.92,1.716,5.091,5.091,0,0,1-.666.065m5.291-15.217a3.946,3.946,0,0,0-.4,0,2.831,2.831,0,0,0-1.859,1.1l-5.714,7.595a2.822,2.822,0,0,0,.55,3.948l.434.331a2.823,2.823,0,0,0,2.1.548,2.74,2.74,0,0,0,1.041-.362,2.794,2.794,0,0,0,.818-.737l5.709-7.589a2.828,2.828,0,0,0-.55-3.953l-.44-.331a2.833,2.833,0,0,0-1.683-.551" transform="translate(-794.167 -909.482)" fill="#431426"/>
        <path id="Path_279" data-name="Path 279" d="M1036.062,1044.346a4.491,4.491,0,0,1-2.112-.55l-.483-.264a4.478,4.478,0,0,1-1.821-6.049l4.5-8.364a4.478,4.478,0,0,1,6.049-1.821l.48.259a4.466,4.466,0,0,1,1.819,6.049l-4.5,8.37a4.473,4.473,0,0,1-3.931,2.371m4.026-15.915a2.814,2.814,0,0,0-2.487,1.484l-4.5,8.366a2.825,2.825,0,0,0,1.15,3.821l.483.259a2.819,2.819,0,0,0,3.85-1.149l4.47-8.337a2.82,2.82,0,0,0,.228-2.165,2.8,2.8,0,0,0-.519-.979,2.846,2.846,0,0,0-.858-.706l-.483-.258a2.753,2.753,0,0,0-1.33-.335" transform="translate(-844.483 -840.922)" fill="#431426"/>
        <path id="Path_280" data-name="Path 280" d="M1080.954,951.29a4.56,4.56,0,0,1-1.469-.248l-.516-.181a4.477,4.477,0,0,1-2.749-5.693l3.122-8.974a4.478,4.478,0,0,1,5.693-2.751l.517.183a4.47,4.47,0,0,1,2.75,5.685l-3.114,8.981a4.442,4.442,0,0,1-2.276,2.558,4.509,4.509,0,0,1-1.957.44m2.591-16.455a2.756,2.756,0,0,0-1.233.286,2.815,2.815,0,0,0-1.435,1.611l-3.108,8.981a2.815,2.815,0,0,0,1.739,3.586l.516.181a2.792,2.792,0,0,0,1.091.15,2.82,2.82,0,0,0,2.5-1.893l3.112-8.976a2.82,2.82,0,0,0-1.742-3.59l-.518-.177a2.853,2.853,0,0,0-.923-.16" transform="translate(-881.22 -764.287)" fill="#431426"/>
        <path id="Path_283" data-name="Path 283" d="M818.483,1310.412a.822.822,0,0,1-.824-.824v-6.758a.823.823,0,0,1,1.406-.578.8.8,0,0,1,.176.266.835.835,0,0,1,.061.317v6.753a.833.833,0,0,1-.239.581.823.823,0,0,1-.581.242" transform="translate(-669.663 -1066.345)" fill="#431426"/>
        <path id="Path_284" data-name="Path 284" d="M871.452,695.861c1.149-19.168-4.449-35.1-12.507-35.581s-15.523,14.663-16.672,33.831,4.449,35.1,12.507,35.581,15.523-14.663,16.672-33.831" transform="translate(-689.698 -540.759)" fill="#fffaf4"/>
        <path id="Path_285" data-name="Path 285" d="M853.008,733.973h-.446c-8.623-.55-14.408-16.536-13.159-36.423.588-9.349,2.677-18.07,5.884-24.536,3.3-6.688,7.49-10.224,11.723-9.954s7.93,4.3,10.388,11.339c2.376,6.82,3.361,15.724,2.751,25.083s-2.679,18.071-5.885,24.538-7.166,9.953-11.258,9.953m3.575-69.291c-3.386,0-6.945,3.3-9.816,9.052-3.113,6.274-5.142,14.764-5.714,23.91-1.149,18.33,4.168,34.206,11.615,34.673,3.481.215,7.182-3.073,10.142-9.041,3.111-6.274,5.141-14.764,5.712-23.91.55-9.146-.373-17.823-2.682-24.433-2.2-6.291-5.445-10.019-8.931-10.239Z" transform="translate(-687.332 -543.034)" fill="#431426"/>
        <path id="Path_286" data-name="Path 286" d="M890.6,768.066a5.445,5.445,0,0,1-3.85,1.073,5.507,5.507,0,0,1-3.453-1.651c-4.425-4.641-10.355-16.245-1.166-27.005a9.032,9.032,0,0,0,2.091-4.95l5.273-.869-5.5-3.227a21.963,21.963,0,0,0-2.452-6.429,4.4,4.4,0,0,1,1.953-6.335,5.55,5.55,0,0,1,7.055,1.859c.379.6,9.155,14.847-.159,25.764-6.226,7.292,0,14.418.726,15.206a4.336,4.336,0,0,1-.518,6.565" transform="translate(-718.503 -588.12)" fill="#431426"/>
        <path id="Path_287" data-name="Path 287" d="M647.9,703.284c1.2-19.128-4.346-35.046-12.388-35.551s-15.533,14.594-16.733,33.724,4.346,35.047,12.388,35.552,15.534-14.6,16.734-33.726" transform="translate(-506.648 -546.863)" fill="#fffaf4"/>
        <path id="Path_288" data-name="Path 288" d="M627.785,734.165h-.451c-8.623-.55-14.409-16.542-13.161-36.421s9-35.025,17.6-34.5,14.407,16.542,13.159,36.422c-1.215,19.523-8.7,34.5-17.146,34.5m3.559-69.291c-7.325,0-14.386,14.909-15.519,32.956-1.149,18.33,4.168,34.211,11.613,34.645h.337c7.331,0,14.391-14.907,15.524-32.956,1.149-18.328-4.174-34.206-11.62-34.673a1.379,1.379,0,0,1-.335.028" transform="translate(-502.869 -543.187)" fill="#431426"/>
        <path id="Path_289" data-name="Path 289" d="M665.251,768.243a5.609,5.609,0,0,1-7.325-.583c-4.427-4.637-10.355-16.24-1.166-27.007a9.013,9.013,0,0,0,2.089-4.95l5.275-.864-5.5-3.233a22.013,22.013,0,0,0-2.469-6.44,4.4,4.4,0,0,1,1.953-6.33,5.54,5.54,0,0,1,7.055,1.853c.38.6,9.157,14.847-.159,25.769-6.225,7.292,0,14.415.726,15.206a4.339,4.339,0,0,1-.478,6.578" transform="translate(-533.922 -588.252)" fill="#431426"/>
        <path id="Path_290" data-name="Path 290" d="M778.325,1009.284a.869.869,0,0,1-.38-.094.831.831,0,0,1-.3-.259,6.137,6.137,0,0,0-4.511-3c-3.359-.23-6.462,3.059-6.494,3.091a.825.825,0,0,1-1.209-1.1c.148-.159,3.645-3.9,7.808-3.613,2.2.149,4.152,1.4,5.758,3.7a.83.83,0,0,1,.149.42.843.843,0,0,1-.092.435.826.826,0,0,1-.733.443Z" transform="translate(-626.771 -822.513)" fill="#431426"/>
        <path id="Path_291" data-name="Path 291" d="M803.38,1017.385s4.426,2,7.857,0,3.394-5.819,8.14-7.792c7.287-3.032,14.8,8.116,12.648,17.543s-12.1,5.2-16.849,2.121c-4.163-2.687-9.664,2.123-9.664,2.123Z" transform="translate(-657.967 -826.44)" fill="#f57162"/>
        <path id="Path_292" data-name="Path 292" d="M821.582,1030.078c-4.357,0-9.057-2.749-10.641-3.8-3.591-2.321-8.623,2.007-8.674,2.052a.83.83,0,1,1-1.1-1.244c.241-.208,6.022-5.191,10.657-2.2,3.7,2.386,8.847,4.46,12.192,3.09,1.705-.693,2.849-2.277,3.4-4.7,1.227-5.31-.852-11.855-4.822-15.155-2.161-1.821-4.549-2.32-6.715-1.419a9.606,9.606,0,0,0-4.576,4.131,10.726,10.726,0,0,1-3.47,3.607c-3.75,2.2-8.413.132-8.606.044a.826.826,0,0,1,.677-1.506c.038,0,4.091,1.8,7.1.038a9.223,9.223,0,0,0,2.938-3.119,11.33,11.33,0,0,1,5.307-4.722c2.749-1.149,5.752-.55,8.407,1.687,4.465,3.761,6.726,10.83,5.368,16.806-.677,2.981-2.156,4.95-4.4,5.863a8.124,8.124,0,0,1-3.041.545" transform="translate(-654.167 -822.772)" fill="#431426"/>
        <path id="Path_293" data-name="Path 293" d="M906.022,1050.67c1.671-.425,2.431-3.115,1.7-6.009s-2.688-4.894-4.36-4.469-2.431,3.115-1.7,6.007,2.688,4.9,4.36,4.471" transform="translate(-738.231 -851.869)" fill="#431426"/>
        <path id="Path_294" data-name="Path 294" d="M216.692,888.977s-2.253-1.144-7.9,6.165c-6.478,8.38-23.1-20.073-11.988-26.869,4.366-2.668,6.3,2.86,11.246-.06Z" transform="translate(-158.125 -710.499)" fill="#f57162"/>
        <path id="Path_295" data-name="Path 295" d="M202.194,893.763a5.018,5.018,0,0,1-1.282-.176c-4.949-1.3-11-10.449-12.2-18.516-.77-5.229.622-9.222,3.921-11.24,2.486-1.517,4.366-.737,6.049-.049s3.047,1.27,5.235,0a.828.828,0,0,1,.643-.121.825.825,0,0,1,.453,1.33.837.837,0,0,1-.261.21c-2.893,1.711-5.01.829-6.7.122-1.545-.639-2.75-1.144-4.526-.067-3.459,2.118-3.624,6.384-3.151,9.6,1.1,7.358,6.632,16.019,11,17.157a2.708,2.708,0,0,0,3.063-1.1c5.631-7.281,8.25-6.737,8.93-6.4a.825.825,0,0,1-.069,1.492.81.81,0,0,1-.606.009c-.156-.027-2.2-.219-6.952,5.908a4.321,4.321,0,0,1-3.541,1.841" transform="translate(-154.384 -706.762)" fill="#431426"/>
        <path id="Path_296" data-name="Path 296" d="M31.5,979.492a4.319,4.319,0,0,1-.748-.06C20.723,977.782,2.41,969.885,4.907,951.5c1.27-9.452,8.8-17.453,22.338-23.789a98.68,98.68,0,0,1,18.78-6.462,4.674,4.674,0,0,1,1.947,9.139c-8.837,1.926-32.127,9.7-33.832,22.361-.781,5.779,1.749,10.261,7.738,13.7a35.458,35.458,0,0,0,10.355,3.763,4.674,4.674,0,0,1-.742,9.287Z" transform="translate(-3.829 -754.436)" fill="#ffeab9"/>
        <path id="Path_297" data-name="Path 297" d="M27.672,976.443a5.329,5.329,0,0,1-.88-.071C16.487,974.721-2.321,966.528.236,947.512c1.314-9.745,8.986-17.966,22.806-24.428A100.108,100.108,0,0,1,42,916.562a5.5,5.5,0,0,1,2.326,10.75c-8.672,1.893-31.527,9.47-33.177,21.668-.726,5.412,1.65,9.624,7.331,12.869a34.6,34.6,0,0,0,10.08,3.667,5.5,5.5,0,0,1-.874,10.927Zm15.5-58.353a3.768,3.768,0,0,0-.819.089,97.274,97.274,0,0,0-18.61,6.4c-13.275,6.21-20.633,14-21.865,23.152C-.517,965.489,17.3,973.165,27.056,974.743a3.72,3.72,0,0,0,.616.051,3.85,3.85,0,0,0,.61-7.651,35.957,35.957,0,0,1-10.636-3.848c-6.308-3.619-8.975-8.371-8.144-14.524,1.771-13.139,25.484-21.1,34.475-23.059a3.85,3.85,0,0,0-.808-7.611Z" transform="translate(0 -750.561)" fill="#431426"/>
        <path id="Path_298" data-name="Path 298" d="M222.885,883.819c12.758,13.038,5.637,15.023,3.927,13.747l15.9-3.019-7.269-16.337Z" transform="translate(-182.543 -719.253)" fill="#f57162"/>
        <path id="Path_299" data-name="Path 299" d="M224.363,920.347a2.776,2.776,0,0,1-1.65-.512.825.825,0,0,1-.184-1.173.858.858,0,0,1,.247-.217.83.83,0,0,1,.932.076,1.542,1.542,0,0,0,1.826-.3c1.1-1.258,0-5.207-6.841-12.192a.826.826,0,0,1,1.182-1.155c8.98,9.184,8.177,12.991,6.9,14.437a3.182,3.182,0,0,1-2.409,1.034" transform="translate(-178.917 -740.89)" fill="#431426"/>
        <path id="Path_300" data-name="Path 300" d="M103.954,1113.6s8.425,15.4,22.734,17.257,20.293-5.572,18.148-11.268c0,0,9.057-6.049,6.626-11-1.33-2.723-4.581-1.276-4.581-1.276s7.7-7.485,4-12.648c-2.552-3.524-8.634,3.4-8.634,3.4s5-6.389.934-9.227c-4.333-3.024-8.15,6.654-15.535,7.012s-8.661-3.024-6.643-8.145,1.716-8.248-1.424-9.156c-5.208-1.528-7.2,3.658-7.512,7.9s-.413,10.058-4.663,10.532c0,0-.676-5.989-4.366-3.7s-.462,6.313-1.694,9.233-5.609,7.088-3.635,9.85c3.2,4.487,6.247,1.231,6.247,1.231" transform="translate(-79.609 -883.11)" fill="#fffaf4"/>
        <path id="Path_301" data-name="Path 301" d="M127.174,1128.181a35.364,35.364,0,0,1-4.4-.291c-12.786-1.651-20.853-13.539-22.866-16.844a4.463,4.463,0,0,1-2.656.715,5.611,5.611,0,0,1-4.047-2.7c-1.71-2.393.215-5.307,1.914-7.886a18.935,18.935,0,0,0,1.65-2.75,6.241,6.241,0,0,0,0-3.327c-.319-2.047-.715-4.6,2-6.286a3.135,3.135,0,0,1,3.135-.391c1.452.7,2.079,2.628,2.332,3.8,2.365-.836,2.8-4.329,3.1-8.738l.061-.88c.126-1.761.731-6.049,3.553-8.013a5.633,5.633,0,0,1,5.015-.621,4.256,4.256,0,0,1,2.788,2.2c.863,1.759.594,4.4-.825,8.046-.968,2.485-1.05,4.311-.247,5.428.885,1.226,2.942,1.77,6.11,1.649,3.3-.159,5.9-2.409,8.2-4.4,2.617-2.259,5.086-4.4,7.848-2.474a4.339,4.339,0,0,1,1.886,3,6.956,6.956,0,0,1-.364,3.167,6.872,6.872,0,0,1,3.96-1.49,3.069,3.069,0,0,1,2.413,1.336c2.943,4.074-.313,9.222-2.485,11.9a3.585,3.585,0,0,1,3.135,2.118c2.382,4.873-4.4,10.266-6.384,11.707a7.767,7.767,0,0,1-1.546,7c-2.585,3.26-7.314,5.026-13.271,5.026m-27.039-19.193h.11a.823.823,0,0,1,.616.418c.083.154,8.4,15.063,22.118,16.833,10.559,1.365,14.82-2.442,16.168-4.146a6.044,6.044,0,0,0,1.1-6,.84.84,0,0,1-.014-.545.83.83,0,0,1,.329-.434c2.348-1.573,8.073-6.429,6.34-9.977-.947-1.929-3.251-1-3.51-.885a.822.822,0,0,1-.561.04.831.831,0,0,1-.456-.333.827.827,0,0,1,.11-1.054c.072-.073,7.15-7.044,3.9-11.548a1.439,1.439,0,0,0-1.149-.66c-2-.106-5.229,3.024-6.192,4.125a.819.819,0,0,1-.559.293.835.835,0,0,1-.6-.186.83.83,0,0,1-.107-1.164c0-.032,2.711-3.507,2.31-6.147a2.691,2.691,0,0,0-1.2-1.893c-1.622-1.131-3.195.1-5.825,2.371-2.375,2.051-5.329,4.6-9.2,4.784s-6.275-.55-7.523-2.3c-1.149-1.6-1.138-3.948.044-6.991,1.226-3.155,1.523-5.415.885-6.713a2.657,2.657,0,0,0-1.771-1.348,4.043,4.043,0,0,0-3.613.391c-1.551,1.1-2.618,3.613-2.849,6.775l-.06.874c-.281,4.2-.665,9.931-5.318,10.449a.8.8,0,0,1-.32-.027.806.806,0,0,1-.285-.147.844.844,0,0,1-.207-.246.817.817,0,0,1-.1-.306c-.083-.726-.55-2.9-1.562-3.394-.148-.071-.6-.286-1.551.309-1.694,1.055-1.573,2.448-1.237,4.636a7.563,7.563,0,0,1-.132,4.212,20,20,0,0,1-1.771,3.036c-1.479,2.233-3,4.543-1.952,6.016a4.1,4.1,0,0,0,2.821,2.013,2.993,2.993,0,0,0,1.188-.212,3.025,3.025,0,0,0,1.011-.657.837.837,0,0,1,.567-.253" transform="translate(-75.79 -879.323)" fill="#431426"/>
        <path id="Path_302" data-name="Path 302" d="M142.463,1179.829a.857.857,0,0,1-.44-.127.825.825,0,0,1-.258-1.138,5.034,5.034,0,0,1,1.65-1.376.825.825,0,0,1,1.182.947.821.821,0,0,1-.379.494,3.7,3.7,0,0,0-1.034.809.811.811,0,0,1-.308.293.82.82,0,0,1-.413.1" transform="translate(-116.001 -964.038)" fill="#431426"/>
        <path id="Path_303" data-name="Path 303" d="M264.23,1306.807a37.711,37.711,0,0,1-4.1-.224.847.847,0,0,1-.309-.1.831.831,0,0,1-.12-1.376.79.79,0,0,1,.288-.148.8.8,0,0,1,.322-.029c10.878,1.187,16.828-2.965,16.889-3a.812.812,0,0,1,.3-.153.829.829,0,0,1,.333-.026.861.861,0,0,1,.317.11.808.808,0,0,1,.244.227.824.824,0,0,1,.138.3.828.828,0,0,1-.125.643.794.794,0,0,1-.241.232c-.225.177-5.01,3.542-13.935,3.542" transform="translate(-212.444 -1066.126)" fill="#431426"/>
        <path id="Path_304" data-name="Path 304" d="M268.587,1243.413a.829.829,0,0,1-.154-1.651c11.956-2.28,17.444-7.627,17.5-7.7a.8.8,0,0,1,.268-.181.816.816,0,0,1,.315-.063.832.832,0,0,1,.317.063.807.807,0,0,1,.266.181.83.83,0,0,1,0,1.166c-.235.232-5.857,5.747-18.356,8.134a.771.771,0,0,1-.154.049" transform="translate(-219.231 -1010.497)" fill="#431426"/>
        <path id="Path_305" data-name="Path 305" d="M257.741,1193.553a.819.819,0,0,1-.535-.2.826.826,0,0,1-.267-.82.814.814,0,0,1,.135-.292.815.815,0,0,1,.54-.328,22.737,22.737,0,0,0,14.766-8.364.824.824,0,0,1,1.368.917c-.2.3-5.059,7.392-15.881,9.074Z" transform="translate(-210.415 -969.047)" fill="#431426"/>
      </g>
    </g>
  </g>
</svg>
