<svg id="Group_114" data-name="Group 114" xmlns="http://www.w3.org/2000/svg" xmlns:xlink="http://www.w3.org/1999/xlink" width="85.539" height="129.598" viewBox="0 0 85.539 129.598">
  <defs>
    <clipPath id="clip-path">
      <rect id="Rectangle_39" data-name="Rectangle 39" width="85.539" height="129.598" fill="none"/>
    </clipPath>
    <clipPath id="clip-path-3">
      <rect id="Rectangle_31" data-name="Rectangle 31" width="49.609" height="10.463" fill="none"/>
    </clipPath>
    <clipPath id="clip-path-4">
      <rect id="Rectangle_32" data-name="Rectangle 32" width="49.405" height="10.228" fill="none"/>
    </clipPath>
    <clipPath id="clip-path-5">
      <rect id="Rectangle_33" data-name="Rectangle 33" width="49.337" height="9.944" fill="none"/>
    </clipPath>
    <clipPath id="clip-path-6">
      <rect id="Rectangle_34" data-name="Rectangle 34" width="49.314" height="10.088" fill="none"/>
    </clipPath>
    <clipPath id="clip-path-7">
      <rect id="Rectangle_35" data-name="Rectangle 35" width="49.434" height="9.592" fill="none"/>
    </clipPath>
    <clipPath id="clip-path-8">
      <rect id="Rectangle_36" data-name="Rectangle 36" width="49.865" height="10.231" fill="none"/>
    </clipPath>
    <clipPath id="clip-path-9">
      <rect id="Rectangle_37" data-name="Rectangle 37" width="50.127" height="9.842" fill="none"/>
    </clipPath>
  </defs>
  <g id="Group_113" data-name="Group 113" transform="translate(0 0)" clip-path="url(#clip-path)">
    <g id="Group_112" data-name="Group 112" transform="translate(0)">
      <g id="Group_111" data-name="Group 111" clip-path="url(#clip-path)">
        <path id="Path_204" data-name="Path 204" d="M442.368,1770.33a1.413,1.413,0,0,0,1.167-.622,1.414,1.414,0,0,0,.143-1.314l-8.321-20.714a1.411,1.411,0,1,0-2.618,1.05l8.321,20.714a1.413,1.413,0,0,0,1.309.886" transform="translate(-381.867 -1651.396)" fill="#ffeab9"/>
        <path id="Path_205" data-name="Path 205" d="M438.037,1766.063a1.658,1.658,0,0,0,1.54-2.278l-8.321-20.715a1.659,1.659,0,1,0-3.08,1.236l8.321,20.723a1.658,1.658,0,0,0,1.54,1.033m-8.32-23.536a1.161,1.161,0,0,1,1.077.728l8.321,20.714a1.162,1.162,0,0,1-.646,1.512,1.143,1.143,0,0,1-.433.085,1.162,1.162,0,0,1-1.077-.73l-8.321-20.713a1.166,1.166,0,0,1,1.079-1.6" transform="translate(-377.536 -1646.881)" fill="#431426"/>
        <path id="Path_206" data-name="Path 206" d="M267.382,2083.964s-1.341,1.825-7.135,2.072-8.066-2.543-8.066-2.543c-.1-.646-.176-2.054-.229-2.711a20.05,20.05,0,0,1,.069-3.571,23.2,23.2,0,0,1,.83-5.084l8.923-1.837.83,1.865.707,1.583.149.331a8.678,8.678,0,0,1,3.1,3.138,10,10,0,0,1,.921,4.24c.018,1.092-.1,2.517-.1,2.517" transform="translate(-195.705 -1957.225)" fill="#9cc"/>
        <path id="Path_207" data-name="Path 207" d="M255.252,2081.981c.238,0,.48,0,.729-.016,5.844-.246,7.264-2.094,7.322-2.174a.245.245,0,0,0,.047-.126c0-.058.123-1.45.1-2.539a10.339,10.339,0,0,0-.947-4.347,8.77,8.77,0,0,0-3.131-3.2l-1.659-3.71a.251.251,0,0,0-.111-.118.247.247,0,0,0-.161-.024l-8.462,1.546a.258.258,0,0,0-.153.093,8.787,8.787,0,0,0-1.162,3.77,24.425,24.425,0,0,0-.079,7.467c.029.233.056.432.073.594a.237.237,0,0,0,.055.133c.088.115,2.225,2.653,7.536,2.653m7.608-2.439c-.266.281-1.867,1.714-6.9,1.927-5.144.216-7.467-2.028-7.817-2.4-.016-.153-.039-.332-.066-.529a24.13,24.13,0,0,1,.078-7.329,9.514,9.514,0,0,1,1.022-3.466l8.162-1.5,1.608,3.606a.243.243,0,0,0,.1.114,8.5,8.5,0,0,1,3,3.033,9.846,9.846,0,0,1,.894,4.132c.022.924-.065,2.1-.09,2.414" transform="translate(-191.426 -1952.906)" fill="#431426"/>
        <path id="Path_208" data-name="Path 208" d="M321.3,2129.627a.245.245,0,0,0,.118-.031.248.248,0,0,0,.09-.083c3.442-5.341,9.1-3.133,9.339-3.042a.245.245,0,0,0,.1.018.249.249,0,0,0,.1-.02.251.251,0,0,0,.134-.137.248.248,0,0,0,0-.191.255.255,0,0,0-.055-.08.246.246,0,0,0-.081-.053c-.061-.025-6.269-2.457-9.956,3.234a.251.251,0,0,0,.073.345.255.255,0,0,0,.15.04" transform="translate(-263.187 -2009.392)" fill="#431426"/>
        <path id="Path_209" data-name="Path 209" d="M335.588,1961.774c-.061-.025-.121-.047-.181-.065a8.474,8.474,0,0,0-6.5.39c-.378.2-1.152.743-1.152.743s-.851-2.471-1.455-4.2-2.363-6.458,3.954-7.088c5.1-.509,4.739,3.327,4.762,4.892.021,1.341.572,5.333.572,5.333" transform="translate(-267.832 -1844.926)" fill="#f57162"/>
        <path id="Path_210" data-name="Path 210" d="M323.654,1958.741a.249.249,0,0,0,.143-.045c.008,0,.765-.54,1.123-.729a8.294,8.294,0,0,1,6.305-.375,1.483,1.483,0,0,1,.166.062.248.248,0,0,0,.24-.04.242.242,0,0,0,.075-.1.25.25,0,0,0,.016-.125c0-.04-.549-3.992-.569-5.31v-.332c0-1.059,0-2.831-1.193-3.915a4.834,4.834,0,0,0-3.842-.884c-2.118.211-3.567.9-4.3,2.057-1.12,1.758-.29,4.132.108,5.273l.029.088c.6,1.732,1.455,4.2,1.455,4.2a.247.247,0,0,0,.064.1.251.251,0,0,0,.1.058.237.237,0,0,0,.078.015m4.76-2.111a7.958,7.958,0,0,0-3.725.9c-.247.13-.643.392-.907.573-.247-.717-.875-2.533-1.348-3.895l-.031-.088c-.4-1.149-1.148-3.288-.166-4.842.649-1.019,1.973-1.634,3.933-1.825a4.386,4.386,0,0,1,3.456.758c1.034.936,1.032,2.507,1.031,3.546v.344c.018,1.1.38,3.911.521,4.963a9.408,9.408,0,0,0-2.763-.432" transform="translate(-263.731 -1840.576)" fill="#431426"/>
        <path id="Path_211" data-name="Path 211" d="M267.332,2265.583s-1.341,1.825-7.135,2.073-8.066-2.544-8.066-2.544c0-.664-.277-2.054-.229-2.711,0,0,3,2.8,8.658,2.391,5.57-.4,6.836-1.686,6.875-1.726.018,1.092-.1,2.517-.1,2.517" transform="translate(-195.655 -2138.844)" fill="#fffaf4"/>
        <path id="Path_212" data-name="Path 212" d="M255.226,2261.972c.238,0,.48,0,.729-.016,5.844-.246,7.264-2.094,7.322-2.174a.245.245,0,0,0,.047-.126c0-.058.123-1.45.1-2.539a.255.255,0,0,0-.438-.167c-.012.011-1.281,1.261-6.712,1.649a11.8,11.8,0,0,1-8.514-2.413.242.242,0,0,0-.081-.057.257.257,0,0,0-.1-.02.249.249,0,0,0-.245.248,21.613,21.613,0,0,0,.287,2.851.252.252,0,0,0,.053.112c.1.113,2.234,2.652,7.545,2.652m7.608-2.439c-.266.281-1.867,1.714-6.9,1.927-5.179.218-7.5-2.056-7.824-2.408-.094-.554-.2-1.493-.247-2.157a12.268,12.268,0,0,0,7.352,2.234c.357,0,.725-.012,1.105-.04,4.06-.291,5.874-1.045,6.609-1.493-.012.823-.075,1.677-.1,1.938" transform="translate(-191.4 -2132.897)" fill="#431426"/>
        <path id="Path_213" data-name="Path 213" d="M266.573,2299.732a.247.247,0,0,0,.1-.016.262.262,0,0,0,.083-.052.249.249,0,0,0,.056-.079.244.244,0,0,0,.022-.094.245.245,0,0,0-.068-.178.254.254,0,0,0-.079-.057.241.241,0,0,0-.094-.021,14,14,0,0,1-1.938-.257.241.241,0,0,0-.1,0,.249.249,0,0,0-.159.1.246.246,0,0,0-.038.187.244.244,0,0,0,.037.09.248.248,0,0,0,.158.107,14.918,14.918,0,0,0,2.006.267Zm1.991-.013h.016c.692-.048,1.365-.128,2-.236a.252.252,0,1,0-.083-.5q-.97.164-1.953.23a.242.242,0,0,0-.094.022.249.249,0,0,0-.079.057.252.252,0,0,0-.051.083.25.25,0,0,0,.007.19.252.252,0,0,0,.057.079.249.249,0,0,0,.083.051.252.252,0,0,0,.1.016Zm3.914-.686a.227.227,0,0,0,.071-.011,8.017,8.017,0,0,0,1.9-.8.24.24,0,0,0,.073-.067.248.248,0,0,0-.063-.352.255.255,0,0,0-.092-.038.247.247,0,0,0-.1,0,.258.258,0,0,0-.091.04,7.793,7.793,0,0,1-1.771.735.249.249,0,0,0-.092.428.25.25,0,0,0,.165.059m-9.79-.1a.252.252,0,0,0,.162-.058.249.249,0,0,0-.079-.427,13.449,13.449,0,0,1-1.793-.78.247.247,0,0,0-.19-.016.248.248,0,0,0-.163.312.253.253,0,0,0,.122.147,14.2,14.2,0,0,0,1.858.807.233.233,0,0,0,.078.019Z" transform="translate(-203.262 -2172.163)" fill="#431426"/>
        <path id="Path_214" data-name="Path 214" d="M863.563,1768.9a1.409,1.409,0,0,0,1.411-1.411c0-1.833-1.66-3.47-3.408-5.2-.844-.829-2.257-2.23-2.323-2.761-.127-1.231,2.177-4.717,4.409-7.2a1.41,1.41,0,0,0-2.1-1.885c-.911,1.015-5.441,6.236-5.115,9.378.157,1.528,1.609,2.96,3.152,4.48.961.949,2.569,2.537,2.569,3.193a1.41,1.41,0,0,0,1.405,1.409" transform="translate(-826.207 -1654.401)" fill="#ffeab9"/>
        <path id="Path_215" data-name="Path 215" d="M859.263,1764.693a1.66,1.66,0,0,0,1.659-1.659c0-1.938-1.691-3.609-3.484-5.378-.664-.649-2.2-2.167-2.25-2.613-.106-1.034,1.925-4.314,4.347-7.006a1.66,1.66,0,0,0-2.469-2.218c-.924,1.029-5.515,6.324-5.178,9.569.166,1.618,1.649,3.08,3.217,4.629.747.738,2.489,2.466,2.489,3.017a1.659,1.659,0,0,0,1.669,1.659m-.959-18.926a1.161,1.161,0,0,1,.863,1.936c-2.257,2.514-4.609,6.057-4.47,7.394.068.576,1.171,1.706,2.394,2.914,1.714,1.692,3.334,3.292,3.334,5.023a1.162,1.162,0,1,1-2.323,0c0-.7-1.249-1.991-2.643-3.37-1.5-1.485-2.923-2.887-3.073-4.328-.314-3.036,4.148-8.183,5.054-9.184a1.161,1.161,0,0,1,.865-.385" transform="translate(-821.907 -1649.954)" fill="#431426"/>
        <path id="Path_216" data-name="Path 216" d="M805.263,2040.863a.054.054,0,0,1,0,.023.019.019,0,0,1-.01.015.113.113,0,0,0-.016.019,9.288,9.288,0,0,1-1,.8l-.028.019a28.24,28.24,0,0,1-2.655,1.7c-.166.089-.331.182-.5.273a26.788,26.788,0,0,1-6.9,2.655c-6.123,1.354-8.572-.408-8.572-.408a.161.161,0,0,1,0-.022c-.045-.114-.31-1.327-.481-2.137-.016-.08-.033-.166-.048-.248v-.01c-.355-1.918-.427-4.963,1.971-6.944a5.622,5.622,0,0,1,4.344-1.184l1.623-2.03,1.077-1.347,1.062-1.328a21.241,21.241,0,0,1,3.562-2.057c3.277-1.245,3.557,1.193,3.557,1.193s.561,1.882,1.192,4.044c.023.079.048.165.072.237s.041.143.063.216l.115.382c.034.121.071.242.1.363.013.04.025.081.037.121.06.2.12.4.176.6l.07.237c.023.08.046.166.068.238l.068.232c.021.078.045.156.066.232s.043.151.067.228c.01.038.021.074.031.112.027.091.052.181.078.269.014.05.027.1.042.146v.025c.022.07.042.143.062.212.039.14.076.276.114.409.015.059.032.119.048.176s.04.139.057.208a.805.805,0,0,1,.025.091.48.48,0,0,1,.02.073.089.089,0,0,1,0,.017c.016.058.031.116.046.166a.41.41,0,0,0,.021.085c.025.081.045.165.065.237.011.045.021.086.033.128a11.972,11.972,0,0,1,.267,1.535" transform="translate(-762.591 -1917.527)" fill="#9cc"/>
        <path id="Path_217" data-name="Path 217" d="M785.584,2045.67a20.191,20.191,0,0,0,4.344-.521,26.763,26.763,0,0,0,6.969-2.673c.146-.078.289-.158.428-.238l.07-.038a28.029,28.029,0,0,0,2.675-1.713l.028-.018a9.078,9.078,0,0,0,1.032-.83l.011-.013.017-.018v-.008a.343.343,0,0,0,.03-.042.111.111,0,0,0,.017-.033.279.279,0,0,0,.023-.123,11.728,11.728,0,0,0-.256-1.583l-.033-.128c-.019-.078-.042-.166-.065-.244l-.064-.242a.215.215,0,0,0-.01-.031.218.218,0,0,0-.018-.072l-.025-.093c-.015-.056-.033-.12-.051-.184v-.022c-.018-.058-.031-.113-.046-.166l-.123-.44c-.018-.064-.036-.129-.056-.194a.08.08,0,0,0,0-.017l-.489-1.7c-.057-.2-.116-.4-.176-.6-.01-.037-.023-.08-.037-.123-.022-.076-.046-.157-.07-.24l-.282-.954-.01-.025c-.629-2.131-1.2-4-1.206-4.023s-.589-2.147-3.619-1.409a14.539,14.539,0,0,0-3.889,2.147.208.208,0,0,0-.045.043l-3.672,4.591a5.848,5.848,0,0,0-4.4,1.262c-2.557,2.112-2.386,5.406-2.058,7.181.019.094.035.181.051.262.1.5.415,1.946.488,2.157a.193.193,0,0,0,.013.038.25.25,0,0,0,.085.109c.064.055,1.385.965,4.417.965m14.225-5.609-.04.027a27.936,27.936,0,0,1-2.624,1.678l-.068.039-.423.233a26.286,26.286,0,0,1-6.833,2.637c-5.383,1.191-7.883-.075-8.308-.332-.067-.247-.282-1.219-.455-2.049-.016-.078-.033-.166-.048-.243-.38-2.046-.358-4.863,1.884-6.715a5.42,5.42,0,0,1,4.136-1.133.246.246,0,0,0,.242-.089l3.743-4.679a14.112,14.112,0,0,1,3.682-2.041c2.559-.624,3,1,3.021,1.059.009.03.584,1.915,1.215,4.052v.021l.277.938c.023.08.048.158.069.237.014.045.025.081.035.119q.093.309.177.6l.5,1.686a.2.2,0,0,0,.011.045c.019.06.035.12.05.177l.123.433c.017.062.032.121.05.179v.017c.019.061.035.121.05.181s.019.061.023.088a.116.116,0,0,0,0,.02l.015.055a.13.13,0,0,0,0,.02l.068.251c.025.09.045.166.063.24l.035.13a13.33,13.33,0,0,1,.234,1.39,10.176,10.176,0,0,1-.908.733Z" transform="translate(-758.306 -1916.072)" fill="#431426"/>
        <path id="Path_218" data-name="Path 218" d="M960.884,2157.626a.25.25,0,0,0,.249-.25.252.252,0,0,0-.033-.125,6.193,6.193,0,0,0-4.48-3.182.248.248,0,0,0-.1.01.242.242,0,0,0-.085.047.247.247,0,0,0-.061.077.244.244,0,0,0-.026.094.24.24,0,0,0,.011.1.242.242,0,0,0,.123.145.24.24,0,0,0,.093.027,5.788,5.788,0,0,1,4.092,2.938.251.251,0,0,0,.091.09.246.246,0,0,0,.123.033" transform="translate(-927.823 -2036.428)" fill="#431426"/>
        <path id="Path_219" data-name="Path 219" d="M785.443,2140.282a14.378,14.378,0,0,0,3.707-2.559,72,72,0,0,0-1.8-6.994s-3.879,3.127-1.906,9.552" transform="translate(-746.481 -2014.365)" fill="#f57162"/>
        <path id="Path_220" data-name="Path 220" d="M781.259,2136.121a.258.258,0,0,0,.12-.03,14.624,14.624,0,0,0,3.8-2.579c.055-.1.1-.192-.531-2.655-.383-1.493-.849-3.179-1.249-4.525a.251.251,0,0,0-.042-.082.247.247,0,0,0-.123-.088.246.246,0,0,0-.242.051,9.169,9.169,0,0,0-1.969,9.742.253.253,0,0,0,.144.149.287.287,0,0,0,.09.015m3.453-2.811a17.544,17.544,0,0,1-3.319,2.2,8.562,8.562,0,0,1,1.643-8.64c.78,2.674,1.609,5.887,1.676,6.438" transform="translate(-742.294 -2010.035)" fill="#431426"/>
        <path id="Path_221" data-name="Path 221" d="M784.931,2223.5c.191.926.539,2.419.539,2.419s2.448,1.76,8.57.4a26.84,26.84,0,0,0,6.9-2.655,20.747,20.747,0,0,0,4.2-2.834,12.524,12.524,0,0,0-.415-2.186c-.83.6-8.1,5.2-13.989,5.531a13.213,13.213,0,0,1-5.806-.68" transform="translate(-762.473 -2097.483)" fill="#fffaf4"/>
        <path id="Path_222" data-name="Path 222" d="M785.5,2222.817a20.2,20.2,0,0,0,4.346-.519,26.815,26.815,0,0,0,6.969-2.673,19.416,19.416,0,0,0,4.3-2.936,10.714,10.714,0,0,0-.393-2.369.242.242,0,0,0-.059-.1.251.251,0,0,0-.1-.065.25.25,0,0,0-.229.034c-1.162.841-8.25,5.174-13.857,5.476a13.029,13.029,0,0,1-5.7-.664.251.251,0,0,0-.332.284c.19.911.536,2.408.54,2.423a.248.248,0,0,0,.1.144c.068.06,1.387.968,4.419.968m15.143-6.339a23.2,23.2,0,0,1-4.072,2.708,26.258,26.258,0,0,1-6.833,2.635c-5.344,1.183-7.848-.059-8.3-.321-.066-.289-.264-1.148-.421-1.873a14.459,14.459,0,0,0,5.485.548c5.36-.3,12.021-4.179,13.822-5.373a16.9,16.9,0,0,1,.315,1.683Z" transform="translate(-758.224 -2093.219)" fill="#431426"/>
        <path id="Path_223" data-name="Path 223" d="M879.729,1991.585a21.753,21.753,0,0,1-4.331,4.272,5.355,5.355,0,0,0-1.613-1.376c-.182-.1-.363-.194-.534-.272a5.645,5.645,0,0,0-1.459-.448,9.458,9.458,0,0,0,1.719-3.375,9.631,9.631,0,0,0-.166-3.833s-.7-1.66,2.731-2.24c4.122-.69,6.433,3.484,3.652,7.271" transform="translate(-843.018 -1875.873)" fill="#f57162"/>
        <path id="Path_224" data-name="Path 224" d="M870.957,1992.475a.246.246,0,0,0,.146-.046,21.918,21.918,0,0,0,4.384-4.328c1.392-1.893,1.659-3.994.727-5.619a4.519,4.519,0,0,0-4.6-2.047,3.548,3.548,0,0,0-2.754,1.26,1.6,1.6,0,0,0-.189,1.3,9.555,9.555,0,0,1,.165,3.715,9.326,9.326,0,0,1-1.669,3.265.253.253,0,0,0-.052.12.25.25,0,0,0,.1.234.251.251,0,0,0,.122.049,5.445,5.445,0,0,1,1.385.428c.184.085.352.166.514.26a5.181,5.181,0,0,1,1.534,1.3.237.237,0,0,0,.072.068.244.244,0,0,0,.094.033l.029,0m4.13-4.667a21.843,21.843,0,0,1-4.086,4.077,6.04,6.04,0,0,0-2.089-1.531,6.61,6.61,0,0,0-1.123-.39,8.965,8.965,0,0,0,1.526-3.153,9.95,9.95,0,0,0-.165-3.946v-.015a1.1,1.1,0,0,1,.143-.89,3.175,3.175,0,0,1,2.383-1.022,4.037,4.037,0,0,1,4.118,1.8c.83,1.449.576,3.345-.7,5.076Z" transform="translate(-838.578 -1872.242)" fill="#431426"/>
        <path id="Path_225" data-name="Path 225" d="M789.245,2238.636a17.226,17.226,0,0,0,1.8-.1.251.251,0,0,0,.132-.443.251.251,0,0,0-.183-.055,16.6,16.6,0,0,1-1.958.093.249.249,0,1,0,0,.5Zm-2.2-.166a.249.249,0,0,0,.245-.209.244.244,0,0,0-.042-.186.249.249,0,0,0-.162-.1,7.167,7.167,0,0,1-1.842-.516.25.25,0,0,0-.19-.013.244.244,0,0,0-.144.124.249.249,0,0,0,.11.335,7.394,7.394,0,0,0,1.991.561.152.152,0,0,0,.033,0Zm5.935-.234a.3.3,0,0,0,.051,0c.654-.136,1.311-.3,1.951-.476a.245.245,0,0,0,.163-.114.248.248,0,0,0,.034-.1.256.256,0,0,0-.007-.1.248.248,0,0,0-.126-.154.25.25,0,0,0-.1-.027.247.247,0,0,0-.1.014c-.631.176-1.275.332-1.919.466a.25.25,0,0,0-.169.091.25.25,0,0,0,.036.352.25.25,0,0,0,.183.055Zm3.833-1.075a.241.241,0,0,0,.083-.015c.63-.224,1.259-.475,1.867-.742a.248.248,0,0,0,.085-.053.261.261,0,0,0,.057-.083.247.247,0,0,0,.019-.1.244.244,0,0,0-.021-.1.25.25,0,0,0-.058-.082.258.258,0,0,0-.086-.052.252.252,0,0,0-.2.013c-.6.262-1.215.508-1.833.729a.251.251,0,0,0-.13.109.25.25,0,0,0,.055.315.249.249,0,0,0,.16.058m3.65-1.6a.245.245,0,0,0,.116-.03c.6-.317,1.185-.663,1.741-1.007a.245.245,0,0,0,.07-.067.249.249,0,0,0,.039-.089.244.244,0,0,0,0-.1.249.249,0,0,0-.035-.091.25.25,0,0,0-.156-.11.25.25,0,0,0-.1,0,.242.242,0,0,0-.091.035c-.545.345-1.118.677-1.706,1a.249.249,0,0,0-.126.28.242.242,0,0,0,.088.136.25.25,0,0,0,.154.053Zm3.353-2.143a.243.243,0,0,0,.151-.051c.6-.458.9-.751.918-.763a.238.238,0,0,0,.058-.079.252.252,0,0,0,.023-.1.245.245,0,0,0-.016-.1.248.248,0,0,0-.052-.084.263.263,0,0,0-.081-.057.25.25,0,0,0-.276.053s-.305.289-.878.728a.249.249,0,0,0-.084.278.25.25,0,0,0,.091.122.245.245,0,0,0,.145.046" transform="translate(-762.298 -2110.264)" fill="#431426"/>
        <path id="Path_226" data-name="Path 226" d="M1077.067,919.539c4.833,0,8.205-4.211,8.351-4.4a1.411,1.411,0,0,0-2.214-1.748c-.028.035-2.849,3.516-6.446,3.319-2.551-.144-5.023-2.094-7.344-5.8a1.41,1.41,0,0,0-2.391,1.494c2.844,4.533,6.073,6.927,9.6,7.117.15.008.3.012.443.012" transform="translate(-1058.426 -860.582)" fill="#ffeab9"/>
        <path id="Path_227" data-name="Path 227" d="M1072.406,914.639c4.953,0,8.4-4.314,8.547-4.49a1.66,1.66,0,1,0-2.6-2.057c-.027.034-2.785,3.413-6.236,3.221-2.467-.139-4.872-2.051-7.148-5.681a1.663,1.663,0,0,0-2.821,1.764c2.889,4.606,6.186,7.039,9.8,7.232.158.009.312.012.465.012m7.244-6.677a1.161,1.161,0,0,1,.911,1.878c-.138.176-3.442,4.3-8.155,4.3-.145,0-.289,0-.43-.011-3.442-.184-6.606-2.539-9.4-7a1.161,1.161,0,0,1,.368-1.6,1.139,1.139,0,0,1,.423-.163,1.151,1.151,0,0,1,.453.014,1.158,1.158,0,0,1,.725.516c2.366,3.775,4.9,5.764,7.542,5.913,3.73.211,6.626-3.371,6.654-3.408a1.157,1.157,0,0,1,.913-.44" transform="translate(-1053.764 -855.432)" fill="#431426"/>
        <path id="Path_228" data-name="Path 228" d="M1317.013,603.425s1.875-.5,2.22,1.243-2.738,1.442-3.72,2.423-1.9,2-2.939,1.427-.829-2.534-.829-2.534a10.624,10.624,0,0,1-3.353-1.493,7.335,7.335,0,0,1-1.595-1.975s-.673.229-1.266-1.732c-1.059-3.5,1.317-3.518,1.317-3.518s-.738-3.189,2.007-2.105c0,0-4.94-5.693-2.67-7.173s4.5,7.065,5.132,6.619c.6-.428-.292-2.31-.632-3.319-.443-1.327-1.719-4.022-.01-4.561,2.1-.664,2.577,3.007,3.752,6.707a2.494,2.494,0,0,1,2.778,1.042c1.132,1.6.013,3.767.191,4.964s.891,2.87-.381,3.986" transform="translate(-1305.005 -554.609)" fill="#fffaf4"/>
        <path id="Path_229" data-name="Path 229" d="M1308.949,604.49c.84,0,1.6-.761,2.338-1.5l.166-.165a3.979,3.979,0,0,1,1.635-.684c1.13-.307,2.412-.655,2.157-1.963a1.773,1.773,0,0,0-.788-1.232,2.052,2.052,0,0,0-1.07-.28,3.911,3.911,0,0,0,.166-3.01c-.053-.25-.1-.486-.136-.7a5.151,5.151,0,0,1,.131-1.437,4.685,4.685,0,0,0-.365-3.636,2.755,2.755,0,0,0-2.821-1.191c-.2-.644-.38-1.283-.554-1.9-.644-2.288-1.152-4.1-2.2-4.661a1.539,1.539,0,0,0-1.239-.086,1.376,1.376,0,0,0-.863.714c-.465.947.1,2.477.507,3.594.076.207.148.4.2.571.067.2.155.428.246.672a5.463,5.463,0,0,1,.553,2.265,14.449,14.449,0,0,1-.861-1.776c-.888-2.016-1.991-4.523-3.3-4.913a1.2,1.2,0,0,0-1.035.166,1.511,1.511,0,0,0-.689,1.108c-.244,1.742,1.814,4.578,2.8,5.822a1.384,1.384,0,0,0-1.145.265,2.426,2.426,0,0,0-.458,2.077,1.872,1.872,0,0,0-1.138.71,3.5,3.5,0,0,0-.128,3.093,2.881,2.881,0,0,0,1.1,1.825.773.773,0,0,0,.259.081,7.2,7.2,0,0,0,1.588,1.921,10.513,10.513,0,0,0,3.241,1.493c-.023.559.01,2.033.969,2.564a1.5,1.5,0,0,0,.73.2m4.419-5.33a1.555,1.555,0,0,1,.83.208,1.3,1.3,0,0,1,.561.9c.156.795-.574,1.054-1.8,1.386a4.287,4.287,0,0,0-1.855.811l-.166.166c-1.034,1.039-1.717,1.64-2.475,1.22-.878-.486-.7-2.271-.7-2.289a.246.246,0,0,0-.045-.171.25.25,0,0,0-.146-.1,10.253,10.253,0,0,1-3.26-1.457,7.154,7.154,0,0,1-1.526-1.9.215.215,0,0,0-.2-.139.217.217,0,0,0-.085.018c-.068,0-.514-.1-.959-1.563a3.133,3.133,0,0,1,.048-2.655,1.4,1.4,0,0,1,1.035-.548.251.251,0,0,0,.107-.026.256.256,0,0,0,.085-.069.254.254,0,0,0,.049-.21c-.088-.381-.214-1.458.249-1.858.275-.238.755-.224,1.422.04a.249.249,0,0,0,.294-.089.249.249,0,0,0-.015-.307c-.035-.04-3.471-4.029-3.189-6.04a1.024,1.024,0,0,1,.468-.76.706.706,0,0,1,.622-.1c1.087.332,2.23,2.919,2.987,4.636.679,1.542.925,2.047,1.241,2.135a.33.33,0,0,0,.289-.051c.642-.456.141-1.782-.3-2.952-.091-.237-.176-.463-.239-.654s-.131-.37-.209-.582c-.358-.976-.9-2.447-.528-3.2a.886.886,0,0,1,.566-.458,1.052,1.052,0,0,1,.853.048c.865.468,1.37,2.271,1.958,4.359.2.7.4,1.412.627,2.139a.254.254,0,0,0,.126.146.244.244,0,0,0,.095.026.258.258,0,0,0,.1-.013,2.224,2.224,0,0,1,2.489.949,4.241,4.241,0,0,1,.281,3.264,5.4,5.4,0,0,0-.133,1.595c.034.232.088.476.143.733.225,1.044.481,2.225-.443,3.035a.249.249,0,0,0,.064.417.246.246,0,0,0,.164.011,2.3,2.3,0,0,1,.533-.053Z" transform="translate(-1300.778 -550.163)" fill="#431426"/>
        <path id="Path_230" data-name="Path 230" d="M1385.779,713.12a1.324,1.324,0,0,0,.476-.086c.412-.157,1.128-.677,1.316-2.407a.249.249,0,0,0-.318-.267.236.236,0,0,0-.086.045.24.24,0,0,0-.062.074.245.245,0,0,0-.029.093c-.117,1.089-.473,1.8-1,1.991a1.1,1.1,0,0,1-1.11-.3,2.222,2.222,0,0,1-.583-2.222,5.082,5.082,0,0,1,2.734-3.152.252.252,0,0,0,.108-.134.249.249,0,0,0-.005-.172.249.249,0,0,0-.286-.151,5.5,5.5,0,0,0-3.027,3.484,2.724,2.724,0,0,0,.729,2.721,1.719,1.719,0,0,0,1.136.479" transform="translate(-1377.608 -667.848)" fill="#431426"/>
        <path id="Path_231" data-name="Path 231" d="M1466.808,771.847a1.559,1.559,0,0,0,.468-.072,1.536,1.536,0,0,0,1.045-1.76,11.788,11.788,0,0,0-1.063-3.319.249.249,0,0,0-.341-.114.252.252,0,0,0-.077.063.24.24,0,0,0-.046.088.244.244,0,0,0-.008.1.248.248,0,0,0,.032.094,11.567,11.567,0,0,1,1.012,3.168,1.039,1.039,0,0,1-.7,1.206,1.051,1.051,0,0,1-1.294-.619,17.257,17.257,0,0,1-.957-3.385.252.252,0,0,0-.193-.2.25.25,0,0,0-.1,0,.259.259,0,0,0-.092.035.256.256,0,0,0-.072.068.253.253,0,0,0-.04.09.264.264,0,0,0,0,.1,17.461,17.461,0,0,0,1,3.514,1.558,1.558,0,0,0,1.435.948" transform="translate(-1462.785 -724.691)" fill="#431426"/>
        <path id="Path_232" data-name="Path 232" d="M1509.729,838.631a1.4,1.4,0,0,0,1.031-.518,2,2,0,0,0,.151-1.777.248.248,0,0,0-.116-.156.25.25,0,0,0-.093-.032.263.263,0,0,0-.1.007.239.239,0,0,0-.088.045.25.25,0,0,0-.093.17.249.249,0,0,0,.01.1,1.579,1.579,0,0,1-.066,1.341.892.892,0,0,1-.642.323.249.249,0,0,0-.169.428.25.25,0,0,0,.175.07" transform="translate(-1507.936 -790.482)" fill="#431426"/>
        <path id="Path_233" data-name="Path 233" d="M1342.068,890.424a.244.244,0,0,0,.156-.057l.8-.642a.25.25,0,0,0,.063-.074.266.266,0,0,0,.029-.093.261.261,0,0,0-.009-.1.254.254,0,0,0-.045-.086.25.25,0,0,0-.168-.091.243.243,0,0,0-.1.009.256.256,0,0,0-.086.045l-.8.644a.253.253,0,0,0-.085.128.249.249,0,0,0,.007.153.246.246,0,0,0,.1.12.25.25,0,0,0,.148.042Z" transform="translate(-1330.857 -840.715)" fill="#431426"/>
        <path id="Path_234" data-name="Path 234" d="M1430.079,936.913a.248.248,0,0,0,.209-.384.249.249,0,0,0-.139-.1l-.488-.141a.249.249,0,0,0-.259.356.252.252,0,0,0,.128.121l.486.141a.244.244,0,0,0,.063.011" transform="translate(-1422.852 -885.149)" fill="#431426"/>
        <path id="Path_235" data-name="Path 235" d="M231.236,87.277c-.413,5.124-.214,7.515.1,7.931.468.624,2.406.664,2.655,1.633s.232,2.245.841,2.854,7.749,2.834,18.057,2.834c10.628,0,19.082-2.184,20.029-3.671.539-.851.1-2.794.705-3.153s2.831-1.111,3.2-1.964a51.037,51.037,0,0,0,3.318-9.468,97.691,97.691,0,0,0,2.778-19.792c.586-13.062-.707-30.925-1.825-41.128-.509-4.646-.981-7.711-1.223-8-.853-1.015-1.494-.786-2.194-1.215-.775-.468-.974-3.413-1.584-4.875S271.38,3.48,255.413,4.453s-22.235,5.295-22.6,6.758.32,4.887-.055,5.282a10.655,10.655,0,0,1-1.636,1.394c-.5.363-.606,3.028.428,11.1.038.3.08.616.121.936q.131,1.014.288,2.132c1.464,10.483,3.292,26.938.976,41.688-.908,5.789-1.429,10.231-1.7,13.535" transform="translate(-210.122 -4.076)" fill="#fffaf4"/>
        <path id="Path_236" data-name="Path 236" d="M248.6,98.7c10.045,0,19.122-2.034,20.228-3.786a3.817,3.817,0,0,0,.36-1.8c.025-.516.058-1.162.26-1.276.146-.086.411-.2.718-.342.957-.43,2.272-1.019,2.58-1.739.02-.05.058-.128.108-.235a51.548,51.548,0,0,0,3.218-9.269,97.734,97.734,0,0,0,2.789-19.837c.616-13.728-.859-32.336-1.825-41.167-.312-2.839-.891-7.669-1.279-8.131a2.808,2.808,0,0,0-1.588-1,2.71,2.71,0,0,1-.664-.264c-.375-.227-.64-1.445-.874-2.52a14.287,14.287,0,0,0-.609-2.238c-.251-.6-3.046-6.053-20.917-4.961-8.7.531-14.172,2.041-17.225,3.212-3.566,1.369-5.383,2.862-5.6,3.735a12.308,12.308,0,0,0-.022,3.246,7.724,7.724,0,0,1,.022,1.933,10.436,10.436,0,0,1-1.595,1.356c-.51.365-.868,2,.332,11.333.025.2.054.413.081.626l.04.31c.088.677.184,1.387.289,2.135,1.518,10.87,3.27,27.012.977,41.615-.83,5.265-1.4,9.823-1.7,13.547-.36,4.468-.305,7.5.148,8.1a2.508,2.508,0,0,0,1.244.664c.616.216,1.253.436,1.363.873.069.277.117.576.166.892a3.739,3.739,0,0,0,.74,2.077c.747.747,8.175,2.907,18.232,2.907ZM255.58.489a34.126,34.126,0,0,1,11.539,1.618c3.5,1.288,4.314,2.876,4.434,3.181a13.565,13.565,0,0,1,.581,2.157c.294,1.342.546,2.5,1.1,2.839a3.058,3.058,0,0,0,.788.317,2.322,2.322,0,0,1,1.344.846c.174.272.617,2.854,1.162,7.865.966,8.817,2.438,27.393,1.825,41.09a97.194,97.194,0,0,1-2.775,19.737,50.85,50.85,0,0,1-3.186,9.181c-.053.115-.093.2-.115.251-.232.541-1.543,1.13-2.323,1.48-.321.144-.6.267-.767.368-.433.256-.468.914-.506,1.678a3.66,3.66,0,0,1-.283,1.558c-.792,1.253-8.912,3.554-19.807,3.554h-.012c-10.258,0-17.335-2.215-17.88-2.761a3.459,3.459,0,0,1-.6-1.8c-.05-.314-.1-.637-.176-.934-.166-.7-.976-.977-1.681-1.223a2.5,2.5,0,0,1-1.01-.5c-.211-.28-.5-2.265-.05-7.762.3-3.712.868-8.257,1.692-13.51,2.3-14.668.548-30.863-.975-41.761q-.157-1.117-.289-2.129l-.04-.312c-.028-.212-.055-.42-.079-.624-1.192-9.292-.768-10.7-.531-10.867a11.035,11.035,0,0,0,1.671-1.424c.245-.259.209-.931.109-2.3a12.825,12.825,0,0,1,0-3.09c.151-.6,1.688-2,5.3-3.39,3.022-1.162,8.436-2.655,17.077-3.179q2.348-.151,4.462-.149" transform="translate(-205.819 0)" fill="#431426"/>
        <path id="Path_237" data-name="Path 237" d="M369.072,100c1.787,0,3.767-.065,5.96-.207,14.333-.926,19.261-3.967,20.887-6.35a3.405,3.405,0,0,0,.652-2.8.249.249,0,0,0-.475.153,2.917,2.917,0,0,1-.607,2.391c-1.57,2.285-6.4,5.2-20.489,6.109-14.512.937-19.492-1.47-21.113-3.65a3.179,3.179,0,0,1-.594-2.884.249.249,0,0,0-.147-.312.249.249,0,0,0-.317.134,3.658,3.658,0,0,0,.649,3.343c1.437,1.946,5.353,4.072,15.594,4.072" transform="translate(-330.37 -85.528)" fill="#431426"/>
        <path id="Path_238" data-name="Path 238" d="M347.015,255.037c1.584,0,3.318-.05,5.19-.166,17.813-1.065,22.339-6.118,22.522-6.333a.252.252,0,0,0,.055-.085.249.249,0,0,0,.016-.1.255.255,0,0,0-.025-.1.249.249,0,0,0-.348-.107.243.243,0,0,0-.076.067c-.05.058-4.634,5.111-22.175,6.159-17.512,1.047-21.571-3.416-21.611-3.463a.249.249,0,0,0-.352-.028.251.251,0,0,0-.087.17.248.248,0,0,0,.059.182c.146.174,3.385,3.8,16.83,3.8" transform="translate(-307.289 -234.563)" fill="#431426"/>
        <path id="Path_239" data-name="Path 239" d="M475.512,1689.059h1.2c10.568-.163,16.956-2.223,17.018-2.239a.25.25,0,0,0,.084-.047.249.249,0,0,0,.086-.17.248.248,0,0,0-.011-.1.25.25,0,0,0-.315-.159c-.061.02-6.385,2.051-16.872,2.205a63.762,63.762,0,0,1-16.883-1.717.254.254,0,0,0-.1-.009.258.258,0,0,0-.092.029.239.239,0,0,0-.074.063.233.233,0,0,0-.045.086.242.242,0,0,0-.009.1.261.261,0,0,0,.029.092.245.245,0,0,0,.063.074.242.242,0,0,0,.086.045,62.635,62.635,0,0,0,15.828,1.746" transform="translate(-433.462 -1594.24)" fill="#431426"/>
        <path id="Path_240" data-name="Path 240" d="M230.756,416.9c4.433,1.478,11.89,2.758,24.059,2.046,13.006-.768,20.514-2.917,24.841-5.051a97.791,97.791,0,0,0,2.776-19.791c.586-13.062-.707-30.926-1.825-41.128,0,0-7.324,8.238-23.51,9.126-20.368,1.14-26.026-3.486-26.026-3.486.038.3.08.616.121.936q.131,1.014.288,2.132c1.464,10.484,3.292,26.939.976,41.688-.908,5.782-1.429,10.225-1.7,13.528" transform="translate(-209.642 -333.703)" fill="#f57162"/>
        <path id="Path_241" data-name="Path 241" d="M243.917,415.091c2.022,0,4.213-.063,6.589-.2,11.037-.652,19.426-2.359,24.935-5.076a.247.247,0,0,0,.084-.069.252.252,0,0,0,.047-.1,97.737,97.737,0,0,0,2.789-19.837c.616-13.728-.859-32.336-1.825-41.167a.25.25,0,0,0-.166-.211.248.248,0,0,0-.26.071,23.705,23.705,0,0,1-5.641,4.193,40.469,40.469,0,0,1-17.693,4.857c-19.986,1.1-25.8-3.395-25.856-3.44a.249.249,0,0,0-.4.224c.025.2.054.413.081.626l.04.31c.088.677.184,1.387.289,2.135,1.518,10.87,3.27,27.012.977,41.615-.83,5.265-1.4,9.823-1.7,13.547a.25.25,0,0,0,.04.156.247.247,0,0,0,.126.1c3.276,1.1,8.819,2.265,17.545,2.265m31.194-5.675c-5.451,2.655-13.741,4.331-24.644,4.978-12.357.73-19.726-.654-23.769-1.971.3-3.677.866-8.155,1.676-13.316,2.3-14.668.548-30.862-.975-41.761q-.158-1.117-.289-2.129l-.04-.312-.01-.076c1.722,1.047,8.421,4.183,25.719,3.227a41.072,41.072,0,0,0,17.945-4.928,26.314,26.314,0,0,0,5.373-3.9c.966,9.007,2.369,27.126,1.767,40.566a97.491,97.491,0,0,1-2.744,19.617Z" transform="translate(-205.323 -329.393)" fill="#431426"/>
        <path id="Path_242" data-name="Path 242" d="M435.446,69.846l7.77.416c1.389.075,2.489.73,2.625,1.532l.179,1.09c.134.83-.762,1.619-2.149,1.847L436,76.023c-2.333.383-4.6-.387-4.669-1.659l-.143-2.509c-.07-1.206,1.991-2.129,4.258-2.009m6.583,2.693a1.358,1.358,0,0,0,1.518.969c.75-.055,1.231-.549,1.145-1.107a1.35,1.35,0,0,0-1.445-.957c-.72.023-1.3.513-1.218,1.1Zm-8.169,1.344c.048.632,1.075,1.064,2.25.962h.058c1.127-.1,1.956-.654,1.895-1.239l-.179-1.693c-.06-.569-.972-1.009-2.076-1h-.056c-1.148.022-2.074.529-2.029,1.14Zm1.586-4.037,7.77.416c1.389.075,2.489.73,2.625,1.532l.179,1.09c.134.83-.762,1.619-2.149,1.847L436,76.023c-2.333.383-4.6-.387-4.669-1.659l-.143-2.509c-.07-1.206,1.991-2.129,4.258-2.009m6.583,2.693a1.358,1.358,0,0,0,1.518.969c.75-.055,1.231-.549,1.145-1.107a1.35,1.35,0,0,0-1.445-.957c-.72.023-1.3.513-1.218,1.1Zm-8.169,1.344c.048.632,1.075,1.064,2.25.962h.058c1.127-.1,1.956-.654,1.895-1.239l-.179-1.693c-.06-.569-.972-1.009-2.076-1h-.056c-1.148.022-2.074.529-2.029,1.14Z" transform="translate(-384.044 -66.021)" fill="#f57162"/>
        <path id="Path_243" data-name="Path 243" d="M428.3,65.466c-.878.324-1.736.884-1.852,1.793a8.678,8.678,0,0,0-.121,1.548,5.624,5.624,0,0,0,.295,1.306,2.447,2.447,0,0,0,1.87,1.383,9.662,9.662,0,0,0,3.057.238c2.084-.146,6.479-1,7.909-1.3a3.721,3.721,0,0,0,1.774-.865,1.569,1.569,0,0,0,.589-1.285c-.043-.323-.089-.6-.123-.795-.017-.1-.032-.176-.042-.23-.005-.027-.009-.048-.012-.062s0-.013,0-.016h0a1.8,1.8,0,0,0-.833-1.221,4.011,4.011,0,0,0-2.05-.533c-.789-.029-2.186-.113-3.608-.2l-.4-.024c-1.548-.093-3.065-.182-3.77-.195a7.911,7.911,0,0,0-2.681.455m12.8,1.821h0v0l0,.015.011.058c.01.051.024.126.041.221.033.19.078.459.12.773a1.047,1.047,0,0,1-.421.813,3.178,3.178,0,0,1-1.513.73c-1.435.3-5.794,1.145-7.834,1.287a9.121,9.121,0,0,1-2.877-.221c-.848-.228-1.361-.587-1.489-1.013a5.1,5.1,0,0,1-.273-1.181,8.173,8.173,0,0,1,.117-1.446c.074-.576.646-1.034,1.5-1.35a7.367,7.367,0,0,1,2.482-.421c.691.013,2.193.1,3.748.194l.4.024c1.419.085,2.822.17,3.618.2a3.483,3.483,0,0,1,1.772.445,1.256,1.256,0,0,1,.594.86l0,.009m-8.466-.391c.344.171.486.366.505.5a15.335,15.335,0,0,1,.176,1.662c0,.148-.1.358-.4.56a2.671,2.671,0,0,1-1.248.4,3.376,3.376,0,0,1-1.444-.151c-.375-.144-.545-.347-.568-.568-.076-.73-.1-1.079-.137-1.81-.01-.216.116-.415.448-.581a3.333,3.333,0,0,1,1.369-.274,2.894,2.894,0,0,1,1.3.267m.244-.489a3.437,3.437,0,0,0-1.548-.324h0a3.866,3.866,0,0,0-1.6.331,1.172,1.172,0,0,0-.75,1.1c.034.741.062,1.1.139,1.841a1.28,1.28,0,0,0,.916,1.021,3.911,3.911,0,0,0,1.688.185h0a3.211,3.211,0,0,0,1.506-.49,1.254,1.254,0,0,0,.638-1.031,15.6,15.6,0,0,0-.182-1.723,1.333,1.333,0,0,0-.8-.9m5.9.747a1.085,1.085,0,0,1,1.167.726c.052.339-.236.745-.9.793a1.4,1.4,0,0,1-.844-.2.778.778,0,0,1-.384-.532s0-.006,0-.009a.581.581,0,0,1,.221-.507,1.176,1.176,0,0,1,.737-.27m-1.5.874a1.324,1.324,0,0,0,.63.9,1.946,1.946,0,0,0,1.177.285c.841-.061,1.515-.645,1.395-1.421a1.618,1.618,0,0,0-1.724-1.189,1.72,1.72,0,0,0-1.081.406,1.124,1.124,0,0,0-.4,1s0,.009,0,.013" transform="translate(-379.572 -61.46)" fill="#431426" fill-rule="evenodd"/>
        <path id="Path_244" data-name="Path 244" d="M365.879,38.6a.3.3,0,0,0,.075-.012.249.249,0,0,0,.147-.12.249.249,0,0,0,.028-.093.239.239,0,0,0-.01-.1,2.2,2.2,0,0,1,.481-1.7c1.132-1.646,5.119-4.6,19.112-5.846,13.82-1.233,19.039.919,20.983,2.94a3.1,3.1,0,0,1,1.045,2.355.252.252,0,0,0,.049.186.257.257,0,0,0,.074.065.251.251,0,0,0,.279-.017.25.25,0,0,0,.1-.166,3.6,3.6,0,0,0-1.161-2.743c-2.008-2.114-7.351-4.369-21.4-3.114-13.548,1.208-18.086,3.982-19.5,6.1a2.592,2.592,0,0,0-.523,2.087.25.25,0,0,0,.233.176" transform="translate(-342.673 -28.249)" fill="#431426"/>
        <g id="Group_92" data-name="Group 92" transform="translate(22.141 25.321)" opacity="0.1" style="mix-blend-mode: normal;isolation: isolate">
          <g id="Group_91" data-name="Group 91">
            <g id="Group_90" data-name="Group 90" clip-path="url(#clip-path-3)">
              <path id="Path_245" data-name="Path 245" d="M274.626,474.117h.211a6.6,6.6,0,0,0,2.887-1.1,6.491,6.491,0,0,1,2.19-.939,8.294,8.294,0,0,1,2.764.269,6.86,6.86,0,0,0,2.977.206,6.281,6.281,0,0,0,2.423-1.454,6.215,6.215,0,0,1,1.754-1.161,6.769,6.769,0,0,1,2.31-.237,5.544,5.544,0,0,0,2.505-.342,8.148,8.148,0,0,0,2.615-2.323,8.7,8.7,0,0,1,1.6-1.609,9.518,9.518,0,0,1,2.4-1.057c.234-.078.465-.156.689-.236a.249.249,0,0,0-.166-.468c-.219.078-.446.154-.677.231a9.743,9.743,0,0,0-2.524,1.12,9.042,9.042,0,0,0-1.7,1.7,7.849,7.849,0,0,1-2.451,2.194,5.221,5.221,0,0,1-2.283.292,7.112,7.112,0,0,0-2.481.266,6.684,6.684,0,0,0-1.907,1.248,5.913,5.913,0,0,1-2.224,1.354,6.568,6.568,0,0,1-2.756-.209,8.643,8.643,0,0,0-2.935-.275,6.961,6.961,0,0,0-2.37,1,6.185,6.185,0,0,1-2.666,1.037,7.088,7.088,0,0,1-2.831-.68,7.656,7.656,0,0,0-2.481-.664,7.913,7.913,0,0,0-2.768.626,5.787,5.787,0,0,1-2.467.521,4.32,4.32,0,0,1-2.051-1.117,4.744,4.744,0,0,0-1.865-1.079,8.063,8.063,0,0,0-2.914.133,5.378,5.378,0,0,1-2.559.055,5.812,5.812,0,0,1-1.991-1.271.249.249,0,0,0-.332.368,6.332,6.332,0,0,0,2.157,1.372,5.728,5.728,0,0,0,2.806-.035,7.731,7.731,0,0,1,2.736-.133,4.322,4.322,0,0,1,1.649.979,4.688,4.688,0,0,0,2.31,1.221,6.215,6.215,0,0,0,2.688-.548,7.49,7.49,0,0,1,2.591-.6,7.111,7.111,0,0,1,2.309.624,7.9,7.9,0,0,0,2.826.725" transform="translate(-252.488 -463.654)" fill="#431426"/>
            </g>
          </g>
        </g>
        <g id="Group_95" data-name="Group 95" transform="translate(22.947 33.087)" opacity="0.1" style="mix-blend-mode: normal;isolation: isolate">
          <g id="Group_94" data-name="Group 94">
            <g id="Group_93" data-name="Group 93" clip-path="url(#clip-path-4)">
              <path id="Path_246" data-name="Path 246" d="M264.387,616.068h.226a6.591,6.591,0,0,0,2.882-1.113,6.6,6.6,0,0,1,2.187-.948,8.275,8.275,0,0,1,2.765.26,6.9,6.9,0,0,0,2.987.194A6.279,6.279,0,0,0,277.85,613a6.239,6.239,0,0,1,1.752-1.17,6.827,6.827,0,0,1,2.308-.246,5.658,5.658,0,0,0,2.5-.35,8.2,8.2,0,0,0,2.607-2.331,8.71,8.71,0,0,1,1.591-1.615,8.432,8.432,0,0,1,2.091-.964.25.25,0,0,0-.166-.471,8.846,8.846,0,0,0-2.214,1.027,9.112,9.112,0,0,0-1.691,1.7,7.77,7.77,0,0,1-2.442,2.2,5.193,5.193,0,0,1-2.282.3,7.065,7.065,0,0,0-2.481.275,6.669,6.669,0,0,0-1.9,1.254,5.823,5.823,0,0,1-2.218,1.362,6.665,6.665,0,0,1-2.756-.2,8.686,8.686,0,0,0-2.937-.266,6.873,6.873,0,0,0-2.366,1.011,6.084,6.084,0,0,1-2.655,1.045,7.153,7.153,0,0,1-2.834-.664,7.387,7.387,0,0,0-2.489-.649,7.814,7.814,0,0,0-2.764.635,5.821,5.821,0,0,1-2.466.531,4.329,4.329,0,0,1-2.056-1.109,4.719,4.719,0,0,0-1.868-1.072,8.052,8.052,0,0,0-2.912.143,5.4,5.4,0,0,1-2.56.064,7.189,7.189,0,0,1-2.6-1.841l-.154-.15a.249.249,0,0,0-.353.008.249.249,0,0,0,.008.352l.154.148a7.684,7.684,0,0,0,2.787,1.953,5.717,5.717,0,0,0,2.806-.045,7.719,7.719,0,0,1,2.734-.143,4.384,4.384,0,0,1,1.659.974A4.677,4.677,0,0,0,254,615.918a6.22,6.22,0,0,0,2.686-.558,7.5,7.5,0,0,1,2.588-.606,6.915,6.915,0,0,1,2.312.617,8.184,8.184,0,0,0,2.805.7" transform="translate(-241.464 -605.839)" fill="#431426"/>
            </g>
          </g>
        </g>
        <g id="Group_98" data-name="Group 98" transform="translate(23.476 40.957)" opacity="0.1" style="mix-blend-mode: normal;isolation: isolate">
          <g id="Group_97" data-name="Group 97">
            <g id="Group_96" data-name="Group 96" clip-path="url(#clip-path-5)">
              <path id="Path_247" data-name="Path 247" d="M256.83,759.892a2.29,2.29,0,0,0,.236-.008,6.579,6.579,0,0,0,2.879-1.12,6.438,6.438,0,0,1,2.186-.953,8.294,8.294,0,0,1,2.766.254,6.912,6.912,0,0,0,2.977.187,6.3,6.3,0,0,0,2.414-1.47,6.057,6.057,0,0,1,1.747-1.172,6.756,6.756,0,0,1,2.308-.252,5.718,5.718,0,0,0,2.5-.357,8.168,8.168,0,0,0,2.6-2.336,8.723,8.723,0,0,1,1.588-1.62,6.276,6.276,0,0,1,1.15-.617.248.248,0,0,0,.141-.135.249.249,0,0,0-.14-.33.25.25,0,0,0-.1-.016.257.257,0,0,0-.1.023,6.707,6.707,0,0,0-1.239.664,9.067,9.067,0,0,0-1.687,1.709,7.8,7.8,0,0,1-2.436,2.209,5.243,5.243,0,0,1-2.282.305,7.283,7.283,0,0,0-2.48.281,6.7,6.7,0,0,0-1.9,1.259,5.888,5.888,0,0,1-2.215,1.369,6.477,6.477,0,0,1-2.757-.192,8.678,8.678,0,0,0-2.937-.259,6.92,6.92,0,0,0-2.363,1.015,6.18,6.18,0,0,1-2.655,1.054,7.1,7.1,0,0,1-2.834-.664,7.342,7.342,0,0,0-2.489-.642,7.873,7.873,0,0,0-2.762.641,5.832,5.832,0,0,1-2.466.538,4.319,4.319,0,0,1-2.057-1.1,4.7,4.7,0,0,0-1.872-1.067,8.042,8.042,0,0,0-2.912.149,5.379,5.379,0,0,1-2.559.07,7.145,7.145,0,0,1-2.608-1.834,12.844,12.844,0,0,0-1.062-.948.253.253,0,0,0-.088-.048.248.248,0,0,0-.1-.009.249.249,0,0,0-.171.1.242.242,0,0,0-.044.09.249.249,0,0,0,0,.1.24.24,0,0,0,.035.093.247.247,0,0,0,.07.073,12.412,12.412,0,0,1,1.019.913,7.694,7.694,0,0,0,2.791,1.944,5.74,5.74,0,0,0,2.806-.051,7.738,7.738,0,0,1,2.734-.151,4.368,4.368,0,0,1,1.659.971,4.652,4.652,0,0,0,2.323,1.206,6.2,6.2,0,0,0,2.685-.564,7.465,7.465,0,0,1,2.587-.611,6.95,6.95,0,0,1,2.313.611,7.913,7.913,0,0,0,2.8.705" transform="translate(-233.008 -749.948)" fill="#431426"/>
            </g>
          </g>
        </g>
        <g id="Group_101" data-name="Group 101" transform="translate(23.746 48.327)" opacity="0.1" style="mix-blend-mode: normal;isolation: isolate">
          <g id="Group_100" data-name="Group 100">
            <g id="Group_99" data-name="Group 99" clip-path="url(#clip-path-6)">
              <path id="Path_248" data-name="Path 248" d="M251.833,894.987h.229a6.614,6.614,0,0,0,2.882-1.115,6.409,6.409,0,0,1,2.185-.951,8.322,8.322,0,0,1,2.766.257,6.9,6.9,0,0,0,2.977.192,6.275,6.275,0,0,0,2.416-1.465,6.227,6.227,0,0,1,1.75-1.172,6.844,6.844,0,0,1,2.308-.247,5.633,5.633,0,0,0,2.5-.353,8.2,8.2,0,0,0,2.6-2.333,8.6,8.6,0,0,1,1.591-1.616,6.964,6.964,0,0,1,1.6-.8.253.253,0,0,0-.178-.475,7.492,7.492,0,0,0-1.716.851,9.036,9.036,0,0,0-1.687,1.707,7.914,7.914,0,0,1-2.441,2.205,5.244,5.244,0,0,1-2.282.3,7.137,7.137,0,0,0-2.48.277,6.691,6.691,0,0,0-1.9,1.256,5.87,5.87,0,0,1-2.218,1.366,6.552,6.552,0,0,1-2.756-.2,8.642,8.642,0,0,0-2.937-.26,6.842,6.842,0,0,0-2.365,1.011,6.132,6.132,0,0,1-2.655,1.05,7.121,7.121,0,0,1-2.834-.664,7.342,7.342,0,0,0-2.489-.646,8.079,8.079,0,0,0-2.764.637,5.777,5.777,0,0,1-2.466.533,4.32,4.32,0,0,1-2.056-1.105,4.711,4.711,0,0,0-1.87-1.07,8.052,8.052,0,0,0-2.912.146,5.4,5.4,0,0,1-2.56.066,7.186,7.186,0,0,1-2.605-1.837c-.2-.189-.382-.368-.574-.542a.249.249,0,0,0-.332.37c.186.166.37.344.563.531a7.7,7.7,0,0,0,2.789,1.95,5.76,5.76,0,0,0,2.806-.048,7.687,7.687,0,0,1,2.734-.146,4.342,4.342,0,0,1,1.659.972,4.68,4.68,0,0,0,2.313,1.21,6.2,6.2,0,0,0,2.686-.561,7.316,7.316,0,0,1,2.588-.607,6.955,6.955,0,0,1,2.312.614,8.116,8.116,0,0,0,2.809.7" transform="translate(-228.501 -884.899)" fill="#431426"/>
            </g>
          </g>
        </g>
        <g id="Group_104" data-name="Group 104" transform="translate(23.611 56.469)" opacity="0.1" style="mix-blend-mode: normal;isolation: isolate">
          <g id="Group_103" data-name="Group 103">
            <g id="Group_102" data-name="Group 102" clip-path="url(#clip-path-7)">
              <path id="Path_249" data-name="Path 249" d="M253.148,1043.581h.216a6.57,6.57,0,0,0,2.887-1.107,6.5,6.5,0,0,1,2.188-.941,8.208,8.208,0,0,1,2.765.266,6.906,6.906,0,0,0,2.977.2,6.275,6.275,0,0,0,2.419-1.458,6.184,6.184,0,0,1,1.754-1.162,6.76,6.76,0,0,1,2.31-.239,5.676,5.676,0,0,0,2.5-.345,8.229,8.229,0,0,0,2.612-2.323,8.731,8.731,0,0,1,1.6-1.611,5.556,5.556,0,0,1,.685-.4.249.249,0,0,0-.221-.446,5.993,5.993,0,0,0-.748.436,9.046,9.046,0,0,0-1.694,1.7,7.867,7.867,0,0,1-2.447,2.2,5.253,5.253,0,0,1-2.283.3,7.114,7.114,0,0,0-2.479.269,6.663,6.663,0,0,0-1.9,1.251,5.933,5.933,0,0,1-2.222,1.357,6.593,6.593,0,0,1-2.756-.205,8.638,8.638,0,0,0-2.937-.271,7,7,0,0,0-2.368,1,6.184,6.184,0,0,1-2.665,1.04,7.089,7.089,0,0,1-2.831-.675,7.431,7.431,0,0,0-2.489-.654,7.784,7.784,0,0,0-2.766.629,5.8,5.8,0,0,1-2.467.524,4.317,4.317,0,0,1-2.052-1.111,4.72,4.72,0,0,0-1.867-1.075,8.046,8.046,0,0,0-2.914.134,5.4,5.4,0,0,1-2.559.06,7.566,7.566,0,0,1-2.667-1.886,8.593,8.593,0,0,0-1.6-1.316.251.251,0,0,0-.324.1.25.25,0,0,0-.027.18.247.247,0,0,0,.1.151,8.4,8.4,0,0,1,1.506,1.243,8,8,0,0,0,2.846,1.991,5.732,5.732,0,0,0,2.806-.038,7.741,7.741,0,0,1,2.736-.138,4.4,4.4,0,0,1,1.659.977,4.664,4.664,0,0,0,2.31,1.218,6.225,6.225,0,0,0,2.688-.552,7.352,7.352,0,0,1,2.59-.6,7.081,7.081,0,0,1,2.31.62,8.108,8.108,0,0,0,2.822.714" transform="translate(-228.766 -1033.99)" fill="#431426"/>
            </g>
          </g>
        </g>
        <g id="Group_107" data-name="Group 107" transform="translate(22.877 63.38)" opacity="0.1" style="mix-blend-mode: normal;isolation: isolate">
          <g id="Group_106" data-name="Group 106">
            <g id="Group_105" data-name="Group 105" clip-path="url(#clip-path-8)">
              <path id="Path_250" data-name="Path 250" d="M258.49,1170.761q.133,0,.264-.01a6.559,6.559,0,0,0,2.87-1.141,6.415,6.415,0,0,1,2.179-.969,8.322,8.322,0,0,1,2.766.232,6.963,6.963,0,0,0,2.987.166,6.219,6.219,0,0,0,2.4-1.493,6.192,6.192,0,0,1,1.741-1.187,6.812,6.812,0,0,1,2.306-.269,5.441,5.441,0,0,0,2.5-.375,8.2,8.2,0,0,0,2.584-2.356,8.453,8.453,0,0,1,1.576-1.631,6.532,6.532,0,0,1,1.371-.722.249.249,0,0,0-.186-.461,7.058,7.058,0,0,0-1.473.777,8.972,8.972,0,0,0-1.672,1.722,7.836,7.836,0,0,1-2.421,2.227,5.237,5.237,0,0,1-2.28.322,6.946,6.946,0,0,0-2.476.3,6.7,6.7,0,0,0-1.89,1.273,6.01,6.01,0,0,1-2.205,1.385,6.686,6.686,0,0,1-2.758-.166,8.658,8.658,0,0,0-2.94-.234,6.872,6.872,0,0,0-2.354,1.032,6.174,6.174,0,0,1-2.655,1.074,7.1,7.1,0,0,1-2.841-.641,7.444,7.444,0,0,0-2.489-.624,7.718,7.718,0,0,0-2.756.664,5.7,5.7,0,0,1-2.463.554,4.324,4.324,0,0,1-2.066-1.087,4.72,4.72,0,0,0-1.878-1.053,8.222,8.222,0,0,0-2.912.166,5.5,5.5,0,0,1-2.559.09,7.2,7.2,0,0,1-2.622-1.813,9.072,9.072,0,0,0-1.453-1.2.249.249,0,0,0-.259.425,8.8,8.8,0,0,1,1.37,1.14,7.692,7.692,0,0,0,2.806,1.925,5.756,5.756,0,0,0,2.806-.073,7.608,7.608,0,0,1,2.733-.166,4.287,4.287,0,0,1,1.659.958,4.669,4.669,0,0,0,2.323,1.189,6.229,6.229,0,0,0,2.681-.584,7.491,7.491,0,0,1,2.582-.632,7.18,7.18,0,0,1,2.323.594,8.232,8.232,0,0,0,2.781.677" transform="translate(-234.313 -1160.531)" fill="#431426"/>
            </g>
          </g>
        </g>
        <g id="Group_110" data-name="Group 110" transform="translate(21.809 71.28)" opacity="0.1" style="mix-blend-mode: normal;isolation: isolate">
          <g id="Group_109" data-name="Group 109">
            <g id="Group_108" data-name="Group 108" clip-path="url(#clip-path-9)">
              <path id="Path_251" data-name="Path 251" d="M274.3,1315.025c.088,0,.174,0,.26-.008a6.6,6.6,0,0,0,2.874-1.138,6.422,6.422,0,0,1,2.177-.968,8.32,8.32,0,0,1,2.767.234,6.861,6.861,0,0,0,2.979.166,6.3,6.3,0,0,0,2.4-1.485,6.168,6.168,0,0,1,1.741-1.184,6.774,6.774,0,0,1,2.306-.266,5.468,5.468,0,0,0,2.5-.374,8.2,8.2,0,0,0,2.585-2.354,8.455,8.455,0,0,1,1.578-1.63,5.219,5.219,0,0,1,.592-.362.247.247,0,0,0,.08-.06.252.252,0,0,0,.05-.086.249.249,0,0,0-.079-.272.251.251,0,0,0-.188-.054.255.255,0,0,0-.094.032,5.763,5.763,0,0,0-.647.395,9,9,0,0,0-1.676,1.721,7.827,7.827,0,0,1-2.423,2.223,5.243,5.243,0,0,1-2.28.322,7.024,7.024,0,0,0-2.477.3,6.67,6.67,0,0,0-1.89,1.271,6,6,0,0,1-2.207,1.382,6.7,6.7,0,0,1-2.757-.165,8.689,8.689,0,0,0-2.94-.239,6.9,6.9,0,0,0-2.357,1.032,6.258,6.258,0,0,1-2.655,1.07,7.114,7.114,0,0,1-2.837-.644,7.462,7.462,0,0,0-2.489-.628,7.7,7.7,0,0,0-2.751.664,5.682,5.682,0,0,1-2.462.552,4.318,4.318,0,0,1-2.064-1.088,4.723,4.723,0,0,0-1.879-1.055,8.186,8.186,0,0,0-2.912.166,5.488,5.488,0,0,1-2.559.088,7.182,7.182,0,0,1-2.62-1.815,8.312,8.312,0,0,0-1.59-1.286q-.469-.264-.906-.518a.248.248,0,0,0-.276.016.241.241,0,0,0-.064.073.258.258,0,0,0-.032.092.255.255,0,0,0,.006.1.249.249,0,0,0,.042.087.255.255,0,0,0,.073.064q.44.256.915.523a7.91,7.91,0,0,1,1.493,1.211,7.674,7.674,0,0,0,2.8,1.928,5.757,5.757,0,0,0,2.805-.07,7.606,7.606,0,0,1,2.733-.166,4.309,4.309,0,0,1,1.66.959,4.678,4.678,0,0,0,2.323,1.192,6.231,6.231,0,0,0,2.681-.583,7.5,7.5,0,0,1,2.578-.629,7.191,7.191,0,0,1,2.323.6,8.339,8.339,0,0,0,2.781.672" transform="translate(-249.081 -1305.182)" fill="#431426"/>
            </g>
          </g>
        </g>
        <path id="Path_252" data-name="Path 252" d="M366.366,1614.342a.136.136,0,1,1,.136-.136.136.136,0,0,1-.136.136" transform="translate(-300.964 -1525.921)" fill="#431426"/>
        <path id="Path_253" data-name="Path 253" d="M409.936,1583.292a.136.136,0,1,1,.136-.136.136.136,0,0,1-.136.136" transform="translate(-346.914 -1496.567)" fill="#431426"/>
        <path id="Path_254" data-name="Path 254" d="M328.966,1566.372a.136.136,0,1,1,.136-.136.136.136,0,0,1-.136.136" transform="translate(-261.522 -1480.571)" fill="#431426"/>
        <path id="Path_255" data-name="Path 255" d="M328.3,1502.563a.136.136,0,1,1,.136-.136.136.136,0,0,1-.136.136" transform="translate(-260.815 -1420.246)" fill="#431426"/>
        <path id="Path_256" data-name="Path 256" d="M268.111,1359.823a.136.136,0,1,1,.136-.136.136.136,0,0,1-.136.136" transform="translate(-197.343 -1285.301)" fill="#431426"/>
        <path id="Path_257" data-name="Path 257" d="M325.566,1287.543a.136.136,0,1,1,.136-.136.136.136,0,0,1-.136.136" transform="translate(-257.936 -1216.969)" fill="#431426"/>
        <path id="Path_258" data-name="Path 258" d="M321.946,689.1a.136.136,0,1,1,.136-.136.136.136,0,0,1-.136.136" transform="translate(-254.118 -651.211)" fill="#431426"/>
        <path id="Path_259" data-name="Path 259" d="M295.336,596.557a.136.136,0,1,1,.136-.136.136.136,0,0,1-.136.136" transform="translate(-226.055 -563.72)" fill="#431426"/>
        <path id="Path_260" data-name="Path 260" d="M260.3,535.183a.136.136,0,1,1,.136-.136.136.136,0,0,1-.136.136" transform="translate(-189.108 -505.698)" fill="#431426"/>
        <path id="Path_261" data-name="Path 261" d="M300.776,473.81a.136.136,0,1,1,.136-.136.136.136,0,0,1-.136.136" transform="translate(-231.792 -447.677)" fill="#431426"/>
        <path id="Path_262" data-name="Path 262" d="M704.466,415.445a.136.136,0,1,1,.136-.136.136.136,0,0,1-.136.136" transform="translate(-657.529 -392.499)" fill="#431426"/>
        <path id="Path_263" data-name="Path 263" d="M1038.616,361.335a.136.136,0,1,1,.136-.136.136.136,0,0,1-.136.136" transform="translate(-1009.928 -341.344)" fill="#431426"/>
        <path id="Path_264" data-name="Path 264" d="M566.706,106.454a.136.136,0,1,1,.136-.136.136.136,0,0,1-.136.136" transform="translate(-512.246 -100.383)" fill="#431426"/>
        <path id="Path_265" data-name="Path 265" d="M512.116,122.223a.136.136,0,1,1,.136-.136.136.136,0,0,1-.136.136" transform="translate(-454.674 -115.291)" fill="#431426"/>
        <path id="Path_266" data-name="Path 266" d="M524.3,144.5a.136.136,0,1,1,.136-.136.136.136,0,0,1-.136.136" transform="translate(-467.519 -136.347)" fill="#431426"/>
        <path id="Path_267" data-name="Path 267" d="M203.736,673.684a1.539,1.539,0,0,0,.174-.01,1.344,1.344,0,0,0,.9-.514l1.719-2.231a1.351,1.351,0,0,0-.242-1.893l-.114-.088a1.351,1.351,0,0,0-1.893.242l-1.726,2.232a1.349,1.349,0,0,0,.241,1.893l.114.088a1.325,1.325,0,0,0,.831.282m1.616-4.526a.847.847,0,0,1,.519.177l.115.09a.851.851,0,0,1,.153,1.193l-1.726,2.233a.853.853,0,0,1-1.195.153l-.115-.088a.853.853,0,0,1-.153-1.195l1.726-2.232a.846.846,0,0,1,.566-.323.823.823,0,0,1,.11-.008" transform="translate(-132.315 -632.148)" fill="#431426"/>
        <path id="Path_268" data-name="Path 268" d="M266.9,750.986a1.351,1.351,0,0,0,1.118-.591l1.584-2.335a1.352,1.352,0,0,0-.36-1.875l-.119-.081a1.35,1.35,0,0,0-1.873.357l-1.584,2.336a1.347,1.347,0,0,0,.358,1.873l.12.081a1.337,1.337,0,0,0,.756.234m1.467-4.616a.852.852,0,0,1,.478.146l.119.081a.85.85,0,0,1,.222,1.192l-1.581,2.323a.851.851,0,0,1-1.181.226l-.121-.081a.854.854,0,0,1-.226-1.183l1.585-2.335a.85.85,0,0,1,.705-.369" transform="translate(-198.796 -705.137)" fill="#431426"/>
        <path id="Path_269" data-name="Path 269" d="M329.215,829.613a1.343,1.343,0,0,0,1.12-.591l1.578-2.336a1.352,1.352,0,0,0-.358-1.873l-.121-.081a1.347,1.347,0,0,0-1.873.358l-1.578,2.341a1.348,1.348,0,0,0,.359,1.873l.119.081a1.349,1.349,0,0,0,.755.228m1.47-4.618a.852.852,0,0,1,.476.148l.12.081a.856.856,0,0,1,.227,1.183l-1.587,2.334a.851.851,0,0,1-1.181.228l-.121-.081a.853.853,0,0,1-.226-1.183l1.584-2.336a.844.844,0,0,1,.236-.233.853.853,0,0,1,.308-.124.814.814,0,0,1,.163-.016" transform="translate(-264.505 -779.47)" fill="#431426"/>
        <path id="Path_270" data-name="Path 270" d="M386.866,911.671a1.35,1.35,0,0,0,1.17-.675l1.412-2.445a1.35,1.35,0,0,0-.5-1.843l-.125-.073a1.35,1.35,0,0,0-1.843.5l-1.407,2.441a1.351,1.351,0,0,0,.5,1.844l.126.073a1.343,1.343,0,0,0,.667.181m1.289-4.719a.86.86,0,0,1,.425.114l.124.073a.851.851,0,0,1,.312,1.162l-1.411,2.444a.853.853,0,0,1-1.162.312l-.126-.073a.847.847,0,0,1-.25-.218.835.835,0,0,1-.146-.3.856.856,0,0,1,.085-.647l1.412-2.444a.857.857,0,0,1,.738-.426Z" transform="translate(-325.136 -856.951)" fill="#431426"/>
        <path id="Path_271" data-name="Path 271" d="M442,996.067a1.341,1.341,0,0,0,1.118-.591l1.584-2.336a1.35,1.35,0,0,0-.358-1.867l-.12-.081a1.353,1.353,0,0,0-1.875.358l-1.585,2.335a1.353,1.353,0,0,0,.36,1.875l.119.081a1.351,1.351,0,0,0,.755.226m1.469-4.616a.841.841,0,0,1,.476.146l.121.081a.852.852,0,0,1,.226,1.183l-1.585,2.335a.853.853,0,0,1-1.183.227l-.12-.081a.849.849,0,0,1-.359-.544.863.863,0,0,1,0-.333.85.85,0,0,1,.13-.306l1.584-2.336a.849.849,0,0,1,.706-.371" transform="translate(-383.455 -936.84)" fill="#431426"/>
        <path id="Path_272" data-name="Path 272" d="M500.085,1075.929h.1a1.349,1.349,0,0,0,.922-.463l1.847-2.135a1.349,1.349,0,0,0-.138-1.9l-.11-.095a1.35,1.35,0,0,0-1.9.138l-1.846,2.135a1.35,1.35,0,0,0,.138,1.9l.109.094a1.338,1.338,0,0,0,.881.326m1.739-4.43a.849.849,0,0,1,.555.207l.11.095a.853.853,0,0,1,.088,1.2l-1.847,2.134a.848.848,0,0,1-1.2.088l-.11-.094a.844.844,0,0,1-.2-.262.85.85,0,0,1,.117-.939l1.845-2.134a.861.861,0,0,1,.263-.205.845.845,0,0,1,.321-.088Z" transform="translate(-444.975 -1012.513)" fill="#431426"/>
        <path id="Path_273" data-name="Path 273" d="M571.04,1146.862a1.343,1.343,0,0,0,.954-.395l1.991-1.991a1.352,1.352,0,0,0,0-1.908l-.1-.1a1.347,1.347,0,0,0-1.907,0l-1.991,1.991a1.351,1.351,0,0,0,0,1.908l.1.1a1.337,1.337,0,0,0,.952.395m1.894-4.3a.842.842,0,0,1,.326.064.831.831,0,0,1,.275.185l.1.1a.853.853,0,0,1,0,1.2l-1.991,1.991a.849.849,0,0,1-1.2,0l-.1-.1a.852.852,0,0,1,0-1.2l1.991-1.991a.847.847,0,0,1,.276-.186.834.834,0,0,1,.326-.065" transform="translate(-519.948 -1079.698)" fill="#431426"/>
        <path id="Path_274" data-name="Path 274" d="M645.462,1214.444a1.326,1.326,0,0,0,.83-.286l2.227-1.732a1.351,1.351,0,0,0,.234-1.894l-.09-.115a1.35,1.35,0,0,0-1.893-.238l-2.227,1.734a1.349,1.349,0,0,0-.237,1.893l.09.115a1.339,1.339,0,0,0,.9.511,1.479,1.479,0,0,0,.169.011m2.134-4.049a.88.88,0,0,1,.108,0,.845.845,0,0,1,.566.322l.089.115a.851.851,0,0,1-.149,1.194l-2.227,1.734a.861.861,0,0,1-.3.149.856.856,0,0,1-.647-.081.864.864,0,0,1-.251-.217l-.09-.115a.857.857,0,0,1-.149-.3.857.857,0,0,1,.081-.647.86.86,0,0,1,.218-.251l2.227-1.734a.85.85,0,0,1,.521-.173" transform="translate(-598.67 -1143.82)" fill="#431426"/>
        <path id="Path_275" data-name="Path 275" d="M729.668,1266.179a1.348,1.348,0,0,0,.5-.1l2.621-1.045a1.348,1.348,0,0,0,.762-1.752l-.053-.134a1.349,1.349,0,0,0-1.238-.853,1.337,1.337,0,0,0-.519.1l-2.623,1.045a1.351,1.351,0,0,0-.754,1.752l.053.134a1.362,1.362,0,0,0,1.252.853m2.571-3.382a.861.861,0,0,1,.79.537l.055.135a.855.855,0,0,1-.476,1.107l-2.623,1.044a.851.851,0,0,1-1.105-.476l-.053-.134a.852.852,0,0,1,.475-1.105l2.623-1.045a.866.866,0,0,1,.316-.061" transform="translate(-687.878 -1193.36)" fill="#431426"/>
        <path id="Path_276" data-name="Path 276" d="M821.512,1257.747a1.35,1.35,0,0,0,1.162-.663l.085-.141a1.351,1.351,0,0,0-.476-1.848l-2.467-1.459a1.352,1.352,0,0,0-1.848.476l-.085.143a1.349,1.349,0,0,0,.476,1.847l2.467,1.459a1.358,1.358,0,0,0,.687.187m-2.38-3.8a.829.829,0,0,1,.431.12l2.469,1.457a.852.852,0,0,1,.3,1.161l-.083.143a.854.854,0,0,1-1.161.3l-2.479-1.454a.853.853,0,0,1-.3-1.162l.083-.143a.857.857,0,0,1,.742-.423" transform="translate(-782.063 -1184.994)" fill="#431426"/>
        <path id="Path_277" data-name="Path 277" d="M903.05,1190.4a1.34,1.34,0,0,0,.948-.388l.118-.116a1.35,1.35,0,0,0,.013-1.908l-2.012-2.041a1.351,1.351,0,0,0-.435-.3,1.346,1.346,0,0,0-1.032-.007,1.347,1.347,0,0,0-.439.29l-.118.116a1.351,1.351,0,0,0-.015,1.908l2.012,2.041a1.361,1.361,0,0,0,.436.3,1.338,1.338,0,0,0,.516.105Zm-1.894-4.357a.847.847,0,0,1,.6.252l2.019,2.044a.853.853,0,0,1-.01,1.2l-.116.116a.852.852,0,0,1-.277.183.836.836,0,0,1-.327.063.853.853,0,0,1-.6-.254l-2.012-2.041a.854.854,0,0,1,.008-1.2l.118-.116a.851.851,0,0,1,.6-.247" transform="translate(-868.113 -1120.803)" fill="#431426"/>
        <path id="Path_278" data-name="Path 278" d="M972.755,1115.568a1.339,1.339,0,0,0,.808-.27l.131-.1a1.353,1.353,0,0,0,.269-1.89l-1.724-2.29a1.351,1.351,0,0,0-.89-.526,1.341,1.341,0,0,0-.526.03,1.355,1.355,0,0,0-.475.229l-.131.1a1.352,1.352,0,0,0-.267,1.89l1.723,2.292a1.343,1.343,0,0,0,.881.518,1.525,1.525,0,0,0,.2.02m-1.6-4.591a1.183,1.183,0,0,1,.121,0,.854.854,0,0,1,.561.332l1.724,2.292a.851.851,0,0,1-.166,1.191l-.131.1a.852.852,0,0,1-.632.166.828.828,0,0,1-.314-.109.841.841,0,0,1-.247-.222l-1.723-2.29a.853.853,0,0,1,.166-1.193l.133-.1a.855.855,0,0,1,.508-.166" transform="translate(-941.651 -1049.833)" fill="#431426"/>
        <path id="Path_279" data-name="Path 279" d="M1033.821,1032.072a1.357,1.357,0,0,0,.637-.166l.146-.08a1.351,1.351,0,0,0,.549-1.825l-1.357-2.524a1.351,1.351,0,0,0-1.825-.549l-.145.078a1.348,1.348,0,0,0-.7,1.322,1.333,1.333,0,0,0,.154.5l1.357,2.525a1.35,1.35,0,0,0,1.186.715m-1.215-4.8a.849.849,0,0,1,.75.448l1.359,2.524a.852.852,0,0,1-.347,1.153l-.146.078a.851.851,0,0,1-1.162-.347l-1.349-2.516a.852.852,0,0,1-.069-.653.843.843,0,0,1,.157-.3.855.855,0,0,1,.259-.213l.146-.078a.831.831,0,0,1,.4-.1" transform="translate(-1006.086 -970.694)" fill="#431426"/>
        <path id="Path_280" data-name="Path 280" d="M1078.263,938.656a1.378,1.378,0,0,0,.443-.075l.156-.055a1.351,1.351,0,0,0,.83-1.718l-.942-2.708a1.351,1.351,0,0,0-1.718-.83l-.156.055a1.349,1.349,0,0,0-.829,1.715l.939,2.71a1.34,1.34,0,0,0,.687.772,1.361,1.361,0,0,0,.59.133m-.782-4.965a.832.832,0,0,1,.372.086.849.849,0,0,1,.433.486l.938,2.71a.851.851,0,0,1-.038.649.846.846,0,0,1-.487.433l-.156.055a.84.84,0,0,1-.329.045.851.851,0,0,1-.754-.571l-.939-2.708a.848.848,0,0,1-.045-.329.839.839,0,0,1,.084-.322.848.848,0,0,1,.487-.433l.156-.054a.864.864,0,0,1,.278-.048" transform="translate(-1052.99 -882.232)" fill="#431426"/>
        <path id="Path_283" data-name="Path 283" d="M817.907,1304.545a.248.248,0,0,0,.248-.249v-2.039a.249.249,0,0,0-.074-.175.252.252,0,0,0-.175-.073.248.248,0,0,0-.1.019.252.252,0,0,0-.081.054.239.239,0,0,0-.053.08.252.252,0,0,0-.019.1v2.038a.251.251,0,0,0,.072.175.248.248,0,0,0,.175.073" transform="translate(-777.272 -1230.903)" fill="#431426"/>
        <path id="Path_284" data-name="Path 284" d="M842.169,671.008c-.347-5.783,1.342-10.59,3.774-10.736s4.684,4.424,5.03,10.208-1.342,10.59-3.774,10.736-4.684-4.424-5.03-10.208" transform="translate(-811.47 -624.209)" fill="#fffaf4"/>
        <path id="Path_285" data-name="Path 285" d="M844.46,684.447h.134c2.6-.166,4.347-4.99,3.97-10.99a19.992,19.992,0,0,0-1.775-7.4c-1-2.018-2.26-3.085-3.537-3s-2.393,1.3-3.134,3.421a19.836,19.836,0,0,0-.83,7.568,20.132,20.132,0,0,0,1.776,7.4c.968,1.951,2.162,3,3.4,3m-1.079-20.907c1.022,0,2.1,1,2.962,2.731a19.454,19.454,0,0,1,1.724,7.214c.347,5.531-1.258,10.321-3.5,10.462-1.05.065-2.167-.927-3.06-2.728a21.677,21.677,0,0,1-.914-14.587c.664-1.9,1.643-3.023,2.695-3.089Z" transform="translate(-808.91 -626.835)" fill="#431426"/>
        <path id="Path_286" data-name="Path 286" d="M878.518,733.174a1.643,1.643,0,0,0,1.162.324,1.661,1.661,0,0,0,1.042-.5,5.992,5.992,0,0,0,.352-8.148,2.726,2.726,0,0,1-.631-1.494l-1.591-.262,1.659-.974a6.626,6.626,0,0,1,.74-1.94,1.327,1.327,0,0,0-.589-1.911,1.675,1.675,0,0,0-2.129.561c-.114.181-2.762,4.48.048,7.774a3.4,3.4,0,0,1-.219,4.588,1.308,1.308,0,0,0,.156,1.981" transform="translate(-844.907 -678.879)" fill="#431426"/>
        <path id="Path_287" data-name="Path 287" d="M618.668,678.451c-.363-5.772,1.311-10.574,3.738-10.727s4.687,4.4,5.049,10.176-1.311,10.575-3.738,10.727-4.687-4.4-5.049-10.176" transform="translate(-575.75 -631.255)" fill="#fffaf4"/>
        <path id="Path_288" data-name="Path 288" d="M619.229,684.635h.136c2.6-.166,4.348-4.991,3.971-10.989s-2.715-10.568-5.31-10.409-4.347,4.991-3.97,10.989c.367,5.891,2.626,10.409,5.174,10.409m-1.074-20.907c2.21,0,4.341,4.5,4.683,9.944.347,5.531-1.258,10.322-3.5,10.453h-.1c-2.212,0-4.342-4.5-4.684-9.944-.347-5.53,1.259-10.321,3.506-10.462a.417.417,0,0,0,.1.008" transform="translate(-571.381 -627.012)" fill="#431426"/>
        <path id="Path_289" data-name="Path 289" d="M653.134,733.339a1.692,1.692,0,0,0,2.21-.176,5.992,5.992,0,0,0,.352-8.149,2.72,2.72,0,0,1-.63-1.494l-1.591-.26,1.66-.975a6.64,6.64,0,0,1,.745-1.943,1.328,1.328,0,0,0-.589-1.91,1.672,1.672,0,0,0-2.129.559c-.115.182-2.763,4.48.048,7.775a3.4,3.4,0,0,1-.219,4.588,1.309,1.309,0,0,0,.144,1.985" transform="translate(-607.221 -679.031)" fill="#431426"/>
        <path id="Path_290" data-name="Path 290" d="M765.538,1005.8a.262.262,0,0,0,.115-.028.251.251,0,0,0,.089-.078,1.852,1.852,0,0,1,1.361-.906,2.95,2.95,0,0,1,1.959.933.249.249,0,0,0,.365-.332,3.373,3.373,0,0,0-2.356-1.09,2.319,2.319,0,0,0-1.737,1.117.25.25,0,0,0-.045.127.249.249,0,0,0,.12.229.25.25,0,0,0,.129.036Z" transform="translate(-725.728 -949.443)" fill="#431426"/>
        <path id="Path_291" data-name="Path 291" d="M812.136,1011.59a2.915,2.915,0,0,1-2.371,0c-1.035-.6-1.024-1.756-2.456-2.351-2.2-.915-4.465,2.449-3.816,5.293s3.65,1.568,5.084.64c1.256-.811,2.916.641,2.916.641Z" transform="translate(-770.472 -953.976)" fill="#f57162"/>
        <path id="Path_292" data-name="Path 292" d="M801.1,1012.293a6.659,6.659,0,0,0,3.211-1.145c1.083-.7,2.6.606,2.617.619a.25.25,0,0,0,.332-.375c-.073-.063-1.817-1.566-3.216-.663-1.117.72-2.669,1.346-3.679.932a1.831,1.831,0,0,1-1.025-1.419,4.888,4.888,0,0,1,1.455-4.573,1.923,1.923,0,0,1,2.026-.428,2.9,2.9,0,0,1,1.38,1.246,3.237,3.237,0,0,0,1.047,1.088,3.119,3.119,0,0,0,2.6.013.249.249,0,0,0-.2-.454,2.7,2.7,0,0,1-2.142.011,2.783,2.783,0,0,1-.886-.941,3.419,3.419,0,0,0-1.6-1.425,2.4,2.4,0,0,0-2.537.509,5.383,5.383,0,0,0-1.62,5.071,2.3,2.3,0,0,0,1.328,1.769,2.45,2.45,0,0,0,.917.164" transform="translate(-766.078 -949.743)" fill="#431426"/>
        <path id="Path_293" data-name="Path 293" d="M901.978,1043.313c-.5-.128-.733-.94-.512-1.813s.811-1.477,1.316-1.349.733.94.512,1.813-.811,1.477-1.316,1.349" transform="translate(-867.067 -983.33)" fill="#431426"/>
        <path id="Path_294" data-name="Path 294" d="M193.071,874s.68-.345,2.384,1.86c1.955,2.529,6.969-6.057,3.617-8.107-1.317-.8-1.9.863-3.393-.018Z" transform="translate(-125.204 -820.143)" fill="#f57162"/>
        <path id="Path_295" data-name="Path 295" d="M192.005,872.253a1.516,1.516,0,0,0,.387-.053c1.493-.392,3.319-3.153,3.682-5.587.232-1.578-.188-2.783-1.183-3.391a1.784,1.784,0,0,0-1.825-.015,1.512,1.512,0,0,1-1.58,0,.25.25,0,0,0-.194-.037.249.249,0,0,0-.092.042.246.246,0,0,0-.068.074.249.249,0,0,0,.023.285.254.254,0,0,0,.079.063,1.991,1.991,0,0,0,2.023.037,1.3,1.3,0,0,1,1.366-.02,2.747,2.747,0,0,1,.951,2.9c-.332,2.22-2,4.833-3.319,5.177a.817.817,0,0,1-.924-.332c-1.7-2.2-2.489-2.033-2.695-1.93a.249.249,0,0,0,.021.45.244.244,0,0,0,.183,0c.047-.008.664-.066,2.1,1.783a1.3,1.3,0,0,0,1.068.555" transform="translate(-120.893 -815.83)" fill="#431426"/>
        <path id="Path_296" data-name="Path 296" d="M10.722,938.767a1.3,1.3,0,0,0,.226-.018c3.027-.5,8.552-2.881,7.8-8.43-.383-2.852-2.655-5.266-6.74-7.178a29.775,29.775,0,0,0-5.666-1.95,1.41,1.41,0,0,0-.587,2.757c2.666.581,9.694,2.926,10.208,6.747.236,1.744-.528,3.1-2.335,4.133a10.7,10.7,0,0,1-3.124,1.135,1.41,1.41,0,0,0,.224,2.8Z" transform="translate(66.467 -870.861)" fill="#ffeab9"/>
        <path id="Path_297" data-name="Path 297" d="M6.333,934.542a1.611,1.611,0,0,0,.265-.021c3.109-.5,8.784-2.97,8.013-8.708-.4-2.94-2.711-5.421-6.881-7.37a30.2,30.2,0,0,0-5.72-1.968,1.659,1.659,0,0,0-.7,3.244c2.617.571,9.513,2.857,10.01,6.538.219,1.633-.5,2.9-2.212,3.883a10.438,10.438,0,0,1-3.041,1.106,1.659,1.659,0,0,0,.264,3.3ZM1.657,916.936a1.138,1.138,0,0,1,.247.027,29.355,29.355,0,0,1,5.615,1.931c4.005,1.874,6.226,4.223,6.6,6.986.722,5.358-4.654,7.674-7.6,8.15a1.116,1.116,0,0,1-.186.015,1.162,1.162,0,0,1-.184-2.309,10.85,10.85,0,0,0,3.209-1.161c1.9-1.092,2.708-2.526,2.457-4.382-.534-3.964-7.689-6.367-10.4-6.958a1.162,1.162,0,0,1,.244-2.3Z" transform="translate(70.856 -866.388)" fill="#431426"/>
        <path id="Path_298" data-name="Path 298" d="M228.868,879.9c-3.849,3.934-1.7,4.533-1.185,4.148l-4.8-.911,2.193-4.929Z" transform="translate(-155.502 -830.248)" fill="#f57162"/>
        <path id="Path_299" data-name="Path 299" d="M219.419,909.372a.837.837,0,0,0,.5-.155.249.249,0,0,0,.055-.354.261.261,0,0,0-.075-.066.249.249,0,0,0-.193-.023.254.254,0,0,0-.088.046.465.465,0,0,1-.551-.09c-.332-.38,0-1.571,2.064-3.679a.249.249,0,0,0-.357-.348c-2.71,2.771-2.467,3.92-2.081,4.356a.96.96,0,0,0,.727.312" transform="translate(-147.593 -855.225)" fill="#431426"/>
        <path id="Path_300" data-name="Path 300" d="M111.665,1088.938s-2.542,4.646-6.859,5.207-6.123-1.681-5.476-3.4c0,0-2.733-1.825-2-3.319.4-.821,1.382-.385,1.382-.385s-2.323-2.258-1.206-3.816c.77-1.063,2.605,1.027,2.605,1.027s-1.508-1.928-.282-2.784c1.307-.913,2.459,2.008,4.687,2.116s2.613-.912,2-2.458-.518-2.489.43-2.763c1.571-.461,2.174,1.1,2.267,2.383s.124,3.035,1.407,3.178c0,0,.2-1.807,1.317-1.115s.139,1.9.511,2.786,1.692,2.139,1.1,2.972c-.964,1.354-1.885.371-1.885.371" transform="translate(-33.472 -1019.392)" fill="#fffaf4"/>
        <path id="Path_301" data-name="Path 301" d="M99.094,1090.107a10.677,10.677,0,0,0,1.327-.088c3.858-.5,6.292-4.085,6.9-5.082a1.347,1.347,0,0,0,.8.216,1.693,1.693,0,0,0,1.221-.815c.516-.722-.065-1.6-.577-2.379a5.713,5.713,0,0,1-.5-.83,1.883,1.883,0,0,1,0-1,1.624,1.624,0,0,0-.6-1.9.946.946,0,0,0-.946-.118,1.648,1.648,0,0,0-.7,1.145c-.713-.252-.845-1.306-.934-2.637l-.018-.266a3.344,3.344,0,0,0-1.072-2.418,1.7,1.7,0,0,0-1.513-.187,1.284,1.284,0,0,0-.841.664,3.171,3.171,0,0,0,.249,2.428c.292.75.317,1.3.075,1.638-.267.37-.888.534-1.843.5a4.29,4.29,0,0,1-2.474-1.328c-.79-.682-1.535-1.327-2.368-.747a1.309,1.309,0,0,0-.569.906,2.1,2.1,0,0,0,.11.956,2.073,2.073,0,0,0-1.195-.449.927.927,0,0,0-.728.4c-.888,1.229.094,2.782.75,3.591a1.082,1.082,0,0,0-.946.639c-.719,1.47,1.328,3.1,1.926,3.532a2.344,2.344,0,0,0,.466,2.112,4.965,4.965,0,0,0,4,1.517m8.158-5.791h-.033a.248.248,0,0,0-.186.126c-.025.046-2.534,4.545-6.674,5.079-3.186.412-4.472-.737-4.878-1.251a1.823,1.823,0,0,1-.331-1.812.253.253,0,0,0,0-.164.249.249,0,0,0-.1-.131c-.708-.475-2.436-1.94-1.913-3.01.286-.582.981-.3,1.059-.267a.249.249,0,0,0,.274-.406c-.022-.022-2.157-2.125-1.178-3.484a.434.434,0,0,1,.347-.2c.6-.032,1.578.912,1.868,1.245a.247.247,0,0,0,.169.089.253.253,0,0,0,.182-.056.25.25,0,0,0,.032-.351,3.206,3.206,0,0,1-.7-1.855.814.814,0,0,1,.119-.325.824.824,0,0,1,.243-.246c.489-.341.964.03,1.757.715a4.732,4.732,0,0,0,2.776,1.443c1.168.055,1.893-.166,2.27-.7a2.2,2.2,0,0,0-.013-2.109,2.82,2.82,0,0,1-.267-2.026.8.8,0,0,1,.534-.407,1.221,1.221,0,0,1,1.09.118,2.759,2.759,0,0,1,.859,2.044l.018.264c.085,1.266.2,3,1.6,3.153a.241.241,0,0,0,.1-.008.243.243,0,0,0,.086-.044.255.255,0,0,0,.062-.074.247.247,0,0,0,.029-.092c.025-.219.166-.876.471-1.024.045-.021.181-.086.468.094.511.318.475.738.373,1.4a2.282,2.282,0,0,0,.04,1.271,6.043,6.043,0,0,0,.534.916c.446.674.906,1.371.589,1.815a1.237,1.237,0,0,1-.851.607.906.906,0,0,1-.359-.064.916.916,0,0,1-.305-.2.253.253,0,0,0-.171-.077" transform="translate(-29.06 -1015.02)" fill="#431426"/>
        <path id="Path_302" data-name="Path 302" d="M142.29,1177.919a.259.259,0,0,0,.133-.038.248.248,0,0,0,.11-.156.249.249,0,0,0-.032-.188,1.52,1.52,0,0,0-.5-.415.249.249,0,0,0-.357.286.248.248,0,0,0,.114.149,1.116,1.116,0,0,1,.312.244.245.245,0,0,0,.093.089.25.25,0,0,0,.125.03" transform="translate(-64.736 -1112.808)" fill="#431426"/>
        <path id="Path_303" data-name="Path 303" d="M263.715,1303.271a11.394,11.394,0,0,0,1.236-.068.25.25,0,0,0,.168-.092.251.251,0,0,0-.039-.352.253.253,0,0,0-.184-.053,7.826,7.826,0,0,1-5.1-.906.243.243,0,0,0-.089-.046.25.25,0,0,0-.1-.008.261.261,0,0,0-.1.033.244.244,0,0,0-.074.068.248.248,0,0,0,0,.286.239.239,0,0,0,.073.07,7.454,7.454,0,0,0,4.2,1.069" transform="translate(-193.802 -1230.651)" fill="#431426"/>
        <path id="Path_304" data-name="Path 304" d="M273.339,1236.715a.25.25,0,0,0,.046-.5,10.675,10.675,0,0,1-5.28-2.323.242.242,0,0,0-.081-.055.248.248,0,0,0-.1-.019.253.253,0,0,0-.1.019.245.245,0,0,0-.08.055.251.251,0,0,0,0,.352,11.022,11.022,0,0,0,5.539,2.454.238.238,0,0,0,.046.015" transform="translate(-202.692 -1166.438)" fill="#431426"/>
        <path id="Path_305" data-name="Path 305" d="M261.785,1186.33a.247.247,0,0,0,.161-.06.249.249,0,0,0,.081-.247.247.247,0,0,0-.041-.088.245.245,0,0,0-.163-.1,6.86,6.86,0,0,1-4.455-2.524.249.249,0,0,0-.445.093.246.246,0,0,0,.032.183,7.22,7.22,0,0,0,4.792,2.738Z" transform="translate(-190.526 -1118.59)" fill="#431426"/>
      </g>
    </g>
  </g>
</svg>
